%TF.GenerationSoftware,KiCad,Pcbnew,4.0.7*%
%TF.CreationDate,2018-03-04T17:21:21-05:00*%
%TF.ProjectId,BusinessCard,427573696E657373436172642E6B6963,rev?*%
%TF.FileFunction,Copper,L3,Inr,Signal*%
%FSLAX46Y46*%
G04 Gerber Fmt 4.6, Leading zero omitted, Abs format (unit mm)*
G04 Created by KiCad (PCBNEW 4.0.7) date Sunday, March 04, 2018 'PMt' 05:21:21 PM*
%MOMM*%
%LPD*%
G01*
G04 APERTURE LIST*
%ADD10C,0.100000*%
%ADD11R,1.700000X1.700000*%
%ADD12O,1.700000X1.700000*%
%ADD13C,1.524000*%
%ADD14C,0.600000*%
%ADD15C,0.250000*%
%ADD16C,0.254000*%
G04 APERTURE END LIST*
D10*
D11*
X145288000Y-87503000D03*
D12*
X142748000Y-87503000D03*
D13*
X142824200Y-74909800D03*
X142824200Y-81909800D03*
D14*
X172364400Y-101981000D03*
X171043600Y-91313000D03*
X153289000Y-97282000D03*
X160401000Y-92964000D03*
X166878000Y-102997000D03*
X180594000Y-98425000D03*
X131165600Y-119888000D03*
X170180000Y-83566000D03*
X127127000Y-91821000D03*
X129159000Y-109601000D03*
X127889000Y-102489000D03*
X135382000Y-97409000D03*
X145034000Y-98806000D03*
X137541000Y-97409000D03*
X143764000Y-102235000D03*
X127889000Y-113157000D03*
X132969000Y-112649000D03*
X143764000Y-113284000D03*
X145034000Y-109474000D03*
X137541000Y-108204000D03*
X109855000Y-118999000D03*
X116967000Y-113157000D03*
X116967000Y-105156000D03*
X157861000Y-82423000D03*
X131775200Y-75742800D03*
X111709200Y-84836000D03*
X111099600Y-80111600D03*
X153289000Y-102362000D03*
X161417000Y-101092000D03*
X153974800Y-89560400D03*
X164719000Y-104267000D03*
X174244000Y-87630000D03*
X174752000Y-91059000D03*
X174244000Y-105664000D03*
X182118000Y-91440000D03*
X176403000Y-101981000D03*
X136448800Y-118211600D03*
X174498000Y-79629000D03*
X148082000Y-110109000D03*
X124587000Y-101854000D03*
X133858000Y-101854000D03*
X149987000Y-97790000D03*
X139065000Y-112649000D03*
X135382000Y-108585000D03*
X124587000Y-112649000D03*
X116967000Y-110744000D03*
X119126000Y-119761000D03*
X160020000Y-82448400D03*
X157861000Y-77165200D03*
X137337800Y-91389200D03*
X120904000Y-89662000D03*
X130352800Y-80467200D03*
X134975600Y-84912200D03*
X118313200Y-78714600D03*
X121945400Y-84480400D03*
X113030000Y-88442800D03*
X114401600Y-87376000D03*
X191795400Y-117398800D03*
X191795400Y-100812600D03*
X191795400Y-84201000D03*
X152527000Y-103759000D03*
X148844000Y-103759000D03*
X148717000Y-117348000D03*
X148717000Y-114554000D03*
X119126000Y-110744000D03*
X122936000Y-108204000D03*
X119761000Y-97409000D03*
X122936000Y-97409000D03*
X163017200Y-78943200D03*
X160782000Y-96393000D03*
X127889000Y-99695000D03*
X165100000Y-77978000D03*
X142494000Y-110871000D03*
X152273000Y-95123000D03*
X179349400Y-81280000D03*
X156972000Y-94234000D03*
X179349400Y-112141000D03*
X155321000Y-97536000D03*
X146304000Y-98806000D03*
X162687000Y-98806000D03*
X180721000Y-96774000D03*
X145034000Y-101854000D03*
X169799000Y-101219000D03*
X127889000Y-110109000D03*
X171323000Y-93091000D03*
D15*
X148844000Y-103759000D02*
X152527000Y-103759000D01*
X148717000Y-114554000D02*
X148717000Y-117348000D01*
X119126000Y-110363000D02*
X119126000Y-110744000D01*
X121285000Y-108204000D02*
X119126000Y-110363000D01*
X122936000Y-108204000D02*
X121285000Y-108204000D01*
X122936000Y-97409000D02*
X119761000Y-97409000D01*
X160782000Y-96393000D02*
X160807400Y-96393000D01*
X163017200Y-94183200D02*
X163017200Y-78943200D01*
X160807400Y-96393000D02*
X163017200Y-94183200D01*
X160782000Y-96393000D02*
X160782000Y-96367600D01*
X127889000Y-97028000D02*
X127889000Y-99695000D01*
X127889000Y-97028000D02*
X128524000Y-96393000D01*
X128524000Y-96393000D02*
X160782000Y-96393000D01*
X162687000Y-98806000D02*
X146304000Y-98806000D01*
X168402000Y-99822000D02*
X169799000Y-101219000D01*
X147066000Y-99822000D02*
X168402000Y-99822000D01*
X147066000Y-99822000D02*
X145034000Y-101854000D01*
X171323000Y-106426000D02*
X171323000Y-93091000D01*
X170561000Y-107188000D02*
X171323000Y-106426000D01*
X128778000Y-107188000D02*
X170561000Y-107188000D01*
X127889000Y-108077000D02*
X128778000Y-107188000D01*
X127889000Y-108077000D02*
X127889000Y-110109000D01*
D16*
G36*
X191979883Y-71934355D02*
X192810587Y-72489413D01*
X193365646Y-73320118D01*
X193569000Y-74342448D01*
X193569000Y-119057552D01*
X193365646Y-120079882D01*
X192810587Y-120910587D01*
X191979883Y-121465645D01*
X190957552Y-121669000D01*
X108142448Y-121669000D01*
X107120118Y-121465646D01*
X106289413Y-120910587D01*
X105734355Y-120079883D01*
X105723014Y-120022865D01*
X130484482Y-120022865D01*
X130587939Y-120273252D01*
X130779341Y-120464987D01*
X131029546Y-120568882D01*
X131300465Y-120569118D01*
X131550852Y-120465661D01*
X131742587Y-120274259D01*
X131846482Y-120024054D01*
X131846718Y-119753135D01*
X131743261Y-119502748D01*
X131551859Y-119311013D01*
X131301654Y-119207118D01*
X131030735Y-119206882D01*
X130780348Y-119310339D01*
X130588613Y-119501741D01*
X130484718Y-119751946D01*
X130484482Y-120022865D01*
X105723014Y-120022865D01*
X105546180Y-119133865D01*
X109173882Y-119133865D01*
X109277339Y-119384252D01*
X109468741Y-119575987D01*
X109718946Y-119679882D01*
X109989865Y-119680118D01*
X110240252Y-119576661D01*
X110431987Y-119385259D01*
X110535882Y-119135054D01*
X110536118Y-118864135D01*
X110432661Y-118613748D01*
X110241259Y-118422013D01*
X109991054Y-118318118D01*
X109720135Y-118317882D01*
X109469748Y-118421339D01*
X109278013Y-118612741D01*
X109174118Y-118862946D01*
X109173882Y-119133865D01*
X105546180Y-119133865D01*
X105531000Y-119057552D01*
X105531000Y-114688865D01*
X148035882Y-114688865D01*
X148139339Y-114939252D01*
X148211000Y-115011038D01*
X148211000Y-116890877D01*
X148140013Y-116961741D01*
X148036118Y-117211946D01*
X148035882Y-117482865D01*
X148139339Y-117733252D01*
X148330741Y-117924987D01*
X148580946Y-118028882D01*
X148851865Y-118029118D01*
X149102252Y-117925661D01*
X149293987Y-117734259D01*
X149397882Y-117484054D01*
X149398118Y-117213135D01*
X149294661Y-116962748D01*
X149223000Y-116890962D01*
X149223000Y-115011123D01*
X149293987Y-114940259D01*
X149397882Y-114690054D01*
X149398118Y-114419135D01*
X149294661Y-114168748D01*
X149103259Y-113977013D01*
X148853054Y-113873118D01*
X148582135Y-113872882D01*
X148331748Y-113976339D01*
X148140013Y-114167741D01*
X148036118Y-114417946D01*
X148035882Y-114688865D01*
X105531000Y-114688865D01*
X105531000Y-113291865D01*
X116285882Y-113291865D01*
X116389339Y-113542252D01*
X116580741Y-113733987D01*
X116830946Y-113837882D01*
X117101865Y-113838118D01*
X117352252Y-113734661D01*
X117543987Y-113543259D01*
X117647882Y-113293054D01*
X117647883Y-113291865D01*
X127207882Y-113291865D01*
X127311339Y-113542252D01*
X127502741Y-113733987D01*
X127752946Y-113837882D01*
X128023865Y-113838118D01*
X128274252Y-113734661D01*
X128465987Y-113543259D01*
X128517640Y-113418865D01*
X143082882Y-113418865D01*
X143186339Y-113669252D01*
X143377741Y-113860987D01*
X143627946Y-113964882D01*
X143898865Y-113965118D01*
X144149252Y-113861661D01*
X144340987Y-113670259D01*
X144444882Y-113420054D01*
X144445118Y-113149135D01*
X144341661Y-112898748D01*
X144150259Y-112707013D01*
X143900054Y-112603118D01*
X143629135Y-112602882D01*
X143378748Y-112706339D01*
X143187013Y-112897741D01*
X143083118Y-113147946D01*
X143082882Y-113418865D01*
X128517640Y-113418865D01*
X128569882Y-113293054D01*
X128570118Y-113022135D01*
X128471668Y-112783865D01*
X132287882Y-112783865D01*
X132391339Y-113034252D01*
X132582741Y-113225987D01*
X132832946Y-113329882D01*
X133103865Y-113330118D01*
X133354252Y-113226661D01*
X133545987Y-113035259D01*
X133649882Y-112785054D01*
X133650118Y-112514135D01*
X133551668Y-112275865D01*
X178668282Y-112275865D01*
X178771739Y-112526252D01*
X178963141Y-112717987D01*
X179213346Y-112821882D01*
X179484265Y-112822118D01*
X179734652Y-112718661D01*
X179926387Y-112527259D01*
X180030282Y-112277054D01*
X180030518Y-112006135D01*
X179927061Y-111755748D01*
X179735659Y-111564013D01*
X179485454Y-111460118D01*
X179214535Y-111459882D01*
X178964148Y-111563339D01*
X178772413Y-111754741D01*
X178668518Y-112004946D01*
X178668282Y-112275865D01*
X133551668Y-112275865D01*
X133546661Y-112263748D01*
X133355259Y-112072013D01*
X133105054Y-111968118D01*
X132834135Y-111967882D01*
X132583748Y-112071339D01*
X132392013Y-112262741D01*
X132288118Y-112512946D01*
X132287882Y-112783865D01*
X128471668Y-112783865D01*
X128466661Y-112771748D01*
X128275259Y-112580013D01*
X128025054Y-112476118D01*
X127754135Y-112475882D01*
X127503748Y-112579339D01*
X127312013Y-112770741D01*
X127208118Y-113020946D01*
X127207882Y-113291865D01*
X117647883Y-113291865D01*
X117648118Y-113022135D01*
X117544661Y-112771748D01*
X117353259Y-112580013D01*
X117103054Y-112476118D01*
X116832135Y-112475882D01*
X116581748Y-112579339D01*
X116390013Y-112770741D01*
X116286118Y-113020946D01*
X116285882Y-113291865D01*
X105531000Y-113291865D01*
X105531000Y-110878865D01*
X118444882Y-110878865D01*
X118548339Y-111129252D01*
X118739741Y-111320987D01*
X118989946Y-111424882D01*
X119260865Y-111425118D01*
X119511252Y-111321661D01*
X119702987Y-111130259D01*
X119754640Y-111005865D01*
X141812882Y-111005865D01*
X141916339Y-111256252D01*
X142107741Y-111447987D01*
X142357946Y-111551882D01*
X142628865Y-111552118D01*
X142879252Y-111448661D01*
X143070987Y-111257259D01*
X143174882Y-111007054D01*
X143175118Y-110736135D01*
X143071661Y-110485748D01*
X142880259Y-110294013D01*
X142630054Y-110190118D01*
X142359135Y-110189882D01*
X142108748Y-110293339D01*
X141917013Y-110484741D01*
X141813118Y-110734946D01*
X141812882Y-111005865D01*
X119754640Y-111005865D01*
X119806882Y-110880054D01*
X119807118Y-110609135D01*
X119745233Y-110459359D01*
X119960727Y-110243865D01*
X127207882Y-110243865D01*
X127311339Y-110494252D01*
X127502741Y-110685987D01*
X127752946Y-110789882D01*
X128023865Y-110790118D01*
X128274252Y-110686661D01*
X128465987Y-110495259D01*
X128569882Y-110245054D01*
X128570118Y-109974135D01*
X128471668Y-109735865D01*
X128477882Y-109735865D01*
X128581339Y-109986252D01*
X128772741Y-110177987D01*
X129022946Y-110281882D01*
X129293865Y-110282118D01*
X129544252Y-110178661D01*
X129735987Y-109987259D01*
X129839882Y-109737054D01*
X129839993Y-109608865D01*
X144352882Y-109608865D01*
X144456339Y-109859252D01*
X144647741Y-110050987D01*
X144897946Y-110154882D01*
X145168865Y-110155118D01*
X145419252Y-110051661D01*
X145610987Y-109860259D01*
X145714882Y-109610054D01*
X145715118Y-109339135D01*
X145611661Y-109088748D01*
X145420259Y-108897013D01*
X145170054Y-108793118D01*
X144899135Y-108792882D01*
X144648748Y-108896339D01*
X144457013Y-109087741D01*
X144353118Y-109337946D01*
X144352882Y-109608865D01*
X129839993Y-109608865D01*
X129840118Y-109466135D01*
X129736661Y-109215748D01*
X129545259Y-109024013D01*
X129295054Y-108920118D01*
X129024135Y-108919882D01*
X128773748Y-109023339D01*
X128582013Y-109214741D01*
X128478118Y-109464946D01*
X128477882Y-109735865D01*
X128471668Y-109735865D01*
X128466661Y-109723748D01*
X128395000Y-109651962D01*
X128395000Y-108286592D01*
X128987592Y-107694000D01*
X137087969Y-107694000D01*
X136964013Y-107817741D01*
X136860118Y-108067946D01*
X136859882Y-108338865D01*
X136963339Y-108589252D01*
X137154741Y-108780987D01*
X137404946Y-108884882D01*
X137675865Y-108885118D01*
X137926252Y-108781661D01*
X138117987Y-108590259D01*
X138221882Y-108340054D01*
X138222118Y-108069135D01*
X138118661Y-107818748D01*
X137994130Y-107694000D01*
X170561000Y-107694000D01*
X170754638Y-107655483D01*
X170918796Y-107545796D01*
X171680796Y-106783796D01*
X171790483Y-106619638D01*
X171829000Y-106426000D01*
X171829000Y-102408587D01*
X171978141Y-102557987D01*
X172228346Y-102661882D01*
X172499265Y-102662118D01*
X172749652Y-102558661D01*
X172941387Y-102367259D01*
X173045282Y-102117054D01*
X173045518Y-101846135D01*
X172942061Y-101595748D01*
X172750659Y-101404013D01*
X172500454Y-101300118D01*
X172229535Y-101299882D01*
X171979148Y-101403339D01*
X171829000Y-101553226D01*
X171829000Y-98559865D01*
X179912882Y-98559865D01*
X180016339Y-98810252D01*
X180207741Y-99001987D01*
X180457946Y-99105882D01*
X180728865Y-99106118D01*
X180979252Y-99002661D01*
X181170987Y-98811259D01*
X181274882Y-98561054D01*
X181275118Y-98290135D01*
X181171661Y-98039748D01*
X180980259Y-97848013D01*
X180730054Y-97744118D01*
X180459135Y-97743882D01*
X180208748Y-97847339D01*
X180017013Y-98038741D01*
X179913118Y-98288946D01*
X179912882Y-98559865D01*
X171829000Y-98559865D01*
X171829000Y-96908865D01*
X180039882Y-96908865D01*
X180143339Y-97159252D01*
X180334741Y-97350987D01*
X180584946Y-97454882D01*
X180855865Y-97455118D01*
X181106252Y-97351661D01*
X181297987Y-97160259D01*
X181401882Y-96910054D01*
X181402118Y-96639135D01*
X181298661Y-96388748D01*
X181107259Y-96197013D01*
X180857054Y-96093118D01*
X180586135Y-96092882D01*
X180335748Y-96196339D01*
X180144013Y-96387741D01*
X180040118Y-96637946D01*
X180039882Y-96908865D01*
X171829000Y-96908865D01*
X171829000Y-93548123D01*
X171899987Y-93477259D01*
X172003882Y-93227054D01*
X172004118Y-92956135D01*
X171900661Y-92705748D01*
X171709259Y-92514013D01*
X171459054Y-92410118D01*
X171188135Y-92409882D01*
X170937748Y-92513339D01*
X170746013Y-92704741D01*
X170642118Y-92954946D01*
X170641882Y-93225865D01*
X170745339Y-93476252D01*
X170817000Y-93548038D01*
X170817000Y-106216408D01*
X170351408Y-106682000D01*
X128778000Y-106682000D01*
X128584362Y-106720517D01*
X128420204Y-106830204D01*
X127531204Y-107719204D01*
X127421517Y-107883362D01*
X127383000Y-108077000D01*
X127383000Y-109651877D01*
X127312013Y-109722741D01*
X127208118Y-109972946D01*
X127207882Y-110243865D01*
X119960727Y-110243865D01*
X121494592Y-108710000D01*
X122478877Y-108710000D01*
X122549741Y-108780987D01*
X122799946Y-108884882D01*
X123070865Y-108885118D01*
X123321252Y-108781661D01*
X123512987Y-108590259D01*
X123616882Y-108340054D01*
X123617118Y-108069135D01*
X123513661Y-107818748D01*
X123322259Y-107627013D01*
X123072054Y-107523118D01*
X122801135Y-107522882D01*
X122550748Y-107626339D01*
X122478962Y-107698000D01*
X121285000Y-107698000D01*
X121091362Y-107736517D01*
X120927204Y-107846204D01*
X118768204Y-110005204D01*
X118658517Y-110169362D01*
X118638893Y-110268017D01*
X118549013Y-110357741D01*
X118445118Y-110607946D01*
X118444882Y-110878865D01*
X105531000Y-110878865D01*
X105531000Y-105290865D01*
X116285882Y-105290865D01*
X116389339Y-105541252D01*
X116580741Y-105732987D01*
X116830946Y-105836882D01*
X117101865Y-105837118D01*
X117352252Y-105733661D01*
X117543987Y-105542259D01*
X117647882Y-105292054D01*
X117648118Y-105021135D01*
X117544661Y-104770748D01*
X117353259Y-104579013D01*
X117103054Y-104475118D01*
X116832135Y-104474882D01*
X116581748Y-104578339D01*
X116390013Y-104769741D01*
X116286118Y-105019946D01*
X116285882Y-105290865D01*
X105531000Y-105290865D01*
X105531000Y-103893865D01*
X148162882Y-103893865D01*
X148266339Y-104144252D01*
X148457741Y-104335987D01*
X148707946Y-104439882D01*
X148978865Y-104440118D01*
X149229252Y-104336661D01*
X149301038Y-104265000D01*
X152069877Y-104265000D01*
X152140741Y-104335987D01*
X152390946Y-104439882D01*
X152661865Y-104440118D01*
X152912252Y-104336661D01*
X153103987Y-104145259D01*
X153207882Y-103895054D01*
X153208118Y-103624135D01*
X153104661Y-103373748D01*
X152913259Y-103182013D01*
X152792491Y-103131865D01*
X166196882Y-103131865D01*
X166300339Y-103382252D01*
X166491741Y-103573987D01*
X166741946Y-103677882D01*
X167012865Y-103678118D01*
X167263252Y-103574661D01*
X167454987Y-103383259D01*
X167558882Y-103133054D01*
X167559118Y-102862135D01*
X167455661Y-102611748D01*
X167264259Y-102420013D01*
X167014054Y-102316118D01*
X166743135Y-102315882D01*
X166492748Y-102419339D01*
X166301013Y-102610741D01*
X166197118Y-102860946D01*
X166196882Y-103131865D01*
X152792491Y-103131865D01*
X152663054Y-103078118D01*
X152392135Y-103077882D01*
X152141748Y-103181339D01*
X152069962Y-103253000D01*
X149301123Y-103253000D01*
X149230259Y-103182013D01*
X148980054Y-103078118D01*
X148709135Y-103077882D01*
X148458748Y-103181339D01*
X148267013Y-103372741D01*
X148163118Y-103622946D01*
X148162882Y-103893865D01*
X105531000Y-103893865D01*
X105531000Y-102623865D01*
X127207882Y-102623865D01*
X127311339Y-102874252D01*
X127502741Y-103065987D01*
X127752946Y-103169882D01*
X128023865Y-103170118D01*
X128274252Y-103066661D01*
X128465987Y-102875259D01*
X128569882Y-102625054D01*
X128570104Y-102369865D01*
X143082882Y-102369865D01*
X143186339Y-102620252D01*
X143377741Y-102811987D01*
X143627946Y-102915882D01*
X143898865Y-102916118D01*
X144149252Y-102812661D01*
X144340987Y-102621259D01*
X144444882Y-102371054D01*
X144445021Y-102211859D01*
X144456339Y-102239252D01*
X144647741Y-102430987D01*
X144897946Y-102534882D01*
X145168865Y-102535118D01*
X145419252Y-102431661D01*
X145610987Y-102240259D01*
X145714882Y-101990054D01*
X145714970Y-101888622D01*
X147275592Y-100328000D01*
X168192408Y-100328000D01*
X169117969Y-101253561D01*
X169117882Y-101353865D01*
X169221339Y-101604252D01*
X169412741Y-101795987D01*
X169662946Y-101899882D01*
X169933865Y-101900118D01*
X170184252Y-101796661D01*
X170375987Y-101605259D01*
X170479882Y-101355054D01*
X170480118Y-101084135D01*
X170376661Y-100833748D01*
X170185259Y-100642013D01*
X169935054Y-100538118D01*
X169833622Y-100538030D01*
X168759796Y-99464204D01*
X168595638Y-99354517D01*
X168402000Y-99316000D01*
X163140031Y-99316000D01*
X163263987Y-99192259D01*
X163367882Y-98942054D01*
X163368118Y-98671135D01*
X163264661Y-98420748D01*
X163073259Y-98229013D01*
X162823054Y-98125118D01*
X162552135Y-98124882D01*
X162301748Y-98228339D01*
X162229962Y-98300000D01*
X146761123Y-98300000D01*
X146690259Y-98229013D01*
X146440054Y-98125118D01*
X146169135Y-98124882D01*
X145918748Y-98228339D01*
X145727013Y-98419741D01*
X145668986Y-98559485D01*
X145611661Y-98420748D01*
X145420259Y-98229013D01*
X145170054Y-98125118D01*
X144899135Y-98124882D01*
X144648748Y-98228339D01*
X144457013Y-98419741D01*
X144353118Y-98669946D01*
X144352882Y-98940865D01*
X144456339Y-99191252D01*
X144647741Y-99382987D01*
X144897946Y-99486882D01*
X145168865Y-99487118D01*
X145419252Y-99383661D01*
X145610987Y-99192259D01*
X145669014Y-99052515D01*
X145726339Y-99191252D01*
X145917741Y-99382987D01*
X146167946Y-99486882D01*
X146438865Y-99487118D01*
X146689252Y-99383661D01*
X146761038Y-99312000D01*
X162229877Y-99312000D01*
X162233870Y-99316000D01*
X147066000Y-99316000D01*
X146872362Y-99354517D01*
X146708204Y-99464204D01*
X144999439Y-101172969D01*
X144899135Y-101172882D01*
X144648748Y-101276339D01*
X144457013Y-101467741D01*
X144353118Y-101717946D01*
X144352979Y-101877141D01*
X144341661Y-101849748D01*
X144150259Y-101658013D01*
X143900054Y-101554118D01*
X143629135Y-101553882D01*
X143378748Y-101657339D01*
X143187013Y-101848741D01*
X143083118Y-102098946D01*
X143082882Y-102369865D01*
X128570104Y-102369865D01*
X128570118Y-102354135D01*
X128466661Y-102103748D01*
X128275259Y-101912013D01*
X128025054Y-101808118D01*
X127754135Y-101807882D01*
X127503748Y-101911339D01*
X127312013Y-102102741D01*
X127208118Y-102352946D01*
X127207882Y-102623865D01*
X105531000Y-102623865D01*
X105531000Y-99829865D01*
X127207882Y-99829865D01*
X127311339Y-100080252D01*
X127502741Y-100271987D01*
X127752946Y-100375882D01*
X128023865Y-100376118D01*
X128274252Y-100272661D01*
X128465987Y-100081259D01*
X128569882Y-99831054D01*
X128570118Y-99560135D01*
X128466661Y-99309748D01*
X128395000Y-99237962D01*
X128395000Y-97237592D01*
X128733592Y-96899000D01*
X134928969Y-96899000D01*
X134805013Y-97022741D01*
X134701118Y-97272946D01*
X134700882Y-97543865D01*
X134804339Y-97794252D01*
X134995741Y-97985987D01*
X135245946Y-98089882D01*
X135516865Y-98090118D01*
X135767252Y-97986661D01*
X135958987Y-97795259D01*
X136062882Y-97545054D01*
X136063118Y-97274135D01*
X135959661Y-97023748D01*
X135835130Y-96899000D01*
X137087969Y-96899000D01*
X136964013Y-97022741D01*
X136860118Y-97272946D01*
X136859882Y-97543865D01*
X136963339Y-97794252D01*
X137154741Y-97985987D01*
X137404946Y-98089882D01*
X137675865Y-98090118D01*
X137926252Y-97986661D01*
X138117987Y-97795259D01*
X138221882Y-97545054D01*
X138222118Y-97274135D01*
X138118661Y-97023748D01*
X137994130Y-96899000D01*
X152710660Y-96899000D01*
X152608118Y-97145946D01*
X152607882Y-97416865D01*
X152711339Y-97667252D01*
X152902741Y-97858987D01*
X153152946Y-97962882D01*
X153423865Y-97963118D01*
X153674252Y-97859661D01*
X153865987Y-97668259D01*
X153969882Y-97418054D01*
X153970118Y-97147135D01*
X153867592Y-96899000D01*
X155079360Y-96899000D01*
X154935748Y-96958339D01*
X154744013Y-97149741D01*
X154640118Y-97399946D01*
X154639882Y-97670865D01*
X154743339Y-97921252D01*
X154934741Y-98112987D01*
X155184946Y-98216882D01*
X155455865Y-98217118D01*
X155706252Y-98113661D01*
X155897987Y-97922259D01*
X156001882Y-97672054D01*
X156002118Y-97401135D01*
X155898661Y-97150748D01*
X155707259Y-96959013D01*
X155562733Y-96899000D01*
X160324877Y-96899000D01*
X160395741Y-96969987D01*
X160645946Y-97073882D01*
X160916865Y-97074118D01*
X161167252Y-96970661D01*
X161358987Y-96779259D01*
X161462882Y-96529054D01*
X161462948Y-96453044D01*
X163374996Y-94540996D01*
X163484683Y-94376838D01*
X163523200Y-94183200D01*
X163523200Y-91447865D01*
X170362482Y-91447865D01*
X170465939Y-91698252D01*
X170657341Y-91889987D01*
X170907546Y-91993882D01*
X171178465Y-91994118D01*
X171428852Y-91890661D01*
X171620587Y-91699259D01*
X171724482Y-91449054D01*
X171724718Y-91178135D01*
X171621261Y-90927748D01*
X171429859Y-90736013D01*
X171179654Y-90632118D01*
X170908735Y-90631882D01*
X170658348Y-90735339D01*
X170466613Y-90926741D01*
X170362718Y-91176946D01*
X170362482Y-91447865D01*
X163523200Y-91447865D01*
X163523200Y-83700865D01*
X169498882Y-83700865D01*
X169602339Y-83951252D01*
X169793741Y-84142987D01*
X170043946Y-84246882D01*
X170314865Y-84247118D01*
X170565252Y-84143661D01*
X170756987Y-83952259D01*
X170860882Y-83702054D01*
X170861118Y-83431135D01*
X170757661Y-83180748D01*
X170566259Y-82989013D01*
X170316054Y-82885118D01*
X170045135Y-82884882D01*
X169794748Y-82988339D01*
X169603013Y-83179741D01*
X169499118Y-83429946D01*
X169498882Y-83700865D01*
X163523200Y-83700865D01*
X163523200Y-81414865D01*
X178668282Y-81414865D01*
X178771739Y-81665252D01*
X178963141Y-81856987D01*
X179213346Y-81960882D01*
X179484265Y-81961118D01*
X179734652Y-81857661D01*
X179926387Y-81666259D01*
X180030282Y-81416054D01*
X180030518Y-81145135D01*
X179927061Y-80894748D01*
X179735659Y-80703013D01*
X179485454Y-80599118D01*
X179214535Y-80598882D01*
X178964148Y-80702339D01*
X178772413Y-80893741D01*
X178668518Y-81143946D01*
X178668282Y-81414865D01*
X163523200Y-81414865D01*
X163523200Y-79400323D01*
X163594187Y-79329459D01*
X163698082Y-79079254D01*
X163698318Y-78808335D01*
X163594861Y-78557948D01*
X163403459Y-78366213D01*
X163153254Y-78262318D01*
X162882335Y-78262082D01*
X162631948Y-78365539D01*
X162440213Y-78556941D01*
X162336318Y-78807146D01*
X162336082Y-79078065D01*
X162439539Y-79328452D01*
X162511200Y-79400238D01*
X162511200Y-93973608D01*
X160772817Y-95711991D01*
X160647135Y-95711882D01*
X160396748Y-95815339D01*
X160324962Y-95887000D01*
X128524000Y-95887000D01*
X128330362Y-95925517D01*
X128208802Y-96006741D01*
X128166204Y-96035204D01*
X127531204Y-96670204D01*
X127421517Y-96834362D01*
X127383000Y-97028000D01*
X127383000Y-99237877D01*
X127312013Y-99308741D01*
X127208118Y-99558946D01*
X127207882Y-99829865D01*
X105531000Y-99829865D01*
X105531000Y-99064128D01*
X109870176Y-99064128D01*
X109996358Y-99369511D01*
X110229800Y-99603361D01*
X110534963Y-99730075D01*
X110865388Y-99730364D01*
X111170771Y-99604182D01*
X111404621Y-99370740D01*
X111531335Y-99065577D01*
X111531624Y-98735152D01*
X111405442Y-98429769D01*
X111172000Y-98195919D01*
X110866837Y-98069205D01*
X110536412Y-98068916D01*
X110231029Y-98195098D01*
X109997179Y-98428540D01*
X109870465Y-98733703D01*
X109870176Y-99064128D01*
X105531000Y-99064128D01*
X105531000Y-97543865D01*
X119079882Y-97543865D01*
X119183339Y-97794252D01*
X119374741Y-97985987D01*
X119624946Y-98089882D01*
X119895865Y-98090118D01*
X120146252Y-97986661D01*
X120218038Y-97915000D01*
X122478877Y-97915000D01*
X122549741Y-97985987D01*
X122799946Y-98089882D01*
X123070865Y-98090118D01*
X123321252Y-97986661D01*
X123512987Y-97795259D01*
X123616882Y-97545054D01*
X123617118Y-97274135D01*
X123513661Y-97023748D01*
X123322259Y-96832013D01*
X123072054Y-96728118D01*
X122801135Y-96727882D01*
X122550748Y-96831339D01*
X122478962Y-96903000D01*
X120218123Y-96903000D01*
X120147259Y-96832013D01*
X119897054Y-96728118D01*
X119626135Y-96727882D01*
X119375748Y-96831339D01*
X119184013Y-97022741D01*
X119080118Y-97272946D01*
X119079882Y-97543865D01*
X105531000Y-97543865D01*
X105531000Y-94664848D01*
X109870176Y-94664848D01*
X109996358Y-94970231D01*
X110229800Y-95204081D01*
X110534963Y-95330795D01*
X110865388Y-95331084D01*
X111042591Y-95257865D01*
X151591882Y-95257865D01*
X151695339Y-95508252D01*
X151886741Y-95699987D01*
X152136946Y-95803882D01*
X152407865Y-95804118D01*
X152658252Y-95700661D01*
X152849987Y-95509259D01*
X152953882Y-95259054D01*
X152954118Y-94988135D01*
X152850661Y-94737748D01*
X152659259Y-94546013D01*
X152409054Y-94442118D01*
X152138135Y-94441882D01*
X151887748Y-94545339D01*
X151696013Y-94736741D01*
X151592118Y-94986946D01*
X151591882Y-95257865D01*
X111042591Y-95257865D01*
X111170771Y-95204902D01*
X111404621Y-94971460D01*
X111531335Y-94666297D01*
X111531595Y-94368865D01*
X156290882Y-94368865D01*
X156394339Y-94619252D01*
X156585741Y-94810987D01*
X156835946Y-94914882D01*
X157106865Y-94915118D01*
X157357252Y-94811661D01*
X157548987Y-94620259D01*
X157652882Y-94370054D01*
X157653118Y-94099135D01*
X157549661Y-93848748D01*
X157358259Y-93657013D01*
X157108054Y-93553118D01*
X156837135Y-93552882D01*
X156586748Y-93656339D01*
X156395013Y-93847741D01*
X156291118Y-94097946D01*
X156290882Y-94368865D01*
X111531595Y-94368865D01*
X111531624Y-94335872D01*
X111405442Y-94030489D01*
X111172000Y-93796639D01*
X110866837Y-93669925D01*
X110536412Y-93669636D01*
X110231029Y-93795818D01*
X109997179Y-94029260D01*
X109870465Y-94334423D01*
X109870176Y-94664848D01*
X105531000Y-94664848D01*
X105531000Y-93098865D01*
X159719882Y-93098865D01*
X159823339Y-93349252D01*
X160014741Y-93540987D01*
X160264946Y-93644882D01*
X160535865Y-93645118D01*
X160786252Y-93541661D01*
X160977987Y-93350259D01*
X161081882Y-93100054D01*
X161082118Y-92829135D01*
X160978661Y-92578748D01*
X160787259Y-92387013D01*
X160537054Y-92283118D01*
X160266135Y-92282882D01*
X160015748Y-92386339D01*
X159824013Y-92577741D01*
X159720118Y-92827946D01*
X159719882Y-93098865D01*
X105531000Y-93098865D01*
X105531000Y-91955865D01*
X126445882Y-91955865D01*
X126549339Y-92206252D01*
X126740741Y-92397987D01*
X126990946Y-92501882D01*
X127261865Y-92502118D01*
X127512252Y-92398661D01*
X127703987Y-92207259D01*
X127807882Y-91957054D01*
X127808118Y-91686135D01*
X127704661Y-91435748D01*
X127513259Y-91244013D01*
X127263054Y-91140118D01*
X126992135Y-91139882D01*
X126741748Y-91243339D01*
X126550013Y-91434741D01*
X126446118Y-91684946D01*
X126445882Y-91955865D01*
X105531000Y-91955865D01*
X105531000Y-87478883D01*
X141517000Y-87478883D01*
X141517000Y-87527117D01*
X141610704Y-87998200D01*
X141877552Y-88397565D01*
X142276917Y-88664413D01*
X142748000Y-88758117D01*
X143219083Y-88664413D01*
X143618448Y-88397565D01*
X143885296Y-87998200D01*
X143979000Y-87527117D01*
X143979000Y-87478883D01*
X143885296Y-87007800D01*
X143648226Y-86653000D01*
X144049536Y-86653000D01*
X144049536Y-88353000D01*
X144076103Y-88494190D01*
X144159546Y-88623865D01*
X144286866Y-88710859D01*
X144438000Y-88741464D01*
X146138000Y-88741464D01*
X146279190Y-88714897D01*
X146408865Y-88631454D01*
X146495859Y-88504134D01*
X146526464Y-88353000D01*
X146526464Y-86653000D01*
X146499897Y-86511810D01*
X146416454Y-86382135D01*
X146289134Y-86295141D01*
X146138000Y-86264536D01*
X144438000Y-86264536D01*
X144296810Y-86291103D01*
X144167135Y-86374546D01*
X144080141Y-86501866D01*
X144049536Y-86653000D01*
X143648226Y-86653000D01*
X143618448Y-86608435D01*
X143219083Y-86341587D01*
X142748000Y-86247883D01*
X142276917Y-86341587D01*
X141877552Y-86608435D01*
X141610704Y-87007800D01*
X141517000Y-87478883D01*
X105531000Y-87478883D01*
X105531000Y-84970865D01*
X111028082Y-84970865D01*
X111131539Y-85221252D01*
X111322941Y-85412987D01*
X111573146Y-85516882D01*
X111844065Y-85517118D01*
X112094452Y-85413661D01*
X112286187Y-85222259D01*
X112390082Y-84972054D01*
X112390318Y-84701135D01*
X112286861Y-84450748D01*
X112095459Y-84259013D01*
X111845254Y-84155118D01*
X111574335Y-84154882D01*
X111323948Y-84258339D01*
X111132213Y-84449741D01*
X111028318Y-84699946D01*
X111028082Y-84970865D01*
X105531000Y-84970865D01*
X105531000Y-82136159D01*
X141681002Y-82136159D01*
X141854646Y-82556412D01*
X142175897Y-82878223D01*
X142595846Y-83052601D01*
X143050559Y-83052998D01*
X143470812Y-82879354D01*
X143792623Y-82558103D01*
X143792721Y-82557865D01*
X157179882Y-82557865D01*
X157283339Y-82808252D01*
X157474741Y-82999987D01*
X157724946Y-83103882D01*
X157995865Y-83104118D01*
X158246252Y-83000661D01*
X158437987Y-82809259D01*
X158541882Y-82559054D01*
X158542118Y-82288135D01*
X158438661Y-82037748D01*
X158247259Y-81846013D01*
X157997054Y-81742118D01*
X157726135Y-81741882D01*
X157475748Y-81845339D01*
X157284013Y-82036741D01*
X157180118Y-82286946D01*
X157179882Y-82557865D01*
X143792721Y-82557865D01*
X143967001Y-82138154D01*
X143967398Y-81683441D01*
X143793754Y-81263188D01*
X143472503Y-80941377D01*
X143052554Y-80766999D01*
X142597841Y-80766602D01*
X142177588Y-80940246D01*
X141855777Y-81261497D01*
X141681399Y-81681446D01*
X141681002Y-82136159D01*
X105531000Y-82136159D01*
X105531000Y-80246465D01*
X110418482Y-80246465D01*
X110521939Y-80496852D01*
X110713341Y-80688587D01*
X110963546Y-80792482D01*
X111234465Y-80792718D01*
X111484852Y-80689261D01*
X111676587Y-80497859D01*
X111780482Y-80247654D01*
X111780718Y-79976735D01*
X111677261Y-79726348D01*
X111485859Y-79534613D01*
X111235654Y-79430718D01*
X110964735Y-79430482D01*
X110714348Y-79533939D01*
X110522613Y-79725341D01*
X110418718Y-79975546D01*
X110418482Y-80246465D01*
X105531000Y-80246465D01*
X105531000Y-78112865D01*
X164418882Y-78112865D01*
X164522339Y-78363252D01*
X164713741Y-78554987D01*
X164963946Y-78658882D01*
X165234865Y-78659118D01*
X165485252Y-78555661D01*
X165676987Y-78364259D01*
X165780882Y-78114054D01*
X165781118Y-77843135D01*
X165677661Y-77592748D01*
X165486259Y-77401013D01*
X165236054Y-77297118D01*
X164965135Y-77296882D01*
X164714748Y-77400339D01*
X164523013Y-77591741D01*
X164419118Y-77841946D01*
X164418882Y-78112865D01*
X105531000Y-78112865D01*
X105531000Y-75877665D01*
X131094082Y-75877665D01*
X131197539Y-76128052D01*
X131388941Y-76319787D01*
X131639146Y-76423682D01*
X131910065Y-76423918D01*
X132160452Y-76320461D01*
X132352187Y-76129059D01*
X132451448Y-75890013D01*
X142023592Y-75890013D01*
X142093057Y-76132197D01*
X142616502Y-76318944D01*
X143171568Y-76291162D01*
X143555343Y-76132197D01*
X143624808Y-75890013D01*
X142824200Y-75089405D01*
X142023592Y-75890013D01*
X132451448Y-75890013D01*
X132456082Y-75878854D01*
X132456318Y-75607935D01*
X132352861Y-75357548D01*
X132161459Y-75165813D01*
X131911254Y-75061918D01*
X131640335Y-75061682D01*
X131389948Y-75165139D01*
X131198213Y-75356541D01*
X131094318Y-75606746D01*
X131094082Y-75877665D01*
X105531000Y-75877665D01*
X105531000Y-74702102D01*
X141415056Y-74702102D01*
X141442838Y-75257168D01*
X141601803Y-75640943D01*
X141843987Y-75710408D01*
X142644595Y-74909800D01*
X143003805Y-74909800D01*
X143804413Y-75710408D01*
X144046597Y-75640943D01*
X144233344Y-75117498D01*
X144205562Y-74562432D01*
X144046597Y-74178657D01*
X143804413Y-74109192D01*
X143003805Y-74909800D01*
X142644595Y-74909800D01*
X141843987Y-74109192D01*
X141601803Y-74178657D01*
X141415056Y-74702102D01*
X105531000Y-74702102D01*
X105531000Y-74342448D01*
X105613123Y-73929587D01*
X142023592Y-73929587D01*
X142824200Y-74730195D01*
X143624808Y-73929587D01*
X143555343Y-73687403D01*
X143031898Y-73500656D01*
X142476832Y-73528438D01*
X142093057Y-73687403D01*
X142023592Y-73929587D01*
X105613123Y-73929587D01*
X105734355Y-73320117D01*
X106289413Y-72489413D01*
X107120118Y-71934354D01*
X108142448Y-71731000D01*
X190957552Y-71731000D01*
X191979883Y-71934355D01*
X191979883Y-71934355D01*
G37*
X191979883Y-71934355D02*
X192810587Y-72489413D01*
X193365646Y-73320118D01*
X193569000Y-74342448D01*
X193569000Y-119057552D01*
X193365646Y-120079882D01*
X192810587Y-120910587D01*
X191979883Y-121465645D01*
X190957552Y-121669000D01*
X108142448Y-121669000D01*
X107120118Y-121465646D01*
X106289413Y-120910587D01*
X105734355Y-120079883D01*
X105723014Y-120022865D01*
X130484482Y-120022865D01*
X130587939Y-120273252D01*
X130779341Y-120464987D01*
X131029546Y-120568882D01*
X131300465Y-120569118D01*
X131550852Y-120465661D01*
X131742587Y-120274259D01*
X131846482Y-120024054D01*
X131846718Y-119753135D01*
X131743261Y-119502748D01*
X131551859Y-119311013D01*
X131301654Y-119207118D01*
X131030735Y-119206882D01*
X130780348Y-119310339D01*
X130588613Y-119501741D01*
X130484718Y-119751946D01*
X130484482Y-120022865D01*
X105723014Y-120022865D01*
X105546180Y-119133865D01*
X109173882Y-119133865D01*
X109277339Y-119384252D01*
X109468741Y-119575987D01*
X109718946Y-119679882D01*
X109989865Y-119680118D01*
X110240252Y-119576661D01*
X110431987Y-119385259D01*
X110535882Y-119135054D01*
X110536118Y-118864135D01*
X110432661Y-118613748D01*
X110241259Y-118422013D01*
X109991054Y-118318118D01*
X109720135Y-118317882D01*
X109469748Y-118421339D01*
X109278013Y-118612741D01*
X109174118Y-118862946D01*
X109173882Y-119133865D01*
X105546180Y-119133865D01*
X105531000Y-119057552D01*
X105531000Y-114688865D01*
X148035882Y-114688865D01*
X148139339Y-114939252D01*
X148211000Y-115011038D01*
X148211000Y-116890877D01*
X148140013Y-116961741D01*
X148036118Y-117211946D01*
X148035882Y-117482865D01*
X148139339Y-117733252D01*
X148330741Y-117924987D01*
X148580946Y-118028882D01*
X148851865Y-118029118D01*
X149102252Y-117925661D01*
X149293987Y-117734259D01*
X149397882Y-117484054D01*
X149398118Y-117213135D01*
X149294661Y-116962748D01*
X149223000Y-116890962D01*
X149223000Y-115011123D01*
X149293987Y-114940259D01*
X149397882Y-114690054D01*
X149398118Y-114419135D01*
X149294661Y-114168748D01*
X149103259Y-113977013D01*
X148853054Y-113873118D01*
X148582135Y-113872882D01*
X148331748Y-113976339D01*
X148140013Y-114167741D01*
X148036118Y-114417946D01*
X148035882Y-114688865D01*
X105531000Y-114688865D01*
X105531000Y-113291865D01*
X116285882Y-113291865D01*
X116389339Y-113542252D01*
X116580741Y-113733987D01*
X116830946Y-113837882D01*
X117101865Y-113838118D01*
X117352252Y-113734661D01*
X117543987Y-113543259D01*
X117647882Y-113293054D01*
X117647883Y-113291865D01*
X127207882Y-113291865D01*
X127311339Y-113542252D01*
X127502741Y-113733987D01*
X127752946Y-113837882D01*
X128023865Y-113838118D01*
X128274252Y-113734661D01*
X128465987Y-113543259D01*
X128517640Y-113418865D01*
X143082882Y-113418865D01*
X143186339Y-113669252D01*
X143377741Y-113860987D01*
X143627946Y-113964882D01*
X143898865Y-113965118D01*
X144149252Y-113861661D01*
X144340987Y-113670259D01*
X144444882Y-113420054D01*
X144445118Y-113149135D01*
X144341661Y-112898748D01*
X144150259Y-112707013D01*
X143900054Y-112603118D01*
X143629135Y-112602882D01*
X143378748Y-112706339D01*
X143187013Y-112897741D01*
X143083118Y-113147946D01*
X143082882Y-113418865D01*
X128517640Y-113418865D01*
X128569882Y-113293054D01*
X128570118Y-113022135D01*
X128471668Y-112783865D01*
X132287882Y-112783865D01*
X132391339Y-113034252D01*
X132582741Y-113225987D01*
X132832946Y-113329882D01*
X133103865Y-113330118D01*
X133354252Y-113226661D01*
X133545987Y-113035259D01*
X133649882Y-112785054D01*
X133650118Y-112514135D01*
X133551668Y-112275865D01*
X178668282Y-112275865D01*
X178771739Y-112526252D01*
X178963141Y-112717987D01*
X179213346Y-112821882D01*
X179484265Y-112822118D01*
X179734652Y-112718661D01*
X179926387Y-112527259D01*
X180030282Y-112277054D01*
X180030518Y-112006135D01*
X179927061Y-111755748D01*
X179735659Y-111564013D01*
X179485454Y-111460118D01*
X179214535Y-111459882D01*
X178964148Y-111563339D01*
X178772413Y-111754741D01*
X178668518Y-112004946D01*
X178668282Y-112275865D01*
X133551668Y-112275865D01*
X133546661Y-112263748D01*
X133355259Y-112072013D01*
X133105054Y-111968118D01*
X132834135Y-111967882D01*
X132583748Y-112071339D01*
X132392013Y-112262741D01*
X132288118Y-112512946D01*
X132287882Y-112783865D01*
X128471668Y-112783865D01*
X128466661Y-112771748D01*
X128275259Y-112580013D01*
X128025054Y-112476118D01*
X127754135Y-112475882D01*
X127503748Y-112579339D01*
X127312013Y-112770741D01*
X127208118Y-113020946D01*
X127207882Y-113291865D01*
X117647883Y-113291865D01*
X117648118Y-113022135D01*
X117544661Y-112771748D01*
X117353259Y-112580013D01*
X117103054Y-112476118D01*
X116832135Y-112475882D01*
X116581748Y-112579339D01*
X116390013Y-112770741D01*
X116286118Y-113020946D01*
X116285882Y-113291865D01*
X105531000Y-113291865D01*
X105531000Y-110878865D01*
X118444882Y-110878865D01*
X118548339Y-111129252D01*
X118739741Y-111320987D01*
X118989946Y-111424882D01*
X119260865Y-111425118D01*
X119511252Y-111321661D01*
X119702987Y-111130259D01*
X119754640Y-111005865D01*
X141812882Y-111005865D01*
X141916339Y-111256252D01*
X142107741Y-111447987D01*
X142357946Y-111551882D01*
X142628865Y-111552118D01*
X142879252Y-111448661D01*
X143070987Y-111257259D01*
X143174882Y-111007054D01*
X143175118Y-110736135D01*
X143071661Y-110485748D01*
X142880259Y-110294013D01*
X142630054Y-110190118D01*
X142359135Y-110189882D01*
X142108748Y-110293339D01*
X141917013Y-110484741D01*
X141813118Y-110734946D01*
X141812882Y-111005865D01*
X119754640Y-111005865D01*
X119806882Y-110880054D01*
X119807118Y-110609135D01*
X119745233Y-110459359D01*
X119960727Y-110243865D01*
X127207882Y-110243865D01*
X127311339Y-110494252D01*
X127502741Y-110685987D01*
X127752946Y-110789882D01*
X128023865Y-110790118D01*
X128274252Y-110686661D01*
X128465987Y-110495259D01*
X128569882Y-110245054D01*
X128570118Y-109974135D01*
X128471668Y-109735865D01*
X128477882Y-109735865D01*
X128581339Y-109986252D01*
X128772741Y-110177987D01*
X129022946Y-110281882D01*
X129293865Y-110282118D01*
X129544252Y-110178661D01*
X129735987Y-109987259D01*
X129839882Y-109737054D01*
X129839993Y-109608865D01*
X144352882Y-109608865D01*
X144456339Y-109859252D01*
X144647741Y-110050987D01*
X144897946Y-110154882D01*
X145168865Y-110155118D01*
X145419252Y-110051661D01*
X145610987Y-109860259D01*
X145714882Y-109610054D01*
X145715118Y-109339135D01*
X145611661Y-109088748D01*
X145420259Y-108897013D01*
X145170054Y-108793118D01*
X144899135Y-108792882D01*
X144648748Y-108896339D01*
X144457013Y-109087741D01*
X144353118Y-109337946D01*
X144352882Y-109608865D01*
X129839993Y-109608865D01*
X129840118Y-109466135D01*
X129736661Y-109215748D01*
X129545259Y-109024013D01*
X129295054Y-108920118D01*
X129024135Y-108919882D01*
X128773748Y-109023339D01*
X128582013Y-109214741D01*
X128478118Y-109464946D01*
X128477882Y-109735865D01*
X128471668Y-109735865D01*
X128466661Y-109723748D01*
X128395000Y-109651962D01*
X128395000Y-108286592D01*
X128987592Y-107694000D01*
X137087969Y-107694000D01*
X136964013Y-107817741D01*
X136860118Y-108067946D01*
X136859882Y-108338865D01*
X136963339Y-108589252D01*
X137154741Y-108780987D01*
X137404946Y-108884882D01*
X137675865Y-108885118D01*
X137926252Y-108781661D01*
X138117987Y-108590259D01*
X138221882Y-108340054D01*
X138222118Y-108069135D01*
X138118661Y-107818748D01*
X137994130Y-107694000D01*
X170561000Y-107694000D01*
X170754638Y-107655483D01*
X170918796Y-107545796D01*
X171680796Y-106783796D01*
X171790483Y-106619638D01*
X171829000Y-106426000D01*
X171829000Y-102408587D01*
X171978141Y-102557987D01*
X172228346Y-102661882D01*
X172499265Y-102662118D01*
X172749652Y-102558661D01*
X172941387Y-102367259D01*
X173045282Y-102117054D01*
X173045518Y-101846135D01*
X172942061Y-101595748D01*
X172750659Y-101404013D01*
X172500454Y-101300118D01*
X172229535Y-101299882D01*
X171979148Y-101403339D01*
X171829000Y-101553226D01*
X171829000Y-98559865D01*
X179912882Y-98559865D01*
X180016339Y-98810252D01*
X180207741Y-99001987D01*
X180457946Y-99105882D01*
X180728865Y-99106118D01*
X180979252Y-99002661D01*
X181170987Y-98811259D01*
X181274882Y-98561054D01*
X181275118Y-98290135D01*
X181171661Y-98039748D01*
X180980259Y-97848013D01*
X180730054Y-97744118D01*
X180459135Y-97743882D01*
X180208748Y-97847339D01*
X180017013Y-98038741D01*
X179913118Y-98288946D01*
X179912882Y-98559865D01*
X171829000Y-98559865D01*
X171829000Y-96908865D01*
X180039882Y-96908865D01*
X180143339Y-97159252D01*
X180334741Y-97350987D01*
X180584946Y-97454882D01*
X180855865Y-97455118D01*
X181106252Y-97351661D01*
X181297987Y-97160259D01*
X181401882Y-96910054D01*
X181402118Y-96639135D01*
X181298661Y-96388748D01*
X181107259Y-96197013D01*
X180857054Y-96093118D01*
X180586135Y-96092882D01*
X180335748Y-96196339D01*
X180144013Y-96387741D01*
X180040118Y-96637946D01*
X180039882Y-96908865D01*
X171829000Y-96908865D01*
X171829000Y-93548123D01*
X171899987Y-93477259D01*
X172003882Y-93227054D01*
X172004118Y-92956135D01*
X171900661Y-92705748D01*
X171709259Y-92514013D01*
X171459054Y-92410118D01*
X171188135Y-92409882D01*
X170937748Y-92513339D01*
X170746013Y-92704741D01*
X170642118Y-92954946D01*
X170641882Y-93225865D01*
X170745339Y-93476252D01*
X170817000Y-93548038D01*
X170817000Y-106216408D01*
X170351408Y-106682000D01*
X128778000Y-106682000D01*
X128584362Y-106720517D01*
X128420204Y-106830204D01*
X127531204Y-107719204D01*
X127421517Y-107883362D01*
X127383000Y-108077000D01*
X127383000Y-109651877D01*
X127312013Y-109722741D01*
X127208118Y-109972946D01*
X127207882Y-110243865D01*
X119960727Y-110243865D01*
X121494592Y-108710000D01*
X122478877Y-108710000D01*
X122549741Y-108780987D01*
X122799946Y-108884882D01*
X123070865Y-108885118D01*
X123321252Y-108781661D01*
X123512987Y-108590259D01*
X123616882Y-108340054D01*
X123617118Y-108069135D01*
X123513661Y-107818748D01*
X123322259Y-107627013D01*
X123072054Y-107523118D01*
X122801135Y-107522882D01*
X122550748Y-107626339D01*
X122478962Y-107698000D01*
X121285000Y-107698000D01*
X121091362Y-107736517D01*
X120927204Y-107846204D01*
X118768204Y-110005204D01*
X118658517Y-110169362D01*
X118638893Y-110268017D01*
X118549013Y-110357741D01*
X118445118Y-110607946D01*
X118444882Y-110878865D01*
X105531000Y-110878865D01*
X105531000Y-105290865D01*
X116285882Y-105290865D01*
X116389339Y-105541252D01*
X116580741Y-105732987D01*
X116830946Y-105836882D01*
X117101865Y-105837118D01*
X117352252Y-105733661D01*
X117543987Y-105542259D01*
X117647882Y-105292054D01*
X117648118Y-105021135D01*
X117544661Y-104770748D01*
X117353259Y-104579013D01*
X117103054Y-104475118D01*
X116832135Y-104474882D01*
X116581748Y-104578339D01*
X116390013Y-104769741D01*
X116286118Y-105019946D01*
X116285882Y-105290865D01*
X105531000Y-105290865D01*
X105531000Y-103893865D01*
X148162882Y-103893865D01*
X148266339Y-104144252D01*
X148457741Y-104335987D01*
X148707946Y-104439882D01*
X148978865Y-104440118D01*
X149229252Y-104336661D01*
X149301038Y-104265000D01*
X152069877Y-104265000D01*
X152140741Y-104335987D01*
X152390946Y-104439882D01*
X152661865Y-104440118D01*
X152912252Y-104336661D01*
X153103987Y-104145259D01*
X153207882Y-103895054D01*
X153208118Y-103624135D01*
X153104661Y-103373748D01*
X152913259Y-103182013D01*
X152792491Y-103131865D01*
X166196882Y-103131865D01*
X166300339Y-103382252D01*
X166491741Y-103573987D01*
X166741946Y-103677882D01*
X167012865Y-103678118D01*
X167263252Y-103574661D01*
X167454987Y-103383259D01*
X167558882Y-103133054D01*
X167559118Y-102862135D01*
X167455661Y-102611748D01*
X167264259Y-102420013D01*
X167014054Y-102316118D01*
X166743135Y-102315882D01*
X166492748Y-102419339D01*
X166301013Y-102610741D01*
X166197118Y-102860946D01*
X166196882Y-103131865D01*
X152792491Y-103131865D01*
X152663054Y-103078118D01*
X152392135Y-103077882D01*
X152141748Y-103181339D01*
X152069962Y-103253000D01*
X149301123Y-103253000D01*
X149230259Y-103182013D01*
X148980054Y-103078118D01*
X148709135Y-103077882D01*
X148458748Y-103181339D01*
X148267013Y-103372741D01*
X148163118Y-103622946D01*
X148162882Y-103893865D01*
X105531000Y-103893865D01*
X105531000Y-102623865D01*
X127207882Y-102623865D01*
X127311339Y-102874252D01*
X127502741Y-103065987D01*
X127752946Y-103169882D01*
X128023865Y-103170118D01*
X128274252Y-103066661D01*
X128465987Y-102875259D01*
X128569882Y-102625054D01*
X128570104Y-102369865D01*
X143082882Y-102369865D01*
X143186339Y-102620252D01*
X143377741Y-102811987D01*
X143627946Y-102915882D01*
X143898865Y-102916118D01*
X144149252Y-102812661D01*
X144340987Y-102621259D01*
X144444882Y-102371054D01*
X144445021Y-102211859D01*
X144456339Y-102239252D01*
X144647741Y-102430987D01*
X144897946Y-102534882D01*
X145168865Y-102535118D01*
X145419252Y-102431661D01*
X145610987Y-102240259D01*
X145714882Y-101990054D01*
X145714970Y-101888622D01*
X147275592Y-100328000D01*
X168192408Y-100328000D01*
X169117969Y-101253561D01*
X169117882Y-101353865D01*
X169221339Y-101604252D01*
X169412741Y-101795987D01*
X169662946Y-101899882D01*
X169933865Y-101900118D01*
X170184252Y-101796661D01*
X170375987Y-101605259D01*
X170479882Y-101355054D01*
X170480118Y-101084135D01*
X170376661Y-100833748D01*
X170185259Y-100642013D01*
X169935054Y-100538118D01*
X169833622Y-100538030D01*
X168759796Y-99464204D01*
X168595638Y-99354517D01*
X168402000Y-99316000D01*
X163140031Y-99316000D01*
X163263987Y-99192259D01*
X163367882Y-98942054D01*
X163368118Y-98671135D01*
X163264661Y-98420748D01*
X163073259Y-98229013D01*
X162823054Y-98125118D01*
X162552135Y-98124882D01*
X162301748Y-98228339D01*
X162229962Y-98300000D01*
X146761123Y-98300000D01*
X146690259Y-98229013D01*
X146440054Y-98125118D01*
X146169135Y-98124882D01*
X145918748Y-98228339D01*
X145727013Y-98419741D01*
X145668986Y-98559485D01*
X145611661Y-98420748D01*
X145420259Y-98229013D01*
X145170054Y-98125118D01*
X144899135Y-98124882D01*
X144648748Y-98228339D01*
X144457013Y-98419741D01*
X144353118Y-98669946D01*
X144352882Y-98940865D01*
X144456339Y-99191252D01*
X144647741Y-99382987D01*
X144897946Y-99486882D01*
X145168865Y-99487118D01*
X145419252Y-99383661D01*
X145610987Y-99192259D01*
X145669014Y-99052515D01*
X145726339Y-99191252D01*
X145917741Y-99382987D01*
X146167946Y-99486882D01*
X146438865Y-99487118D01*
X146689252Y-99383661D01*
X146761038Y-99312000D01*
X162229877Y-99312000D01*
X162233870Y-99316000D01*
X147066000Y-99316000D01*
X146872362Y-99354517D01*
X146708204Y-99464204D01*
X144999439Y-101172969D01*
X144899135Y-101172882D01*
X144648748Y-101276339D01*
X144457013Y-101467741D01*
X144353118Y-101717946D01*
X144352979Y-101877141D01*
X144341661Y-101849748D01*
X144150259Y-101658013D01*
X143900054Y-101554118D01*
X143629135Y-101553882D01*
X143378748Y-101657339D01*
X143187013Y-101848741D01*
X143083118Y-102098946D01*
X143082882Y-102369865D01*
X128570104Y-102369865D01*
X128570118Y-102354135D01*
X128466661Y-102103748D01*
X128275259Y-101912013D01*
X128025054Y-101808118D01*
X127754135Y-101807882D01*
X127503748Y-101911339D01*
X127312013Y-102102741D01*
X127208118Y-102352946D01*
X127207882Y-102623865D01*
X105531000Y-102623865D01*
X105531000Y-99829865D01*
X127207882Y-99829865D01*
X127311339Y-100080252D01*
X127502741Y-100271987D01*
X127752946Y-100375882D01*
X128023865Y-100376118D01*
X128274252Y-100272661D01*
X128465987Y-100081259D01*
X128569882Y-99831054D01*
X128570118Y-99560135D01*
X128466661Y-99309748D01*
X128395000Y-99237962D01*
X128395000Y-97237592D01*
X128733592Y-96899000D01*
X134928969Y-96899000D01*
X134805013Y-97022741D01*
X134701118Y-97272946D01*
X134700882Y-97543865D01*
X134804339Y-97794252D01*
X134995741Y-97985987D01*
X135245946Y-98089882D01*
X135516865Y-98090118D01*
X135767252Y-97986661D01*
X135958987Y-97795259D01*
X136062882Y-97545054D01*
X136063118Y-97274135D01*
X135959661Y-97023748D01*
X135835130Y-96899000D01*
X137087969Y-96899000D01*
X136964013Y-97022741D01*
X136860118Y-97272946D01*
X136859882Y-97543865D01*
X136963339Y-97794252D01*
X137154741Y-97985987D01*
X137404946Y-98089882D01*
X137675865Y-98090118D01*
X137926252Y-97986661D01*
X138117987Y-97795259D01*
X138221882Y-97545054D01*
X138222118Y-97274135D01*
X138118661Y-97023748D01*
X137994130Y-96899000D01*
X152710660Y-96899000D01*
X152608118Y-97145946D01*
X152607882Y-97416865D01*
X152711339Y-97667252D01*
X152902741Y-97858987D01*
X153152946Y-97962882D01*
X153423865Y-97963118D01*
X153674252Y-97859661D01*
X153865987Y-97668259D01*
X153969882Y-97418054D01*
X153970118Y-97147135D01*
X153867592Y-96899000D01*
X155079360Y-96899000D01*
X154935748Y-96958339D01*
X154744013Y-97149741D01*
X154640118Y-97399946D01*
X154639882Y-97670865D01*
X154743339Y-97921252D01*
X154934741Y-98112987D01*
X155184946Y-98216882D01*
X155455865Y-98217118D01*
X155706252Y-98113661D01*
X155897987Y-97922259D01*
X156001882Y-97672054D01*
X156002118Y-97401135D01*
X155898661Y-97150748D01*
X155707259Y-96959013D01*
X155562733Y-96899000D01*
X160324877Y-96899000D01*
X160395741Y-96969987D01*
X160645946Y-97073882D01*
X160916865Y-97074118D01*
X161167252Y-96970661D01*
X161358987Y-96779259D01*
X161462882Y-96529054D01*
X161462948Y-96453044D01*
X163374996Y-94540996D01*
X163484683Y-94376838D01*
X163523200Y-94183200D01*
X163523200Y-91447865D01*
X170362482Y-91447865D01*
X170465939Y-91698252D01*
X170657341Y-91889987D01*
X170907546Y-91993882D01*
X171178465Y-91994118D01*
X171428852Y-91890661D01*
X171620587Y-91699259D01*
X171724482Y-91449054D01*
X171724718Y-91178135D01*
X171621261Y-90927748D01*
X171429859Y-90736013D01*
X171179654Y-90632118D01*
X170908735Y-90631882D01*
X170658348Y-90735339D01*
X170466613Y-90926741D01*
X170362718Y-91176946D01*
X170362482Y-91447865D01*
X163523200Y-91447865D01*
X163523200Y-83700865D01*
X169498882Y-83700865D01*
X169602339Y-83951252D01*
X169793741Y-84142987D01*
X170043946Y-84246882D01*
X170314865Y-84247118D01*
X170565252Y-84143661D01*
X170756987Y-83952259D01*
X170860882Y-83702054D01*
X170861118Y-83431135D01*
X170757661Y-83180748D01*
X170566259Y-82989013D01*
X170316054Y-82885118D01*
X170045135Y-82884882D01*
X169794748Y-82988339D01*
X169603013Y-83179741D01*
X169499118Y-83429946D01*
X169498882Y-83700865D01*
X163523200Y-83700865D01*
X163523200Y-81414865D01*
X178668282Y-81414865D01*
X178771739Y-81665252D01*
X178963141Y-81856987D01*
X179213346Y-81960882D01*
X179484265Y-81961118D01*
X179734652Y-81857661D01*
X179926387Y-81666259D01*
X180030282Y-81416054D01*
X180030518Y-81145135D01*
X179927061Y-80894748D01*
X179735659Y-80703013D01*
X179485454Y-80599118D01*
X179214535Y-80598882D01*
X178964148Y-80702339D01*
X178772413Y-80893741D01*
X178668518Y-81143946D01*
X178668282Y-81414865D01*
X163523200Y-81414865D01*
X163523200Y-79400323D01*
X163594187Y-79329459D01*
X163698082Y-79079254D01*
X163698318Y-78808335D01*
X163594861Y-78557948D01*
X163403459Y-78366213D01*
X163153254Y-78262318D01*
X162882335Y-78262082D01*
X162631948Y-78365539D01*
X162440213Y-78556941D01*
X162336318Y-78807146D01*
X162336082Y-79078065D01*
X162439539Y-79328452D01*
X162511200Y-79400238D01*
X162511200Y-93973608D01*
X160772817Y-95711991D01*
X160647135Y-95711882D01*
X160396748Y-95815339D01*
X160324962Y-95887000D01*
X128524000Y-95887000D01*
X128330362Y-95925517D01*
X128208802Y-96006741D01*
X128166204Y-96035204D01*
X127531204Y-96670204D01*
X127421517Y-96834362D01*
X127383000Y-97028000D01*
X127383000Y-99237877D01*
X127312013Y-99308741D01*
X127208118Y-99558946D01*
X127207882Y-99829865D01*
X105531000Y-99829865D01*
X105531000Y-99064128D01*
X109870176Y-99064128D01*
X109996358Y-99369511D01*
X110229800Y-99603361D01*
X110534963Y-99730075D01*
X110865388Y-99730364D01*
X111170771Y-99604182D01*
X111404621Y-99370740D01*
X111531335Y-99065577D01*
X111531624Y-98735152D01*
X111405442Y-98429769D01*
X111172000Y-98195919D01*
X110866837Y-98069205D01*
X110536412Y-98068916D01*
X110231029Y-98195098D01*
X109997179Y-98428540D01*
X109870465Y-98733703D01*
X109870176Y-99064128D01*
X105531000Y-99064128D01*
X105531000Y-97543865D01*
X119079882Y-97543865D01*
X119183339Y-97794252D01*
X119374741Y-97985987D01*
X119624946Y-98089882D01*
X119895865Y-98090118D01*
X120146252Y-97986661D01*
X120218038Y-97915000D01*
X122478877Y-97915000D01*
X122549741Y-97985987D01*
X122799946Y-98089882D01*
X123070865Y-98090118D01*
X123321252Y-97986661D01*
X123512987Y-97795259D01*
X123616882Y-97545054D01*
X123617118Y-97274135D01*
X123513661Y-97023748D01*
X123322259Y-96832013D01*
X123072054Y-96728118D01*
X122801135Y-96727882D01*
X122550748Y-96831339D01*
X122478962Y-96903000D01*
X120218123Y-96903000D01*
X120147259Y-96832013D01*
X119897054Y-96728118D01*
X119626135Y-96727882D01*
X119375748Y-96831339D01*
X119184013Y-97022741D01*
X119080118Y-97272946D01*
X119079882Y-97543865D01*
X105531000Y-97543865D01*
X105531000Y-94664848D01*
X109870176Y-94664848D01*
X109996358Y-94970231D01*
X110229800Y-95204081D01*
X110534963Y-95330795D01*
X110865388Y-95331084D01*
X111042591Y-95257865D01*
X151591882Y-95257865D01*
X151695339Y-95508252D01*
X151886741Y-95699987D01*
X152136946Y-95803882D01*
X152407865Y-95804118D01*
X152658252Y-95700661D01*
X152849987Y-95509259D01*
X152953882Y-95259054D01*
X152954118Y-94988135D01*
X152850661Y-94737748D01*
X152659259Y-94546013D01*
X152409054Y-94442118D01*
X152138135Y-94441882D01*
X151887748Y-94545339D01*
X151696013Y-94736741D01*
X151592118Y-94986946D01*
X151591882Y-95257865D01*
X111042591Y-95257865D01*
X111170771Y-95204902D01*
X111404621Y-94971460D01*
X111531335Y-94666297D01*
X111531595Y-94368865D01*
X156290882Y-94368865D01*
X156394339Y-94619252D01*
X156585741Y-94810987D01*
X156835946Y-94914882D01*
X157106865Y-94915118D01*
X157357252Y-94811661D01*
X157548987Y-94620259D01*
X157652882Y-94370054D01*
X157653118Y-94099135D01*
X157549661Y-93848748D01*
X157358259Y-93657013D01*
X157108054Y-93553118D01*
X156837135Y-93552882D01*
X156586748Y-93656339D01*
X156395013Y-93847741D01*
X156291118Y-94097946D01*
X156290882Y-94368865D01*
X111531595Y-94368865D01*
X111531624Y-94335872D01*
X111405442Y-94030489D01*
X111172000Y-93796639D01*
X110866837Y-93669925D01*
X110536412Y-93669636D01*
X110231029Y-93795818D01*
X109997179Y-94029260D01*
X109870465Y-94334423D01*
X109870176Y-94664848D01*
X105531000Y-94664848D01*
X105531000Y-93098865D01*
X159719882Y-93098865D01*
X159823339Y-93349252D01*
X160014741Y-93540987D01*
X160264946Y-93644882D01*
X160535865Y-93645118D01*
X160786252Y-93541661D01*
X160977987Y-93350259D01*
X161081882Y-93100054D01*
X161082118Y-92829135D01*
X160978661Y-92578748D01*
X160787259Y-92387013D01*
X160537054Y-92283118D01*
X160266135Y-92282882D01*
X160015748Y-92386339D01*
X159824013Y-92577741D01*
X159720118Y-92827946D01*
X159719882Y-93098865D01*
X105531000Y-93098865D01*
X105531000Y-91955865D01*
X126445882Y-91955865D01*
X126549339Y-92206252D01*
X126740741Y-92397987D01*
X126990946Y-92501882D01*
X127261865Y-92502118D01*
X127512252Y-92398661D01*
X127703987Y-92207259D01*
X127807882Y-91957054D01*
X127808118Y-91686135D01*
X127704661Y-91435748D01*
X127513259Y-91244013D01*
X127263054Y-91140118D01*
X126992135Y-91139882D01*
X126741748Y-91243339D01*
X126550013Y-91434741D01*
X126446118Y-91684946D01*
X126445882Y-91955865D01*
X105531000Y-91955865D01*
X105531000Y-87478883D01*
X141517000Y-87478883D01*
X141517000Y-87527117D01*
X141610704Y-87998200D01*
X141877552Y-88397565D01*
X142276917Y-88664413D01*
X142748000Y-88758117D01*
X143219083Y-88664413D01*
X143618448Y-88397565D01*
X143885296Y-87998200D01*
X143979000Y-87527117D01*
X143979000Y-87478883D01*
X143885296Y-87007800D01*
X143648226Y-86653000D01*
X144049536Y-86653000D01*
X144049536Y-88353000D01*
X144076103Y-88494190D01*
X144159546Y-88623865D01*
X144286866Y-88710859D01*
X144438000Y-88741464D01*
X146138000Y-88741464D01*
X146279190Y-88714897D01*
X146408865Y-88631454D01*
X146495859Y-88504134D01*
X146526464Y-88353000D01*
X146526464Y-86653000D01*
X146499897Y-86511810D01*
X146416454Y-86382135D01*
X146289134Y-86295141D01*
X146138000Y-86264536D01*
X144438000Y-86264536D01*
X144296810Y-86291103D01*
X144167135Y-86374546D01*
X144080141Y-86501866D01*
X144049536Y-86653000D01*
X143648226Y-86653000D01*
X143618448Y-86608435D01*
X143219083Y-86341587D01*
X142748000Y-86247883D01*
X142276917Y-86341587D01*
X141877552Y-86608435D01*
X141610704Y-87007800D01*
X141517000Y-87478883D01*
X105531000Y-87478883D01*
X105531000Y-84970865D01*
X111028082Y-84970865D01*
X111131539Y-85221252D01*
X111322941Y-85412987D01*
X111573146Y-85516882D01*
X111844065Y-85517118D01*
X112094452Y-85413661D01*
X112286187Y-85222259D01*
X112390082Y-84972054D01*
X112390318Y-84701135D01*
X112286861Y-84450748D01*
X112095459Y-84259013D01*
X111845254Y-84155118D01*
X111574335Y-84154882D01*
X111323948Y-84258339D01*
X111132213Y-84449741D01*
X111028318Y-84699946D01*
X111028082Y-84970865D01*
X105531000Y-84970865D01*
X105531000Y-82136159D01*
X141681002Y-82136159D01*
X141854646Y-82556412D01*
X142175897Y-82878223D01*
X142595846Y-83052601D01*
X143050559Y-83052998D01*
X143470812Y-82879354D01*
X143792623Y-82558103D01*
X143792721Y-82557865D01*
X157179882Y-82557865D01*
X157283339Y-82808252D01*
X157474741Y-82999987D01*
X157724946Y-83103882D01*
X157995865Y-83104118D01*
X158246252Y-83000661D01*
X158437987Y-82809259D01*
X158541882Y-82559054D01*
X158542118Y-82288135D01*
X158438661Y-82037748D01*
X158247259Y-81846013D01*
X157997054Y-81742118D01*
X157726135Y-81741882D01*
X157475748Y-81845339D01*
X157284013Y-82036741D01*
X157180118Y-82286946D01*
X157179882Y-82557865D01*
X143792721Y-82557865D01*
X143967001Y-82138154D01*
X143967398Y-81683441D01*
X143793754Y-81263188D01*
X143472503Y-80941377D01*
X143052554Y-80766999D01*
X142597841Y-80766602D01*
X142177588Y-80940246D01*
X141855777Y-81261497D01*
X141681399Y-81681446D01*
X141681002Y-82136159D01*
X105531000Y-82136159D01*
X105531000Y-80246465D01*
X110418482Y-80246465D01*
X110521939Y-80496852D01*
X110713341Y-80688587D01*
X110963546Y-80792482D01*
X111234465Y-80792718D01*
X111484852Y-80689261D01*
X111676587Y-80497859D01*
X111780482Y-80247654D01*
X111780718Y-79976735D01*
X111677261Y-79726348D01*
X111485859Y-79534613D01*
X111235654Y-79430718D01*
X110964735Y-79430482D01*
X110714348Y-79533939D01*
X110522613Y-79725341D01*
X110418718Y-79975546D01*
X110418482Y-80246465D01*
X105531000Y-80246465D01*
X105531000Y-78112865D01*
X164418882Y-78112865D01*
X164522339Y-78363252D01*
X164713741Y-78554987D01*
X164963946Y-78658882D01*
X165234865Y-78659118D01*
X165485252Y-78555661D01*
X165676987Y-78364259D01*
X165780882Y-78114054D01*
X165781118Y-77843135D01*
X165677661Y-77592748D01*
X165486259Y-77401013D01*
X165236054Y-77297118D01*
X164965135Y-77296882D01*
X164714748Y-77400339D01*
X164523013Y-77591741D01*
X164419118Y-77841946D01*
X164418882Y-78112865D01*
X105531000Y-78112865D01*
X105531000Y-75877665D01*
X131094082Y-75877665D01*
X131197539Y-76128052D01*
X131388941Y-76319787D01*
X131639146Y-76423682D01*
X131910065Y-76423918D01*
X132160452Y-76320461D01*
X132352187Y-76129059D01*
X132451448Y-75890013D01*
X142023592Y-75890013D01*
X142093057Y-76132197D01*
X142616502Y-76318944D01*
X143171568Y-76291162D01*
X143555343Y-76132197D01*
X143624808Y-75890013D01*
X142824200Y-75089405D01*
X142023592Y-75890013D01*
X132451448Y-75890013D01*
X132456082Y-75878854D01*
X132456318Y-75607935D01*
X132352861Y-75357548D01*
X132161459Y-75165813D01*
X131911254Y-75061918D01*
X131640335Y-75061682D01*
X131389948Y-75165139D01*
X131198213Y-75356541D01*
X131094318Y-75606746D01*
X131094082Y-75877665D01*
X105531000Y-75877665D01*
X105531000Y-74702102D01*
X141415056Y-74702102D01*
X141442838Y-75257168D01*
X141601803Y-75640943D01*
X141843987Y-75710408D01*
X142644595Y-74909800D01*
X143003805Y-74909800D01*
X143804413Y-75710408D01*
X144046597Y-75640943D01*
X144233344Y-75117498D01*
X144205562Y-74562432D01*
X144046597Y-74178657D01*
X143804413Y-74109192D01*
X143003805Y-74909800D01*
X142644595Y-74909800D01*
X141843987Y-74109192D01*
X141601803Y-74178657D01*
X141415056Y-74702102D01*
X105531000Y-74702102D01*
X105531000Y-74342448D01*
X105613123Y-73929587D01*
X142023592Y-73929587D01*
X142824200Y-74730195D01*
X143624808Y-73929587D01*
X143555343Y-73687403D01*
X143031898Y-73500656D01*
X142476832Y-73528438D01*
X142093057Y-73687403D01*
X142023592Y-73929587D01*
X105613123Y-73929587D01*
X105734355Y-73320117D01*
X106289413Y-72489413D01*
X107120118Y-71934354D01*
X108142448Y-71731000D01*
X190957552Y-71731000D01*
X191979883Y-71934355D01*
M02*
