%TF.GenerationSoftware,KiCad,Pcbnew,4.0.7*%
%TF.CreationDate,2018-02-14T12:48:44-05:00*%
%TF.ProjectId,BusinessCard,427573696E657373436172642E6B6963,rev?*%
%TF.FileFunction,Legend,Bot*%
%FSLAX46Y46*%
G04 Gerber Fmt 4.6, Leading zero omitted, Abs format (unit mm)*
G04 Created by KiCad (PCBNEW 4.0.7) date Wednesday, February 14, 2018 'PMt' 12:48:44 PM*
%MOMM*%
%LPD*%
G01*
G04 APERTURE LIST*
%ADD10C,0.100000*%
%ADD11C,0.250000*%
%ADD12C,0.200000*%
G04 APERTURE END LIST*
D10*
D11*
X117315857Y-119213381D02*
X117220618Y-119213381D01*
X117125380Y-119261000D01*
X117077761Y-119308619D01*
X117030142Y-119403857D01*
X116982523Y-119594333D01*
X116982523Y-119832429D01*
X117030142Y-120022905D01*
X117077761Y-120118143D01*
X117125380Y-120165762D01*
X117220618Y-120213381D01*
X117315857Y-120213381D01*
X117411095Y-120165762D01*
X117458714Y-120118143D01*
X117506333Y-120022905D01*
X117553952Y-119832429D01*
X117553952Y-119594333D01*
X117506333Y-119403857D01*
X117458714Y-119308619D01*
X117411095Y-119261000D01*
X117315857Y-119213381D01*
X116553952Y-120118143D02*
X116506333Y-120165762D01*
X116553952Y-120213381D01*
X116601571Y-120165762D01*
X116553952Y-120118143D01*
X116553952Y-120213381D01*
X115601571Y-119213381D02*
X116077762Y-119213381D01*
X116125381Y-119689571D01*
X116077762Y-119641952D01*
X115982524Y-119594333D01*
X115744428Y-119594333D01*
X115649190Y-119641952D01*
X115601571Y-119689571D01*
X115553952Y-119784810D01*
X115553952Y-120022905D01*
X115601571Y-120118143D01*
X115649190Y-120165762D01*
X115744428Y-120213381D01*
X115982524Y-120213381D01*
X116077762Y-120165762D01*
X116125381Y-120118143D01*
X114934905Y-119213381D02*
X114839666Y-119213381D01*
X114744428Y-119261000D01*
X114696809Y-119308619D01*
X114649190Y-119403857D01*
X114601571Y-119594333D01*
X114601571Y-119832429D01*
X114649190Y-120022905D01*
X114696809Y-120118143D01*
X114744428Y-120165762D01*
X114839666Y-120213381D01*
X114934905Y-120213381D01*
X115030143Y-120165762D01*
X115077762Y-120118143D01*
X115125381Y-120022905D01*
X115173000Y-119832429D01*
X115173000Y-119594333D01*
X115125381Y-119403857D01*
X115077762Y-119308619D01*
X115030143Y-119261000D01*
X114934905Y-119213381D01*
X113744428Y-119213381D02*
X113934905Y-119213381D01*
X114030143Y-119261000D01*
X114077762Y-119308619D01*
X114173000Y-119451476D01*
X114220619Y-119641952D01*
X114220619Y-120022905D01*
X114173000Y-120118143D01*
X114125381Y-120165762D01*
X114030143Y-120213381D01*
X113839666Y-120213381D01*
X113744428Y-120165762D01*
X113696809Y-120118143D01*
X113649190Y-120022905D01*
X113649190Y-119784810D01*
X113696809Y-119689571D01*
X113744428Y-119641952D01*
X113839666Y-119594333D01*
X114030143Y-119594333D01*
X114125381Y-119641952D01*
X114173000Y-119689571D01*
X114220619Y-119784810D01*
X112696809Y-120213381D02*
X113268238Y-120213381D01*
X112982524Y-120213381D02*
X112982524Y-119213381D01*
X113077762Y-119356238D01*
X113173000Y-119451476D01*
X113268238Y-119499095D01*
X112315857Y-119308619D02*
X112268238Y-119261000D01*
X112173000Y-119213381D01*
X111934904Y-119213381D01*
X111839666Y-119261000D01*
X111792047Y-119308619D01*
X111744428Y-119403857D01*
X111744428Y-119499095D01*
X111792047Y-119641952D01*
X112363476Y-120213381D01*
X111744428Y-120213381D01*
X111411095Y-119213381D02*
X110744428Y-119213381D01*
X111173000Y-120213381D01*
D12*
X160162905Y-91364381D02*
X160162905Y-90364381D01*
X160162905Y-90840571D02*
X159591476Y-90840571D01*
X159591476Y-91364381D02*
X159591476Y-90364381D01*
X158972429Y-91364381D02*
X159067667Y-91316762D01*
X159115286Y-91269143D01*
X159162905Y-91173905D01*
X159162905Y-90888190D01*
X159115286Y-90792952D01*
X159067667Y-90745333D01*
X158972429Y-90697714D01*
X158829571Y-90697714D01*
X158734333Y-90745333D01*
X158686714Y-90792952D01*
X158639095Y-90888190D01*
X158639095Y-91173905D01*
X158686714Y-91269143D01*
X158734333Y-91316762D01*
X158829571Y-91364381D01*
X158972429Y-91364381D01*
X158210524Y-91364381D02*
X158210524Y-90697714D01*
X158210524Y-90888190D02*
X158162905Y-90792952D01*
X158115286Y-90745333D01*
X158020048Y-90697714D01*
X157924809Y-90697714D01*
X157591476Y-91364381D02*
X157591476Y-90697714D01*
X157591476Y-90364381D02*
X157639095Y-90412000D01*
X157591476Y-90459619D01*
X157543857Y-90412000D01*
X157591476Y-90364381D01*
X157591476Y-90459619D01*
X157210524Y-90697714D02*
X156686714Y-90697714D01*
X157210524Y-91364381D01*
X156686714Y-91364381D01*
X156162905Y-91364381D02*
X156258143Y-91316762D01*
X156305762Y-91269143D01*
X156353381Y-91173905D01*
X156353381Y-90888190D01*
X156305762Y-90792952D01*
X156258143Y-90745333D01*
X156162905Y-90697714D01*
X156020047Y-90697714D01*
X155924809Y-90745333D01*
X155877190Y-90792952D01*
X155829571Y-90888190D01*
X155829571Y-91173905D01*
X155877190Y-91269143D01*
X155924809Y-91316762D01*
X156020047Y-91364381D01*
X156162905Y-91364381D01*
X155401000Y-90697714D02*
X155401000Y-91364381D01*
X155401000Y-90792952D02*
X155353381Y-90745333D01*
X155258143Y-90697714D01*
X155115285Y-90697714D01*
X155020047Y-90745333D01*
X154972428Y-90840571D01*
X154972428Y-91364381D01*
X154639095Y-90697714D02*
X154258143Y-90697714D01*
X154496238Y-90364381D02*
X154496238Y-91221524D01*
X154448619Y-91316762D01*
X154353381Y-91364381D01*
X154258143Y-91364381D01*
X153496237Y-91364381D02*
X153496237Y-90840571D01*
X153543856Y-90745333D01*
X153639094Y-90697714D01*
X153829571Y-90697714D01*
X153924809Y-90745333D01*
X153496237Y-91316762D02*
X153591475Y-91364381D01*
X153829571Y-91364381D01*
X153924809Y-91316762D01*
X153972428Y-91221524D01*
X153972428Y-91126286D01*
X153924809Y-91031048D01*
X153829571Y-90983429D01*
X153591475Y-90983429D01*
X153496237Y-90935810D01*
X152877190Y-91364381D02*
X152972428Y-91316762D01*
X153020047Y-91221524D01*
X153020047Y-90364381D01*
X152496237Y-91269143D02*
X152448618Y-91316762D01*
X152496237Y-91364381D01*
X152543856Y-91316762D01*
X152496237Y-91269143D01*
X152496237Y-91364381D01*
X152496237Y-90745333D02*
X152448618Y-90792952D01*
X152496237Y-90840571D01*
X152543856Y-90792952D01*
X152496237Y-90745333D01*
X152496237Y-90840571D01*
X150591475Y-90364381D02*
X149924808Y-91364381D01*
X149924808Y-90364381D02*
X150591475Y-91364381D01*
X149353380Y-90888190D02*
X149353380Y-91364381D01*
X149686713Y-90364381D02*
X149353380Y-90888190D01*
X149020046Y-90364381D01*
X147924808Y-91364381D02*
X147924808Y-90697714D01*
X147924808Y-90792952D02*
X147877189Y-90745333D01*
X147781951Y-90697714D01*
X147639093Y-90697714D01*
X147543855Y-90745333D01*
X147496236Y-90840571D01*
X147496236Y-91364381D01*
X147496236Y-90840571D02*
X147448617Y-90745333D01*
X147353379Y-90697714D01*
X147210522Y-90697714D01*
X147115284Y-90745333D01*
X147067665Y-90840571D01*
X147067665Y-91364381D01*
X146448618Y-91364381D02*
X146543856Y-91316762D01*
X146591475Y-91269143D01*
X146639094Y-91173905D01*
X146639094Y-90888190D01*
X146591475Y-90792952D01*
X146543856Y-90745333D01*
X146448618Y-90697714D01*
X146305760Y-90697714D01*
X146210522Y-90745333D01*
X146162903Y-90792952D01*
X146115284Y-90888190D01*
X146115284Y-91173905D01*
X146162903Y-91269143D01*
X146210522Y-91316762D01*
X146305760Y-91364381D01*
X146448618Y-91364381D01*
X145258141Y-91364381D02*
X145258141Y-90364381D01*
X145258141Y-91316762D02*
X145353379Y-91364381D01*
X145543856Y-91364381D01*
X145639094Y-91316762D01*
X145686713Y-91269143D01*
X145734332Y-91173905D01*
X145734332Y-90888190D01*
X145686713Y-90792952D01*
X145639094Y-90745333D01*
X145543856Y-90697714D01*
X145353379Y-90697714D01*
X145258141Y-90745333D01*
X144400998Y-91316762D02*
X144496236Y-91364381D01*
X144686713Y-91364381D01*
X144781951Y-91316762D01*
X144829570Y-91221524D01*
X144829570Y-90840571D01*
X144781951Y-90745333D01*
X144686713Y-90697714D01*
X144496236Y-90697714D01*
X144400998Y-90745333D01*
X144353379Y-90840571D01*
X144353379Y-90935810D01*
X144829570Y-91031048D01*
X159591476Y-92969143D02*
X159639095Y-93016762D01*
X159781952Y-93064381D01*
X159877190Y-93064381D01*
X160020048Y-93016762D01*
X160115286Y-92921524D01*
X160162905Y-92826286D01*
X160210524Y-92635810D01*
X160210524Y-92492952D01*
X160162905Y-92302476D01*
X160115286Y-92207238D01*
X160020048Y-92112000D01*
X159877190Y-92064381D01*
X159781952Y-92064381D01*
X159639095Y-92112000D01*
X159591476Y-92159619D01*
X159162905Y-93064381D02*
X159162905Y-92064381D01*
X159162905Y-92540571D02*
X158591476Y-92540571D01*
X158591476Y-93064381D02*
X158591476Y-92064381D01*
X157591476Y-93064381D02*
X158162905Y-93064381D01*
X157877191Y-93064381D02*
X157877191Y-92064381D01*
X157972429Y-92207238D01*
X158067667Y-92302476D01*
X158162905Y-92350095D01*
X157115286Y-93016762D02*
X157115286Y-93064381D01*
X157162905Y-93159619D01*
X157210524Y-93207238D01*
X155353381Y-92969143D02*
X155401000Y-93016762D01*
X155543857Y-93064381D01*
X155639095Y-93064381D01*
X155781953Y-93016762D01*
X155877191Y-92921524D01*
X155924810Y-92826286D01*
X155972429Y-92635810D01*
X155972429Y-92492952D01*
X155924810Y-92302476D01*
X155877191Y-92207238D01*
X155781953Y-92112000D01*
X155639095Y-92064381D01*
X155543857Y-92064381D01*
X155401000Y-92112000D01*
X155353381Y-92159619D01*
X154924810Y-93064381D02*
X154924810Y-92064381D01*
X154924810Y-92540571D02*
X154353381Y-92540571D01*
X154353381Y-93064381D02*
X154353381Y-92064381D01*
X153924810Y-92159619D02*
X153877191Y-92112000D01*
X153781953Y-92064381D01*
X153543857Y-92064381D01*
X153448619Y-92112000D01*
X153401000Y-92159619D01*
X153353381Y-92254857D01*
X153353381Y-92350095D01*
X153401000Y-92492952D01*
X153972429Y-93064381D01*
X153353381Y-93064381D01*
X152924810Y-92969143D02*
X152877191Y-93016762D01*
X152924810Y-93064381D01*
X152972429Y-93016762D01*
X152924810Y-92969143D01*
X152924810Y-93064381D01*
X152924810Y-92445333D02*
X152877191Y-92492952D01*
X152924810Y-92540571D01*
X152972429Y-92492952D01*
X152924810Y-92445333D01*
X152924810Y-92540571D01*
X150448619Y-92064381D02*
X150924810Y-92064381D01*
X150972429Y-92540571D01*
X150924810Y-92492952D01*
X150829572Y-92445333D01*
X150591476Y-92445333D01*
X150496238Y-92492952D01*
X150448619Y-92540571D01*
X150401000Y-92635810D01*
X150401000Y-92873905D01*
X150448619Y-92969143D01*
X150496238Y-93016762D01*
X150591476Y-93064381D01*
X150829572Y-93064381D01*
X150924810Y-93016762D01*
X150972429Y-92969143D01*
X149781953Y-92064381D02*
X149686714Y-92064381D01*
X149591476Y-92112000D01*
X149543857Y-92159619D01*
X149496238Y-92254857D01*
X149448619Y-92445333D01*
X149448619Y-92683429D01*
X149496238Y-92873905D01*
X149543857Y-92969143D01*
X149591476Y-93016762D01*
X149686714Y-93064381D01*
X149781953Y-93064381D01*
X149877191Y-93016762D01*
X149924810Y-92969143D01*
X149972429Y-92873905D01*
X150020048Y-92683429D01*
X150020048Y-92445333D01*
X149972429Y-92254857D01*
X149924810Y-92159619D01*
X149877191Y-92112000D01*
X149781953Y-92064381D01*
X148829572Y-92064381D02*
X148734333Y-92064381D01*
X148639095Y-92112000D01*
X148591476Y-92159619D01*
X148543857Y-92254857D01*
X148496238Y-92445333D01*
X148496238Y-92683429D01*
X148543857Y-92873905D01*
X148591476Y-92969143D01*
X148639095Y-93016762D01*
X148734333Y-93064381D01*
X148829572Y-93064381D01*
X148924810Y-93016762D01*
X148972429Y-92969143D01*
X149020048Y-92873905D01*
X149067667Y-92683429D01*
X149067667Y-92445333D01*
X149020048Y-92254857D01*
X148972429Y-92159619D01*
X148924810Y-92112000D01*
X148829572Y-92064381D01*
X148067667Y-93064381D02*
X148067667Y-92397714D01*
X148067667Y-92492952D02*
X148020048Y-92445333D01*
X147924810Y-92397714D01*
X147781952Y-92397714D01*
X147686714Y-92445333D01*
X147639095Y-92540571D01*
X147639095Y-93064381D01*
X147639095Y-92540571D02*
X147591476Y-92445333D01*
X147496238Y-92397714D01*
X147353381Y-92397714D01*
X147258143Y-92445333D01*
X147210524Y-92540571D01*
X147210524Y-93064381D01*
X146877191Y-92064381D02*
X146543858Y-93064381D01*
X146210524Y-92064381D01*
X145162905Y-92016762D02*
X146020048Y-93302476D01*
X144401000Y-93064381D02*
X144401000Y-92064381D01*
X144401000Y-93016762D02*
X144496238Y-93064381D01*
X144686715Y-93064381D01*
X144781953Y-93016762D01*
X144829572Y-92969143D01*
X144877191Y-92873905D01*
X144877191Y-92588190D01*
X144829572Y-92492952D01*
X144781953Y-92445333D01*
X144686715Y-92397714D01*
X144496238Y-92397714D01*
X144401000Y-92445333D01*
X143924810Y-93064381D02*
X143924810Y-92397714D01*
X143924810Y-92064381D02*
X143972429Y-92112000D01*
X143924810Y-92159619D01*
X143877191Y-92112000D01*
X143924810Y-92064381D01*
X143924810Y-92159619D01*
X143543858Y-92397714D02*
X143305763Y-93064381D01*
X143067667Y-92397714D01*
X160210524Y-94478667D02*
X159734333Y-94478667D01*
X160305762Y-94764381D02*
X159972429Y-93764381D01*
X159639095Y-94764381D01*
X158877190Y-94097714D02*
X158877190Y-95097714D01*
X158877190Y-94716762D02*
X158972428Y-94764381D01*
X159162905Y-94764381D01*
X159258143Y-94716762D01*
X159305762Y-94669143D01*
X159353381Y-94573905D01*
X159353381Y-94288190D01*
X159305762Y-94192952D01*
X159258143Y-94145333D01*
X159162905Y-94097714D01*
X158972428Y-94097714D01*
X158877190Y-94145333D01*
X157972428Y-94097714D02*
X157972428Y-94764381D01*
X158401000Y-94097714D02*
X158401000Y-94621524D01*
X158353381Y-94716762D01*
X158258143Y-94764381D01*
X158115285Y-94764381D01*
X158020047Y-94716762D01*
X157972428Y-94669143D01*
X157496238Y-94764381D02*
X157496238Y-94097714D01*
X157496238Y-93764381D02*
X157543857Y-93812000D01*
X157496238Y-93859619D01*
X157448619Y-93812000D01*
X157496238Y-93764381D01*
X157496238Y-93859619D01*
X157067667Y-94716762D02*
X156972429Y-94764381D01*
X156781953Y-94764381D01*
X156686714Y-94716762D01*
X156639095Y-94621524D01*
X156639095Y-94573905D01*
X156686714Y-94478667D01*
X156781953Y-94431048D01*
X156924810Y-94431048D01*
X157020048Y-94383429D01*
X157067667Y-94288190D01*
X157067667Y-94240571D01*
X157020048Y-94145333D01*
X156924810Y-94097714D01*
X156781953Y-94097714D01*
X156686714Y-94145333D01*
X156210524Y-94764381D02*
X156210524Y-94097714D01*
X156210524Y-93764381D02*
X156258143Y-93812000D01*
X156210524Y-93859619D01*
X156162905Y-93812000D01*
X156210524Y-93764381D01*
X156210524Y-93859619D01*
X155877191Y-94097714D02*
X155496239Y-94097714D01*
X155734334Y-93764381D02*
X155734334Y-94621524D01*
X155686715Y-94716762D01*
X155591477Y-94764381D01*
X155496239Y-94764381D01*
X155162905Y-94764381D02*
X155162905Y-94097714D01*
X155162905Y-93764381D02*
X155210524Y-93812000D01*
X155162905Y-93859619D01*
X155115286Y-93812000D01*
X155162905Y-93764381D01*
X155162905Y-93859619D01*
X154543858Y-94764381D02*
X154639096Y-94716762D01*
X154686715Y-94669143D01*
X154734334Y-94573905D01*
X154734334Y-94288190D01*
X154686715Y-94192952D01*
X154639096Y-94145333D01*
X154543858Y-94097714D01*
X154401000Y-94097714D01*
X154305762Y-94145333D01*
X154258143Y-94192952D01*
X154210524Y-94288190D01*
X154210524Y-94573905D01*
X154258143Y-94669143D01*
X154305762Y-94716762D01*
X154401000Y-94764381D01*
X154543858Y-94764381D01*
X153781953Y-94097714D02*
X153781953Y-94764381D01*
X153781953Y-94192952D02*
X153734334Y-94145333D01*
X153639096Y-94097714D01*
X153496238Y-94097714D01*
X153401000Y-94145333D01*
X153353381Y-94240571D01*
X153353381Y-94764381D01*
X152877191Y-94669143D02*
X152829572Y-94716762D01*
X152877191Y-94764381D01*
X152924810Y-94716762D01*
X152877191Y-94669143D01*
X152877191Y-94764381D01*
X152877191Y-94145333D02*
X152829572Y-94192952D01*
X152877191Y-94240571D01*
X152924810Y-94192952D01*
X152877191Y-94145333D01*
X152877191Y-94240571D01*
X150877191Y-94764381D02*
X150877191Y-93764381D01*
X150877191Y-94240571D02*
X150305762Y-94240571D01*
X150305762Y-94764381D02*
X150305762Y-93764381D01*
X149829572Y-94764381D02*
X149829572Y-94097714D01*
X149829572Y-93764381D02*
X149877191Y-93812000D01*
X149829572Y-93859619D01*
X149781953Y-93812000D01*
X149829572Y-93764381D01*
X149829572Y-93859619D01*
X148924810Y-94097714D02*
X148924810Y-94907238D01*
X148972429Y-95002476D01*
X149020048Y-95050095D01*
X149115287Y-95097714D01*
X149258144Y-95097714D01*
X149353382Y-95050095D01*
X148924810Y-94716762D02*
X149020048Y-94764381D01*
X149210525Y-94764381D01*
X149305763Y-94716762D01*
X149353382Y-94669143D01*
X149401001Y-94573905D01*
X149401001Y-94288190D01*
X149353382Y-94192952D01*
X149305763Y-94145333D01*
X149210525Y-94097714D01*
X149020048Y-94097714D01*
X148924810Y-94145333D01*
X148448620Y-94764381D02*
X148448620Y-93764381D01*
X148020048Y-94764381D02*
X148020048Y-94240571D01*
X148067667Y-94145333D01*
X148162905Y-94097714D01*
X148305763Y-94097714D01*
X148401001Y-94145333D01*
X148448620Y-94192952D01*
X146781953Y-94764381D02*
X146781953Y-94097714D01*
X146781953Y-94288190D02*
X146734334Y-94192952D01*
X146686715Y-94145333D01*
X146591477Y-94097714D01*
X146496238Y-94097714D01*
X145781952Y-94716762D02*
X145877190Y-94764381D01*
X146067667Y-94764381D01*
X146162905Y-94716762D01*
X146210524Y-94621524D01*
X146210524Y-94240571D01*
X146162905Y-94145333D01*
X146067667Y-94097714D01*
X145877190Y-94097714D01*
X145781952Y-94145333D01*
X145734333Y-94240571D01*
X145734333Y-94335810D01*
X146210524Y-94431048D01*
X145353381Y-94716762D02*
X145258143Y-94764381D01*
X145067667Y-94764381D01*
X144972428Y-94716762D01*
X144924809Y-94621524D01*
X144924809Y-94573905D01*
X144972428Y-94478667D01*
X145067667Y-94431048D01*
X145210524Y-94431048D01*
X145305762Y-94383429D01*
X145353381Y-94288190D01*
X145353381Y-94240571D01*
X145305762Y-94145333D01*
X145210524Y-94097714D01*
X145067667Y-94097714D01*
X144972428Y-94145333D01*
X144353381Y-94764381D02*
X144448619Y-94716762D01*
X144496238Y-94669143D01*
X144543857Y-94573905D01*
X144543857Y-94288190D01*
X144496238Y-94192952D01*
X144448619Y-94145333D01*
X144353381Y-94097714D01*
X144210523Y-94097714D01*
X144115285Y-94145333D01*
X144067666Y-94192952D01*
X144020047Y-94288190D01*
X144020047Y-94573905D01*
X144067666Y-94669143D01*
X144115285Y-94716762D01*
X144210523Y-94764381D01*
X144353381Y-94764381D01*
X143448619Y-94764381D02*
X143543857Y-94716762D01*
X143591476Y-94621524D01*
X143591476Y-93764381D01*
X142639094Y-94097714D02*
X142639094Y-94764381D01*
X143067666Y-94097714D02*
X143067666Y-94621524D01*
X143020047Y-94716762D01*
X142924809Y-94764381D01*
X142781951Y-94764381D01*
X142686713Y-94716762D01*
X142639094Y-94669143D01*
X142305761Y-94097714D02*
X141924809Y-94097714D01*
X142162904Y-93764381D02*
X142162904Y-94621524D01*
X142115285Y-94716762D01*
X142020047Y-94764381D01*
X141924809Y-94764381D01*
X141591475Y-94764381D02*
X141591475Y-94097714D01*
X141591475Y-93764381D02*
X141639094Y-93812000D01*
X141591475Y-93859619D01*
X141543856Y-93812000D01*
X141591475Y-93764381D01*
X141591475Y-93859619D01*
X140972428Y-94764381D02*
X141067666Y-94716762D01*
X141115285Y-94669143D01*
X141162904Y-94573905D01*
X141162904Y-94288190D01*
X141115285Y-94192952D01*
X141067666Y-94145333D01*
X140972428Y-94097714D01*
X140829570Y-94097714D01*
X140734332Y-94145333D01*
X140686713Y-94192952D01*
X140639094Y-94288190D01*
X140639094Y-94573905D01*
X140686713Y-94669143D01*
X140734332Y-94716762D01*
X140829570Y-94764381D01*
X140972428Y-94764381D01*
X140210523Y-94097714D02*
X140210523Y-94764381D01*
X140210523Y-94192952D02*
X140162904Y-94145333D01*
X140067666Y-94097714D01*
X139924808Y-94097714D01*
X139829570Y-94145333D01*
X139781951Y-94240571D01*
X139781951Y-94764381D01*
X160162905Y-96464381D02*
X160162905Y-95464381D01*
X159924810Y-95464381D01*
X159781952Y-95512000D01*
X159686714Y-95607238D01*
X159639095Y-95702476D01*
X159591476Y-95892952D01*
X159591476Y-96035810D01*
X159639095Y-96226286D01*
X159686714Y-96321524D01*
X159781952Y-96416762D01*
X159924810Y-96464381D01*
X160162905Y-96464381D01*
X159162905Y-96464381D02*
X159162905Y-95797714D01*
X159162905Y-95464381D02*
X159210524Y-95512000D01*
X159162905Y-95559619D01*
X159115286Y-95512000D01*
X159162905Y-95464381D01*
X159162905Y-95559619D01*
X158734334Y-96416762D02*
X158639096Y-96464381D01*
X158448620Y-96464381D01*
X158353381Y-96416762D01*
X158305762Y-96321524D01*
X158305762Y-96273905D01*
X158353381Y-96178667D01*
X158448620Y-96131048D01*
X158591477Y-96131048D01*
X158686715Y-96083429D01*
X158734334Y-95988190D01*
X158734334Y-95940571D01*
X158686715Y-95845333D01*
X158591477Y-95797714D01*
X158448620Y-95797714D01*
X158353381Y-95845333D01*
X157877191Y-95797714D02*
X157877191Y-96797714D01*
X157877191Y-95845333D02*
X157781953Y-95797714D01*
X157591476Y-95797714D01*
X157496238Y-95845333D01*
X157448619Y-95892952D01*
X157401000Y-95988190D01*
X157401000Y-96273905D01*
X157448619Y-96369143D01*
X157496238Y-96416762D01*
X157591476Y-96464381D01*
X157781953Y-96464381D01*
X157877191Y-96416762D01*
X156829572Y-96464381D02*
X156924810Y-96416762D01*
X156972429Y-96321524D01*
X156972429Y-95464381D01*
X156020047Y-96464381D02*
X156020047Y-95940571D01*
X156067666Y-95845333D01*
X156162904Y-95797714D01*
X156353381Y-95797714D01*
X156448619Y-95845333D01*
X156020047Y-96416762D02*
X156115285Y-96464381D01*
X156353381Y-96464381D01*
X156448619Y-96416762D01*
X156496238Y-96321524D01*
X156496238Y-96226286D01*
X156448619Y-96131048D01*
X156353381Y-96083429D01*
X156115285Y-96083429D01*
X156020047Y-96035810D01*
X155639095Y-95797714D02*
X155401000Y-96464381D01*
X155162904Y-95797714D02*
X155401000Y-96464381D01*
X155496238Y-96702476D01*
X155543857Y-96750095D01*
X155639095Y-96797714D01*
X154781952Y-96369143D02*
X154734333Y-96416762D01*
X154781952Y-96464381D01*
X154829571Y-96416762D01*
X154781952Y-96369143D01*
X154781952Y-96464381D01*
X154781952Y-95845333D02*
X154734333Y-95892952D01*
X154781952Y-95940571D01*
X154829571Y-95892952D01*
X154781952Y-95845333D01*
X154781952Y-95940571D01*
X150496237Y-96464381D02*
X150496237Y-95464381D01*
X150020047Y-95797714D02*
X150020047Y-96464381D01*
X150020047Y-95892952D02*
X149972428Y-95845333D01*
X149877190Y-95797714D01*
X149734332Y-95797714D01*
X149639094Y-95845333D01*
X149591475Y-95940571D01*
X149591475Y-96464381D01*
X149258142Y-95797714D02*
X148877190Y-95797714D01*
X149115285Y-96464381D02*
X149115285Y-95607238D01*
X149067666Y-95512000D01*
X148972428Y-95464381D01*
X148877190Y-95464381D01*
X148543856Y-96464381D02*
X148543856Y-95797714D01*
X148543856Y-95464381D02*
X148591475Y-95512000D01*
X148543856Y-95559619D01*
X148496237Y-95512000D01*
X148543856Y-95464381D01*
X148543856Y-95559619D01*
X148067666Y-95797714D02*
X148067666Y-96464381D01*
X148067666Y-95892952D02*
X148020047Y-95845333D01*
X147924809Y-95797714D01*
X147781951Y-95797714D01*
X147686713Y-95845333D01*
X147639094Y-95940571D01*
X147639094Y-96464381D01*
X147162904Y-96464381D02*
X147162904Y-95797714D01*
X147162904Y-95464381D02*
X147210523Y-95512000D01*
X147162904Y-95559619D01*
X147115285Y-95512000D01*
X147162904Y-95464381D01*
X147162904Y-95559619D01*
X146829571Y-95797714D02*
X146448619Y-95797714D01*
X146686714Y-95464381D02*
X146686714Y-96321524D01*
X146639095Y-96416762D01*
X146543857Y-96464381D01*
X146448619Y-96464381D01*
X145734332Y-96416762D02*
X145829570Y-96464381D01*
X146020047Y-96464381D01*
X146115285Y-96416762D01*
X146162904Y-96321524D01*
X146162904Y-95940571D01*
X146115285Y-95845333D01*
X146020047Y-95797714D01*
X145829570Y-95797714D01*
X145734332Y-95845333D01*
X145686713Y-95940571D01*
X145686713Y-96035810D01*
X146162904Y-96131048D01*
X144496237Y-95797714D02*
X144496237Y-96797714D01*
X144496237Y-95845333D02*
X144400999Y-95797714D01*
X144210522Y-95797714D01*
X144115284Y-95845333D01*
X144067665Y-95892952D01*
X144020046Y-95988190D01*
X144020046Y-96273905D01*
X144067665Y-96369143D01*
X144115284Y-96416762D01*
X144210522Y-96464381D01*
X144400999Y-96464381D01*
X144496237Y-96416762D01*
X143210522Y-96416762D02*
X143305760Y-96464381D01*
X143496237Y-96464381D01*
X143591475Y-96416762D01*
X143639094Y-96321524D01*
X143639094Y-95940571D01*
X143591475Y-95845333D01*
X143496237Y-95797714D01*
X143305760Y-95797714D01*
X143210522Y-95845333D01*
X143162903Y-95940571D01*
X143162903Y-96035810D01*
X143639094Y-96131048D01*
X142734332Y-96464381D02*
X142734332Y-95797714D01*
X142734332Y-95988190D02*
X142686713Y-95892952D01*
X142639094Y-95845333D01*
X142543856Y-95797714D01*
X142448617Y-95797714D01*
X142162903Y-96416762D02*
X142067665Y-96464381D01*
X141877189Y-96464381D01*
X141781950Y-96416762D01*
X141734331Y-96321524D01*
X141734331Y-96273905D01*
X141781950Y-96178667D01*
X141877189Y-96131048D01*
X142020046Y-96131048D01*
X142115284Y-96083429D01*
X142162903Y-95988190D01*
X142162903Y-95940571D01*
X142115284Y-95845333D01*
X142020046Y-95797714D01*
X141877189Y-95797714D01*
X141781950Y-95845333D01*
X141305760Y-96464381D02*
X141305760Y-95797714D01*
X141305760Y-95464381D02*
X141353379Y-95512000D01*
X141305760Y-95559619D01*
X141258141Y-95512000D01*
X141305760Y-95464381D01*
X141305760Y-95559619D01*
X140877189Y-96416762D02*
X140781951Y-96464381D01*
X140591475Y-96464381D01*
X140496236Y-96416762D01*
X140448617Y-96321524D01*
X140448617Y-96273905D01*
X140496236Y-96178667D01*
X140591475Y-96131048D01*
X140734332Y-96131048D01*
X140829570Y-96083429D01*
X140877189Y-95988190D01*
X140877189Y-95940571D01*
X140829570Y-95845333D01*
X140734332Y-95797714D01*
X140591475Y-95797714D01*
X140496236Y-95845333D01*
X140162903Y-95797714D02*
X139781951Y-95797714D01*
X140020046Y-95464381D02*
X140020046Y-96321524D01*
X139972427Y-96416762D01*
X139877189Y-96464381D01*
X139781951Y-96464381D01*
X139067664Y-96416762D02*
X139162902Y-96464381D01*
X139353379Y-96464381D01*
X139448617Y-96416762D01*
X139496236Y-96321524D01*
X139496236Y-95940571D01*
X139448617Y-95845333D01*
X139353379Y-95797714D01*
X139162902Y-95797714D01*
X139067664Y-95845333D01*
X139020045Y-95940571D01*
X139020045Y-96035810D01*
X139496236Y-96131048D01*
X138591474Y-95797714D02*
X138591474Y-96464381D01*
X138591474Y-95892952D02*
X138543855Y-95845333D01*
X138448617Y-95797714D01*
X138305759Y-95797714D01*
X138210521Y-95845333D01*
X138162902Y-95940571D01*
X138162902Y-96464381D01*
X137258140Y-96416762D02*
X137353378Y-96464381D01*
X137543855Y-96464381D01*
X137639093Y-96416762D01*
X137686712Y-96369143D01*
X137734331Y-96273905D01*
X137734331Y-95988190D01*
X137686712Y-95892952D01*
X137639093Y-95845333D01*
X137543855Y-95797714D01*
X137353378Y-95797714D01*
X137258140Y-95845333D01*
X136448616Y-96416762D02*
X136543854Y-96464381D01*
X136734331Y-96464381D01*
X136829569Y-96416762D01*
X136877188Y-96321524D01*
X136877188Y-95940571D01*
X136829569Y-95845333D01*
X136734331Y-95797714D01*
X136543854Y-95797714D01*
X136448616Y-95845333D01*
X136400997Y-95940571D01*
X136400997Y-96035810D01*
X136877188Y-96131048D01*
X160305762Y-97164381D02*
X159734333Y-97164381D01*
X160020048Y-98164381D02*
X160020048Y-97164381D01*
X159401000Y-98164381D02*
X159401000Y-97497714D01*
X159401000Y-97688190D02*
X159353381Y-97592952D01*
X159305762Y-97545333D01*
X159210524Y-97497714D01*
X159115285Y-97497714D01*
X158781952Y-98164381D02*
X158781952Y-97497714D01*
X158781952Y-97164381D02*
X158829571Y-97212000D01*
X158781952Y-97259619D01*
X158734333Y-97212000D01*
X158781952Y-97164381D01*
X158781952Y-97259619D01*
X157877190Y-97497714D02*
X157877190Y-98307238D01*
X157924809Y-98402476D01*
X157972428Y-98450095D01*
X158067667Y-98497714D01*
X158210524Y-98497714D01*
X158305762Y-98450095D01*
X157877190Y-98116762D02*
X157972428Y-98164381D01*
X158162905Y-98164381D01*
X158258143Y-98116762D01*
X158305762Y-98069143D01*
X158353381Y-97973905D01*
X158353381Y-97688190D01*
X158305762Y-97592952D01*
X158258143Y-97545333D01*
X158162905Y-97497714D01*
X157972428Y-97497714D01*
X157877190Y-97545333D01*
X156972428Y-97497714D02*
X156972428Y-98307238D01*
X157020047Y-98402476D01*
X157067666Y-98450095D01*
X157162905Y-98497714D01*
X157305762Y-98497714D01*
X157401000Y-98450095D01*
X156972428Y-98116762D02*
X157067666Y-98164381D01*
X157258143Y-98164381D01*
X157353381Y-98116762D01*
X157401000Y-98069143D01*
X157448619Y-97973905D01*
X157448619Y-97688190D01*
X157401000Y-97592952D01*
X157353381Y-97545333D01*
X157258143Y-97497714D01*
X157067666Y-97497714D01*
X156972428Y-97545333D01*
X156115285Y-98116762D02*
X156210523Y-98164381D01*
X156401000Y-98164381D01*
X156496238Y-98116762D01*
X156543857Y-98021524D01*
X156543857Y-97640571D01*
X156496238Y-97545333D01*
X156401000Y-97497714D01*
X156210523Y-97497714D01*
X156115285Y-97545333D01*
X156067666Y-97640571D01*
X156067666Y-97735810D01*
X156543857Y-97831048D01*
X155639095Y-98164381D02*
X155639095Y-97497714D01*
X155639095Y-97688190D02*
X155591476Y-97592952D01*
X155543857Y-97545333D01*
X155448619Y-97497714D01*
X155353380Y-97497714D01*
X155020047Y-98069143D02*
X154972428Y-98116762D01*
X155020047Y-98164381D01*
X155067666Y-98116762D01*
X155020047Y-98069143D01*
X155020047Y-98164381D01*
X155020047Y-97545333D02*
X154972428Y-97592952D01*
X155020047Y-97640571D01*
X155067666Y-97592952D01*
X155020047Y-97545333D01*
X155020047Y-97640571D01*
X150162903Y-98164381D02*
X150496237Y-97688190D01*
X150734332Y-98164381D02*
X150734332Y-97164381D01*
X150353379Y-97164381D01*
X150258141Y-97212000D01*
X150210522Y-97259619D01*
X150162903Y-97354857D01*
X150162903Y-97497714D01*
X150210522Y-97592952D01*
X150258141Y-97640571D01*
X150353379Y-97688190D01*
X150734332Y-97688190D01*
X149734332Y-98164381D02*
X149734332Y-97497714D01*
X149734332Y-97164381D02*
X149781951Y-97212000D01*
X149734332Y-97259619D01*
X149686713Y-97212000D01*
X149734332Y-97164381D01*
X149734332Y-97259619D01*
X149305761Y-98116762D02*
X149210523Y-98164381D01*
X149020047Y-98164381D01*
X148924808Y-98116762D01*
X148877189Y-98021524D01*
X148877189Y-97973905D01*
X148924808Y-97878667D01*
X149020047Y-97831048D01*
X149162904Y-97831048D01*
X149258142Y-97783429D01*
X149305761Y-97688190D01*
X149305761Y-97640571D01*
X149258142Y-97545333D01*
X149162904Y-97497714D01*
X149020047Y-97497714D01*
X148924808Y-97545333D01*
X148448618Y-98164381D02*
X148448618Y-97497714D01*
X148448618Y-97164381D02*
X148496237Y-97212000D01*
X148448618Y-97259619D01*
X148400999Y-97212000D01*
X148448618Y-97164381D01*
X148448618Y-97259619D01*
X147972428Y-97497714D02*
X147972428Y-98164381D01*
X147972428Y-97592952D02*
X147924809Y-97545333D01*
X147829571Y-97497714D01*
X147686713Y-97497714D01*
X147591475Y-97545333D01*
X147543856Y-97640571D01*
X147543856Y-98164381D01*
X146639094Y-97497714D02*
X146639094Y-98307238D01*
X146686713Y-98402476D01*
X146734332Y-98450095D01*
X146829571Y-98497714D01*
X146972428Y-98497714D01*
X147067666Y-98450095D01*
X146639094Y-98116762D02*
X146734332Y-98164381D01*
X146924809Y-98164381D01*
X147020047Y-98116762D01*
X147067666Y-98069143D01*
X147115285Y-97973905D01*
X147115285Y-97688190D01*
X147067666Y-97592952D01*
X147020047Y-97545333D01*
X146924809Y-97497714D01*
X146734332Y-97497714D01*
X146639094Y-97545333D01*
X145020046Y-98116762D02*
X145115284Y-98164381D01*
X145305761Y-98164381D01*
X145400999Y-98116762D01*
X145448618Y-98021524D01*
X145448618Y-97640571D01*
X145400999Y-97545333D01*
X145305761Y-97497714D01*
X145115284Y-97497714D01*
X145020046Y-97545333D01*
X144972427Y-97640571D01*
X144972427Y-97735810D01*
X145448618Y-97831048D01*
X144115284Y-98164381D02*
X144115284Y-97164381D01*
X144115284Y-98116762D02*
X144210522Y-98164381D01*
X144400999Y-98164381D01*
X144496237Y-98116762D01*
X144543856Y-98069143D01*
X144591475Y-97973905D01*
X144591475Y-97688190D01*
X144543856Y-97592952D01*
X144496237Y-97545333D01*
X144400999Y-97497714D01*
X144210522Y-97497714D01*
X144115284Y-97545333D01*
X143210522Y-97497714D02*
X143210522Y-98307238D01*
X143258141Y-98402476D01*
X143305760Y-98450095D01*
X143400999Y-98497714D01*
X143543856Y-98497714D01*
X143639094Y-98450095D01*
X143210522Y-98116762D02*
X143305760Y-98164381D01*
X143496237Y-98164381D01*
X143591475Y-98116762D01*
X143639094Y-98069143D01*
X143686713Y-97973905D01*
X143686713Y-97688190D01*
X143639094Y-97592952D01*
X143591475Y-97545333D01*
X143496237Y-97497714D01*
X143305760Y-97497714D01*
X143210522Y-97545333D01*
X142353379Y-98116762D02*
X142448617Y-98164381D01*
X142639094Y-98164381D01*
X142734332Y-98116762D01*
X142781951Y-98021524D01*
X142781951Y-97640571D01*
X142734332Y-97545333D01*
X142639094Y-97497714D01*
X142448617Y-97497714D01*
X142353379Y-97545333D01*
X142305760Y-97640571D01*
X142305760Y-97735810D01*
X142781951Y-97831048D01*
X141829570Y-98116762D02*
X141829570Y-98164381D01*
X141877189Y-98259619D01*
X141924808Y-98307238D01*
X140639094Y-97783429D02*
X139877189Y-97783429D01*
X140258141Y-98164381D02*
X140258141Y-97402476D01*
X139400999Y-97783429D02*
X138639094Y-97783429D01*
X138210523Y-97259619D02*
X138162904Y-97212000D01*
X138067666Y-97164381D01*
X137829570Y-97164381D01*
X137734332Y-97212000D01*
X137686713Y-97259619D01*
X137639094Y-97354857D01*
X137639094Y-97450095D01*
X137686713Y-97592952D01*
X138258142Y-98164381D01*
X137639094Y-98164381D01*
X137210523Y-98069143D02*
X137162904Y-98116762D01*
X137210523Y-98164381D01*
X137258142Y-98116762D01*
X137210523Y-98069143D01*
X137210523Y-98164381D01*
X136258142Y-97164381D02*
X136734333Y-97164381D01*
X136781952Y-97640571D01*
X136734333Y-97592952D01*
X136639095Y-97545333D01*
X136400999Y-97545333D01*
X136305761Y-97592952D01*
X136258142Y-97640571D01*
X136210523Y-97735810D01*
X136210523Y-97973905D01*
X136258142Y-98069143D01*
X136305761Y-98116762D01*
X136400999Y-98164381D01*
X136639095Y-98164381D01*
X136734333Y-98116762D01*
X136781952Y-98069143D01*
X135924809Y-97164381D02*
X135591476Y-98164381D01*
X135258142Y-97164381D01*
X160162905Y-101564381D02*
X160162905Y-100564381D01*
X159734333Y-101564381D02*
X159734333Y-101040571D01*
X159781952Y-100945333D01*
X159877190Y-100897714D01*
X160020048Y-100897714D01*
X160115286Y-100945333D01*
X160162905Y-100992952D01*
X159401000Y-100897714D02*
X159020048Y-100897714D01*
X159258143Y-100564381D02*
X159258143Y-101421524D01*
X159210524Y-101516762D01*
X159115286Y-101564381D01*
X159020048Y-101564381D01*
X158829571Y-100897714D02*
X158448619Y-100897714D01*
X158686714Y-100564381D02*
X158686714Y-101421524D01*
X158639095Y-101516762D01*
X158543857Y-101564381D01*
X158448619Y-101564381D01*
X158115285Y-100897714D02*
X158115285Y-101897714D01*
X158115285Y-100945333D02*
X158020047Y-100897714D01*
X157829570Y-100897714D01*
X157734332Y-100945333D01*
X157686713Y-100992952D01*
X157639094Y-101088190D01*
X157639094Y-101373905D01*
X157686713Y-101469143D01*
X157734332Y-101516762D01*
X157829570Y-101564381D01*
X158020047Y-101564381D01*
X158115285Y-101516762D01*
X157210523Y-101469143D02*
X157162904Y-101516762D01*
X157210523Y-101564381D01*
X157258142Y-101516762D01*
X157210523Y-101469143D01*
X157210523Y-101564381D01*
X157210523Y-100945333D02*
X157162904Y-100992952D01*
X157210523Y-101040571D01*
X157258142Y-100992952D01*
X157210523Y-100945333D01*
X157210523Y-101040571D01*
X156020047Y-100516762D02*
X156877190Y-101802476D01*
X154972428Y-100516762D02*
X155829571Y-101802476D01*
X154734333Y-100897714D02*
X154543857Y-101564381D01*
X154353380Y-101088190D01*
X154162904Y-101564381D01*
X153972428Y-100897714D01*
X153686714Y-100897714D02*
X153496238Y-101564381D01*
X153305761Y-101088190D01*
X153115285Y-101564381D01*
X152924809Y-100897714D01*
X152639095Y-100897714D02*
X152448619Y-101564381D01*
X152258142Y-101088190D01*
X152067666Y-101564381D01*
X151877190Y-100897714D01*
X151496238Y-101469143D02*
X151448619Y-101516762D01*
X151496238Y-101564381D01*
X151543857Y-101516762D01*
X151496238Y-101469143D01*
X151496238Y-101564381D01*
X150591476Y-101564381D02*
X150591476Y-101040571D01*
X150639095Y-100945333D01*
X150734333Y-100897714D01*
X150924810Y-100897714D01*
X151020048Y-100945333D01*
X150591476Y-101516762D02*
X150686714Y-101564381D01*
X150924810Y-101564381D01*
X151020048Y-101516762D01*
X151067667Y-101421524D01*
X151067667Y-101326286D01*
X151020048Y-101231048D01*
X150924810Y-101183429D01*
X150686714Y-101183429D01*
X150591476Y-101135810D01*
X150115286Y-100897714D02*
X150115286Y-101564381D01*
X150115286Y-100992952D02*
X150067667Y-100945333D01*
X149972429Y-100897714D01*
X149829571Y-100897714D01*
X149734333Y-100945333D01*
X149686714Y-101040571D01*
X149686714Y-101564381D01*
X148781952Y-101564381D02*
X148781952Y-101040571D01*
X148829571Y-100945333D01*
X148924809Y-100897714D01*
X149115286Y-100897714D01*
X149210524Y-100945333D01*
X148781952Y-101516762D02*
X148877190Y-101564381D01*
X149115286Y-101564381D01*
X149210524Y-101516762D01*
X149258143Y-101421524D01*
X149258143Y-101326286D01*
X149210524Y-101231048D01*
X149115286Y-101183429D01*
X148877190Y-101183429D01*
X148781952Y-101135810D01*
X148162905Y-101564381D02*
X148258143Y-101516762D01*
X148305762Y-101421524D01*
X148305762Y-100564381D01*
X147639095Y-101564381D02*
X147734333Y-101516762D01*
X147781952Y-101469143D01*
X147829571Y-101373905D01*
X147829571Y-101088190D01*
X147781952Y-100992952D01*
X147734333Y-100945333D01*
X147639095Y-100897714D01*
X147496237Y-100897714D01*
X147400999Y-100945333D01*
X147353380Y-100992952D01*
X147305761Y-101088190D01*
X147305761Y-101373905D01*
X147353380Y-101469143D01*
X147400999Y-101516762D01*
X147496237Y-101564381D01*
X147639095Y-101564381D01*
X146448618Y-100897714D02*
X146448618Y-101707238D01*
X146496237Y-101802476D01*
X146543856Y-101850095D01*
X146639095Y-101897714D01*
X146781952Y-101897714D01*
X146877190Y-101850095D01*
X146448618Y-101516762D02*
X146543856Y-101564381D01*
X146734333Y-101564381D01*
X146829571Y-101516762D01*
X146877190Y-101469143D01*
X146924809Y-101373905D01*
X146924809Y-101088190D01*
X146877190Y-100992952D01*
X146829571Y-100945333D01*
X146734333Y-100897714D01*
X146543856Y-100897714D01*
X146448618Y-100945333D01*
X146067666Y-100897714D02*
X145543856Y-100897714D01*
X146067666Y-101564381D01*
X145543856Y-101564381D01*
X145020047Y-101564381D02*
X145115285Y-101516762D01*
X145162904Y-101469143D01*
X145210523Y-101373905D01*
X145210523Y-101088190D01*
X145162904Y-100992952D01*
X145115285Y-100945333D01*
X145020047Y-100897714D01*
X144877189Y-100897714D01*
X144781951Y-100945333D01*
X144734332Y-100992952D01*
X144686713Y-101088190D01*
X144686713Y-101373905D01*
X144734332Y-101469143D01*
X144781951Y-101516762D01*
X144877189Y-101564381D01*
X145020047Y-101564381D01*
X144115285Y-101564381D02*
X144210523Y-101516762D01*
X144258142Y-101469143D01*
X144305761Y-101373905D01*
X144305761Y-101088190D01*
X144258142Y-100992952D01*
X144210523Y-100945333D01*
X144115285Y-100897714D01*
X143972427Y-100897714D01*
X143877189Y-100945333D01*
X143829570Y-100992952D01*
X143781951Y-101088190D01*
X143781951Y-101373905D01*
X143829570Y-101469143D01*
X143877189Y-101516762D01*
X143972427Y-101564381D01*
X144115285Y-101564381D01*
X143353380Y-101469143D02*
X143305761Y-101516762D01*
X143353380Y-101564381D01*
X143400999Y-101516762D01*
X143353380Y-101469143D01*
X143353380Y-101564381D01*
X142448618Y-101516762D02*
X142543856Y-101564381D01*
X142734333Y-101564381D01*
X142829571Y-101516762D01*
X142877190Y-101469143D01*
X142924809Y-101373905D01*
X142924809Y-101088190D01*
X142877190Y-100992952D01*
X142829571Y-100945333D01*
X142734333Y-100897714D01*
X142543856Y-100897714D01*
X142448618Y-100945333D01*
X141877190Y-101564381D02*
X141972428Y-101516762D01*
X142020047Y-101469143D01*
X142067666Y-101373905D01*
X142067666Y-101088190D01*
X142020047Y-100992952D01*
X141972428Y-100945333D01*
X141877190Y-100897714D01*
X141734332Y-100897714D01*
X141639094Y-100945333D01*
X141591475Y-100992952D01*
X141543856Y-101088190D01*
X141543856Y-101373905D01*
X141591475Y-101469143D01*
X141639094Y-101516762D01*
X141734332Y-101564381D01*
X141877190Y-101564381D01*
X141115285Y-101564381D02*
X141115285Y-100897714D01*
X141115285Y-100992952D02*
X141067666Y-100945333D01*
X140972428Y-100897714D01*
X140829570Y-100897714D01*
X140734332Y-100945333D01*
X140686713Y-101040571D01*
X140686713Y-101564381D01*
X140686713Y-101040571D02*
X140639094Y-100945333D01*
X140543856Y-100897714D01*
X140400999Y-100897714D01*
X140305761Y-100945333D01*
X140258142Y-101040571D01*
X140258142Y-101564381D01*
X139067666Y-100516762D02*
X139924809Y-101802476D01*
X138734333Y-101564381D02*
X138734333Y-100564381D01*
X138734333Y-100945333D02*
X138639095Y-100897714D01*
X138448618Y-100897714D01*
X138353380Y-100945333D01*
X138305761Y-100992952D01*
X138258142Y-101088190D01*
X138258142Y-101373905D01*
X138305761Y-101469143D01*
X138353380Y-101516762D01*
X138448618Y-101564381D01*
X138639095Y-101564381D01*
X138734333Y-101516762D01*
X137400999Y-100897714D02*
X137400999Y-101564381D01*
X137829571Y-100897714D02*
X137829571Y-101421524D01*
X137781952Y-101516762D01*
X137686714Y-101564381D01*
X137543856Y-101564381D01*
X137448618Y-101516762D01*
X137400999Y-101469143D01*
X136972428Y-101516762D02*
X136877190Y-101564381D01*
X136686714Y-101564381D01*
X136591475Y-101516762D01*
X136543856Y-101421524D01*
X136543856Y-101373905D01*
X136591475Y-101278667D01*
X136686714Y-101231048D01*
X136829571Y-101231048D01*
X136924809Y-101183429D01*
X136972428Y-101088190D01*
X136972428Y-101040571D01*
X136924809Y-100945333D01*
X136829571Y-100897714D01*
X136686714Y-100897714D01*
X136591475Y-100945333D01*
X136115285Y-101564381D02*
X136115285Y-100897714D01*
X136115285Y-100564381D02*
X136162904Y-100612000D01*
X136115285Y-100659619D01*
X136067666Y-100612000D01*
X136115285Y-100564381D01*
X136115285Y-100659619D01*
X135639095Y-100897714D02*
X135639095Y-101564381D01*
X135639095Y-100992952D02*
X135591476Y-100945333D01*
X135496238Y-100897714D01*
X135353380Y-100897714D01*
X135258142Y-100945333D01*
X135210523Y-101040571D01*
X135210523Y-101564381D01*
X134353380Y-101516762D02*
X134448618Y-101564381D01*
X134639095Y-101564381D01*
X134734333Y-101516762D01*
X134781952Y-101421524D01*
X134781952Y-101040571D01*
X134734333Y-100945333D01*
X134639095Y-100897714D01*
X134448618Y-100897714D01*
X134353380Y-100945333D01*
X134305761Y-101040571D01*
X134305761Y-101135810D01*
X134781952Y-101231048D01*
X133924809Y-101516762D02*
X133829571Y-101564381D01*
X133639095Y-101564381D01*
X133543856Y-101516762D01*
X133496237Y-101421524D01*
X133496237Y-101373905D01*
X133543856Y-101278667D01*
X133639095Y-101231048D01*
X133781952Y-101231048D01*
X133877190Y-101183429D01*
X133924809Y-101088190D01*
X133924809Y-101040571D01*
X133877190Y-100945333D01*
X133781952Y-100897714D01*
X133639095Y-100897714D01*
X133543856Y-100945333D01*
X133115285Y-101516762D02*
X133020047Y-101564381D01*
X132829571Y-101564381D01*
X132734332Y-101516762D01*
X132686713Y-101421524D01*
X132686713Y-101373905D01*
X132734332Y-101278667D01*
X132829571Y-101231048D01*
X132972428Y-101231048D01*
X133067666Y-101183429D01*
X133115285Y-101088190D01*
X133115285Y-101040571D01*
X133067666Y-100945333D01*
X132972428Y-100897714D01*
X132829571Y-100897714D01*
X132734332Y-100945333D01*
X131829570Y-101516762D02*
X131924808Y-101564381D01*
X132115285Y-101564381D01*
X132210523Y-101516762D01*
X132258142Y-101469143D01*
X132305761Y-101373905D01*
X132305761Y-101088190D01*
X132258142Y-100992952D01*
X132210523Y-100945333D01*
X132115285Y-100897714D01*
X131924808Y-100897714D01*
X131829570Y-100945333D01*
X130972427Y-101564381D02*
X130972427Y-101040571D01*
X131020046Y-100945333D01*
X131115284Y-100897714D01*
X131305761Y-100897714D01*
X131400999Y-100945333D01*
X130972427Y-101516762D02*
X131067665Y-101564381D01*
X131305761Y-101564381D01*
X131400999Y-101516762D01*
X131448618Y-101421524D01*
X131448618Y-101326286D01*
X131400999Y-101231048D01*
X131305761Y-101183429D01*
X131067665Y-101183429D01*
X130972427Y-101135810D01*
X130496237Y-101564381D02*
X130496237Y-100897714D01*
X130496237Y-101088190D02*
X130448618Y-100992952D01*
X130400999Y-100945333D01*
X130305761Y-100897714D01*
X130210522Y-100897714D01*
X129448617Y-101564381D02*
X129448617Y-100564381D01*
X129448617Y-101516762D02*
X129543855Y-101564381D01*
X129734332Y-101564381D01*
X129829570Y-101516762D01*
X129877189Y-101469143D01*
X129924808Y-101373905D01*
X129924808Y-101088190D01*
X129877189Y-100992952D01*
X129829570Y-100945333D01*
X129734332Y-100897714D01*
X129543855Y-100897714D01*
X129448617Y-100945333D01*
M02*
