%TF.GenerationSoftware,KiCad,Pcbnew,4.0.7*%
%TF.CreationDate,2018-02-05T20:46:32-05:00*%
%TF.ProjectId,BusinessCard,427573696E657373436172642E6B6963,rev?*%
%TF.FileFunction,Legend,Bot*%
%FSLAX46Y46*%
G04 Gerber Fmt 4.6, Leading zero omitted, Abs format (unit mm)*
G04 Created by KiCad (PCBNEW 4.0.7) date Monday, February 05, 2018 'PMt' 08:46:32 PM*
%MOMM*%
%LPD*%
G01*
G04 APERTURE LIST*
%ADD10C,0.100000*%
%ADD11C,0.200000*%
G04 APERTURE END LIST*
D10*
D11*
X184952944Y-113685581D02*
X184952944Y-112685581D01*
X184524372Y-113685581D02*
X184524372Y-113161771D01*
X184571991Y-113066533D01*
X184667229Y-113018914D01*
X184810087Y-113018914D01*
X184905325Y-113066533D01*
X184952944Y-113114152D01*
X184191039Y-113018914D02*
X183810087Y-113018914D01*
X184048182Y-112685581D02*
X184048182Y-113542724D01*
X184000563Y-113637962D01*
X183905325Y-113685581D01*
X183810087Y-113685581D01*
X183619610Y-113018914D02*
X183238658Y-113018914D01*
X183476753Y-112685581D02*
X183476753Y-113542724D01*
X183429134Y-113637962D01*
X183333896Y-113685581D01*
X183238658Y-113685581D01*
X182905324Y-113018914D02*
X182905324Y-114018914D01*
X182905324Y-113066533D02*
X182810086Y-113018914D01*
X182619609Y-113018914D01*
X182524371Y-113066533D01*
X182476752Y-113114152D01*
X182429133Y-113209390D01*
X182429133Y-113495105D01*
X182476752Y-113590343D01*
X182524371Y-113637962D01*
X182619609Y-113685581D01*
X182810086Y-113685581D01*
X182905324Y-113637962D01*
X182000562Y-113590343D02*
X181952943Y-113637962D01*
X182000562Y-113685581D01*
X182048181Y-113637962D01*
X182000562Y-113590343D01*
X182000562Y-113685581D01*
X182000562Y-113066533D02*
X181952943Y-113114152D01*
X182000562Y-113161771D01*
X182048181Y-113114152D01*
X182000562Y-113066533D01*
X182000562Y-113161771D01*
X180810086Y-112637962D02*
X181667229Y-113923676D01*
X179762467Y-112637962D02*
X180619610Y-113923676D01*
X179524372Y-113018914D02*
X179333896Y-113685581D01*
X179143419Y-113209390D01*
X178952943Y-113685581D01*
X178762467Y-113018914D01*
X178476753Y-113018914D02*
X178286277Y-113685581D01*
X178095800Y-113209390D01*
X177905324Y-113685581D01*
X177714848Y-113018914D01*
X177429134Y-113018914D02*
X177238658Y-113685581D01*
X177048181Y-113209390D01*
X176857705Y-113685581D01*
X176667229Y-113018914D01*
X176286277Y-113590343D02*
X176238658Y-113637962D01*
X176286277Y-113685581D01*
X176333896Y-113637962D01*
X176286277Y-113590343D01*
X176286277Y-113685581D01*
X175381515Y-113685581D02*
X175381515Y-113161771D01*
X175429134Y-113066533D01*
X175524372Y-113018914D01*
X175714849Y-113018914D01*
X175810087Y-113066533D01*
X175381515Y-113637962D02*
X175476753Y-113685581D01*
X175714849Y-113685581D01*
X175810087Y-113637962D01*
X175857706Y-113542724D01*
X175857706Y-113447486D01*
X175810087Y-113352248D01*
X175714849Y-113304629D01*
X175476753Y-113304629D01*
X175381515Y-113257010D01*
X174905325Y-113018914D02*
X174905325Y-113685581D01*
X174905325Y-113114152D02*
X174857706Y-113066533D01*
X174762468Y-113018914D01*
X174619610Y-113018914D01*
X174524372Y-113066533D01*
X174476753Y-113161771D01*
X174476753Y-113685581D01*
X173571991Y-113685581D02*
X173571991Y-113161771D01*
X173619610Y-113066533D01*
X173714848Y-113018914D01*
X173905325Y-113018914D01*
X174000563Y-113066533D01*
X173571991Y-113637962D02*
X173667229Y-113685581D01*
X173905325Y-113685581D01*
X174000563Y-113637962D01*
X174048182Y-113542724D01*
X174048182Y-113447486D01*
X174000563Y-113352248D01*
X173905325Y-113304629D01*
X173667229Y-113304629D01*
X173571991Y-113257010D01*
X172952944Y-113685581D02*
X173048182Y-113637962D01*
X173095801Y-113542724D01*
X173095801Y-112685581D01*
X172429134Y-113685581D02*
X172524372Y-113637962D01*
X172571991Y-113590343D01*
X172619610Y-113495105D01*
X172619610Y-113209390D01*
X172571991Y-113114152D01*
X172524372Y-113066533D01*
X172429134Y-113018914D01*
X172286276Y-113018914D01*
X172191038Y-113066533D01*
X172143419Y-113114152D01*
X172095800Y-113209390D01*
X172095800Y-113495105D01*
X172143419Y-113590343D01*
X172191038Y-113637962D01*
X172286276Y-113685581D01*
X172429134Y-113685581D01*
X171238657Y-113018914D02*
X171238657Y-113828438D01*
X171286276Y-113923676D01*
X171333895Y-113971295D01*
X171429134Y-114018914D01*
X171571991Y-114018914D01*
X171667229Y-113971295D01*
X171238657Y-113637962D02*
X171333895Y-113685581D01*
X171524372Y-113685581D01*
X171619610Y-113637962D01*
X171667229Y-113590343D01*
X171714848Y-113495105D01*
X171714848Y-113209390D01*
X171667229Y-113114152D01*
X171619610Y-113066533D01*
X171524372Y-113018914D01*
X171333895Y-113018914D01*
X171238657Y-113066533D01*
X170857705Y-113018914D02*
X170333895Y-113018914D01*
X170857705Y-113685581D01*
X170333895Y-113685581D01*
X169810086Y-113685581D02*
X169905324Y-113637962D01*
X169952943Y-113590343D01*
X170000562Y-113495105D01*
X170000562Y-113209390D01*
X169952943Y-113114152D01*
X169905324Y-113066533D01*
X169810086Y-113018914D01*
X169667228Y-113018914D01*
X169571990Y-113066533D01*
X169524371Y-113114152D01*
X169476752Y-113209390D01*
X169476752Y-113495105D01*
X169524371Y-113590343D01*
X169571990Y-113637962D01*
X169667228Y-113685581D01*
X169810086Y-113685581D01*
X168905324Y-113685581D02*
X169000562Y-113637962D01*
X169048181Y-113590343D01*
X169095800Y-113495105D01*
X169095800Y-113209390D01*
X169048181Y-113114152D01*
X169000562Y-113066533D01*
X168905324Y-113018914D01*
X168762466Y-113018914D01*
X168667228Y-113066533D01*
X168619609Y-113114152D01*
X168571990Y-113209390D01*
X168571990Y-113495105D01*
X168619609Y-113590343D01*
X168667228Y-113637962D01*
X168762466Y-113685581D01*
X168905324Y-113685581D01*
X168143419Y-113590343D02*
X168095800Y-113637962D01*
X168143419Y-113685581D01*
X168191038Y-113637962D01*
X168143419Y-113590343D01*
X168143419Y-113685581D01*
X167238657Y-113637962D02*
X167333895Y-113685581D01*
X167524372Y-113685581D01*
X167619610Y-113637962D01*
X167667229Y-113590343D01*
X167714848Y-113495105D01*
X167714848Y-113209390D01*
X167667229Y-113114152D01*
X167619610Y-113066533D01*
X167524372Y-113018914D01*
X167333895Y-113018914D01*
X167238657Y-113066533D01*
X166667229Y-113685581D02*
X166762467Y-113637962D01*
X166810086Y-113590343D01*
X166857705Y-113495105D01*
X166857705Y-113209390D01*
X166810086Y-113114152D01*
X166762467Y-113066533D01*
X166667229Y-113018914D01*
X166524371Y-113018914D01*
X166429133Y-113066533D01*
X166381514Y-113114152D01*
X166333895Y-113209390D01*
X166333895Y-113495105D01*
X166381514Y-113590343D01*
X166429133Y-113637962D01*
X166524371Y-113685581D01*
X166667229Y-113685581D01*
X165905324Y-113685581D02*
X165905324Y-113018914D01*
X165905324Y-113114152D02*
X165857705Y-113066533D01*
X165762467Y-113018914D01*
X165619609Y-113018914D01*
X165524371Y-113066533D01*
X165476752Y-113161771D01*
X165476752Y-113685581D01*
X165476752Y-113161771D02*
X165429133Y-113066533D01*
X165333895Y-113018914D01*
X165191038Y-113018914D01*
X165095800Y-113066533D01*
X165048181Y-113161771D01*
X165048181Y-113685581D01*
X163857705Y-112637962D02*
X164714848Y-113923676D01*
X163524372Y-113685581D02*
X163524372Y-112685581D01*
X163524372Y-113066533D02*
X163429134Y-113018914D01*
X163238657Y-113018914D01*
X163143419Y-113066533D01*
X163095800Y-113114152D01*
X163048181Y-113209390D01*
X163048181Y-113495105D01*
X163095800Y-113590343D01*
X163143419Y-113637962D01*
X163238657Y-113685581D01*
X163429134Y-113685581D01*
X163524372Y-113637962D01*
X162191038Y-113018914D02*
X162191038Y-113685581D01*
X162619610Y-113018914D02*
X162619610Y-113542724D01*
X162571991Y-113637962D01*
X162476753Y-113685581D01*
X162333895Y-113685581D01*
X162238657Y-113637962D01*
X162191038Y-113590343D01*
X161762467Y-113637962D02*
X161667229Y-113685581D01*
X161476753Y-113685581D01*
X161381514Y-113637962D01*
X161333895Y-113542724D01*
X161333895Y-113495105D01*
X161381514Y-113399867D01*
X161476753Y-113352248D01*
X161619610Y-113352248D01*
X161714848Y-113304629D01*
X161762467Y-113209390D01*
X161762467Y-113161771D01*
X161714848Y-113066533D01*
X161619610Y-113018914D01*
X161476753Y-113018914D01*
X161381514Y-113066533D01*
X160905324Y-113685581D02*
X160905324Y-113018914D01*
X160905324Y-112685581D02*
X160952943Y-112733200D01*
X160905324Y-112780819D01*
X160857705Y-112733200D01*
X160905324Y-112685581D01*
X160905324Y-112780819D01*
X160429134Y-113018914D02*
X160429134Y-113685581D01*
X160429134Y-113114152D02*
X160381515Y-113066533D01*
X160286277Y-113018914D01*
X160143419Y-113018914D01*
X160048181Y-113066533D01*
X160000562Y-113161771D01*
X160000562Y-113685581D01*
X159143419Y-113637962D02*
X159238657Y-113685581D01*
X159429134Y-113685581D01*
X159524372Y-113637962D01*
X159571991Y-113542724D01*
X159571991Y-113161771D01*
X159524372Y-113066533D01*
X159429134Y-113018914D01*
X159238657Y-113018914D01*
X159143419Y-113066533D01*
X159095800Y-113161771D01*
X159095800Y-113257010D01*
X159571991Y-113352248D01*
X158714848Y-113637962D02*
X158619610Y-113685581D01*
X158429134Y-113685581D01*
X158333895Y-113637962D01*
X158286276Y-113542724D01*
X158286276Y-113495105D01*
X158333895Y-113399867D01*
X158429134Y-113352248D01*
X158571991Y-113352248D01*
X158667229Y-113304629D01*
X158714848Y-113209390D01*
X158714848Y-113161771D01*
X158667229Y-113066533D01*
X158571991Y-113018914D01*
X158429134Y-113018914D01*
X158333895Y-113066533D01*
X157905324Y-113637962D02*
X157810086Y-113685581D01*
X157619610Y-113685581D01*
X157524371Y-113637962D01*
X157476752Y-113542724D01*
X157476752Y-113495105D01*
X157524371Y-113399867D01*
X157619610Y-113352248D01*
X157762467Y-113352248D01*
X157857705Y-113304629D01*
X157905324Y-113209390D01*
X157905324Y-113161771D01*
X157857705Y-113066533D01*
X157762467Y-113018914D01*
X157619610Y-113018914D01*
X157524371Y-113066533D01*
X156619609Y-113637962D02*
X156714847Y-113685581D01*
X156905324Y-113685581D01*
X157000562Y-113637962D01*
X157048181Y-113590343D01*
X157095800Y-113495105D01*
X157095800Y-113209390D01*
X157048181Y-113114152D01*
X157000562Y-113066533D01*
X156905324Y-113018914D01*
X156714847Y-113018914D01*
X156619609Y-113066533D01*
X155762466Y-113685581D02*
X155762466Y-113161771D01*
X155810085Y-113066533D01*
X155905323Y-113018914D01*
X156095800Y-113018914D01*
X156191038Y-113066533D01*
X155762466Y-113637962D02*
X155857704Y-113685581D01*
X156095800Y-113685581D01*
X156191038Y-113637962D01*
X156238657Y-113542724D01*
X156238657Y-113447486D01*
X156191038Y-113352248D01*
X156095800Y-113304629D01*
X155857704Y-113304629D01*
X155762466Y-113257010D01*
X155286276Y-113685581D02*
X155286276Y-113018914D01*
X155286276Y-113209390D02*
X155238657Y-113114152D01*
X155191038Y-113066533D01*
X155095800Y-113018914D01*
X155000561Y-113018914D01*
X154238656Y-113685581D02*
X154238656Y-112685581D01*
X154238656Y-113637962D02*
X154333894Y-113685581D01*
X154524371Y-113685581D01*
X154619609Y-113637962D01*
X154667228Y-113590343D01*
X154714847Y-113495105D01*
X154714847Y-113209390D01*
X154667228Y-113114152D01*
X154619609Y-113066533D01*
X154524371Y-113018914D01*
X154333894Y-113018914D01*
X154238656Y-113066533D01*
M02*
