M48
;DRILL file {KiCad 4.0.7} date Monday, February 12, 2018 'PMt' 02:59:10 PM
;FORMAT={2:4/ absolute / inch / suppress leading zeros}
FMAT,2
INCH,TZ
T1C0.016
T2C0.035
T3C0.039
T4C0.035
%
G90
G05
M72
T1
X43250Y-46850
X43740Y-31540
X43980Y-33400
X44500Y-34820
X45040Y-34400
X46050Y-41400
X46050Y-43600
X46050Y-44550
X46580Y-30990
X46900Y-43600
X46900Y-47150
X47150Y-38350
X47600Y-35300
X48010Y-33260
X48400Y-38350
X48400Y-42600
X49050Y-40100
X49050Y-44350
X50050Y-36150
X50350Y-40350
X50350Y-43350
X50350Y-44550
X50720Y-39620
X50850Y-43150
X51320Y-31680
X51640Y-47200
X51880Y-29820
X52350Y-44350
X52700Y-40100
X53140Y-33430
X53300Y-38350
X53300Y-42750
X53720Y-46540
X54070Y-35980
X54150Y-38350
X54150Y-42600
X54750Y-44350
X56100Y-39090
X56300Y-43860
X56600Y-40250
X56600Y-44600
X57100Y-38900
X57100Y-43100
X57610Y-38940
X58300Y-43350
X58550Y-45100
X58550Y-46200
X58600Y-40850
X59050Y-38500
X59600Y-36960
X60050Y-40850
X60620Y-35260
X62150Y-30380
X62150Y-32450
X62710Y-37950
X63000Y-32460
X63200Y-41150
X63300Y-42550
X63610Y-35220
X63700Y-41160
X64100Y-42550
X64160Y-39690
X64520Y-30200
X64590Y-35220
X64700Y-36920
X65700Y-41650
X65710Y-36920
X65720Y-37940
X65870Y-34220
X66180Y-42840
X66400Y-30700
X66470Y-38940
X66490Y-34300
X67000Y-32900
X67010Y-34290
X67770Y-40240
X67850Y-43200
X68320Y-36450
X68700Y-31350
X69180Y-34510
X69790Y-37950
X70250Y-37200
X71000Y-38070
X75510Y-33150
X75510Y-39690
X75510Y-46220
T2
X56230Y-29492
X56230Y-32248
T3
X56200Y-34450
X57200Y-34450
T4
X43583Y-37205
X43583Y-38937
T0
M30
