M48
;DRILL file {KiCad 4.0.7} date Monday, February 05, 2018 'PMt' 08:46:37 PM
;FORMAT={2:4/ absolute / inch / suppress leading zeros}
FMAT,2
INCH,TZ
T1C0.016
T2C0.035
T3C0.039
T4C0.035
%
G90
G05
M72
T1
X42700Y-41400
X42700Y-43800
X42700Y-47350
X43450Y-33700
X44300Y-41400
X44300Y-43800
X44300Y-44900
X44300Y-47350
X45250Y-35300
X45850Y-40800
X45850Y-43300
X45850Y-46850
X46350Y-42200
X46350Y-45600
X46740Y-30520
X46850Y-33850
X46850Y-46500
X47350Y-28850
X47350Y-41950
X47350Y-43000
X47350Y-45450
X47350Y-46500
X47850Y-44400
X47850Y-46500
X47950Y-43000
X48750Y-36900
X49400Y-41550
X49400Y-45000
X49700Y-39300
X49740Y-34790
X49950Y-30150
X51220Y-37580
X51250Y-38560
X52300Y-43800
X52300Y-45000
X52300Y-47300
X52380Y-30160
X52880Y-34790
X53170Y-37390
X53350Y-45400
X53366Y-46220
X53500Y-33180
X53858Y-45492
X54030Y-31930
X54170Y-37390
X54170Y-39910
X54350Y-43350
X54350Y-44400
X54350Y-45984
X54843Y-45492
X54850Y-40700
X54850Y-42050
X54850Y-46800
X54862Y-43346
X55090Y-37580
X55350Y-43200
X55350Y-45500
X55354Y-42067
X55400Y-34300
X55850Y-40700
X55850Y-46450
X56350Y-43390
X56770Y-42160
X56800Y-41400
X57290Y-30910
X57400Y-43800
X57400Y-45000
X57500Y-31900
X58150Y-33769
X58209Y-38071
X58740Y-33000
X59250Y-28950
X59800Y-31000
X60050Y-34600
X61300Y-31500
X61614Y-38563
X61800Y-34050
X62040Y-35974
X62200Y-41000
X62950Y-37710
X64232Y-33209
X64291Y-35256
X64300Y-37450
X65300Y-38700
X65413Y-32421
X65413Y-34626
X65800Y-38700
X66800Y-34650
X66800Y-35800
X67060Y-28620
X67323Y-39311
X67550Y-34650
X67550Y-36800
X67890Y-37580
X68051Y-29961
X68189Y-30945
X68250Y-35700
X68250Y-40450
X68800Y-31960
X69067Y-39213
X69700Y-29450
X69700Y-34100
X71580Y-37580
X71870Y-31960
X72216Y-39311
X73310Y-30160
X73425Y-38071
X75510Y-33150
X75510Y-39690
X75510Y-46220
T2
X58878Y-36693
X58878Y-39449
T3
X58150Y-28950
X58150Y-29950
T4
X43583Y-37205
X43583Y-38937
T0
M30
