%TF.GenerationSoftware,KiCad,Pcbnew,4.0.7*%
%TF.CreationDate,2018-02-12T14:59:05-05:00*%
%TF.ProjectId,BusinessCard,427573696E657373436172642E6B6963,rev?*%
%TF.FileFunction,Copper,L3,Inr,Signal*%
%FSLAX46Y46*%
G04 Gerber Fmt 4.6, Leading zero omitted, Abs format (unit mm)*
G04 Created by KiCad (PCBNEW 4.0.7) date Monday, February 12, 2018 'PMt' 02:59:05 PM*
%MOMM*%
%LPD*%
G01*
G04 APERTURE LIST*
%ADD10C,0.100000*%
%ADD11R,1.700000X1.700000*%
%ADD12O,1.700000X1.700000*%
%ADD13C,1.524000*%
%ADD14C,0.600000*%
%ADD15C,0.250000*%
%ADD16C,0.254000*%
G04 APERTURE END LIST*
D10*
D11*
X145288000Y-87503000D03*
D12*
X142748000Y-87503000D03*
D13*
X142824200Y-74909800D03*
X142824200Y-81909800D03*
D14*
X131165600Y-119888000D03*
X170180000Y-83566000D03*
X127127000Y-91821000D03*
X129159000Y-109601000D03*
X127889000Y-102489000D03*
X135382000Y-97409000D03*
X145034000Y-98806000D03*
X137541000Y-97409000D03*
X143764000Y-102235000D03*
X127889000Y-113157000D03*
X132969000Y-112649000D03*
X143764000Y-113284000D03*
X145034000Y-109474000D03*
X137541000Y-108204000D03*
X109855000Y-118999000D03*
X116967000Y-113157000D03*
X116967000Y-105156000D03*
X157861000Y-82423000D03*
X131775200Y-75742800D03*
X111709200Y-84836000D03*
X111099600Y-80111600D03*
X166878000Y-105791000D03*
X160782000Y-108077000D03*
X166928800Y-96367600D03*
X164058600Y-89458800D03*
X168884600Y-87122000D03*
X136448800Y-118211600D03*
X174498000Y-79629000D03*
X148082000Y-110109000D03*
X160528000Y-104521000D03*
X124587000Y-101854000D03*
X133858000Y-101854000D03*
X149987000Y-97790000D03*
X139065000Y-112649000D03*
X135382000Y-108585000D03*
X124587000Y-112649000D03*
X116967000Y-110744000D03*
X119126000Y-119761000D03*
X160020000Y-82448400D03*
X157861000Y-77165200D03*
X137337800Y-91389200D03*
X120904000Y-89662000D03*
X130352800Y-80467200D03*
X134975600Y-84912200D03*
X118313200Y-78714600D03*
X121945400Y-84480400D03*
X113030000Y-88442800D03*
X114401600Y-87376000D03*
X153974800Y-89560400D03*
X172339000Y-109728000D03*
X162966400Y-100812600D03*
X172135800Y-102209600D03*
X159283400Y-96393000D03*
X177266600Y-96393000D03*
X173532800Y-92583000D03*
X175717200Y-87655400D03*
X161569400Y-89458800D03*
X191795400Y-117398800D03*
X191795400Y-100812600D03*
X191795400Y-84201000D03*
X152527000Y-103759000D03*
X148844000Y-103759000D03*
X148717000Y-117348000D03*
X148717000Y-114554000D03*
X119126000Y-110744000D03*
X122936000Y-108204000D03*
X119761000Y-97409000D03*
X122936000Y-97409000D03*
X128828800Y-100634800D03*
X161798000Y-104546400D03*
X163880800Y-76708000D03*
X143002000Y-111404400D03*
X168097200Y-108813600D03*
X168656000Y-77978000D03*
X162814000Y-108077000D03*
X178435000Y-94488000D03*
X146329400Y-98907600D03*
X168833800Y-98907600D03*
X180340000Y-96697800D03*
X142494000Y-99288600D03*
X167309800Y-86918800D03*
X127889000Y-110109000D03*
X170205400Y-87096600D03*
X151384000Y-93878400D03*
X164338000Y-93776800D03*
X166903400Y-93776800D03*
D15*
X148844000Y-103759000D02*
X152527000Y-103759000D01*
X148717000Y-114554000D02*
X148717000Y-117348000D01*
X119126000Y-110363000D02*
X119126000Y-110744000D01*
X121285000Y-108204000D02*
X119126000Y-110363000D01*
X122936000Y-108204000D02*
X121285000Y-108204000D01*
X122936000Y-97409000D02*
X119761000Y-97409000D01*
X161798000Y-101752400D02*
X161798000Y-101701600D01*
X160731200Y-100634800D02*
X161798000Y-101701600D01*
X152755600Y-100634800D02*
X160731200Y-100634800D01*
X133146800Y-100634800D02*
X152755600Y-100634800D01*
X133146800Y-100634800D02*
X128828800Y-100634800D01*
X161798000Y-98704400D02*
X161798000Y-101752400D01*
X161798000Y-101752400D02*
X161798000Y-104546400D01*
X162814000Y-97688400D02*
X161798000Y-98704400D01*
X162814000Y-77774800D02*
X162814000Y-97688400D01*
X163880800Y-76708000D02*
X162814000Y-77774800D01*
X168097200Y-108813600D02*
X168097200Y-109474000D01*
X166166800Y-111404400D02*
X143002000Y-111404400D01*
X168097200Y-109474000D02*
X166166800Y-111404400D01*
X168097200Y-78536800D02*
X168097200Y-108813600D01*
X168656000Y-77978000D02*
X168097200Y-78536800D01*
X178130200Y-98907600D02*
X168833800Y-98907600D01*
X180340000Y-96697800D02*
X178130200Y-98907600D01*
X128930400Y-93878400D02*
X151384000Y-93878400D01*
X126669800Y-96139000D02*
X128930400Y-93878400D01*
X126669800Y-108889800D02*
X126669800Y-96139000D01*
X126669800Y-108889800D02*
X127889000Y-110109000D01*
D16*
G36*
X191979883Y-71934355D02*
X192810587Y-72489413D01*
X193365646Y-73320118D01*
X193569000Y-74342448D01*
X193569000Y-119057552D01*
X193365646Y-120079882D01*
X192810587Y-120910587D01*
X191979883Y-121465645D01*
X190957552Y-121669000D01*
X108142448Y-121669000D01*
X107120118Y-121465646D01*
X106289413Y-120910587D01*
X105734355Y-120079883D01*
X105723014Y-120022865D01*
X130484482Y-120022865D01*
X130587939Y-120273252D01*
X130779341Y-120464987D01*
X131029546Y-120568882D01*
X131300465Y-120569118D01*
X131550852Y-120465661D01*
X131742587Y-120274259D01*
X131846482Y-120024054D01*
X131846718Y-119753135D01*
X131743261Y-119502748D01*
X131551859Y-119311013D01*
X131301654Y-119207118D01*
X131030735Y-119206882D01*
X130780348Y-119310339D01*
X130588613Y-119501741D01*
X130484718Y-119751946D01*
X130484482Y-120022865D01*
X105723014Y-120022865D01*
X105546180Y-119133865D01*
X109173882Y-119133865D01*
X109277339Y-119384252D01*
X109468741Y-119575987D01*
X109718946Y-119679882D01*
X109989865Y-119680118D01*
X110240252Y-119576661D01*
X110431987Y-119385259D01*
X110535882Y-119135054D01*
X110536118Y-118864135D01*
X110432661Y-118613748D01*
X110241259Y-118422013D01*
X109991054Y-118318118D01*
X109720135Y-118317882D01*
X109469748Y-118421339D01*
X109278013Y-118612741D01*
X109174118Y-118862946D01*
X109173882Y-119133865D01*
X105546180Y-119133865D01*
X105531000Y-119057552D01*
X105531000Y-114688865D01*
X148035882Y-114688865D01*
X148139339Y-114939252D01*
X148211000Y-115011038D01*
X148211000Y-116890877D01*
X148140013Y-116961741D01*
X148036118Y-117211946D01*
X148035882Y-117482865D01*
X148139339Y-117733252D01*
X148330741Y-117924987D01*
X148580946Y-118028882D01*
X148851865Y-118029118D01*
X149102252Y-117925661D01*
X149293987Y-117734259D01*
X149397882Y-117484054D01*
X149398118Y-117213135D01*
X149294661Y-116962748D01*
X149223000Y-116890962D01*
X149223000Y-115011123D01*
X149293987Y-114940259D01*
X149397882Y-114690054D01*
X149398118Y-114419135D01*
X149294661Y-114168748D01*
X149103259Y-113977013D01*
X148853054Y-113873118D01*
X148582135Y-113872882D01*
X148331748Y-113976339D01*
X148140013Y-114167741D01*
X148036118Y-114417946D01*
X148035882Y-114688865D01*
X105531000Y-114688865D01*
X105531000Y-113291865D01*
X116285882Y-113291865D01*
X116389339Y-113542252D01*
X116580741Y-113733987D01*
X116830946Y-113837882D01*
X117101865Y-113838118D01*
X117352252Y-113734661D01*
X117543987Y-113543259D01*
X117647882Y-113293054D01*
X117647883Y-113291865D01*
X127207882Y-113291865D01*
X127311339Y-113542252D01*
X127502741Y-113733987D01*
X127752946Y-113837882D01*
X128023865Y-113838118D01*
X128274252Y-113734661D01*
X128465987Y-113543259D01*
X128517640Y-113418865D01*
X143082882Y-113418865D01*
X143186339Y-113669252D01*
X143377741Y-113860987D01*
X143627946Y-113964882D01*
X143898865Y-113965118D01*
X144149252Y-113861661D01*
X144340987Y-113670259D01*
X144444882Y-113420054D01*
X144445118Y-113149135D01*
X144341661Y-112898748D01*
X144150259Y-112707013D01*
X143900054Y-112603118D01*
X143629135Y-112602882D01*
X143378748Y-112706339D01*
X143187013Y-112897741D01*
X143083118Y-113147946D01*
X143082882Y-113418865D01*
X128517640Y-113418865D01*
X128569882Y-113293054D01*
X128570118Y-113022135D01*
X128471668Y-112783865D01*
X132287882Y-112783865D01*
X132391339Y-113034252D01*
X132582741Y-113225987D01*
X132832946Y-113329882D01*
X133103865Y-113330118D01*
X133354252Y-113226661D01*
X133545987Y-113035259D01*
X133649882Y-112785054D01*
X133650118Y-112514135D01*
X133546661Y-112263748D01*
X133355259Y-112072013D01*
X133105054Y-111968118D01*
X132834135Y-111967882D01*
X132583748Y-112071339D01*
X132392013Y-112262741D01*
X132288118Y-112512946D01*
X132287882Y-112783865D01*
X128471668Y-112783865D01*
X128466661Y-112771748D01*
X128275259Y-112580013D01*
X128025054Y-112476118D01*
X127754135Y-112475882D01*
X127503748Y-112579339D01*
X127312013Y-112770741D01*
X127208118Y-113020946D01*
X127207882Y-113291865D01*
X117647883Y-113291865D01*
X117648118Y-113022135D01*
X117544661Y-112771748D01*
X117353259Y-112580013D01*
X117103054Y-112476118D01*
X116832135Y-112475882D01*
X116581748Y-112579339D01*
X116390013Y-112770741D01*
X116286118Y-113020946D01*
X116285882Y-113291865D01*
X105531000Y-113291865D01*
X105531000Y-111539265D01*
X142320882Y-111539265D01*
X142424339Y-111789652D01*
X142615741Y-111981387D01*
X142865946Y-112085282D01*
X143136865Y-112085518D01*
X143387252Y-111982061D01*
X143459038Y-111910400D01*
X166166800Y-111910400D01*
X166360438Y-111871883D01*
X166524596Y-111762196D01*
X168454996Y-109831796D01*
X168564683Y-109667638D01*
X168603200Y-109474000D01*
X168603200Y-109270723D01*
X168674187Y-109199859D01*
X168778082Y-108949654D01*
X168778318Y-108678735D01*
X168674861Y-108428348D01*
X168603200Y-108356562D01*
X168603200Y-99549223D01*
X168697746Y-99588482D01*
X168968665Y-99588718D01*
X169219052Y-99485261D01*
X169290838Y-99413600D01*
X178130200Y-99413600D01*
X178323838Y-99375083D01*
X178487996Y-99265396D01*
X180374561Y-97378831D01*
X180474865Y-97378918D01*
X180725252Y-97275461D01*
X180916987Y-97084059D01*
X181020882Y-96833854D01*
X181021118Y-96562935D01*
X180917661Y-96312548D01*
X180726259Y-96120813D01*
X180476054Y-96016918D01*
X180205135Y-96016682D01*
X179954748Y-96120139D01*
X179763013Y-96311541D01*
X179659118Y-96561746D01*
X179659030Y-96663178D01*
X177920608Y-98401600D01*
X169290923Y-98401600D01*
X169220059Y-98330613D01*
X168969854Y-98226718D01*
X168698935Y-98226482D01*
X168603200Y-98266039D01*
X168603200Y-94622865D01*
X177753882Y-94622865D01*
X177857339Y-94873252D01*
X178048741Y-95064987D01*
X178298946Y-95168882D01*
X178569865Y-95169118D01*
X178820252Y-95065661D01*
X179011987Y-94874259D01*
X179115882Y-94624054D01*
X179116118Y-94353135D01*
X179012661Y-94102748D01*
X178821259Y-93911013D01*
X178571054Y-93807118D01*
X178300135Y-93806882D01*
X178049748Y-93910339D01*
X177858013Y-94101741D01*
X177754118Y-94351946D01*
X177753882Y-94622865D01*
X168603200Y-94622865D01*
X168603200Y-87742529D01*
X168748546Y-87802882D01*
X169019465Y-87803118D01*
X169269852Y-87699661D01*
X169461587Y-87508259D01*
X169550338Y-87294525D01*
X169627739Y-87481852D01*
X169819141Y-87673587D01*
X170069346Y-87777482D01*
X170340265Y-87777718D01*
X170590652Y-87674261D01*
X170782387Y-87482859D01*
X170886282Y-87232654D01*
X170886518Y-86961735D01*
X170783061Y-86711348D01*
X170591659Y-86519613D01*
X170341454Y-86415718D01*
X170070535Y-86415482D01*
X169820148Y-86518939D01*
X169628413Y-86710341D01*
X169539662Y-86924075D01*
X169462261Y-86736748D01*
X169270859Y-86545013D01*
X169020654Y-86441118D01*
X168749735Y-86440882D01*
X168603200Y-86501429D01*
X168603200Y-83700865D01*
X169498882Y-83700865D01*
X169602339Y-83951252D01*
X169793741Y-84142987D01*
X170043946Y-84246882D01*
X170314865Y-84247118D01*
X170565252Y-84143661D01*
X170756987Y-83952259D01*
X170860882Y-83702054D01*
X170861118Y-83431135D01*
X170757661Y-83180748D01*
X170566259Y-82989013D01*
X170316054Y-82885118D01*
X170045135Y-82884882D01*
X169794748Y-82988339D01*
X169603013Y-83179741D01*
X169499118Y-83429946D01*
X169498882Y-83700865D01*
X168603200Y-83700865D01*
X168603200Y-78746392D01*
X168690561Y-78659031D01*
X168790865Y-78659118D01*
X169041252Y-78555661D01*
X169232987Y-78364259D01*
X169336882Y-78114054D01*
X169337118Y-77843135D01*
X169233661Y-77592748D01*
X169042259Y-77401013D01*
X168792054Y-77297118D01*
X168521135Y-77296882D01*
X168270748Y-77400339D01*
X168079013Y-77591741D01*
X167975118Y-77841946D01*
X167975030Y-77943378D01*
X167739404Y-78179004D01*
X167629717Y-78343162D01*
X167591200Y-78536800D01*
X167591200Y-86298271D01*
X167445854Y-86237918D01*
X167174935Y-86237682D01*
X166924548Y-86341139D01*
X166732813Y-86532541D01*
X166628918Y-86782746D01*
X166628682Y-87053665D01*
X166732139Y-87304052D01*
X166923541Y-87495787D01*
X167173746Y-87599682D01*
X167444665Y-87599918D01*
X167591200Y-87539371D01*
X167591200Y-96187434D01*
X167506461Y-95982348D01*
X167315059Y-95790613D01*
X167064854Y-95686718D01*
X166793935Y-95686482D01*
X166543548Y-95789939D01*
X166351813Y-95981341D01*
X166247918Y-96231546D01*
X166247682Y-96502465D01*
X166351139Y-96752852D01*
X166542541Y-96944587D01*
X166792746Y-97048482D01*
X167063665Y-97048718D01*
X167314052Y-96945261D01*
X167505787Y-96753859D01*
X167591200Y-96548163D01*
X167591200Y-108356477D01*
X167520213Y-108427341D01*
X167416318Y-108677546D01*
X167416082Y-108948465D01*
X167519539Y-109198852D01*
X167588088Y-109267520D01*
X165957208Y-110898400D01*
X143459123Y-110898400D01*
X143388259Y-110827413D01*
X143138054Y-110723518D01*
X142867135Y-110723282D01*
X142616748Y-110826739D01*
X142425013Y-111018141D01*
X142321118Y-111268346D01*
X142320882Y-111539265D01*
X105531000Y-111539265D01*
X105531000Y-110878865D01*
X118444882Y-110878865D01*
X118548339Y-111129252D01*
X118739741Y-111320987D01*
X118989946Y-111424882D01*
X119260865Y-111425118D01*
X119511252Y-111321661D01*
X119702987Y-111130259D01*
X119806882Y-110880054D01*
X119807118Y-110609135D01*
X119745233Y-110459359D01*
X121494592Y-108710000D01*
X122478877Y-108710000D01*
X122549741Y-108780987D01*
X122799946Y-108884882D01*
X123070865Y-108885118D01*
X123321252Y-108781661D01*
X123512987Y-108590259D01*
X123616882Y-108340054D01*
X123617118Y-108069135D01*
X123513661Y-107818748D01*
X123322259Y-107627013D01*
X123072054Y-107523118D01*
X122801135Y-107522882D01*
X122550748Y-107626339D01*
X122478962Y-107698000D01*
X121285000Y-107698000D01*
X121091362Y-107736517D01*
X120927204Y-107846204D01*
X118768204Y-110005204D01*
X118658517Y-110169362D01*
X118638893Y-110268017D01*
X118549013Y-110357741D01*
X118445118Y-110607946D01*
X118444882Y-110878865D01*
X105531000Y-110878865D01*
X105531000Y-105290865D01*
X116285882Y-105290865D01*
X116389339Y-105541252D01*
X116580741Y-105732987D01*
X116830946Y-105836882D01*
X117101865Y-105837118D01*
X117352252Y-105733661D01*
X117543987Y-105542259D01*
X117647882Y-105292054D01*
X117648118Y-105021135D01*
X117544661Y-104770748D01*
X117353259Y-104579013D01*
X117103054Y-104475118D01*
X116832135Y-104474882D01*
X116581748Y-104578339D01*
X116390013Y-104769741D01*
X116286118Y-105019946D01*
X116285882Y-105290865D01*
X105531000Y-105290865D01*
X105531000Y-99064128D01*
X109870176Y-99064128D01*
X109996358Y-99369511D01*
X110229800Y-99603361D01*
X110534963Y-99730075D01*
X110865388Y-99730364D01*
X111170771Y-99604182D01*
X111404621Y-99370740D01*
X111531335Y-99065577D01*
X111531624Y-98735152D01*
X111405442Y-98429769D01*
X111172000Y-98195919D01*
X110866837Y-98069205D01*
X110536412Y-98068916D01*
X110231029Y-98195098D01*
X109997179Y-98428540D01*
X109870465Y-98733703D01*
X109870176Y-99064128D01*
X105531000Y-99064128D01*
X105531000Y-97543865D01*
X119079882Y-97543865D01*
X119183339Y-97794252D01*
X119374741Y-97985987D01*
X119624946Y-98089882D01*
X119895865Y-98090118D01*
X120146252Y-97986661D01*
X120218038Y-97915000D01*
X122478877Y-97915000D01*
X122549741Y-97985987D01*
X122799946Y-98089882D01*
X123070865Y-98090118D01*
X123321252Y-97986661D01*
X123512987Y-97795259D01*
X123616882Y-97545054D01*
X123617118Y-97274135D01*
X123513661Y-97023748D01*
X123322259Y-96832013D01*
X123072054Y-96728118D01*
X122801135Y-96727882D01*
X122550748Y-96831339D01*
X122478962Y-96903000D01*
X120218123Y-96903000D01*
X120147259Y-96832013D01*
X119897054Y-96728118D01*
X119626135Y-96727882D01*
X119375748Y-96831339D01*
X119184013Y-97022741D01*
X119080118Y-97272946D01*
X119079882Y-97543865D01*
X105531000Y-97543865D01*
X105531000Y-96139000D01*
X126163800Y-96139000D01*
X126163800Y-108889800D01*
X126202317Y-109083438D01*
X126312004Y-109247596D01*
X127207969Y-110143561D01*
X127207882Y-110243865D01*
X127311339Y-110494252D01*
X127502741Y-110685987D01*
X127752946Y-110789882D01*
X128023865Y-110790118D01*
X128274252Y-110686661D01*
X128465987Y-110495259D01*
X128569882Y-110245054D01*
X128570118Y-109974135D01*
X128471668Y-109735865D01*
X128477882Y-109735865D01*
X128581339Y-109986252D01*
X128772741Y-110177987D01*
X129022946Y-110281882D01*
X129293865Y-110282118D01*
X129544252Y-110178661D01*
X129735987Y-109987259D01*
X129839882Y-109737054D01*
X129839993Y-109608865D01*
X144352882Y-109608865D01*
X144456339Y-109859252D01*
X144647741Y-110050987D01*
X144897946Y-110154882D01*
X145168865Y-110155118D01*
X145419252Y-110051661D01*
X145610987Y-109860259D01*
X145714882Y-109610054D01*
X145715118Y-109339135D01*
X145611661Y-109088748D01*
X145420259Y-108897013D01*
X145170054Y-108793118D01*
X144899135Y-108792882D01*
X144648748Y-108896339D01*
X144457013Y-109087741D01*
X144353118Y-109337946D01*
X144352882Y-109608865D01*
X129839993Y-109608865D01*
X129840118Y-109466135D01*
X129736661Y-109215748D01*
X129545259Y-109024013D01*
X129295054Y-108920118D01*
X129024135Y-108919882D01*
X128773748Y-109023339D01*
X128582013Y-109214741D01*
X128478118Y-109464946D01*
X128477882Y-109735865D01*
X128471668Y-109735865D01*
X128466661Y-109723748D01*
X128275259Y-109532013D01*
X128025054Y-109428118D01*
X127923622Y-109428030D01*
X127175800Y-108680208D01*
X127175800Y-108338865D01*
X136859882Y-108338865D01*
X136963339Y-108589252D01*
X137154741Y-108780987D01*
X137404946Y-108884882D01*
X137675865Y-108885118D01*
X137926252Y-108781661D01*
X138117987Y-108590259D01*
X138221882Y-108340054D01*
X138221993Y-108211865D01*
X160100882Y-108211865D01*
X160204339Y-108462252D01*
X160395741Y-108653987D01*
X160645946Y-108757882D01*
X160916865Y-108758118D01*
X161167252Y-108654661D01*
X161358987Y-108463259D01*
X161462882Y-108213054D01*
X161462883Y-108211865D01*
X162132882Y-108211865D01*
X162236339Y-108462252D01*
X162427741Y-108653987D01*
X162677946Y-108757882D01*
X162948865Y-108758118D01*
X163199252Y-108654661D01*
X163390987Y-108463259D01*
X163494882Y-108213054D01*
X163495118Y-107942135D01*
X163391661Y-107691748D01*
X163200259Y-107500013D01*
X162950054Y-107396118D01*
X162679135Y-107395882D01*
X162428748Y-107499339D01*
X162237013Y-107690741D01*
X162133118Y-107940946D01*
X162132882Y-108211865D01*
X161462883Y-108211865D01*
X161463118Y-107942135D01*
X161359661Y-107691748D01*
X161168259Y-107500013D01*
X160918054Y-107396118D01*
X160647135Y-107395882D01*
X160396748Y-107499339D01*
X160205013Y-107690741D01*
X160101118Y-107940946D01*
X160100882Y-108211865D01*
X138221993Y-108211865D01*
X138222118Y-108069135D01*
X138118661Y-107818748D01*
X137927259Y-107627013D01*
X137677054Y-107523118D01*
X137406135Y-107522882D01*
X137155748Y-107626339D01*
X136964013Y-107817741D01*
X136860118Y-108067946D01*
X136859882Y-108338865D01*
X127175800Y-108338865D01*
X127175800Y-105925865D01*
X166196882Y-105925865D01*
X166300339Y-106176252D01*
X166491741Y-106367987D01*
X166741946Y-106471882D01*
X167012865Y-106472118D01*
X167263252Y-106368661D01*
X167454987Y-106177259D01*
X167558882Y-105927054D01*
X167559118Y-105656135D01*
X167455661Y-105405748D01*
X167264259Y-105214013D01*
X167014054Y-105110118D01*
X166743135Y-105109882D01*
X166492748Y-105213339D01*
X166301013Y-105404741D01*
X166197118Y-105654946D01*
X166196882Y-105925865D01*
X127175800Y-105925865D01*
X127175800Y-103893865D01*
X148162882Y-103893865D01*
X148266339Y-104144252D01*
X148457741Y-104335987D01*
X148707946Y-104439882D01*
X148978865Y-104440118D01*
X149229252Y-104336661D01*
X149301038Y-104265000D01*
X152069877Y-104265000D01*
X152140741Y-104335987D01*
X152390946Y-104439882D01*
X152661865Y-104440118D01*
X152912252Y-104336661D01*
X153103987Y-104145259D01*
X153207882Y-103895054D01*
X153208118Y-103624135D01*
X153104661Y-103373748D01*
X152913259Y-103182013D01*
X152663054Y-103078118D01*
X152392135Y-103077882D01*
X152141748Y-103181339D01*
X152069962Y-103253000D01*
X149301123Y-103253000D01*
X149230259Y-103182013D01*
X148980054Y-103078118D01*
X148709135Y-103077882D01*
X148458748Y-103181339D01*
X148267013Y-103372741D01*
X148163118Y-103622946D01*
X148162882Y-103893865D01*
X127175800Y-103893865D01*
X127175800Y-102623865D01*
X127207882Y-102623865D01*
X127311339Y-102874252D01*
X127502741Y-103065987D01*
X127752946Y-103169882D01*
X128023865Y-103170118D01*
X128274252Y-103066661D01*
X128465987Y-102875259D01*
X128569882Y-102625054D01*
X128570104Y-102369865D01*
X143082882Y-102369865D01*
X143186339Y-102620252D01*
X143377741Y-102811987D01*
X143627946Y-102915882D01*
X143898865Y-102916118D01*
X144149252Y-102812661D01*
X144340987Y-102621259D01*
X144444882Y-102371054D01*
X144445118Y-102100135D01*
X144341661Y-101849748D01*
X144150259Y-101658013D01*
X143900054Y-101554118D01*
X143629135Y-101553882D01*
X143378748Y-101657339D01*
X143187013Y-101848741D01*
X143083118Y-102098946D01*
X143082882Y-102369865D01*
X128570104Y-102369865D01*
X128570118Y-102354135D01*
X128466661Y-102103748D01*
X128275259Y-101912013D01*
X128025054Y-101808118D01*
X127754135Y-101807882D01*
X127503748Y-101911339D01*
X127312013Y-102102741D01*
X127208118Y-102352946D01*
X127207882Y-102623865D01*
X127175800Y-102623865D01*
X127175800Y-100769665D01*
X128147682Y-100769665D01*
X128251139Y-101020052D01*
X128442541Y-101211787D01*
X128692746Y-101315682D01*
X128963665Y-101315918D01*
X129214052Y-101212461D01*
X129285838Y-101140800D01*
X160521608Y-101140800D01*
X161292000Y-101911192D01*
X161292000Y-104089277D01*
X161221013Y-104160141D01*
X161117118Y-104410346D01*
X161116882Y-104681265D01*
X161220339Y-104931652D01*
X161411741Y-105123387D01*
X161661946Y-105227282D01*
X161932865Y-105227518D01*
X162183252Y-105124061D01*
X162374987Y-104932659D01*
X162478882Y-104682454D01*
X162479118Y-104411535D01*
X162375661Y-104161148D01*
X162304000Y-104089362D01*
X162304000Y-98913992D01*
X163171796Y-98046196D01*
X163281483Y-97882038D01*
X163320000Y-97688400D01*
X163320000Y-93911665D01*
X163656882Y-93911665D01*
X163760339Y-94162052D01*
X163951741Y-94353787D01*
X164201946Y-94457682D01*
X164472865Y-94457918D01*
X164723252Y-94354461D01*
X164914987Y-94163059D01*
X165018882Y-93912854D01*
X165018883Y-93911665D01*
X166222282Y-93911665D01*
X166325739Y-94162052D01*
X166517141Y-94353787D01*
X166767346Y-94457682D01*
X167038265Y-94457918D01*
X167288652Y-94354461D01*
X167480387Y-94163059D01*
X167584282Y-93912854D01*
X167584518Y-93641935D01*
X167481061Y-93391548D01*
X167289659Y-93199813D01*
X167039454Y-93095918D01*
X166768535Y-93095682D01*
X166518148Y-93199139D01*
X166326413Y-93390541D01*
X166222518Y-93640746D01*
X166222282Y-93911665D01*
X165018883Y-93911665D01*
X165019118Y-93641935D01*
X164915661Y-93391548D01*
X164724259Y-93199813D01*
X164474054Y-93095918D01*
X164203135Y-93095682D01*
X163952748Y-93199139D01*
X163761013Y-93390541D01*
X163657118Y-93640746D01*
X163656882Y-93911665D01*
X163320000Y-93911665D01*
X163320000Y-89593665D01*
X163377482Y-89593665D01*
X163480939Y-89844052D01*
X163672341Y-90035787D01*
X163922546Y-90139682D01*
X164193465Y-90139918D01*
X164443852Y-90036461D01*
X164635587Y-89845059D01*
X164739482Y-89594854D01*
X164739718Y-89323935D01*
X164636261Y-89073548D01*
X164444859Y-88881813D01*
X164194654Y-88777918D01*
X163923735Y-88777682D01*
X163673348Y-88881139D01*
X163481613Y-89072541D01*
X163377718Y-89322746D01*
X163377482Y-89593665D01*
X163320000Y-89593665D01*
X163320000Y-77984392D01*
X163915361Y-77389031D01*
X164015665Y-77389118D01*
X164266052Y-77285661D01*
X164457787Y-77094259D01*
X164561682Y-76844054D01*
X164561918Y-76573135D01*
X164458461Y-76322748D01*
X164267059Y-76131013D01*
X164016854Y-76027118D01*
X163745935Y-76026882D01*
X163495548Y-76130339D01*
X163303813Y-76321741D01*
X163199918Y-76571946D01*
X163199830Y-76673378D01*
X162456204Y-77417004D01*
X162346517Y-77581162D01*
X162308000Y-77774800D01*
X162308000Y-97478808D01*
X161440204Y-98346604D01*
X161330517Y-98510762D01*
X161292000Y-98704400D01*
X161292000Y-100480008D01*
X161088996Y-100277004D01*
X160924838Y-100167317D01*
X160731200Y-100128800D01*
X129285923Y-100128800D01*
X129215059Y-100057813D01*
X128964854Y-99953918D01*
X128693935Y-99953682D01*
X128443548Y-100057139D01*
X128251813Y-100248541D01*
X128147918Y-100498746D01*
X128147682Y-100769665D01*
X127175800Y-100769665D01*
X127175800Y-99423465D01*
X141812882Y-99423465D01*
X141916339Y-99673852D01*
X142107741Y-99865587D01*
X142357946Y-99969482D01*
X142628865Y-99969718D01*
X142879252Y-99866261D01*
X143070987Y-99674859D01*
X143174882Y-99424654D01*
X143175118Y-99153735D01*
X143087163Y-98940865D01*
X144352882Y-98940865D01*
X144456339Y-99191252D01*
X144647741Y-99382987D01*
X144897946Y-99486882D01*
X145168865Y-99487118D01*
X145419252Y-99383661D01*
X145610987Y-99192259D01*
X145660704Y-99072528D01*
X145751739Y-99292852D01*
X145943141Y-99484587D01*
X146193346Y-99588482D01*
X146464265Y-99588718D01*
X146714652Y-99485261D01*
X146906387Y-99293859D01*
X147010282Y-99043654D01*
X147010518Y-98772735D01*
X146907061Y-98522348D01*
X146715659Y-98330613D01*
X146465454Y-98226718D01*
X146194535Y-98226482D01*
X145944148Y-98329939D01*
X145752413Y-98521341D01*
X145702696Y-98641072D01*
X145611661Y-98420748D01*
X145420259Y-98229013D01*
X145170054Y-98125118D01*
X144899135Y-98124882D01*
X144648748Y-98228339D01*
X144457013Y-98419741D01*
X144353118Y-98669946D01*
X144352882Y-98940865D01*
X143087163Y-98940865D01*
X143071661Y-98903348D01*
X142880259Y-98711613D01*
X142630054Y-98607718D01*
X142359135Y-98607482D01*
X142108748Y-98710939D01*
X141917013Y-98902341D01*
X141813118Y-99152546D01*
X141812882Y-99423465D01*
X127175800Y-99423465D01*
X127175800Y-97543865D01*
X134700882Y-97543865D01*
X134804339Y-97794252D01*
X134995741Y-97985987D01*
X135245946Y-98089882D01*
X135516865Y-98090118D01*
X135767252Y-97986661D01*
X135958987Y-97795259D01*
X136062882Y-97545054D01*
X136062883Y-97543865D01*
X136859882Y-97543865D01*
X136963339Y-97794252D01*
X137154741Y-97985987D01*
X137404946Y-98089882D01*
X137675865Y-98090118D01*
X137926252Y-97986661D01*
X138117987Y-97795259D01*
X138221882Y-97545054D01*
X138222118Y-97274135D01*
X138118661Y-97023748D01*
X137927259Y-96832013D01*
X137677054Y-96728118D01*
X137406135Y-96727882D01*
X137155748Y-96831339D01*
X136964013Y-97022741D01*
X136860118Y-97272946D01*
X136859882Y-97543865D01*
X136062883Y-97543865D01*
X136063118Y-97274135D01*
X135959661Y-97023748D01*
X135768259Y-96832013D01*
X135518054Y-96728118D01*
X135247135Y-96727882D01*
X134996748Y-96831339D01*
X134805013Y-97022741D01*
X134701118Y-97272946D01*
X134700882Y-97543865D01*
X127175800Y-97543865D01*
X127175800Y-96348592D01*
X129139992Y-94384400D01*
X150926877Y-94384400D01*
X150997741Y-94455387D01*
X151247946Y-94559282D01*
X151518865Y-94559518D01*
X151769252Y-94456061D01*
X151960987Y-94264659D01*
X152064882Y-94014454D01*
X152065118Y-93743535D01*
X151961661Y-93493148D01*
X151770259Y-93301413D01*
X151520054Y-93197518D01*
X151249135Y-93197282D01*
X150998748Y-93300739D01*
X150926962Y-93372400D01*
X128930400Y-93372400D01*
X128736762Y-93410917D01*
X128572604Y-93520604D01*
X126312004Y-95781204D01*
X126202317Y-95945362D01*
X126163800Y-96139000D01*
X105531000Y-96139000D01*
X105531000Y-94664848D01*
X109870176Y-94664848D01*
X109996358Y-94970231D01*
X110229800Y-95204081D01*
X110534963Y-95330795D01*
X110865388Y-95331084D01*
X111170771Y-95204902D01*
X111404621Y-94971460D01*
X111531335Y-94666297D01*
X111531624Y-94335872D01*
X111405442Y-94030489D01*
X111172000Y-93796639D01*
X110866837Y-93669925D01*
X110536412Y-93669636D01*
X110231029Y-93795818D01*
X109997179Y-94029260D01*
X109870465Y-94334423D01*
X109870176Y-94664848D01*
X105531000Y-94664848D01*
X105531000Y-91955865D01*
X126445882Y-91955865D01*
X126549339Y-92206252D01*
X126740741Y-92397987D01*
X126990946Y-92501882D01*
X127261865Y-92502118D01*
X127512252Y-92398661D01*
X127703987Y-92207259D01*
X127807882Y-91957054D01*
X127808118Y-91686135D01*
X127704661Y-91435748D01*
X127513259Y-91244013D01*
X127263054Y-91140118D01*
X126992135Y-91139882D01*
X126741748Y-91243339D01*
X126550013Y-91434741D01*
X126446118Y-91684946D01*
X126445882Y-91955865D01*
X105531000Y-91955865D01*
X105531000Y-87478883D01*
X141517000Y-87478883D01*
X141517000Y-87527117D01*
X141610704Y-87998200D01*
X141877552Y-88397565D01*
X142276917Y-88664413D01*
X142748000Y-88758117D01*
X143219083Y-88664413D01*
X143618448Y-88397565D01*
X143885296Y-87998200D01*
X143979000Y-87527117D01*
X143979000Y-87478883D01*
X143885296Y-87007800D01*
X143648226Y-86653000D01*
X144049536Y-86653000D01*
X144049536Y-88353000D01*
X144076103Y-88494190D01*
X144159546Y-88623865D01*
X144286866Y-88710859D01*
X144438000Y-88741464D01*
X146138000Y-88741464D01*
X146279190Y-88714897D01*
X146408865Y-88631454D01*
X146495859Y-88504134D01*
X146526464Y-88353000D01*
X146526464Y-86653000D01*
X146499897Y-86511810D01*
X146416454Y-86382135D01*
X146289134Y-86295141D01*
X146138000Y-86264536D01*
X144438000Y-86264536D01*
X144296810Y-86291103D01*
X144167135Y-86374546D01*
X144080141Y-86501866D01*
X144049536Y-86653000D01*
X143648226Y-86653000D01*
X143618448Y-86608435D01*
X143219083Y-86341587D01*
X142748000Y-86247883D01*
X142276917Y-86341587D01*
X141877552Y-86608435D01*
X141610704Y-87007800D01*
X141517000Y-87478883D01*
X105531000Y-87478883D01*
X105531000Y-84970865D01*
X111028082Y-84970865D01*
X111131539Y-85221252D01*
X111322941Y-85412987D01*
X111573146Y-85516882D01*
X111844065Y-85517118D01*
X112094452Y-85413661D01*
X112286187Y-85222259D01*
X112390082Y-84972054D01*
X112390318Y-84701135D01*
X112286861Y-84450748D01*
X112095459Y-84259013D01*
X111845254Y-84155118D01*
X111574335Y-84154882D01*
X111323948Y-84258339D01*
X111132213Y-84449741D01*
X111028318Y-84699946D01*
X111028082Y-84970865D01*
X105531000Y-84970865D01*
X105531000Y-82136159D01*
X141681002Y-82136159D01*
X141854646Y-82556412D01*
X142175897Y-82878223D01*
X142595846Y-83052601D01*
X143050559Y-83052998D01*
X143470812Y-82879354D01*
X143792623Y-82558103D01*
X143792721Y-82557865D01*
X157179882Y-82557865D01*
X157283339Y-82808252D01*
X157474741Y-82999987D01*
X157724946Y-83103882D01*
X157995865Y-83104118D01*
X158246252Y-83000661D01*
X158437987Y-82809259D01*
X158541882Y-82559054D01*
X158542118Y-82288135D01*
X158438661Y-82037748D01*
X158247259Y-81846013D01*
X157997054Y-81742118D01*
X157726135Y-81741882D01*
X157475748Y-81845339D01*
X157284013Y-82036741D01*
X157180118Y-82286946D01*
X157179882Y-82557865D01*
X143792721Y-82557865D01*
X143967001Y-82138154D01*
X143967398Y-81683441D01*
X143793754Y-81263188D01*
X143472503Y-80941377D01*
X143052554Y-80766999D01*
X142597841Y-80766602D01*
X142177588Y-80940246D01*
X141855777Y-81261497D01*
X141681399Y-81681446D01*
X141681002Y-82136159D01*
X105531000Y-82136159D01*
X105531000Y-80246465D01*
X110418482Y-80246465D01*
X110521939Y-80496852D01*
X110713341Y-80688587D01*
X110963546Y-80792482D01*
X111234465Y-80792718D01*
X111484852Y-80689261D01*
X111676587Y-80497859D01*
X111780482Y-80247654D01*
X111780718Y-79976735D01*
X111677261Y-79726348D01*
X111485859Y-79534613D01*
X111235654Y-79430718D01*
X110964735Y-79430482D01*
X110714348Y-79533939D01*
X110522613Y-79725341D01*
X110418718Y-79975546D01*
X110418482Y-80246465D01*
X105531000Y-80246465D01*
X105531000Y-75877665D01*
X131094082Y-75877665D01*
X131197539Y-76128052D01*
X131388941Y-76319787D01*
X131639146Y-76423682D01*
X131910065Y-76423918D01*
X132160452Y-76320461D01*
X132352187Y-76129059D01*
X132451448Y-75890013D01*
X142023592Y-75890013D01*
X142093057Y-76132197D01*
X142616502Y-76318944D01*
X143171568Y-76291162D01*
X143555343Y-76132197D01*
X143624808Y-75890013D01*
X142824200Y-75089405D01*
X142023592Y-75890013D01*
X132451448Y-75890013D01*
X132456082Y-75878854D01*
X132456318Y-75607935D01*
X132352861Y-75357548D01*
X132161459Y-75165813D01*
X131911254Y-75061918D01*
X131640335Y-75061682D01*
X131389948Y-75165139D01*
X131198213Y-75356541D01*
X131094318Y-75606746D01*
X131094082Y-75877665D01*
X105531000Y-75877665D01*
X105531000Y-74702102D01*
X141415056Y-74702102D01*
X141442838Y-75257168D01*
X141601803Y-75640943D01*
X141843987Y-75710408D01*
X142644595Y-74909800D01*
X143003805Y-74909800D01*
X143804413Y-75710408D01*
X144046597Y-75640943D01*
X144233344Y-75117498D01*
X144205562Y-74562432D01*
X144046597Y-74178657D01*
X143804413Y-74109192D01*
X143003805Y-74909800D01*
X142644595Y-74909800D01*
X141843987Y-74109192D01*
X141601803Y-74178657D01*
X141415056Y-74702102D01*
X105531000Y-74702102D01*
X105531000Y-74342448D01*
X105613123Y-73929587D01*
X142023592Y-73929587D01*
X142824200Y-74730195D01*
X143624808Y-73929587D01*
X143555343Y-73687403D01*
X143031898Y-73500656D01*
X142476832Y-73528438D01*
X142093057Y-73687403D01*
X142023592Y-73929587D01*
X105613123Y-73929587D01*
X105734355Y-73320117D01*
X106289413Y-72489413D01*
X107120118Y-71934354D01*
X108142448Y-71731000D01*
X190957552Y-71731000D01*
X191979883Y-71934355D01*
X191979883Y-71934355D01*
G37*
X191979883Y-71934355D02*
X192810587Y-72489413D01*
X193365646Y-73320118D01*
X193569000Y-74342448D01*
X193569000Y-119057552D01*
X193365646Y-120079882D01*
X192810587Y-120910587D01*
X191979883Y-121465645D01*
X190957552Y-121669000D01*
X108142448Y-121669000D01*
X107120118Y-121465646D01*
X106289413Y-120910587D01*
X105734355Y-120079883D01*
X105723014Y-120022865D01*
X130484482Y-120022865D01*
X130587939Y-120273252D01*
X130779341Y-120464987D01*
X131029546Y-120568882D01*
X131300465Y-120569118D01*
X131550852Y-120465661D01*
X131742587Y-120274259D01*
X131846482Y-120024054D01*
X131846718Y-119753135D01*
X131743261Y-119502748D01*
X131551859Y-119311013D01*
X131301654Y-119207118D01*
X131030735Y-119206882D01*
X130780348Y-119310339D01*
X130588613Y-119501741D01*
X130484718Y-119751946D01*
X130484482Y-120022865D01*
X105723014Y-120022865D01*
X105546180Y-119133865D01*
X109173882Y-119133865D01*
X109277339Y-119384252D01*
X109468741Y-119575987D01*
X109718946Y-119679882D01*
X109989865Y-119680118D01*
X110240252Y-119576661D01*
X110431987Y-119385259D01*
X110535882Y-119135054D01*
X110536118Y-118864135D01*
X110432661Y-118613748D01*
X110241259Y-118422013D01*
X109991054Y-118318118D01*
X109720135Y-118317882D01*
X109469748Y-118421339D01*
X109278013Y-118612741D01*
X109174118Y-118862946D01*
X109173882Y-119133865D01*
X105546180Y-119133865D01*
X105531000Y-119057552D01*
X105531000Y-114688865D01*
X148035882Y-114688865D01*
X148139339Y-114939252D01*
X148211000Y-115011038D01*
X148211000Y-116890877D01*
X148140013Y-116961741D01*
X148036118Y-117211946D01*
X148035882Y-117482865D01*
X148139339Y-117733252D01*
X148330741Y-117924987D01*
X148580946Y-118028882D01*
X148851865Y-118029118D01*
X149102252Y-117925661D01*
X149293987Y-117734259D01*
X149397882Y-117484054D01*
X149398118Y-117213135D01*
X149294661Y-116962748D01*
X149223000Y-116890962D01*
X149223000Y-115011123D01*
X149293987Y-114940259D01*
X149397882Y-114690054D01*
X149398118Y-114419135D01*
X149294661Y-114168748D01*
X149103259Y-113977013D01*
X148853054Y-113873118D01*
X148582135Y-113872882D01*
X148331748Y-113976339D01*
X148140013Y-114167741D01*
X148036118Y-114417946D01*
X148035882Y-114688865D01*
X105531000Y-114688865D01*
X105531000Y-113291865D01*
X116285882Y-113291865D01*
X116389339Y-113542252D01*
X116580741Y-113733987D01*
X116830946Y-113837882D01*
X117101865Y-113838118D01*
X117352252Y-113734661D01*
X117543987Y-113543259D01*
X117647882Y-113293054D01*
X117647883Y-113291865D01*
X127207882Y-113291865D01*
X127311339Y-113542252D01*
X127502741Y-113733987D01*
X127752946Y-113837882D01*
X128023865Y-113838118D01*
X128274252Y-113734661D01*
X128465987Y-113543259D01*
X128517640Y-113418865D01*
X143082882Y-113418865D01*
X143186339Y-113669252D01*
X143377741Y-113860987D01*
X143627946Y-113964882D01*
X143898865Y-113965118D01*
X144149252Y-113861661D01*
X144340987Y-113670259D01*
X144444882Y-113420054D01*
X144445118Y-113149135D01*
X144341661Y-112898748D01*
X144150259Y-112707013D01*
X143900054Y-112603118D01*
X143629135Y-112602882D01*
X143378748Y-112706339D01*
X143187013Y-112897741D01*
X143083118Y-113147946D01*
X143082882Y-113418865D01*
X128517640Y-113418865D01*
X128569882Y-113293054D01*
X128570118Y-113022135D01*
X128471668Y-112783865D01*
X132287882Y-112783865D01*
X132391339Y-113034252D01*
X132582741Y-113225987D01*
X132832946Y-113329882D01*
X133103865Y-113330118D01*
X133354252Y-113226661D01*
X133545987Y-113035259D01*
X133649882Y-112785054D01*
X133650118Y-112514135D01*
X133546661Y-112263748D01*
X133355259Y-112072013D01*
X133105054Y-111968118D01*
X132834135Y-111967882D01*
X132583748Y-112071339D01*
X132392013Y-112262741D01*
X132288118Y-112512946D01*
X132287882Y-112783865D01*
X128471668Y-112783865D01*
X128466661Y-112771748D01*
X128275259Y-112580013D01*
X128025054Y-112476118D01*
X127754135Y-112475882D01*
X127503748Y-112579339D01*
X127312013Y-112770741D01*
X127208118Y-113020946D01*
X127207882Y-113291865D01*
X117647883Y-113291865D01*
X117648118Y-113022135D01*
X117544661Y-112771748D01*
X117353259Y-112580013D01*
X117103054Y-112476118D01*
X116832135Y-112475882D01*
X116581748Y-112579339D01*
X116390013Y-112770741D01*
X116286118Y-113020946D01*
X116285882Y-113291865D01*
X105531000Y-113291865D01*
X105531000Y-111539265D01*
X142320882Y-111539265D01*
X142424339Y-111789652D01*
X142615741Y-111981387D01*
X142865946Y-112085282D01*
X143136865Y-112085518D01*
X143387252Y-111982061D01*
X143459038Y-111910400D01*
X166166800Y-111910400D01*
X166360438Y-111871883D01*
X166524596Y-111762196D01*
X168454996Y-109831796D01*
X168564683Y-109667638D01*
X168603200Y-109474000D01*
X168603200Y-109270723D01*
X168674187Y-109199859D01*
X168778082Y-108949654D01*
X168778318Y-108678735D01*
X168674861Y-108428348D01*
X168603200Y-108356562D01*
X168603200Y-99549223D01*
X168697746Y-99588482D01*
X168968665Y-99588718D01*
X169219052Y-99485261D01*
X169290838Y-99413600D01*
X178130200Y-99413600D01*
X178323838Y-99375083D01*
X178487996Y-99265396D01*
X180374561Y-97378831D01*
X180474865Y-97378918D01*
X180725252Y-97275461D01*
X180916987Y-97084059D01*
X181020882Y-96833854D01*
X181021118Y-96562935D01*
X180917661Y-96312548D01*
X180726259Y-96120813D01*
X180476054Y-96016918D01*
X180205135Y-96016682D01*
X179954748Y-96120139D01*
X179763013Y-96311541D01*
X179659118Y-96561746D01*
X179659030Y-96663178D01*
X177920608Y-98401600D01*
X169290923Y-98401600D01*
X169220059Y-98330613D01*
X168969854Y-98226718D01*
X168698935Y-98226482D01*
X168603200Y-98266039D01*
X168603200Y-94622865D01*
X177753882Y-94622865D01*
X177857339Y-94873252D01*
X178048741Y-95064987D01*
X178298946Y-95168882D01*
X178569865Y-95169118D01*
X178820252Y-95065661D01*
X179011987Y-94874259D01*
X179115882Y-94624054D01*
X179116118Y-94353135D01*
X179012661Y-94102748D01*
X178821259Y-93911013D01*
X178571054Y-93807118D01*
X178300135Y-93806882D01*
X178049748Y-93910339D01*
X177858013Y-94101741D01*
X177754118Y-94351946D01*
X177753882Y-94622865D01*
X168603200Y-94622865D01*
X168603200Y-87742529D01*
X168748546Y-87802882D01*
X169019465Y-87803118D01*
X169269852Y-87699661D01*
X169461587Y-87508259D01*
X169550338Y-87294525D01*
X169627739Y-87481852D01*
X169819141Y-87673587D01*
X170069346Y-87777482D01*
X170340265Y-87777718D01*
X170590652Y-87674261D01*
X170782387Y-87482859D01*
X170886282Y-87232654D01*
X170886518Y-86961735D01*
X170783061Y-86711348D01*
X170591659Y-86519613D01*
X170341454Y-86415718D01*
X170070535Y-86415482D01*
X169820148Y-86518939D01*
X169628413Y-86710341D01*
X169539662Y-86924075D01*
X169462261Y-86736748D01*
X169270859Y-86545013D01*
X169020654Y-86441118D01*
X168749735Y-86440882D01*
X168603200Y-86501429D01*
X168603200Y-83700865D01*
X169498882Y-83700865D01*
X169602339Y-83951252D01*
X169793741Y-84142987D01*
X170043946Y-84246882D01*
X170314865Y-84247118D01*
X170565252Y-84143661D01*
X170756987Y-83952259D01*
X170860882Y-83702054D01*
X170861118Y-83431135D01*
X170757661Y-83180748D01*
X170566259Y-82989013D01*
X170316054Y-82885118D01*
X170045135Y-82884882D01*
X169794748Y-82988339D01*
X169603013Y-83179741D01*
X169499118Y-83429946D01*
X169498882Y-83700865D01*
X168603200Y-83700865D01*
X168603200Y-78746392D01*
X168690561Y-78659031D01*
X168790865Y-78659118D01*
X169041252Y-78555661D01*
X169232987Y-78364259D01*
X169336882Y-78114054D01*
X169337118Y-77843135D01*
X169233661Y-77592748D01*
X169042259Y-77401013D01*
X168792054Y-77297118D01*
X168521135Y-77296882D01*
X168270748Y-77400339D01*
X168079013Y-77591741D01*
X167975118Y-77841946D01*
X167975030Y-77943378D01*
X167739404Y-78179004D01*
X167629717Y-78343162D01*
X167591200Y-78536800D01*
X167591200Y-86298271D01*
X167445854Y-86237918D01*
X167174935Y-86237682D01*
X166924548Y-86341139D01*
X166732813Y-86532541D01*
X166628918Y-86782746D01*
X166628682Y-87053665D01*
X166732139Y-87304052D01*
X166923541Y-87495787D01*
X167173746Y-87599682D01*
X167444665Y-87599918D01*
X167591200Y-87539371D01*
X167591200Y-96187434D01*
X167506461Y-95982348D01*
X167315059Y-95790613D01*
X167064854Y-95686718D01*
X166793935Y-95686482D01*
X166543548Y-95789939D01*
X166351813Y-95981341D01*
X166247918Y-96231546D01*
X166247682Y-96502465D01*
X166351139Y-96752852D01*
X166542541Y-96944587D01*
X166792746Y-97048482D01*
X167063665Y-97048718D01*
X167314052Y-96945261D01*
X167505787Y-96753859D01*
X167591200Y-96548163D01*
X167591200Y-108356477D01*
X167520213Y-108427341D01*
X167416318Y-108677546D01*
X167416082Y-108948465D01*
X167519539Y-109198852D01*
X167588088Y-109267520D01*
X165957208Y-110898400D01*
X143459123Y-110898400D01*
X143388259Y-110827413D01*
X143138054Y-110723518D01*
X142867135Y-110723282D01*
X142616748Y-110826739D01*
X142425013Y-111018141D01*
X142321118Y-111268346D01*
X142320882Y-111539265D01*
X105531000Y-111539265D01*
X105531000Y-110878865D01*
X118444882Y-110878865D01*
X118548339Y-111129252D01*
X118739741Y-111320987D01*
X118989946Y-111424882D01*
X119260865Y-111425118D01*
X119511252Y-111321661D01*
X119702987Y-111130259D01*
X119806882Y-110880054D01*
X119807118Y-110609135D01*
X119745233Y-110459359D01*
X121494592Y-108710000D01*
X122478877Y-108710000D01*
X122549741Y-108780987D01*
X122799946Y-108884882D01*
X123070865Y-108885118D01*
X123321252Y-108781661D01*
X123512987Y-108590259D01*
X123616882Y-108340054D01*
X123617118Y-108069135D01*
X123513661Y-107818748D01*
X123322259Y-107627013D01*
X123072054Y-107523118D01*
X122801135Y-107522882D01*
X122550748Y-107626339D01*
X122478962Y-107698000D01*
X121285000Y-107698000D01*
X121091362Y-107736517D01*
X120927204Y-107846204D01*
X118768204Y-110005204D01*
X118658517Y-110169362D01*
X118638893Y-110268017D01*
X118549013Y-110357741D01*
X118445118Y-110607946D01*
X118444882Y-110878865D01*
X105531000Y-110878865D01*
X105531000Y-105290865D01*
X116285882Y-105290865D01*
X116389339Y-105541252D01*
X116580741Y-105732987D01*
X116830946Y-105836882D01*
X117101865Y-105837118D01*
X117352252Y-105733661D01*
X117543987Y-105542259D01*
X117647882Y-105292054D01*
X117648118Y-105021135D01*
X117544661Y-104770748D01*
X117353259Y-104579013D01*
X117103054Y-104475118D01*
X116832135Y-104474882D01*
X116581748Y-104578339D01*
X116390013Y-104769741D01*
X116286118Y-105019946D01*
X116285882Y-105290865D01*
X105531000Y-105290865D01*
X105531000Y-99064128D01*
X109870176Y-99064128D01*
X109996358Y-99369511D01*
X110229800Y-99603361D01*
X110534963Y-99730075D01*
X110865388Y-99730364D01*
X111170771Y-99604182D01*
X111404621Y-99370740D01*
X111531335Y-99065577D01*
X111531624Y-98735152D01*
X111405442Y-98429769D01*
X111172000Y-98195919D01*
X110866837Y-98069205D01*
X110536412Y-98068916D01*
X110231029Y-98195098D01*
X109997179Y-98428540D01*
X109870465Y-98733703D01*
X109870176Y-99064128D01*
X105531000Y-99064128D01*
X105531000Y-97543865D01*
X119079882Y-97543865D01*
X119183339Y-97794252D01*
X119374741Y-97985987D01*
X119624946Y-98089882D01*
X119895865Y-98090118D01*
X120146252Y-97986661D01*
X120218038Y-97915000D01*
X122478877Y-97915000D01*
X122549741Y-97985987D01*
X122799946Y-98089882D01*
X123070865Y-98090118D01*
X123321252Y-97986661D01*
X123512987Y-97795259D01*
X123616882Y-97545054D01*
X123617118Y-97274135D01*
X123513661Y-97023748D01*
X123322259Y-96832013D01*
X123072054Y-96728118D01*
X122801135Y-96727882D01*
X122550748Y-96831339D01*
X122478962Y-96903000D01*
X120218123Y-96903000D01*
X120147259Y-96832013D01*
X119897054Y-96728118D01*
X119626135Y-96727882D01*
X119375748Y-96831339D01*
X119184013Y-97022741D01*
X119080118Y-97272946D01*
X119079882Y-97543865D01*
X105531000Y-97543865D01*
X105531000Y-96139000D01*
X126163800Y-96139000D01*
X126163800Y-108889800D01*
X126202317Y-109083438D01*
X126312004Y-109247596D01*
X127207969Y-110143561D01*
X127207882Y-110243865D01*
X127311339Y-110494252D01*
X127502741Y-110685987D01*
X127752946Y-110789882D01*
X128023865Y-110790118D01*
X128274252Y-110686661D01*
X128465987Y-110495259D01*
X128569882Y-110245054D01*
X128570118Y-109974135D01*
X128471668Y-109735865D01*
X128477882Y-109735865D01*
X128581339Y-109986252D01*
X128772741Y-110177987D01*
X129022946Y-110281882D01*
X129293865Y-110282118D01*
X129544252Y-110178661D01*
X129735987Y-109987259D01*
X129839882Y-109737054D01*
X129839993Y-109608865D01*
X144352882Y-109608865D01*
X144456339Y-109859252D01*
X144647741Y-110050987D01*
X144897946Y-110154882D01*
X145168865Y-110155118D01*
X145419252Y-110051661D01*
X145610987Y-109860259D01*
X145714882Y-109610054D01*
X145715118Y-109339135D01*
X145611661Y-109088748D01*
X145420259Y-108897013D01*
X145170054Y-108793118D01*
X144899135Y-108792882D01*
X144648748Y-108896339D01*
X144457013Y-109087741D01*
X144353118Y-109337946D01*
X144352882Y-109608865D01*
X129839993Y-109608865D01*
X129840118Y-109466135D01*
X129736661Y-109215748D01*
X129545259Y-109024013D01*
X129295054Y-108920118D01*
X129024135Y-108919882D01*
X128773748Y-109023339D01*
X128582013Y-109214741D01*
X128478118Y-109464946D01*
X128477882Y-109735865D01*
X128471668Y-109735865D01*
X128466661Y-109723748D01*
X128275259Y-109532013D01*
X128025054Y-109428118D01*
X127923622Y-109428030D01*
X127175800Y-108680208D01*
X127175800Y-108338865D01*
X136859882Y-108338865D01*
X136963339Y-108589252D01*
X137154741Y-108780987D01*
X137404946Y-108884882D01*
X137675865Y-108885118D01*
X137926252Y-108781661D01*
X138117987Y-108590259D01*
X138221882Y-108340054D01*
X138221993Y-108211865D01*
X160100882Y-108211865D01*
X160204339Y-108462252D01*
X160395741Y-108653987D01*
X160645946Y-108757882D01*
X160916865Y-108758118D01*
X161167252Y-108654661D01*
X161358987Y-108463259D01*
X161462882Y-108213054D01*
X161462883Y-108211865D01*
X162132882Y-108211865D01*
X162236339Y-108462252D01*
X162427741Y-108653987D01*
X162677946Y-108757882D01*
X162948865Y-108758118D01*
X163199252Y-108654661D01*
X163390987Y-108463259D01*
X163494882Y-108213054D01*
X163495118Y-107942135D01*
X163391661Y-107691748D01*
X163200259Y-107500013D01*
X162950054Y-107396118D01*
X162679135Y-107395882D01*
X162428748Y-107499339D01*
X162237013Y-107690741D01*
X162133118Y-107940946D01*
X162132882Y-108211865D01*
X161462883Y-108211865D01*
X161463118Y-107942135D01*
X161359661Y-107691748D01*
X161168259Y-107500013D01*
X160918054Y-107396118D01*
X160647135Y-107395882D01*
X160396748Y-107499339D01*
X160205013Y-107690741D01*
X160101118Y-107940946D01*
X160100882Y-108211865D01*
X138221993Y-108211865D01*
X138222118Y-108069135D01*
X138118661Y-107818748D01*
X137927259Y-107627013D01*
X137677054Y-107523118D01*
X137406135Y-107522882D01*
X137155748Y-107626339D01*
X136964013Y-107817741D01*
X136860118Y-108067946D01*
X136859882Y-108338865D01*
X127175800Y-108338865D01*
X127175800Y-105925865D01*
X166196882Y-105925865D01*
X166300339Y-106176252D01*
X166491741Y-106367987D01*
X166741946Y-106471882D01*
X167012865Y-106472118D01*
X167263252Y-106368661D01*
X167454987Y-106177259D01*
X167558882Y-105927054D01*
X167559118Y-105656135D01*
X167455661Y-105405748D01*
X167264259Y-105214013D01*
X167014054Y-105110118D01*
X166743135Y-105109882D01*
X166492748Y-105213339D01*
X166301013Y-105404741D01*
X166197118Y-105654946D01*
X166196882Y-105925865D01*
X127175800Y-105925865D01*
X127175800Y-103893865D01*
X148162882Y-103893865D01*
X148266339Y-104144252D01*
X148457741Y-104335987D01*
X148707946Y-104439882D01*
X148978865Y-104440118D01*
X149229252Y-104336661D01*
X149301038Y-104265000D01*
X152069877Y-104265000D01*
X152140741Y-104335987D01*
X152390946Y-104439882D01*
X152661865Y-104440118D01*
X152912252Y-104336661D01*
X153103987Y-104145259D01*
X153207882Y-103895054D01*
X153208118Y-103624135D01*
X153104661Y-103373748D01*
X152913259Y-103182013D01*
X152663054Y-103078118D01*
X152392135Y-103077882D01*
X152141748Y-103181339D01*
X152069962Y-103253000D01*
X149301123Y-103253000D01*
X149230259Y-103182013D01*
X148980054Y-103078118D01*
X148709135Y-103077882D01*
X148458748Y-103181339D01*
X148267013Y-103372741D01*
X148163118Y-103622946D01*
X148162882Y-103893865D01*
X127175800Y-103893865D01*
X127175800Y-102623865D01*
X127207882Y-102623865D01*
X127311339Y-102874252D01*
X127502741Y-103065987D01*
X127752946Y-103169882D01*
X128023865Y-103170118D01*
X128274252Y-103066661D01*
X128465987Y-102875259D01*
X128569882Y-102625054D01*
X128570104Y-102369865D01*
X143082882Y-102369865D01*
X143186339Y-102620252D01*
X143377741Y-102811987D01*
X143627946Y-102915882D01*
X143898865Y-102916118D01*
X144149252Y-102812661D01*
X144340987Y-102621259D01*
X144444882Y-102371054D01*
X144445118Y-102100135D01*
X144341661Y-101849748D01*
X144150259Y-101658013D01*
X143900054Y-101554118D01*
X143629135Y-101553882D01*
X143378748Y-101657339D01*
X143187013Y-101848741D01*
X143083118Y-102098946D01*
X143082882Y-102369865D01*
X128570104Y-102369865D01*
X128570118Y-102354135D01*
X128466661Y-102103748D01*
X128275259Y-101912013D01*
X128025054Y-101808118D01*
X127754135Y-101807882D01*
X127503748Y-101911339D01*
X127312013Y-102102741D01*
X127208118Y-102352946D01*
X127207882Y-102623865D01*
X127175800Y-102623865D01*
X127175800Y-100769665D01*
X128147682Y-100769665D01*
X128251139Y-101020052D01*
X128442541Y-101211787D01*
X128692746Y-101315682D01*
X128963665Y-101315918D01*
X129214052Y-101212461D01*
X129285838Y-101140800D01*
X160521608Y-101140800D01*
X161292000Y-101911192D01*
X161292000Y-104089277D01*
X161221013Y-104160141D01*
X161117118Y-104410346D01*
X161116882Y-104681265D01*
X161220339Y-104931652D01*
X161411741Y-105123387D01*
X161661946Y-105227282D01*
X161932865Y-105227518D01*
X162183252Y-105124061D01*
X162374987Y-104932659D01*
X162478882Y-104682454D01*
X162479118Y-104411535D01*
X162375661Y-104161148D01*
X162304000Y-104089362D01*
X162304000Y-98913992D01*
X163171796Y-98046196D01*
X163281483Y-97882038D01*
X163320000Y-97688400D01*
X163320000Y-93911665D01*
X163656882Y-93911665D01*
X163760339Y-94162052D01*
X163951741Y-94353787D01*
X164201946Y-94457682D01*
X164472865Y-94457918D01*
X164723252Y-94354461D01*
X164914987Y-94163059D01*
X165018882Y-93912854D01*
X165018883Y-93911665D01*
X166222282Y-93911665D01*
X166325739Y-94162052D01*
X166517141Y-94353787D01*
X166767346Y-94457682D01*
X167038265Y-94457918D01*
X167288652Y-94354461D01*
X167480387Y-94163059D01*
X167584282Y-93912854D01*
X167584518Y-93641935D01*
X167481061Y-93391548D01*
X167289659Y-93199813D01*
X167039454Y-93095918D01*
X166768535Y-93095682D01*
X166518148Y-93199139D01*
X166326413Y-93390541D01*
X166222518Y-93640746D01*
X166222282Y-93911665D01*
X165018883Y-93911665D01*
X165019118Y-93641935D01*
X164915661Y-93391548D01*
X164724259Y-93199813D01*
X164474054Y-93095918D01*
X164203135Y-93095682D01*
X163952748Y-93199139D01*
X163761013Y-93390541D01*
X163657118Y-93640746D01*
X163656882Y-93911665D01*
X163320000Y-93911665D01*
X163320000Y-89593665D01*
X163377482Y-89593665D01*
X163480939Y-89844052D01*
X163672341Y-90035787D01*
X163922546Y-90139682D01*
X164193465Y-90139918D01*
X164443852Y-90036461D01*
X164635587Y-89845059D01*
X164739482Y-89594854D01*
X164739718Y-89323935D01*
X164636261Y-89073548D01*
X164444859Y-88881813D01*
X164194654Y-88777918D01*
X163923735Y-88777682D01*
X163673348Y-88881139D01*
X163481613Y-89072541D01*
X163377718Y-89322746D01*
X163377482Y-89593665D01*
X163320000Y-89593665D01*
X163320000Y-77984392D01*
X163915361Y-77389031D01*
X164015665Y-77389118D01*
X164266052Y-77285661D01*
X164457787Y-77094259D01*
X164561682Y-76844054D01*
X164561918Y-76573135D01*
X164458461Y-76322748D01*
X164267059Y-76131013D01*
X164016854Y-76027118D01*
X163745935Y-76026882D01*
X163495548Y-76130339D01*
X163303813Y-76321741D01*
X163199918Y-76571946D01*
X163199830Y-76673378D01*
X162456204Y-77417004D01*
X162346517Y-77581162D01*
X162308000Y-77774800D01*
X162308000Y-97478808D01*
X161440204Y-98346604D01*
X161330517Y-98510762D01*
X161292000Y-98704400D01*
X161292000Y-100480008D01*
X161088996Y-100277004D01*
X160924838Y-100167317D01*
X160731200Y-100128800D01*
X129285923Y-100128800D01*
X129215059Y-100057813D01*
X128964854Y-99953918D01*
X128693935Y-99953682D01*
X128443548Y-100057139D01*
X128251813Y-100248541D01*
X128147918Y-100498746D01*
X128147682Y-100769665D01*
X127175800Y-100769665D01*
X127175800Y-99423465D01*
X141812882Y-99423465D01*
X141916339Y-99673852D01*
X142107741Y-99865587D01*
X142357946Y-99969482D01*
X142628865Y-99969718D01*
X142879252Y-99866261D01*
X143070987Y-99674859D01*
X143174882Y-99424654D01*
X143175118Y-99153735D01*
X143087163Y-98940865D01*
X144352882Y-98940865D01*
X144456339Y-99191252D01*
X144647741Y-99382987D01*
X144897946Y-99486882D01*
X145168865Y-99487118D01*
X145419252Y-99383661D01*
X145610987Y-99192259D01*
X145660704Y-99072528D01*
X145751739Y-99292852D01*
X145943141Y-99484587D01*
X146193346Y-99588482D01*
X146464265Y-99588718D01*
X146714652Y-99485261D01*
X146906387Y-99293859D01*
X147010282Y-99043654D01*
X147010518Y-98772735D01*
X146907061Y-98522348D01*
X146715659Y-98330613D01*
X146465454Y-98226718D01*
X146194535Y-98226482D01*
X145944148Y-98329939D01*
X145752413Y-98521341D01*
X145702696Y-98641072D01*
X145611661Y-98420748D01*
X145420259Y-98229013D01*
X145170054Y-98125118D01*
X144899135Y-98124882D01*
X144648748Y-98228339D01*
X144457013Y-98419741D01*
X144353118Y-98669946D01*
X144352882Y-98940865D01*
X143087163Y-98940865D01*
X143071661Y-98903348D01*
X142880259Y-98711613D01*
X142630054Y-98607718D01*
X142359135Y-98607482D01*
X142108748Y-98710939D01*
X141917013Y-98902341D01*
X141813118Y-99152546D01*
X141812882Y-99423465D01*
X127175800Y-99423465D01*
X127175800Y-97543865D01*
X134700882Y-97543865D01*
X134804339Y-97794252D01*
X134995741Y-97985987D01*
X135245946Y-98089882D01*
X135516865Y-98090118D01*
X135767252Y-97986661D01*
X135958987Y-97795259D01*
X136062882Y-97545054D01*
X136062883Y-97543865D01*
X136859882Y-97543865D01*
X136963339Y-97794252D01*
X137154741Y-97985987D01*
X137404946Y-98089882D01*
X137675865Y-98090118D01*
X137926252Y-97986661D01*
X138117987Y-97795259D01*
X138221882Y-97545054D01*
X138222118Y-97274135D01*
X138118661Y-97023748D01*
X137927259Y-96832013D01*
X137677054Y-96728118D01*
X137406135Y-96727882D01*
X137155748Y-96831339D01*
X136964013Y-97022741D01*
X136860118Y-97272946D01*
X136859882Y-97543865D01*
X136062883Y-97543865D01*
X136063118Y-97274135D01*
X135959661Y-97023748D01*
X135768259Y-96832013D01*
X135518054Y-96728118D01*
X135247135Y-96727882D01*
X134996748Y-96831339D01*
X134805013Y-97022741D01*
X134701118Y-97272946D01*
X134700882Y-97543865D01*
X127175800Y-97543865D01*
X127175800Y-96348592D01*
X129139992Y-94384400D01*
X150926877Y-94384400D01*
X150997741Y-94455387D01*
X151247946Y-94559282D01*
X151518865Y-94559518D01*
X151769252Y-94456061D01*
X151960987Y-94264659D01*
X152064882Y-94014454D01*
X152065118Y-93743535D01*
X151961661Y-93493148D01*
X151770259Y-93301413D01*
X151520054Y-93197518D01*
X151249135Y-93197282D01*
X150998748Y-93300739D01*
X150926962Y-93372400D01*
X128930400Y-93372400D01*
X128736762Y-93410917D01*
X128572604Y-93520604D01*
X126312004Y-95781204D01*
X126202317Y-95945362D01*
X126163800Y-96139000D01*
X105531000Y-96139000D01*
X105531000Y-94664848D01*
X109870176Y-94664848D01*
X109996358Y-94970231D01*
X110229800Y-95204081D01*
X110534963Y-95330795D01*
X110865388Y-95331084D01*
X111170771Y-95204902D01*
X111404621Y-94971460D01*
X111531335Y-94666297D01*
X111531624Y-94335872D01*
X111405442Y-94030489D01*
X111172000Y-93796639D01*
X110866837Y-93669925D01*
X110536412Y-93669636D01*
X110231029Y-93795818D01*
X109997179Y-94029260D01*
X109870465Y-94334423D01*
X109870176Y-94664848D01*
X105531000Y-94664848D01*
X105531000Y-91955865D01*
X126445882Y-91955865D01*
X126549339Y-92206252D01*
X126740741Y-92397987D01*
X126990946Y-92501882D01*
X127261865Y-92502118D01*
X127512252Y-92398661D01*
X127703987Y-92207259D01*
X127807882Y-91957054D01*
X127808118Y-91686135D01*
X127704661Y-91435748D01*
X127513259Y-91244013D01*
X127263054Y-91140118D01*
X126992135Y-91139882D01*
X126741748Y-91243339D01*
X126550013Y-91434741D01*
X126446118Y-91684946D01*
X126445882Y-91955865D01*
X105531000Y-91955865D01*
X105531000Y-87478883D01*
X141517000Y-87478883D01*
X141517000Y-87527117D01*
X141610704Y-87998200D01*
X141877552Y-88397565D01*
X142276917Y-88664413D01*
X142748000Y-88758117D01*
X143219083Y-88664413D01*
X143618448Y-88397565D01*
X143885296Y-87998200D01*
X143979000Y-87527117D01*
X143979000Y-87478883D01*
X143885296Y-87007800D01*
X143648226Y-86653000D01*
X144049536Y-86653000D01*
X144049536Y-88353000D01*
X144076103Y-88494190D01*
X144159546Y-88623865D01*
X144286866Y-88710859D01*
X144438000Y-88741464D01*
X146138000Y-88741464D01*
X146279190Y-88714897D01*
X146408865Y-88631454D01*
X146495859Y-88504134D01*
X146526464Y-88353000D01*
X146526464Y-86653000D01*
X146499897Y-86511810D01*
X146416454Y-86382135D01*
X146289134Y-86295141D01*
X146138000Y-86264536D01*
X144438000Y-86264536D01*
X144296810Y-86291103D01*
X144167135Y-86374546D01*
X144080141Y-86501866D01*
X144049536Y-86653000D01*
X143648226Y-86653000D01*
X143618448Y-86608435D01*
X143219083Y-86341587D01*
X142748000Y-86247883D01*
X142276917Y-86341587D01*
X141877552Y-86608435D01*
X141610704Y-87007800D01*
X141517000Y-87478883D01*
X105531000Y-87478883D01*
X105531000Y-84970865D01*
X111028082Y-84970865D01*
X111131539Y-85221252D01*
X111322941Y-85412987D01*
X111573146Y-85516882D01*
X111844065Y-85517118D01*
X112094452Y-85413661D01*
X112286187Y-85222259D01*
X112390082Y-84972054D01*
X112390318Y-84701135D01*
X112286861Y-84450748D01*
X112095459Y-84259013D01*
X111845254Y-84155118D01*
X111574335Y-84154882D01*
X111323948Y-84258339D01*
X111132213Y-84449741D01*
X111028318Y-84699946D01*
X111028082Y-84970865D01*
X105531000Y-84970865D01*
X105531000Y-82136159D01*
X141681002Y-82136159D01*
X141854646Y-82556412D01*
X142175897Y-82878223D01*
X142595846Y-83052601D01*
X143050559Y-83052998D01*
X143470812Y-82879354D01*
X143792623Y-82558103D01*
X143792721Y-82557865D01*
X157179882Y-82557865D01*
X157283339Y-82808252D01*
X157474741Y-82999987D01*
X157724946Y-83103882D01*
X157995865Y-83104118D01*
X158246252Y-83000661D01*
X158437987Y-82809259D01*
X158541882Y-82559054D01*
X158542118Y-82288135D01*
X158438661Y-82037748D01*
X158247259Y-81846013D01*
X157997054Y-81742118D01*
X157726135Y-81741882D01*
X157475748Y-81845339D01*
X157284013Y-82036741D01*
X157180118Y-82286946D01*
X157179882Y-82557865D01*
X143792721Y-82557865D01*
X143967001Y-82138154D01*
X143967398Y-81683441D01*
X143793754Y-81263188D01*
X143472503Y-80941377D01*
X143052554Y-80766999D01*
X142597841Y-80766602D01*
X142177588Y-80940246D01*
X141855777Y-81261497D01*
X141681399Y-81681446D01*
X141681002Y-82136159D01*
X105531000Y-82136159D01*
X105531000Y-80246465D01*
X110418482Y-80246465D01*
X110521939Y-80496852D01*
X110713341Y-80688587D01*
X110963546Y-80792482D01*
X111234465Y-80792718D01*
X111484852Y-80689261D01*
X111676587Y-80497859D01*
X111780482Y-80247654D01*
X111780718Y-79976735D01*
X111677261Y-79726348D01*
X111485859Y-79534613D01*
X111235654Y-79430718D01*
X110964735Y-79430482D01*
X110714348Y-79533939D01*
X110522613Y-79725341D01*
X110418718Y-79975546D01*
X110418482Y-80246465D01*
X105531000Y-80246465D01*
X105531000Y-75877665D01*
X131094082Y-75877665D01*
X131197539Y-76128052D01*
X131388941Y-76319787D01*
X131639146Y-76423682D01*
X131910065Y-76423918D01*
X132160452Y-76320461D01*
X132352187Y-76129059D01*
X132451448Y-75890013D01*
X142023592Y-75890013D01*
X142093057Y-76132197D01*
X142616502Y-76318944D01*
X143171568Y-76291162D01*
X143555343Y-76132197D01*
X143624808Y-75890013D01*
X142824200Y-75089405D01*
X142023592Y-75890013D01*
X132451448Y-75890013D01*
X132456082Y-75878854D01*
X132456318Y-75607935D01*
X132352861Y-75357548D01*
X132161459Y-75165813D01*
X131911254Y-75061918D01*
X131640335Y-75061682D01*
X131389948Y-75165139D01*
X131198213Y-75356541D01*
X131094318Y-75606746D01*
X131094082Y-75877665D01*
X105531000Y-75877665D01*
X105531000Y-74702102D01*
X141415056Y-74702102D01*
X141442838Y-75257168D01*
X141601803Y-75640943D01*
X141843987Y-75710408D01*
X142644595Y-74909800D01*
X143003805Y-74909800D01*
X143804413Y-75710408D01*
X144046597Y-75640943D01*
X144233344Y-75117498D01*
X144205562Y-74562432D01*
X144046597Y-74178657D01*
X143804413Y-74109192D01*
X143003805Y-74909800D01*
X142644595Y-74909800D01*
X141843987Y-74109192D01*
X141601803Y-74178657D01*
X141415056Y-74702102D01*
X105531000Y-74702102D01*
X105531000Y-74342448D01*
X105613123Y-73929587D01*
X142023592Y-73929587D01*
X142824200Y-74730195D01*
X143624808Y-73929587D01*
X143555343Y-73687403D01*
X143031898Y-73500656D01*
X142476832Y-73528438D01*
X142093057Y-73687403D01*
X142023592Y-73929587D01*
X105613123Y-73929587D01*
X105734355Y-73320117D01*
X106289413Y-72489413D01*
X107120118Y-71934354D01*
X108142448Y-71731000D01*
X190957552Y-71731000D01*
X191979883Y-71934355D01*
M02*
