%TF.GenerationSoftware,KiCad,Pcbnew,4.0.7*%
%TF.CreationDate,2018-02-05T20:46:32-05:00*%
%TF.ProjectId,BusinessCard,427573696E657373436172642E6B6963,rev?*%
%TF.FileFunction,Copper,L3,Inr,Signal*%
%FSLAX46Y46*%
G04 Gerber Fmt 4.6, Leading zero omitted, Abs format (unit mm)*
G04 Created by KiCad (PCBNEW 4.0.7) date Monday, February 05, 2018 'PMt' 08:46:32 PM*
%MOMM*%
%LPD*%
G01*
G04 APERTURE LIST*
%ADD10C,0.100000*%
%ADD11C,1.524000*%
%ADD12R,1.700000X1.700000*%
%ADD13O,1.700000X1.700000*%
%ADD14C,0.600000*%
%ADD15C,0.250000*%
%ADD16C,0.254000*%
G04 APERTURE END LIST*
D10*
D11*
X149550000Y-100200000D03*
X149550000Y-93200000D03*
D12*
X147701000Y-76073000D03*
D13*
X147701000Y-73533000D03*
D14*
X135051800Y-94970600D03*
X137591800Y-94970600D03*
X112522000Y-105156000D03*
X108458000Y-105156000D03*
X112522000Y-114046000D03*
X120269000Y-115443000D03*
X118999000Y-118110000D03*
X120269000Y-106553000D03*
X132842000Y-114300000D03*
X139319000Y-118872000D03*
X140589000Y-115570000D03*
X135509000Y-115316000D03*
X138049000Y-110109000D03*
X144272000Y-105156000D03*
X143129000Y-110210600D03*
X144195800Y-107086400D03*
X126238000Y-99822000D03*
X123825000Y-93726000D03*
X118719600Y-77520800D03*
X149199600Y-83820000D03*
X130098800Y-95453200D03*
X134315200Y-88366600D03*
X155702000Y-80010000D03*
X151892000Y-78740000D03*
X156972000Y-86487000D03*
X166150000Y-87950000D03*
X172850000Y-76100000D03*
X171000000Y-99850000D03*
X183429000Y-99850000D03*
X114935000Y-89662000D03*
X170332400Y-72694800D03*
X186207400Y-76606400D03*
X125476000Y-114300000D03*
X125476000Y-105537000D03*
X108458000Y-111252000D03*
X112522000Y-111252000D03*
X108458000Y-120269000D03*
X112522000Y-120269000D03*
X145796000Y-114300000D03*
X132842000Y-120142000D03*
X132842000Y-111252000D03*
X150495000Y-73533000D03*
X145796000Y-111252000D03*
X126339600Y-88366600D03*
X139928600Y-95453200D03*
X130175000Y-97942400D03*
X135890000Y-84277200D03*
X140716000Y-87122000D03*
X145516600Y-78511400D03*
X137236200Y-81102200D03*
X133045200Y-76606400D03*
X126873000Y-76581000D03*
X120269000Y-73279000D03*
X118999000Y-85979000D03*
X152527000Y-87884000D03*
X181813200Y-95453200D03*
X191795400Y-117398800D03*
X191795400Y-100812600D03*
X191795400Y-84201000D03*
X172440600Y-95453200D03*
X177038000Y-74803000D03*
X177038000Y-86614000D03*
X166150000Y-82350000D03*
X163150000Y-84350000D03*
X163300000Y-89550000D03*
X173200000Y-78600000D03*
X156500000Y-97950000D03*
X173355000Y-102743000D03*
X173355000Y-90678000D03*
X175429000Y-99600000D03*
X110363000Y-85598000D03*
X182549800Y-81178400D03*
X174752000Y-81178400D03*
X146050000Y-81026000D03*
X169672000Y-90932000D03*
X169672000Y-88011000D03*
X147850000Y-96700000D03*
X186500000Y-96700000D03*
X140589000Y-109728000D03*
X163322000Y-95123000D03*
X157581600Y-91374000D03*
X159893000Y-95783400D03*
X121539000Y-118110000D03*
X117729000Y-115824000D03*
X120269000Y-118110000D03*
X141859000Y-103378000D03*
X139319000Y-103378000D03*
X138050000Y-116800000D03*
X139300000Y-115550000D03*
X139350000Y-110100000D03*
X140600000Y-106850000D03*
X171577000Y-93472000D03*
X171577000Y-88011000D03*
X165862000Y-98298000D03*
X157988000Y-104140000D03*
X121793000Y-109220000D03*
X117729000Y-107188000D03*
X120269000Y-109220000D03*
X167132000Y-98298000D03*
X138049000Y-112776000D03*
X139319000Y-106807000D03*
X116459000Y-103632000D03*
X135550000Y-117400000D03*
X136800000Y-115550000D03*
X137591800Y-101371400D03*
X141859000Y-117983000D03*
X116459000Y-118999000D03*
X121539000Y-112776000D03*
X116459000Y-109982000D03*
X147701000Y-85772000D03*
D15*
X163322000Y-107188000D02*
X163322000Y-95123000D01*
X162179000Y-108331000D02*
X163322000Y-107188000D01*
X141986000Y-108331000D02*
X162179000Y-108331000D01*
X141986000Y-108331000D02*
X140589000Y-109728000D01*
X124460000Y-104140000D02*
X157988000Y-104140000D01*
X121793000Y-106807000D02*
X124460000Y-104140000D01*
X121793000Y-109220000D02*
X121793000Y-106807000D01*
X167132000Y-110109000D02*
X167132000Y-98298000D01*
X164465000Y-112776000D02*
X167132000Y-110109000D01*
X138049000Y-112776000D02*
X164465000Y-112776000D01*
D16*
G36*
X191979883Y-71934355D02*
X192810587Y-72489413D01*
X193365646Y-73320118D01*
X193569000Y-74342448D01*
X193569000Y-119057552D01*
X193365646Y-120079882D01*
X192810587Y-120910587D01*
X191979883Y-121465645D01*
X190957552Y-121669000D01*
X108142448Y-121669000D01*
X107120118Y-121465646D01*
X106289413Y-120910587D01*
X105734355Y-120079883D01*
X105546180Y-119133865D01*
X115777882Y-119133865D01*
X115881339Y-119384252D01*
X116072741Y-119575987D01*
X116322946Y-119679882D01*
X116593865Y-119680118D01*
X116844252Y-119576661D01*
X117035987Y-119385259D01*
X117139882Y-119135054D01*
X117139993Y-119006865D01*
X138637882Y-119006865D01*
X138741339Y-119257252D01*
X138932741Y-119448987D01*
X139182946Y-119552882D01*
X139453865Y-119553118D01*
X139704252Y-119449661D01*
X139895987Y-119258259D01*
X139999882Y-119008054D01*
X140000118Y-118737135D01*
X139896661Y-118486748D01*
X139705259Y-118295013D01*
X139455054Y-118191118D01*
X139184135Y-118190882D01*
X138933748Y-118294339D01*
X138742013Y-118485741D01*
X138638118Y-118735946D01*
X138637882Y-119006865D01*
X117139993Y-119006865D01*
X117140118Y-118864135D01*
X117036661Y-118613748D01*
X116845259Y-118422013D01*
X116595054Y-118318118D01*
X116324135Y-118317882D01*
X116073748Y-118421339D01*
X115882013Y-118612741D01*
X115778118Y-118862946D01*
X115777882Y-119133865D01*
X105546180Y-119133865D01*
X105531000Y-119057552D01*
X105531000Y-118244865D01*
X118317882Y-118244865D01*
X118421339Y-118495252D01*
X118612741Y-118686987D01*
X118862946Y-118790882D01*
X119133865Y-118791118D01*
X119384252Y-118687661D01*
X119575987Y-118496259D01*
X119634014Y-118356515D01*
X119691339Y-118495252D01*
X119882741Y-118686987D01*
X120132946Y-118790882D01*
X120403865Y-118791118D01*
X120654252Y-118687661D01*
X120845987Y-118496259D01*
X120904014Y-118356515D01*
X120961339Y-118495252D01*
X121152741Y-118686987D01*
X121402946Y-118790882D01*
X121673865Y-118791118D01*
X121924252Y-118687661D01*
X122115987Y-118496259D01*
X122219882Y-118246054D01*
X122219993Y-118117865D01*
X141177882Y-118117865D01*
X141281339Y-118368252D01*
X141472741Y-118559987D01*
X141722946Y-118663882D01*
X141993865Y-118664118D01*
X142244252Y-118560661D01*
X142435987Y-118369259D01*
X142539882Y-118119054D01*
X142540118Y-117848135D01*
X142436661Y-117597748D01*
X142245259Y-117406013D01*
X141995054Y-117302118D01*
X141724135Y-117301882D01*
X141473748Y-117405339D01*
X141282013Y-117596741D01*
X141178118Y-117846946D01*
X141177882Y-118117865D01*
X122219993Y-118117865D01*
X122220118Y-117975135D01*
X122116661Y-117724748D01*
X121927108Y-117534865D01*
X134868882Y-117534865D01*
X134972339Y-117785252D01*
X135163741Y-117976987D01*
X135413946Y-118080882D01*
X135684865Y-118081118D01*
X135935252Y-117977661D01*
X136126987Y-117786259D01*
X136230882Y-117536054D01*
X136231118Y-117265135D01*
X136127661Y-117014748D01*
X136047917Y-116934865D01*
X137368882Y-116934865D01*
X137472339Y-117185252D01*
X137663741Y-117376987D01*
X137913946Y-117480882D01*
X138184865Y-117481118D01*
X138435252Y-117377661D01*
X138626987Y-117186259D01*
X138730882Y-116936054D01*
X138731118Y-116665135D01*
X138627661Y-116414748D01*
X138436259Y-116223013D01*
X138186054Y-116119118D01*
X137915135Y-116118882D01*
X137664748Y-116222339D01*
X137473013Y-116413741D01*
X137369118Y-116663946D01*
X137368882Y-116934865D01*
X136047917Y-116934865D01*
X135936259Y-116823013D01*
X135686054Y-116719118D01*
X135415135Y-116718882D01*
X135164748Y-116822339D01*
X134973013Y-117013741D01*
X134869118Y-117263946D01*
X134868882Y-117534865D01*
X121927108Y-117534865D01*
X121925259Y-117533013D01*
X121675054Y-117429118D01*
X121404135Y-117428882D01*
X121153748Y-117532339D01*
X120962013Y-117723741D01*
X120903986Y-117863485D01*
X120846661Y-117724748D01*
X120655259Y-117533013D01*
X120405054Y-117429118D01*
X120134135Y-117428882D01*
X119883748Y-117532339D01*
X119692013Y-117723741D01*
X119633986Y-117863485D01*
X119576661Y-117724748D01*
X119385259Y-117533013D01*
X119135054Y-117429118D01*
X118864135Y-117428882D01*
X118613748Y-117532339D01*
X118422013Y-117723741D01*
X118318118Y-117973946D01*
X118317882Y-118244865D01*
X105531000Y-118244865D01*
X105531000Y-115958865D01*
X117047882Y-115958865D01*
X117151339Y-116209252D01*
X117342741Y-116400987D01*
X117592946Y-116504882D01*
X117863865Y-116505118D01*
X118114252Y-116401661D01*
X118305987Y-116210259D01*
X118409882Y-115960054D01*
X118410118Y-115689135D01*
X118364143Y-115577865D01*
X119587882Y-115577865D01*
X119691339Y-115828252D01*
X119882741Y-116019987D01*
X120132946Y-116123882D01*
X120403865Y-116124118D01*
X120654252Y-116020661D01*
X120845987Y-115829259D01*
X120949882Y-115579054D01*
X120949993Y-115450865D01*
X134827882Y-115450865D01*
X134931339Y-115701252D01*
X135122741Y-115892987D01*
X135372946Y-115996882D01*
X135643865Y-115997118D01*
X135894252Y-115893661D01*
X136085987Y-115702259D01*
X136118936Y-115622910D01*
X136118882Y-115684865D01*
X136222339Y-115935252D01*
X136413741Y-116126987D01*
X136663946Y-116230882D01*
X136934865Y-116231118D01*
X137185252Y-116127661D01*
X137376987Y-115936259D01*
X137480882Y-115686054D01*
X137480883Y-115684865D01*
X138618882Y-115684865D01*
X138722339Y-115935252D01*
X138913741Y-116126987D01*
X139163946Y-116230882D01*
X139434865Y-116231118D01*
X139685252Y-116127661D01*
X139876987Y-115936259D01*
X139940396Y-115783555D01*
X140011339Y-115955252D01*
X140202741Y-116146987D01*
X140452946Y-116250882D01*
X140723865Y-116251118D01*
X140974252Y-116147661D01*
X141165987Y-115956259D01*
X141269882Y-115706054D01*
X141270118Y-115435135D01*
X141166661Y-115184748D01*
X140975259Y-114993013D01*
X140725054Y-114889118D01*
X140454135Y-114888882D01*
X140203748Y-114992339D01*
X140012013Y-115183741D01*
X139948604Y-115336445D01*
X139877661Y-115164748D01*
X139686259Y-114973013D01*
X139436054Y-114869118D01*
X139165135Y-114868882D01*
X138914748Y-114972339D01*
X138723013Y-115163741D01*
X138619118Y-115413946D01*
X138618882Y-115684865D01*
X137480883Y-115684865D01*
X137481118Y-115415135D01*
X137377661Y-115164748D01*
X137186259Y-114973013D01*
X136936054Y-114869118D01*
X136665135Y-114868882D01*
X136414748Y-114972339D01*
X136223013Y-115163741D01*
X136190064Y-115243090D01*
X136190118Y-115181135D01*
X136086661Y-114930748D01*
X135895259Y-114739013D01*
X135645054Y-114635118D01*
X135374135Y-114634882D01*
X135123748Y-114738339D01*
X134932013Y-114929741D01*
X134828118Y-115179946D01*
X134827882Y-115450865D01*
X120949993Y-115450865D01*
X120950118Y-115308135D01*
X120846661Y-115057748D01*
X120655259Y-114866013D01*
X120405054Y-114762118D01*
X120134135Y-114761882D01*
X119883748Y-114865339D01*
X119692013Y-115056741D01*
X119588118Y-115306946D01*
X119587882Y-115577865D01*
X118364143Y-115577865D01*
X118306661Y-115438748D01*
X118115259Y-115247013D01*
X117865054Y-115143118D01*
X117594135Y-115142882D01*
X117343748Y-115246339D01*
X117152013Y-115437741D01*
X117048118Y-115687946D01*
X117047882Y-115958865D01*
X105531000Y-115958865D01*
X105531000Y-114180865D01*
X111840882Y-114180865D01*
X111944339Y-114431252D01*
X112135741Y-114622987D01*
X112385946Y-114726882D01*
X112656865Y-114727118D01*
X112907252Y-114623661D01*
X113096376Y-114434865D01*
X132160882Y-114434865D01*
X132264339Y-114685252D01*
X132455741Y-114876987D01*
X132705946Y-114980882D01*
X132976865Y-114981118D01*
X133227252Y-114877661D01*
X133418987Y-114686259D01*
X133522882Y-114436054D01*
X133523118Y-114165135D01*
X133419661Y-113914748D01*
X133228259Y-113723013D01*
X132978054Y-113619118D01*
X132707135Y-113618882D01*
X132456748Y-113722339D01*
X132265013Y-113913741D01*
X132161118Y-114163946D01*
X132160882Y-114434865D01*
X113096376Y-114434865D01*
X113098987Y-114432259D01*
X113202882Y-114182054D01*
X113203118Y-113911135D01*
X113099661Y-113660748D01*
X112908259Y-113469013D01*
X112658054Y-113365118D01*
X112387135Y-113364882D01*
X112136748Y-113468339D01*
X111945013Y-113659741D01*
X111841118Y-113909946D01*
X111840882Y-114180865D01*
X105531000Y-114180865D01*
X105531000Y-112910865D01*
X120857882Y-112910865D01*
X120961339Y-113161252D01*
X121152741Y-113352987D01*
X121402946Y-113456882D01*
X121673865Y-113457118D01*
X121924252Y-113353661D01*
X122115987Y-113162259D01*
X122219882Y-112912054D01*
X122219883Y-112910865D01*
X137367882Y-112910865D01*
X137471339Y-113161252D01*
X137662741Y-113352987D01*
X137912946Y-113456882D01*
X138183865Y-113457118D01*
X138434252Y-113353661D01*
X138506038Y-113282000D01*
X164465000Y-113282000D01*
X164658638Y-113243483D01*
X164822796Y-113133796D01*
X167489796Y-110466796D01*
X167570072Y-110346654D01*
X167599483Y-110302638D01*
X167638000Y-110109000D01*
X167638000Y-99984865D01*
X170318882Y-99984865D01*
X170422339Y-100235252D01*
X170613741Y-100426987D01*
X170863946Y-100530882D01*
X171134865Y-100531118D01*
X171385252Y-100427661D01*
X171576987Y-100236259D01*
X171680882Y-99986054D01*
X171680883Y-99984865D01*
X182747882Y-99984865D01*
X182851339Y-100235252D01*
X183042741Y-100426987D01*
X183292946Y-100530882D01*
X183563865Y-100531118D01*
X183814252Y-100427661D01*
X184005987Y-100236259D01*
X184109882Y-99986054D01*
X184110118Y-99715135D01*
X184006661Y-99464748D01*
X183815259Y-99273013D01*
X183565054Y-99169118D01*
X183294135Y-99168882D01*
X183043748Y-99272339D01*
X182852013Y-99463741D01*
X182748118Y-99713946D01*
X182747882Y-99984865D01*
X171680883Y-99984865D01*
X171681118Y-99715135D01*
X171577661Y-99464748D01*
X171386259Y-99273013D01*
X171136054Y-99169118D01*
X170865135Y-99168882D01*
X170614748Y-99272339D01*
X170423013Y-99463741D01*
X170319118Y-99713946D01*
X170318882Y-99984865D01*
X167638000Y-99984865D01*
X167638000Y-98755123D01*
X167708987Y-98684259D01*
X167812882Y-98434054D01*
X167813118Y-98163135D01*
X167709661Y-97912748D01*
X167518259Y-97721013D01*
X167268054Y-97617118D01*
X166997135Y-97616882D01*
X166746748Y-97720339D01*
X166555013Y-97911741D01*
X166496986Y-98051485D01*
X166439661Y-97912748D01*
X166248259Y-97721013D01*
X165998054Y-97617118D01*
X165727135Y-97616882D01*
X165476748Y-97720339D01*
X165285013Y-97911741D01*
X165181118Y-98161946D01*
X165180882Y-98432865D01*
X165284339Y-98683252D01*
X165475741Y-98874987D01*
X165725946Y-98978882D01*
X165996865Y-98979118D01*
X166247252Y-98875661D01*
X166438987Y-98684259D01*
X166497014Y-98544515D01*
X166554339Y-98683252D01*
X166626000Y-98755038D01*
X166626000Y-109899408D01*
X164255408Y-112270000D01*
X138506123Y-112270000D01*
X138435259Y-112199013D01*
X138185054Y-112095118D01*
X137914135Y-112094882D01*
X137663748Y-112198339D01*
X137472013Y-112389741D01*
X137368118Y-112639946D01*
X137367882Y-112910865D01*
X122219883Y-112910865D01*
X122220118Y-112641135D01*
X122116661Y-112390748D01*
X121925259Y-112199013D01*
X121675054Y-112095118D01*
X121404135Y-112094882D01*
X121153748Y-112198339D01*
X120962013Y-112389741D01*
X120858118Y-112639946D01*
X120857882Y-112910865D01*
X105531000Y-112910865D01*
X105531000Y-110116865D01*
X115777882Y-110116865D01*
X115881339Y-110367252D01*
X116072741Y-110558987D01*
X116322946Y-110662882D01*
X116593865Y-110663118D01*
X116844252Y-110559661D01*
X117035987Y-110368259D01*
X117087640Y-110243865D01*
X137367882Y-110243865D01*
X137471339Y-110494252D01*
X137662741Y-110685987D01*
X137912946Y-110789882D01*
X138183865Y-110790118D01*
X138434252Y-110686661D01*
X138625987Y-110495259D01*
X138701417Y-110313606D01*
X138772339Y-110485252D01*
X138963741Y-110676987D01*
X139213946Y-110780882D01*
X139484865Y-110781118D01*
X139735252Y-110677661D01*
X139926987Y-110486259D01*
X140030882Y-110236054D01*
X140030972Y-110132919D01*
X140202741Y-110304987D01*
X140452946Y-110408882D01*
X140723865Y-110409118D01*
X140877918Y-110345465D01*
X142447882Y-110345465D01*
X142551339Y-110595852D01*
X142742741Y-110787587D01*
X142992946Y-110891482D01*
X143263865Y-110891718D01*
X143514252Y-110788261D01*
X143705987Y-110596859D01*
X143809882Y-110346654D01*
X143810118Y-110075735D01*
X143706661Y-109825348D01*
X143515259Y-109633613D01*
X143265054Y-109529718D01*
X142994135Y-109529482D01*
X142743748Y-109632939D01*
X142552013Y-109824341D01*
X142448118Y-110074546D01*
X142447882Y-110345465D01*
X140877918Y-110345465D01*
X140974252Y-110305661D01*
X141165987Y-110114259D01*
X141269882Y-109864054D01*
X141269970Y-109762622D01*
X142195592Y-108837000D01*
X162179000Y-108837000D01*
X162372638Y-108798483D01*
X162536796Y-108688796D01*
X163679796Y-107545796D01*
X163789483Y-107381638D01*
X163828000Y-107188000D01*
X163828000Y-96834865D01*
X185818882Y-96834865D01*
X185922339Y-97085252D01*
X186113741Y-97276987D01*
X186363946Y-97380882D01*
X186634865Y-97381118D01*
X186885252Y-97277661D01*
X187076987Y-97086259D01*
X187180882Y-96836054D01*
X187181118Y-96565135D01*
X187077661Y-96314748D01*
X186886259Y-96123013D01*
X186636054Y-96019118D01*
X186365135Y-96018882D01*
X186114748Y-96122339D01*
X185923013Y-96313741D01*
X185819118Y-96563946D01*
X185818882Y-96834865D01*
X163828000Y-96834865D01*
X163828000Y-95580123D01*
X163898987Y-95509259D01*
X164002882Y-95259054D01*
X164003118Y-94988135D01*
X163899661Y-94737748D01*
X163708259Y-94546013D01*
X163458054Y-94442118D01*
X163187135Y-94441882D01*
X162936748Y-94545339D01*
X162745013Y-94736741D01*
X162641118Y-94986946D01*
X162640882Y-95257865D01*
X162744339Y-95508252D01*
X162816000Y-95580038D01*
X162816000Y-106978408D01*
X161969408Y-107825000D01*
X141986000Y-107825000D01*
X141792362Y-107863517D01*
X141628204Y-107973204D01*
X140554439Y-109046969D01*
X140454135Y-109046882D01*
X140203748Y-109150339D01*
X140012013Y-109341741D01*
X139908118Y-109591946D01*
X139908028Y-109695081D01*
X139736259Y-109523013D01*
X139486054Y-109419118D01*
X139215135Y-109418882D01*
X138964748Y-109522339D01*
X138773013Y-109713741D01*
X138697583Y-109895394D01*
X138626661Y-109723748D01*
X138435259Y-109532013D01*
X138185054Y-109428118D01*
X137914135Y-109427882D01*
X137663748Y-109531339D01*
X137472013Y-109722741D01*
X137368118Y-109972946D01*
X137367882Y-110243865D01*
X117087640Y-110243865D01*
X117139882Y-110118054D01*
X117140118Y-109847135D01*
X117036661Y-109596748D01*
X116845259Y-109405013D01*
X116724491Y-109354865D01*
X119587882Y-109354865D01*
X119691339Y-109605252D01*
X119882741Y-109796987D01*
X120132946Y-109900882D01*
X120403865Y-109901118D01*
X120654252Y-109797661D01*
X120845987Y-109606259D01*
X120949882Y-109356054D01*
X120949883Y-109354865D01*
X121111882Y-109354865D01*
X121215339Y-109605252D01*
X121406741Y-109796987D01*
X121656946Y-109900882D01*
X121927865Y-109901118D01*
X122178252Y-109797661D01*
X122369987Y-109606259D01*
X122473882Y-109356054D01*
X122474118Y-109085135D01*
X122370661Y-108834748D01*
X122299000Y-108762962D01*
X122299000Y-107016592D01*
X122373727Y-106941865D01*
X138637882Y-106941865D01*
X138741339Y-107192252D01*
X138932741Y-107383987D01*
X139182946Y-107487882D01*
X139453865Y-107488118D01*
X139704252Y-107384661D01*
X139895987Y-107193259D01*
X139950622Y-107061683D01*
X140022339Y-107235252D01*
X140213741Y-107426987D01*
X140463946Y-107530882D01*
X140734865Y-107531118D01*
X140985252Y-107427661D01*
X141176987Y-107236259D01*
X141183213Y-107221265D01*
X143514682Y-107221265D01*
X143618139Y-107471652D01*
X143809541Y-107663387D01*
X144059746Y-107767282D01*
X144330665Y-107767518D01*
X144581052Y-107664061D01*
X144772787Y-107472659D01*
X144876682Y-107222454D01*
X144876918Y-106951535D01*
X144773461Y-106701148D01*
X144582059Y-106509413D01*
X144331854Y-106405518D01*
X144060935Y-106405282D01*
X143810548Y-106508739D01*
X143618813Y-106700141D01*
X143514918Y-106950346D01*
X143514682Y-107221265D01*
X141183213Y-107221265D01*
X141280882Y-106986054D01*
X141281118Y-106715135D01*
X141177661Y-106464748D01*
X140986259Y-106273013D01*
X140736054Y-106169118D01*
X140465135Y-106168882D01*
X140214748Y-106272339D01*
X140023013Y-106463741D01*
X139968378Y-106595317D01*
X139896661Y-106421748D01*
X139705259Y-106230013D01*
X139455054Y-106126118D01*
X139184135Y-106125882D01*
X138933748Y-106229339D01*
X138742013Y-106420741D01*
X138638118Y-106670946D01*
X138637882Y-106941865D01*
X122373727Y-106941865D01*
X124669592Y-104646000D01*
X143818969Y-104646000D01*
X143695013Y-104769741D01*
X143591118Y-105019946D01*
X143590882Y-105290865D01*
X143694339Y-105541252D01*
X143885741Y-105732987D01*
X144135946Y-105836882D01*
X144406865Y-105837118D01*
X144657252Y-105733661D01*
X144848987Y-105542259D01*
X144952882Y-105292054D01*
X144953118Y-105021135D01*
X144849661Y-104770748D01*
X144725130Y-104646000D01*
X157530877Y-104646000D01*
X157601741Y-104716987D01*
X157851946Y-104820882D01*
X158122865Y-104821118D01*
X158373252Y-104717661D01*
X158564987Y-104526259D01*
X158668882Y-104276054D01*
X158669118Y-104005135D01*
X158565661Y-103754748D01*
X158374259Y-103563013D01*
X158124054Y-103459118D01*
X157853135Y-103458882D01*
X157602748Y-103562339D01*
X157530962Y-103634000D01*
X142490076Y-103634000D01*
X142539882Y-103514054D01*
X142540118Y-103243135D01*
X142436661Y-102992748D01*
X142245259Y-102801013D01*
X141995054Y-102697118D01*
X141724135Y-102696882D01*
X141473748Y-102800339D01*
X141282013Y-102991741D01*
X141178118Y-103241946D01*
X141177882Y-103512865D01*
X141227934Y-103634000D01*
X139950076Y-103634000D01*
X139999882Y-103514054D01*
X140000118Y-103243135D01*
X139896661Y-102992748D01*
X139705259Y-102801013D01*
X139455054Y-102697118D01*
X139184135Y-102696882D01*
X138933748Y-102800339D01*
X138742013Y-102991741D01*
X138638118Y-103241946D01*
X138637882Y-103512865D01*
X138687934Y-103634000D01*
X124460000Y-103634000D01*
X124266362Y-103672517D01*
X124123381Y-103768054D01*
X124102204Y-103782204D01*
X121435204Y-106449204D01*
X121325517Y-106613362D01*
X121287000Y-106807000D01*
X121287000Y-108762877D01*
X121216013Y-108833741D01*
X121112118Y-109083946D01*
X121111882Y-109354865D01*
X120949883Y-109354865D01*
X120950118Y-109085135D01*
X120846661Y-108834748D01*
X120655259Y-108643013D01*
X120405054Y-108539118D01*
X120134135Y-108538882D01*
X119883748Y-108642339D01*
X119692013Y-108833741D01*
X119588118Y-109083946D01*
X119587882Y-109354865D01*
X116724491Y-109354865D01*
X116595054Y-109301118D01*
X116324135Y-109300882D01*
X116073748Y-109404339D01*
X115882013Y-109595741D01*
X115778118Y-109845946D01*
X115777882Y-110116865D01*
X105531000Y-110116865D01*
X105531000Y-107322865D01*
X117047882Y-107322865D01*
X117151339Y-107573252D01*
X117342741Y-107764987D01*
X117592946Y-107868882D01*
X117863865Y-107869118D01*
X118114252Y-107765661D01*
X118305987Y-107574259D01*
X118409882Y-107324054D01*
X118410118Y-107053135D01*
X118306661Y-106802748D01*
X118191978Y-106687865D01*
X119587882Y-106687865D01*
X119691339Y-106938252D01*
X119882741Y-107129987D01*
X120132946Y-107233882D01*
X120403865Y-107234118D01*
X120654252Y-107130661D01*
X120845987Y-106939259D01*
X120949882Y-106689054D01*
X120950118Y-106418135D01*
X120846661Y-106167748D01*
X120655259Y-105976013D01*
X120405054Y-105872118D01*
X120134135Y-105871882D01*
X119883748Y-105975339D01*
X119692013Y-106166741D01*
X119588118Y-106416946D01*
X119587882Y-106687865D01*
X118191978Y-106687865D01*
X118115259Y-106611013D01*
X117865054Y-106507118D01*
X117594135Y-106506882D01*
X117343748Y-106610339D01*
X117152013Y-106801741D01*
X117048118Y-107051946D01*
X117047882Y-107322865D01*
X105531000Y-107322865D01*
X105531000Y-105290865D01*
X107776882Y-105290865D01*
X107880339Y-105541252D01*
X108071741Y-105732987D01*
X108321946Y-105836882D01*
X108592865Y-105837118D01*
X108843252Y-105733661D01*
X109034987Y-105542259D01*
X109138882Y-105292054D01*
X109138883Y-105290865D01*
X111840882Y-105290865D01*
X111944339Y-105541252D01*
X112135741Y-105732987D01*
X112385946Y-105836882D01*
X112656865Y-105837118D01*
X112907252Y-105733661D01*
X113098987Y-105542259D01*
X113202882Y-105292054D01*
X113203118Y-105021135D01*
X113099661Y-104770748D01*
X112908259Y-104579013D01*
X112658054Y-104475118D01*
X112387135Y-104474882D01*
X112136748Y-104578339D01*
X111945013Y-104769741D01*
X111841118Y-105019946D01*
X111840882Y-105290865D01*
X109138883Y-105290865D01*
X109139118Y-105021135D01*
X109035661Y-104770748D01*
X108844259Y-104579013D01*
X108594054Y-104475118D01*
X108323135Y-104474882D01*
X108072748Y-104578339D01*
X107881013Y-104769741D01*
X107777118Y-105019946D01*
X107776882Y-105290865D01*
X105531000Y-105290865D01*
X105531000Y-103766865D01*
X115777882Y-103766865D01*
X115881339Y-104017252D01*
X116072741Y-104208987D01*
X116322946Y-104312882D01*
X116593865Y-104313118D01*
X116844252Y-104209661D01*
X117035987Y-104018259D01*
X117139882Y-103768054D01*
X117140118Y-103497135D01*
X117036661Y-103246748D01*
X116845259Y-103055013D01*
X116595054Y-102951118D01*
X116324135Y-102950882D01*
X116073748Y-103054339D01*
X115882013Y-103245741D01*
X115778118Y-103495946D01*
X115777882Y-103766865D01*
X105531000Y-103766865D01*
X105531000Y-101506265D01*
X136910682Y-101506265D01*
X137014139Y-101756652D01*
X137205541Y-101948387D01*
X137455746Y-102052282D01*
X137726665Y-102052518D01*
X137977052Y-101949061D01*
X138168787Y-101757659D01*
X138272682Y-101507454D01*
X138272918Y-101236535D01*
X138249647Y-101180213D01*
X148749392Y-101180213D01*
X148818857Y-101422397D01*
X149342302Y-101609144D01*
X149897368Y-101581362D01*
X150281143Y-101422397D01*
X150350608Y-101180213D01*
X149550000Y-100379605D01*
X148749392Y-101180213D01*
X138249647Y-101180213D01*
X138169461Y-100986148D01*
X137978059Y-100794413D01*
X137727854Y-100690518D01*
X137456935Y-100690282D01*
X137206548Y-100793739D01*
X137014813Y-100985141D01*
X136910918Y-101235346D01*
X136910682Y-101506265D01*
X105531000Y-101506265D01*
X105531000Y-99956865D01*
X125556882Y-99956865D01*
X125660339Y-100207252D01*
X125851741Y-100398987D01*
X126101946Y-100502882D01*
X126372865Y-100503118D01*
X126623252Y-100399661D01*
X126814987Y-100208259D01*
X126904660Y-99992302D01*
X148140856Y-99992302D01*
X148168638Y-100547368D01*
X148327603Y-100931143D01*
X148569787Y-101000608D01*
X149370395Y-100200000D01*
X149729605Y-100200000D01*
X150530213Y-101000608D01*
X150772397Y-100931143D01*
X150959144Y-100407698D01*
X150931362Y-99852632D01*
X150772397Y-99468857D01*
X150530213Y-99399392D01*
X149729605Y-100200000D01*
X149370395Y-100200000D01*
X148569787Y-99399392D01*
X148327603Y-99468857D01*
X148140856Y-99992302D01*
X126904660Y-99992302D01*
X126918882Y-99958054D01*
X126919118Y-99687135D01*
X126815661Y-99436748D01*
X126624259Y-99245013D01*
X126563509Y-99219787D01*
X148749392Y-99219787D01*
X149550000Y-100020395D01*
X150350608Y-99219787D01*
X150281143Y-98977603D01*
X149757698Y-98790856D01*
X149202632Y-98818638D01*
X148818857Y-98977603D01*
X148749392Y-99219787D01*
X126563509Y-99219787D01*
X126374054Y-99141118D01*
X126103135Y-99140882D01*
X125852748Y-99244339D01*
X125661013Y-99435741D01*
X125557118Y-99685946D01*
X125556882Y-99956865D01*
X105531000Y-99956865D01*
X105531000Y-99064128D01*
X109870176Y-99064128D01*
X109996358Y-99369511D01*
X110229800Y-99603361D01*
X110534963Y-99730075D01*
X110865388Y-99730364D01*
X111170771Y-99604182D01*
X111404621Y-99370740D01*
X111531335Y-99065577D01*
X111531624Y-98735152D01*
X111405442Y-98429769D01*
X111172000Y-98195919D01*
X110866837Y-98069205D01*
X110536412Y-98068916D01*
X110231029Y-98195098D01*
X109997179Y-98428540D01*
X109870465Y-98733703D01*
X109870176Y-99064128D01*
X105531000Y-99064128D01*
X105531000Y-96834865D01*
X147168882Y-96834865D01*
X147272339Y-97085252D01*
X147463741Y-97276987D01*
X147713946Y-97380882D01*
X147984865Y-97381118D01*
X148235252Y-97277661D01*
X148426987Y-97086259D01*
X148530882Y-96836054D01*
X148531118Y-96565135D01*
X148427661Y-96314748D01*
X148236259Y-96123013D01*
X147986054Y-96019118D01*
X147715135Y-96018882D01*
X147464748Y-96122339D01*
X147273013Y-96313741D01*
X147169118Y-96563946D01*
X147168882Y-96834865D01*
X105531000Y-96834865D01*
X105531000Y-95588065D01*
X129417682Y-95588065D01*
X129521139Y-95838452D01*
X129712541Y-96030187D01*
X129962746Y-96134082D01*
X130233665Y-96134318D01*
X130484052Y-96030861D01*
X130596843Y-95918265D01*
X159211882Y-95918265D01*
X159315339Y-96168652D01*
X159506741Y-96360387D01*
X159756946Y-96464282D01*
X160027865Y-96464518D01*
X160278252Y-96361061D01*
X160469987Y-96169659D01*
X160573882Y-95919454D01*
X160574118Y-95648535D01*
X160470661Y-95398148D01*
X160279259Y-95206413D01*
X160029054Y-95102518D01*
X159758135Y-95102282D01*
X159507748Y-95205739D01*
X159316013Y-95397141D01*
X159212118Y-95647346D01*
X159211882Y-95918265D01*
X130596843Y-95918265D01*
X130675787Y-95839459D01*
X130779682Y-95589254D01*
X130779918Y-95318335D01*
X130691963Y-95105465D01*
X134370682Y-95105465D01*
X134474139Y-95355852D01*
X134665541Y-95547587D01*
X134915746Y-95651482D01*
X135186665Y-95651718D01*
X135437052Y-95548261D01*
X135628787Y-95356859D01*
X135732682Y-95106654D01*
X135732683Y-95105465D01*
X136910682Y-95105465D01*
X137014139Y-95355852D01*
X137205541Y-95547587D01*
X137455746Y-95651482D01*
X137726665Y-95651718D01*
X137977052Y-95548261D01*
X138168787Y-95356859D01*
X138272682Y-95106654D01*
X138272918Y-94835735D01*
X138169461Y-94585348D01*
X137978059Y-94393613D01*
X137727854Y-94289718D01*
X137456935Y-94289482D01*
X137206548Y-94392939D01*
X137014813Y-94584341D01*
X136910918Y-94834546D01*
X136910682Y-95105465D01*
X135732683Y-95105465D01*
X135732918Y-94835735D01*
X135629461Y-94585348D01*
X135438059Y-94393613D01*
X135187854Y-94289718D01*
X134916935Y-94289482D01*
X134666548Y-94392939D01*
X134474813Y-94584341D01*
X134370918Y-94834546D01*
X134370682Y-95105465D01*
X130691963Y-95105465D01*
X130676461Y-95067948D01*
X130485059Y-94876213D01*
X130234854Y-94772318D01*
X129963935Y-94772082D01*
X129713548Y-94875539D01*
X129521813Y-95066941D01*
X129417918Y-95317146D01*
X129417682Y-95588065D01*
X105531000Y-95588065D01*
X105531000Y-94664848D01*
X109870176Y-94664848D01*
X109996358Y-94970231D01*
X110229800Y-95204081D01*
X110534963Y-95330795D01*
X110865388Y-95331084D01*
X111170771Y-95204902D01*
X111404621Y-94971460D01*
X111531335Y-94666297D01*
X111531624Y-94335872D01*
X111405442Y-94030489D01*
X111236114Y-93860865D01*
X123143882Y-93860865D01*
X123247339Y-94111252D01*
X123438741Y-94302987D01*
X123688946Y-94406882D01*
X123959865Y-94407118D01*
X124210252Y-94303661D01*
X124401987Y-94112259D01*
X124505882Y-93862054D01*
X124506118Y-93591135D01*
X124438035Y-93426359D01*
X148406802Y-93426359D01*
X148580446Y-93846612D01*
X148901697Y-94168423D01*
X149321646Y-94342801D01*
X149776359Y-94343198D01*
X150196612Y-94169554D01*
X150518423Y-93848303D01*
X150618676Y-93606865D01*
X170895882Y-93606865D01*
X170999339Y-93857252D01*
X171190741Y-94048987D01*
X171440946Y-94152882D01*
X171711865Y-94153118D01*
X171962252Y-94049661D01*
X172153987Y-93858259D01*
X172257882Y-93608054D01*
X172258118Y-93337135D01*
X172154661Y-93086748D01*
X171963259Y-92895013D01*
X171713054Y-92791118D01*
X171442135Y-92790882D01*
X171191748Y-92894339D01*
X171000013Y-93085741D01*
X170896118Y-93335946D01*
X170895882Y-93606865D01*
X150618676Y-93606865D01*
X150692801Y-93428354D01*
X150693198Y-92973641D01*
X150519554Y-92553388D01*
X150198303Y-92231577D01*
X149778354Y-92057199D01*
X149323641Y-92056802D01*
X148903388Y-92230446D01*
X148581577Y-92551697D01*
X148407199Y-92971646D01*
X148406802Y-93426359D01*
X124438035Y-93426359D01*
X124402661Y-93340748D01*
X124211259Y-93149013D01*
X123961054Y-93045118D01*
X123690135Y-93044882D01*
X123439748Y-93148339D01*
X123248013Y-93339741D01*
X123144118Y-93589946D01*
X123143882Y-93860865D01*
X111236114Y-93860865D01*
X111172000Y-93796639D01*
X110866837Y-93669925D01*
X110536412Y-93669636D01*
X110231029Y-93795818D01*
X109997179Y-94029260D01*
X109870465Y-94334423D01*
X109870176Y-94664848D01*
X105531000Y-94664848D01*
X105531000Y-91508865D01*
X156900482Y-91508865D01*
X157003939Y-91759252D01*
X157195341Y-91950987D01*
X157445546Y-92054882D01*
X157716465Y-92055118D01*
X157966852Y-91951661D01*
X158158587Y-91760259D01*
X158262482Y-91510054D01*
X158262718Y-91239135D01*
X158191539Y-91066865D01*
X168990882Y-91066865D01*
X169094339Y-91317252D01*
X169285741Y-91508987D01*
X169535946Y-91612882D01*
X169806865Y-91613118D01*
X170057252Y-91509661D01*
X170248987Y-91318259D01*
X170352882Y-91068054D01*
X170353118Y-90797135D01*
X170249661Y-90546748D01*
X170058259Y-90355013D01*
X169808054Y-90251118D01*
X169537135Y-90250882D01*
X169286748Y-90354339D01*
X169095013Y-90545741D01*
X168991118Y-90795946D01*
X168990882Y-91066865D01*
X158191539Y-91066865D01*
X158159261Y-90988748D01*
X157967859Y-90797013D01*
X157717654Y-90693118D01*
X157446735Y-90692882D01*
X157196348Y-90796339D01*
X157004613Y-90987741D01*
X156900718Y-91237946D01*
X156900482Y-91508865D01*
X105531000Y-91508865D01*
X105531000Y-89796865D01*
X114253882Y-89796865D01*
X114357339Y-90047252D01*
X114548741Y-90238987D01*
X114798946Y-90342882D01*
X115069865Y-90343118D01*
X115320252Y-90239661D01*
X115511987Y-90048259D01*
X115615882Y-89798054D01*
X115616118Y-89527135D01*
X115512661Y-89276748D01*
X115321259Y-89085013D01*
X115071054Y-88981118D01*
X114800135Y-88980882D01*
X114549748Y-89084339D01*
X114358013Y-89275741D01*
X114254118Y-89525946D01*
X114253882Y-89796865D01*
X105531000Y-89796865D01*
X105531000Y-88501465D01*
X133634082Y-88501465D01*
X133737539Y-88751852D01*
X133928941Y-88943587D01*
X134179146Y-89047482D01*
X134450065Y-89047718D01*
X134700452Y-88944261D01*
X134892187Y-88752859D01*
X134996082Y-88502654D01*
X134996318Y-88231735D01*
X134935634Y-88084865D01*
X165468882Y-88084865D01*
X165572339Y-88335252D01*
X165763741Y-88526987D01*
X166013946Y-88630882D01*
X166284865Y-88631118D01*
X166535252Y-88527661D01*
X166726987Y-88336259D01*
X166806046Y-88145865D01*
X168990882Y-88145865D01*
X169094339Y-88396252D01*
X169285741Y-88587987D01*
X169535946Y-88691882D01*
X169806865Y-88692118D01*
X170057252Y-88588661D01*
X170248987Y-88397259D01*
X170352882Y-88147054D01*
X170352883Y-88145865D01*
X170895882Y-88145865D01*
X170999339Y-88396252D01*
X171190741Y-88587987D01*
X171440946Y-88691882D01*
X171711865Y-88692118D01*
X171962252Y-88588661D01*
X172153987Y-88397259D01*
X172257882Y-88147054D01*
X172258118Y-87876135D01*
X172154661Y-87625748D01*
X171963259Y-87434013D01*
X171713054Y-87330118D01*
X171442135Y-87329882D01*
X171191748Y-87433339D01*
X171000013Y-87624741D01*
X170896118Y-87874946D01*
X170895882Y-88145865D01*
X170352883Y-88145865D01*
X170353118Y-87876135D01*
X170249661Y-87625748D01*
X170058259Y-87434013D01*
X169808054Y-87330118D01*
X169537135Y-87329882D01*
X169286748Y-87433339D01*
X169095013Y-87624741D01*
X168991118Y-87874946D01*
X168990882Y-88145865D01*
X166806046Y-88145865D01*
X166830882Y-88086054D01*
X166831118Y-87815135D01*
X166727661Y-87564748D01*
X166536259Y-87373013D01*
X166286054Y-87269118D01*
X166015135Y-87268882D01*
X165764748Y-87372339D01*
X165573013Y-87563741D01*
X165469118Y-87813946D01*
X165468882Y-88084865D01*
X134935634Y-88084865D01*
X134892861Y-87981348D01*
X134701459Y-87789613D01*
X134451254Y-87685718D01*
X134180335Y-87685482D01*
X133929948Y-87788939D01*
X133738213Y-87980341D01*
X133634318Y-88230546D01*
X133634082Y-88501465D01*
X105531000Y-88501465D01*
X105531000Y-86621865D01*
X156290882Y-86621865D01*
X156394339Y-86872252D01*
X156585741Y-87063987D01*
X156835946Y-87167882D01*
X157106865Y-87168118D01*
X157357252Y-87064661D01*
X157548987Y-86873259D01*
X157652882Y-86623054D01*
X157653118Y-86352135D01*
X157549661Y-86101748D01*
X157358259Y-85910013D01*
X157108054Y-85806118D01*
X156837135Y-85805882D01*
X156586748Y-85909339D01*
X156395013Y-86100741D01*
X156291118Y-86350946D01*
X156290882Y-86621865D01*
X105531000Y-86621865D01*
X105531000Y-85906865D01*
X147019882Y-85906865D01*
X147123339Y-86157252D01*
X147314741Y-86348987D01*
X147564946Y-86452882D01*
X147835865Y-86453118D01*
X148086252Y-86349661D01*
X148277987Y-86158259D01*
X148381882Y-85908054D01*
X148382118Y-85637135D01*
X148278661Y-85386748D01*
X148087259Y-85195013D01*
X147837054Y-85091118D01*
X147566135Y-85090882D01*
X147315748Y-85194339D01*
X147124013Y-85385741D01*
X147020118Y-85635946D01*
X147019882Y-85906865D01*
X105531000Y-85906865D01*
X105531000Y-83954865D01*
X148518482Y-83954865D01*
X148621939Y-84205252D01*
X148813341Y-84396987D01*
X149063546Y-84500882D01*
X149334465Y-84501118D01*
X149584852Y-84397661D01*
X149776587Y-84206259D01*
X149880482Y-83956054D01*
X149880718Y-83685135D01*
X149777261Y-83434748D01*
X149585859Y-83243013D01*
X149335654Y-83139118D01*
X149064735Y-83138882D01*
X148814348Y-83242339D01*
X148622613Y-83433741D01*
X148518718Y-83683946D01*
X148518482Y-83954865D01*
X105531000Y-83954865D01*
X105531000Y-81160865D01*
X145368882Y-81160865D01*
X145472339Y-81411252D01*
X145663741Y-81602987D01*
X145913946Y-81706882D01*
X146184865Y-81707118D01*
X146435252Y-81603661D01*
X146626987Y-81412259D01*
X146668093Y-81313265D01*
X174070882Y-81313265D01*
X174174339Y-81563652D01*
X174365741Y-81755387D01*
X174615946Y-81859282D01*
X174886865Y-81859518D01*
X175137252Y-81756061D01*
X175328987Y-81564659D01*
X175432882Y-81314454D01*
X175432883Y-81313265D01*
X181868682Y-81313265D01*
X181972139Y-81563652D01*
X182163541Y-81755387D01*
X182413746Y-81859282D01*
X182684665Y-81859518D01*
X182935052Y-81756061D01*
X183126787Y-81564659D01*
X183230682Y-81314454D01*
X183230918Y-81043535D01*
X183127461Y-80793148D01*
X182936059Y-80601413D01*
X182685854Y-80497518D01*
X182414935Y-80497282D01*
X182164548Y-80600739D01*
X181972813Y-80792141D01*
X181868918Y-81042346D01*
X181868682Y-81313265D01*
X175432883Y-81313265D01*
X175433118Y-81043535D01*
X175329661Y-80793148D01*
X175138259Y-80601413D01*
X174888054Y-80497518D01*
X174617135Y-80497282D01*
X174366748Y-80600739D01*
X174175013Y-80792141D01*
X174071118Y-81042346D01*
X174070882Y-81313265D01*
X146668093Y-81313265D01*
X146730882Y-81162054D01*
X146731118Y-80891135D01*
X146627661Y-80640748D01*
X146436259Y-80449013D01*
X146186054Y-80345118D01*
X145915135Y-80344882D01*
X145664748Y-80448339D01*
X145473013Y-80639741D01*
X145369118Y-80889946D01*
X145368882Y-81160865D01*
X105531000Y-81160865D01*
X105531000Y-80144865D01*
X155020882Y-80144865D01*
X155124339Y-80395252D01*
X155315741Y-80586987D01*
X155565946Y-80690882D01*
X155836865Y-80691118D01*
X156087252Y-80587661D01*
X156278987Y-80396259D01*
X156382882Y-80146054D01*
X156383118Y-79875135D01*
X156279661Y-79624748D01*
X156088259Y-79433013D01*
X155838054Y-79329118D01*
X155567135Y-79328882D01*
X155316748Y-79432339D01*
X155125013Y-79623741D01*
X155021118Y-79873946D01*
X155020882Y-80144865D01*
X105531000Y-80144865D01*
X105531000Y-78874865D01*
X151210882Y-78874865D01*
X151314339Y-79125252D01*
X151505741Y-79316987D01*
X151755946Y-79420882D01*
X152026865Y-79421118D01*
X152277252Y-79317661D01*
X152468987Y-79126259D01*
X152572882Y-78876054D01*
X152573118Y-78605135D01*
X152469661Y-78354748D01*
X152278259Y-78163013D01*
X152028054Y-78059118D01*
X151757135Y-78058882D01*
X151506748Y-78162339D01*
X151315013Y-78353741D01*
X151211118Y-78603946D01*
X151210882Y-78874865D01*
X105531000Y-78874865D01*
X105531000Y-77655665D01*
X118038482Y-77655665D01*
X118141939Y-77906052D01*
X118333341Y-78097787D01*
X118583546Y-78201682D01*
X118854465Y-78201918D01*
X119104852Y-78098461D01*
X119296587Y-77907059D01*
X119400482Y-77656854D01*
X119400718Y-77385935D01*
X119297261Y-77135548D01*
X119105859Y-76943813D01*
X118855654Y-76839918D01*
X118584735Y-76839682D01*
X118334348Y-76943139D01*
X118142613Y-77134541D01*
X118038718Y-77384746D01*
X118038482Y-77655665D01*
X105531000Y-77655665D01*
X105531000Y-75223000D01*
X146462536Y-75223000D01*
X146462536Y-76923000D01*
X146489103Y-77064190D01*
X146572546Y-77193865D01*
X146699866Y-77280859D01*
X146851000Y-77311464D01*
X148551000Y-77311464D01*
X148692190Y-77284897D01*
X148821865Y-77201454D01*
X148908859Y-77074134D01*
X148939464Y-76923000D01*
X148939464Y-76234865D01*
X172168882Y-76234865D01*
X172272339Y-76485252D01*
X172463741Y-76676987D01*
X172713946Y-76780882D01*
X172984865Y-76781118D01*
X173235252Y-76677661D01*
X173426987Y-76486259D01*
X173530882Y-76236054D01*
X173531118Y-75965135D01*
X173427661Y-75714748D01*
X173236259Y-75523013D01*
X172986054Y-75419118D01*
X172715135Y-75418882D01*
X172464748Y-75522339D01*
X172273013Y-75713741D01*
X172169118Y-75963946D01*
X172168882Y-76234865D01*
X148939464Y-76234865D01*
X148939464Y-75223000D01*
X148912897Y-75081810D01*
X148829454Y-74952135D01*
X148702134Y-74865141D01*
X148551000Y-74834536D01*
X146851000Y-74834536D01*
X146709810Y-74861103D01*
X146580135Y-74944546D01*
X146493141Y-75071866D01*
X146462536Y-75223000D01*
X105531000Y-75223000D01*
X105531000Y-74342448D01*
X105692009Y-73533000D01*
X146445883Y-73533000D01*
X146539587Y-74004083D01*
X146806435Y-74403448D01*
X147205800Y-74670296D01*
X147676883Y-74764000D01*
X147725117Y-74764000D01*
X148196200Y-74670296D01*
X148595565Y-74403448D01*
X148862413Y-74004083D01*
X148956117Y-73533000D01*
X148862413Y-73061917D01*
X148595565Y-72662552D01*
X148196200Y-72395704D01*
X147725117Y-72302000D01*
X147676883Y-72302000D01*
X147205800Y-72395704D01*
X146806435Y-72662552D01*
X146539587Y-73061917D01*
X146445883Y-73533000D01*
X105692009Y-73533000D01*
X105734355Y-73320117D01*
X106289413Y-72489413D01*
X107120118Y-71934354D01*
X108142448Y-71731000D01*
X190957552Y-71731000D01*
X191979883Y-71934355D01*
X191979883Y-71934355D01*
G37*
X191979883Y-71934355D02*
X192810587Y-72489413D01*
X193365646Y-73320118D01*
X193569000Y-74342448D01*
X193569000Y-119057552D01*
X193365646Y-120079882D01*
X192810587Y-120910587D01*
X191979883Y-121465645D01*
X190957552Y-121669000D01*
X108142448Y-121669000D01*
X107120118Y-121465646D01*
X106289413Y-120910587D01*
X105734355Y-120079883D01*
X105546180Y-119133865D01*
X115777882Y-119133865D01*
X115881339Y-119384252D01*
X116072741Y-119575987D01*
X116322946Y-119679882D01*
X116593865Y-119680118D01*
X116844252Y-119576661D01*
X117035987Y-119385259D01*
X117139882Y-119135054D01*
X117139993Y-119006865D01*
X138637882Y-119006865D01*
X138741339Y-119257252D01*
X138932741Y-119448987D01*
X139182946Y-119552882D01*
X139453865Y-119553118D01*
X139704252Y-119449661D01*
X139895987Y-119258259D01*
X139999882Y-119008054D01*
X140000118Y-118737135D01*
X139896661Y-118486748D01*
X139705259Y-118295013D01*
X139455054Y-118191118D01*
X139184135Y-118190882D01*
X138933748Y-118294339D01*
X138742013Y-118485741D01*
X138638118Y-118735946D01*
X138637882Y-119006865D01*
X117139993Y-119006865D01*
X117140118Y-118864135D01*
X117036661Y-118613748D01*
X116845259Y-118422013D01*
X116595054Y-118318118D01*
X116324135Y-118317882D01*
X116073748Y-118421339D01*
X115882013Y-118612741D01*
X115778118Y-118862946D01*
X115777882Y-119133865D01*
X105546180Y-119133865D01*
X105531000Y-119057552D01*
X105531000Y-118244865D01*
X118317882Y-118244865D01*
X118421339Y-118495252D01*
X118612741Y-118686987D01*
X118862946Y-118790882D01*
X119133865Y-118791118D01*
X119384252Y-118687661D01*
X119575987Y-118496259D01*
X119634014Y-118356515D01*
X119691339Y-118495252D01*
X119882741Y-118686987D01*
X120132946Y-118790882D01*
X120403865Y-118791118D01*
X120654252Y-118687661D01*
X120845987Y-118496259D01*
X120904014Y-118356515D01*
X120961339Y-118495252D01*
X121152741Y-118686987D01*
X121402946Y-118790882D01*
X121673865Y-118791118D01*
X121924252Y-118687661D01*
X122115987Y-118496259D01*
X122219882Y-118246054D01*
X122219993Y-118117865D01*
X141177882Y-118117865D01*
X141281339Y-118368252D01*
X141472741Y-118559987D01*
X141722946Y-118663882D01*
X141993865Y-118664118D01*
X142244252Y-118560661D01*
X142435987Y-118369259D01*
X142539882Y-118119054D01*
X142540118Y-117848135D01*
X142436661Y-117597748D01*
X142245259Y-117406013D01*
X141995054Y-117302118D01*
X141724135Y-117301882D01*
X141473748Y-117405339D01*
X141282013Y-117596741D01*
X141178118Y-117846946D01*
X141177882Y-118117865D01*
X122219993Y-118117865D01*
X122220118Y-117975135D01*
X122116661Y-117724748D01*
X121927108Y-117534865D01*
X134868882Y-117534865D01*
X134972339Y-117785252D01*
X135163741Y-117976987D01*
X135413946Y-118080882D01*
X135684865Y-118081118D01*
X135935252Y-117977661D01*
X136126987Y-117786259D01*
X136230882Y-117536054D01*
X136231118Y-117265135D01*
X136127661Y-117014748D01*
X136047917Y-116934865D01*
X137368882Y-116934865D01*
X137472339Y-117185252D01*
X137663741Y-117376987D01*
X137913946Y-117480882D01*
X138184865Y-117481118D01*
X138435252Y-117377661D01*
X138626987Y-117186259D01*
X138730882Y-116936054D01*
X138731118Y-116665135D01*
X138627661Y-116414748D01*
X138436259Y-116223013D01*
X138186054Y-116119118D01*
X137915135Y-116118882D01*
X137664748Y-116222339D01*
X137473013Y-116413741D01*
X137369118Y-116663946D01*
X137368882Y-116934865D01*
X136047917Y-116934865D01*
X135936259Y-116823013D01*
X135686054Y-116719118D01*
X135415135Y-116718882D01*
X135164748Y-116822339D01*
X134973013Y-117013741D01*
X134869118Y-117263946D01*
X134868882Y-117534865D01*
X121927108Y-117534865D01*
X121925259Y-117533013D01*
X121675054Y-117429118D01*
X121404135Y-117428882D01*
X121153748Y-117532339D01*
X120962013Y-117723741D01*
X120903986Y-117863485D01*
X120846661Y-117724748D01*
X120655259Y-117533013D01*
X120405054Y-117429118D01*
X120134135Y-117428882D01*
X119883748Y-117532339D01*
X119692013Y-117723741D01*
X119633986Y-117863485D01*
X119576661Y-117724748D01*
X119385259Y-117533013D01*
X119135054Y-117429118D01*
X118864135Y-117428882D01*
X118613748Y-117532339D01*
X118422013Y-117723741D01*
X118318118Y-117973946D01*
X118317882Y-118244865D01*
X105531000Y-118244865D01*
X105531000Y-115958865D01*
X117047882Y-115958865D01*
X117151339Y-116209252D01*
X117342741Y-116400987D01*
X117592946Y-116504882D01*
X117863865Y-116505118D01*
X118114252Y-116401661D01*
X118305987Y-116210259D01*
X118409882Y-115960054D01*
X118410118Y-115689135D01*
X118364143Y-115577865D01*
X119587882Y-115577865D01*
X119691339Y-115828252D01*
X119882741Y-116019987D01*
X120132946Y-116123882D01*
X120403865Y-116124118D01*
X120654252Y-116020661D01*
X120845987Y-115829259D01*
X120949882Y-115579054D01*
X120949993Y-115450865D01*
X134827882Y-115450865D01*
X134931339Y-115701252D01*
X135122741Y-115892987D01*
X135372946Y-115996882D01*
X135643865Y-115997118D01*
X135894252Y-115893661D01*
X136085987Y-115702259D01*
X136118936Y-115622910D01*
X136118882Y-115684865D01*
X136222339Y-115935252D01*
X136413741Y-116126987D01*
X136663946Y-116230882D01*
X136934865Y-116231118D01*
X137185252Y-116127661D01*
X137376987Y-115936259D01*
X137480882Y-115686054D01*
X137480883Y-115684865D01*
X138618882Y-115684865D01*
X138722339Y-115935252D01*
X138913741Y-116126987D01*
X139163946Y-116230882D01*
X139434865Y-116231118D01*
X139685252Y-116127661D01*
X139876987Y-115936259D01*
X139940396Y-115783555D01*
X140011339Y-115955252D01*
X140202741Y-116146987D01*
X140452946Y-116250882D01*
X140723865Y-116251118D01*
X140974252Y-116147661D01*
X141165987Y-115956259D01*
X141269882Y-115706054D01*
X141270118Y-115435135D01*
X141166661Y-115184748D01*
X140975259Y-114993013D01*
X140725054Y-114889118D01*
X140454135Y-114888882D01*
X140203748Y-114992339D01*
X140012013Y-115183741D01*
X139948604Y-115336445D01*
X139877661Y-115164748D01*
X139686259Y-114973013D01*
X139436054Y-114869118D01*
X139165135Y-114868882D01*
X138914748Y-114972339D01*
X138723013Y-115163741D01*
X138619118Y-115413946D01*
X138618882Y-115684865D01*
X137480883Y-115684865D01*
X137481118Y-115415135D01*
X137377661Y-115164748D01*
X137186259Y-114973013D01*
X136936054Y-114869118D01*
X136665135Y-114868882D01*
X136414748Y-114972339D01*
X136223013Y-115163741D01*
X136190064Y-115243090D01*
X136190118Y-115181135D01*
X136086661Y-114930748D01*
X135895259Y-114739013D01*
X135645054Y-114635118D01*
X135374135Y-114634882D01*
X135123748Y-114738339D01*
X134932013Y-114929741D01*
X134828118Y-115179946D01*
X134827882Y-115450865D01*
X120949993Y-115450865D01*
X120950118Y-115308135D01*
X120846661Y-115057748D01*
X120655259Y-114866013D01*
X120405054Y-114762118D01*
X120134135Y-114761882D01*
X119883748Y-114865339D01*
X119692013Y-115056741D01*
X119588118Y-115306946D01*
X119587882Y-115577865D01*
X118364143Y-115577865D01*
X118306661Y-115438748D01*
X118115259Y-115247013D01*
X117865054Y-115143118D01*
X117594135Y-115142882D01*
X117343748Y-115246339D01*
X117152013Y-115437741D01*
X117048118Y-115687946D01*
X117047882Y-115958865D01*
X105531000Y-115958865D01*
X105531000Y-114180865D01*
X111840882Y-114180865D01*
X111944339Y-114431252D01*
X112135741Y-114622987D01*
X112385946Y-114726882D01*
X112656865Y-114727118D01*
X112907252Y-114623661D01*
X113096376Y-114434865D01*
X132160882Y-114434865D01*
X132264339Y-114685252D01*
X132455741Y-114876987D01*
X132705946Y-114980882D01*
X132976865Y-114981118D01*
X133227252Y-114877661D01*
X133418987Y-114686259D01*
X133522882Y-114436054D01*
X133523118Y-114165135D01*
X133419661Y-113914748D01*
X133228259Y-113723013D01*
X132978054Y-113619118D01*
X132707135Y-113618882D01*
X132456748Y-113722339D01*
X132265013Y-113913741D01*
X132161118Y-114163946D01*
X132160882Y-114434865D01*
X113096376Y-114434865D01*
X113098987Y-114432259D01*
X113202882Y-114182054D01*
X113203118Y-113911135D01*
X113099661Y-113660748D01*
X112908259Y-113469013D01*
X112658054Y-113365118D01*
X112387135Y-113364882D01*
X112136748Y-113468339D01*
X111945013Y-113659741D01*
X111841118Y-113909946D01*
X111840882Y-114180865D01*
X105531000Y-114180865D01*
X105531000Y-112910865D01*
X120857882Y-112910865D01*
X120961339Y-113161252D01*
X121152741Y-113352987D01*
X121402946Y-113456882D01*
X121673865Y-113457118D01*
X121924252Y-113353661D01*
X122115987Y-113162259D01*
X122219882Y-112912054D01*
X122219883Y-112910865D01*
X137367882Y-112910865D01*
X137471339Y-113161252D01*
X137662741Y-113352987D01*
X137912946Y-113456882D01*
X138183865Y-113457118D01*
X138434252Y-113353661D01*
X138506038Y-113282000D01*
X164465000Y-113282000D01*
X164658638Y-113243483D01*
X164822796Y-113133796D01*
X167489796Y-110466796D01*
X167570072Y-110346654D01*
X167599483Y-110302638D01*
X167638000Y-110109000D01*
X167638000Y-99984865D01*
X170318882Y-99984865D01*
X170422339Y-100235252D01*
X170613741Y-100426987D01*
X170863946Y-100530882D01*
X171134865Y-100531118D01*
X171385252Y-100427661D01*
X171576987Y-100236259D01*
X171680882Y-99986054D01*
X171680883Y-99984865D01*
X182747882Y-99984865D01*
X182851339Y-100235252D01*
X183042741Y-100426987D01*
X183292946Y-100530882D01*
X183563865Y-100531118D01*
X183814252Y-100427661D01*
X184005987Y-100236259D01*
X184109882Y-99986054D01*
X184110118Y-99715135D01*
X184006661Y-99464748D01*
X183815259Y-99273013D01*
X183565054Y-99169118D01*
X183294135Y-99168882D01*
X183043748Y-99272339D01*
X182852013Y-99463741D01*
X182748118Y-99713946D01*
X182747882Y-99984865D01*
X171680883Y-99984865D01*
X171681118Y-99715135D01*
X171577661Y-99464748D01*
X171386259Y-99273013D01*
X171136054Y-99169118D01*
X170865135Y-99168882D01*
X170614748Y-99272339D01*
X170423013Y-99463741D01*
X170319118Y-99713946D01*
X170318882Y-99984865D01*
X167638000Y-99984865D01*
X167638000Y-98755123D01*
X167708987Y-98684259D01*
X167812882Y-98434054D01*
X167813118Y-98163135D01*
X167709661Y-97912748D01*
X167518259Y-97721013D01*
X167268054Y-97617118D01*
X166997135Y-97616882D01*
X166746748Y-97720339D01*
X166555013Y-97911741D01*
X166496986Y-98051485D01*
X166439661Y-97912748D01*
X166248259Y-97721013D01*
X165998054Y-97617118D01*
X165727135Y-97616882D01*
X165476748Y-97720339D01*
X165285013Y-97911741D01*
X165181118Y-98161946D01*
X165180882Y-98432865D01*
X165284339Y-98683252D01*
X165475741Y-98874987D01*
X165725946Y-98978882D01*
X165996865Y-98979118D01*
X166247252Y-98875661D01*
X166438987Y-98684259D01*
X166497014Y-98544515D01*
X166554339Y-98683252D01*
X166626000Y-98755038D01*
X166626000Y-109899408D01*
X164255408Y-112270000D01*
X138506123Y-112270000D01*
X138435259Y-112199013D01*
X138185054Y-112095118D01*
X137914135Y-112094882D01*
X137663748Y-112198339D01*
X137472013Y-112389741D01*
X137368118Y-112639946D01*
X137367882Y-112910865D01*
X122219883Y-112910865D01*
X122220118Y-112641135D01*
X122116661Y-112390748D01*
X121925259Y-112199013D01*
X121675054Y-112095118D01*
X121404135Y-112094882D01*
X121153748Y-112198339D01*
X120962013Y-112389741D01*
X120858118Y-112639946D01*
X120857882Y-112910865D01*
X105531000Y-112910865D01*
X105531000Y-110116865D01*
X115777882Y-110116865D01*
X115881339Y-110367252D01*
X116072741Y-110558987D01*
X116322946Y-110662882D01*
X116593865Y-110663118D01*
X116844252Y-110559661D01*
X117035987Y-110368259D01*
X117087640Y-110243865D01*
X137367882Y-110243865D01*
X137471339Y-110494252D01*
X137662741Y-110685987D01*
X137912946Y-110789882D01*
X138183865Y-110790118D01*
X138434252Y-110686661D01*
X138625987Y-110495259D01*
X138701417Y-110313606D01*
X138772339Y-110485252D01*
X138963741Y-110676987D01*
X139213946Y-110780882D01*
X139484865Y-110781118D01*
X139735252Y-110677661D01*
X139926987Y-110486259D01*
X140030882Y-110236054D01*
X140030972Y-110132919D01*
X140202741Y-110304987D01*
X140452946Y-110408882D01*
X140723865Y-110409118D01*
X140877918Y-110345465D01*
X142447882Y-110345465D01*
X142551339Y-110595852D01*
X142742741Y-110787587D01*
X142992946Y-110891482D01*
X143263865Y-110891718D01*
X143514252Y-110788261D01*
X143705987Y-110596859D01*
X143809882Y-110346654D01*
X143810118Y-110075735D01*
X143706661Y-109825348D01*
X143515259Y-109633613D01*
X143265054Y-109529718D01*
X142994135Y-109529482D01*
X142743748Y-109632939D01*
X142552013Y-109824341D01*
X142448118Y-110074546D01*
X142447882Y-110345465D01*
X140877918Y-110345465D01*
X140974252Y-110305661D01*
X141165987Y-110114259D01*
X141269882Y-109864054D01*
X141269970Y-109762622D01*
X142195592Y-108837000D01*
X162179000Y-108837000D01*
X162372638Y-108798483D01*
X162536796Y-108688796D01*
X163679796Y-107545796D01*
X163789483Y-107381638D01*
X163828000Y-107188000D01*
X163828000Y-96834865D01*
X185818882Y-96834865D01*
X185922339Y-97085252D01*
X186113741Y-97276987D01*
X186363946Y-97380882D01*
X186634865Y-97381118D01*
X186885252Y-97277661D01*
X187076987Y-97086259D01*
X187180882Y-96836054D01*
X187181118Y-96565135D01*
X187077661Y-96314748D01*
X186886259Y-96123013D01*
X186636054Y-96019118D01*
X186365135Y-96018882D01*
X186114748Y-96122339D01*
X185923013Y-96313741D01*
X185819118Y-96563946D01*
X185818882Y-96834865D01*
X163828000Y-96834865D01*
X163828000Y-95580123D01*
X163898987Y-95509259D01*
X164002882Y-95259054D01*
X164003118Y-94988135D01*
X163899661Y-94737748D01*
X163708259Y-94546013D01*
X163458054Y-94442118D01*
X163187135Y-94441882D01*
X162936748Y-94545339D01*
X162745013Y-94736741D01*
X162641118Y-94986946D01*
X162640882Y-95257865D01*
X162744339Y-95508252D01*
X162816000Y-95580038D01*
X162816000Y-106978408D01*
X161969408Y-107825000D01*
X141986000Y-107825000D01*
X141792362Y-107863517D01*
X141628204Y-107973204D01*
X140554439Y-109046969D01*
X140454135Y-109046882D01*
X140203748Y-109150339D01*
X140012013Y-109341741D01*
X139908118Y-109591946D01*
X139908028Y-109695081D01*
X139736259Y-109523013D01*
X139486054Y-109419118D01*
X139215135Y-109418882D01*
X138964748Y-109522339D01*
X138773013Y-109713741D01*
X138697583Y-109895394D01*
X138626661Y-109723748D01*
X138435259Y-109532013D01*
X138185054Y-109428118D01*
X137914135Y-109427882D01*
X137663748Y-109531339D01*
X137472013Y-109722741D01*
X137368118Y-109972946D01*
X137367882Y-110243865D01*
X117087640Y-110243865D01*
X117139882Y-110118054D01*
X117140118Y-109847135D01*
X117036661Y-109596748D01*
X116845259Y-109405013D01*
X116724491Y-109354865D01*
X119587882Y-109354865D01*
X119691339Y-109605252D01*
X119882741Y-109796987D01*
X120132946Y-109900882D01*
X120403865Y-109901118D01*
X120654252Y-109797661D01*
X120845987Y-109606259D01*
X120949882Y-109356054D01*
X120949883Y-109354865D01*
X121111882Y-109354865D01*
X121215339Y-109605252D01*
X121406741Y-109796987D01*
X121656946Y-109900882D01*
X121927865Y-109901118D01*
X122178252Y-109797661D01*
X122369987Y-109606259D01*
X122473882Y-109356054D01*
X122474118Y-109085135D01*
X122370661Y-108834748D01*
X122299000Y-108762962D01*
X122299000Y-107016592D01*
X122373727Y-106941865D01*
X138637882Y-106941865D01*
X138741339Y-107192252D01*
X138932741Y-107383987D01*
X139182946Y-107487882D01*
X139453865Y-107488118D01*
X139704252Y-107384661D01*
X139895987Y-107193259D01*
X139950622Y-107061683D01*
X140022339Y-107235252D01*
X140213741Y-107426987D01*
X140463946Y-107530882D01*
X140734865Y-107531118D01*
X140985252Y-107427661D01*
X141176987Y-107236259D01*
X141183213Y-107221265D01*
X143514682Y-107221265D01*
X143618139Y-107471652D01*
X143809541Y-107663387D01*
X144059746Y-107767282D01*
X144330665Y-107767518D01*
X144581052Y-107664061D01*
X144772787Y-107472659D01*
X144876682Y-107222454D01*
X144876918Y-106951535D01*
X144773461Y-106701148D01*
X144582059Y-106509413D01*
X144331854Y-106405518D01*
X144060935Y-106405282D01*
X143810548Y-106508739D01*
X143618813Y-106700141D01*
X143514918Y-106950346D01*
X143514682Y-107221265D01*
X141183213Y-107221265D01*
X141280882Y-106986054D01*
X141281118Y-106715135D01*
X141177661Y-106464748D01*
X140986259Y-106273013D01*
X140736054Y-106169118D01*
X140465135Y-106168882D01*
X140214748Y-106272339D01*
X140023013Y-106463741D01*
X139968378Y-106595317D01*
X139896661Y-106421748D01*
X139705259Y-106230013D01*
X139455054Y-106126118D01*
X139184135Y-106125882D01*
X138933748Y-106229339D01*
X138742013Y-106420741D01*
X138638118Y-106670946D01*
X138637882Y-106941865D01*
X122373727Y-106941865D01*
X124669592Y-104646000D01*
X143818969Y-104646000D01*
X143695013Y-104769741D01*
X143591118Y-105019946D01*
X143590882Y-105290865D01*
X143694339Y-105541252D01*
X143885741Y-105732987D01*
X144135946Y-105836882D01*
X144406865Y-105837118D01*
X144657252Y-105733661D01*
X144848987Y-105542259D01*
X144952882Y-105292054D01*
X144953118Y-105021135D01*
X144849661Y-104770748D01*
X144725130Y-104646000D01*
X157530877Y-104646000D01*
X157601741Y-104716987D01*
X157851946Y-104820882D01*
X158122865Y-104821118D01*
X158373252Y-104717661D01*
X158564987Y-104526259D01*
X158668882Y-104276054D01*
X158669118Y-104005135D01*
X158565661Y-103754748D01*
X158374259Y-103563013D01*
X158124054Y-103459118D01*
X157853135Y-103458882D01*
X157602748Y-103562339D01*
X157530962Y-103634000D01*
X142490076Y-103634000D01*
X142539882Y-103514054D01*
X142540118Y-103243135D01*
X142436661Y-102992748D01*
X142245259Y-102801013D01*
X141995054Y-102697118D01*
X141724135Y-102696882D01*
X141473748Y-102800339D01*
X141282013Y-102991741D01*
X141178118Y-103241946D01*
X141177882Y-103512865D01*
X141227934Y-103634000D01*
X139950076Y-103634000D01*
X139999882Y-103514054D01*
X140000118Y-103243135D01*
X139896661Y-102992748D01*
X139705259Y-102801013D01*
X139455054Y-102697118D01*
X139184135Y-102696882D01*
X138933748Y-102800339D01*
X138742013Y-102991741D01*
X138638118Y-103241946D01*
X138637882Y-103512865D01*
X138687934Y-103634000D01*
X124460000Y-103634000D01*
X124266362Y-103672517D01*
X124123381Y-103768054D01*
X124102204Y-103782204D01*
X121435204Y-106449204D01*
X121325517Y-106613362D01*
X121287000Y-106807000D01*
X121287000Y-108762877D01*
X121216013Y-108833741D01*
X121112118Y-109083946D01*
X121111882Y-109354865D01*
X120949883Y-109354865D01*
X120950118Y-109085135D01*
X120846661Y-108834748D01*
X120655259Y-108643013D01*
X120405054Y-108539118D01*
X120134135Y-108538882D01*
X119883748Y-108642339D01*
X119692013Y-108833741D01*
X119588118Y-109083946D01*
X119587882Y-109354865D01*
X116724491Y-109354865D01*
X116595054Y-109301118D01*
X116324135Y-109300882D01*
X116073748Y-109404339D01*
X115882013Y-109595741D01*
X115778118Y-109845946D01*
X115777882Y-110116865D01*
X105531000Y-110116865D01*
X105531000Y-107322865D01*
X117047882Y-107322865D01*
X117151339Y-107573252D01*
X117342741Y-107764987D01*
X117592946Y-107868882D01*
X117863865Y-107869118D01*
X118114252Y-107765661D01*
X118305987Y-107574259D01*
X118409882Y-107324054D01*
X118410118Y-107053135D01*
X118306661Y-106802748D01*
X118191978Y-106687865D01*
X119587882Y-106687865D01*
X119691339Y-106938252D01*
X119882741Y-107129987D01*
X120132946Y-107233882D01*
X120403865Y-107234118D01*
X120654252Y-107130661D01*
X120845987Y-106939259D01*
X120949882Y-106689054D01*
X120950118Y-106418135D01*
X120846661Y-106167748D01*
X120655259Y-105976013D01*
X120405054Y-105872118D01*
X120134135Y-105871882D01*
X119883748Y-105975339D01*
X119692013Y-106166741D01*
X119588118Y-106416946D01*
X119587882Y-106687865D01*
X118191978Y-106687865D01*
X118115259Y-106611013D01*
X117865054Y-106507118D01*
X117594135Y-106506882D01*
X117343748Y-106610339D01*
X117152013Y-106801741D01*
X117048118Y-107051946D01*
X117047882Y-107322865D01*
X105531000Y-107322865D01*
X105531000Y-105290865D01*
X107776882Y-105290865D01*
X107880339Y-105541252D01*
X108071741Y-105732987D01*
X108321946Y-105836882D01*
X108592865Y-105837118D01*
X108843252Y-105733661D01*
X109034987Y-105542259D01*
X109138882Y-105292054D01*
X109138883Y-105290865D01*
X111840882Y-105290865D01*
X111944339Y-105541252D01*
X112135741Y-105732987D01*
X112385946Y-105836882D01*
X112656865Y-105837118D01*
X112907252Y-105733661D01*
X113098987Y-105542259D01*
X113202882Y-105292054D01*
X113203118Y-105021135D01*
X113099661Y-104770748D01*
X112908259Y-104579013D01*
X112658054Y-104475118D01*
X112387135Y-104474882D01*
X112136748Y-104578339D01*
X111945013Y-104769741D01*
X111841118Y-105019946D01*
X111840882Y-105290865D01*
X109138883Y-105290865D01*
X109139118Y-105021135D01*
X109035661Y-104770748D01*
X108844259Y-104579013D01*
X108594054Y-104475118D01*
X108323135Y-104474882D01*
X108072748Y-104578339D01*
X107881013Y-104769741D01*
X107777118Y-105019946D01*
X107776882Y-105290865D01*
X105531000Y-105290865D01*
X105531000Y-103766865D01*
X115777882Y-103766865D01*
X115881339Y-104017252D01*
X116072741Y-104208987D01*
X116322946Y-104312882D01*
X116593865Y-104313118D01*
X116844252Y-104209661D01*
X117035987Y-104018259D01*
X117139882Y-103768054D01*
X117140118Y-103497135D01*
X117036661Y-103246748D01*
X116845259Y-103055013D01*
X116595054Y-102951118D01*
X116324135Y-102950882D01*
X116073748Y-103054339D01*
X115882013Y-103245741D01*
X115778118Y-103495946D01*
X115777882Y-103766865D01*
X105531000Y-103766865D01*
X105531000Y-101506265D01*
X136910682Y-101506265D01*
X137014139Y-101756652D01*
X137205541Y-101948387D01*
X137455746Y-102052282D01*
X137726665Y-102052518D01*
X137977052Y-101949061D01*
X138168787Y-101757659D01*
X138272682Y-101507454D01*
X138272918Y-101236535D01*
X138249647Y-101180213D01*
X148749392Y-101180213D01*
X148818857Y-101422397D01*
X149342302Y-101609144D01*
X149897368Y-101581362D01*
X150281143Y-101422397D01*
X150350608Y-101180213D01*
X149550000Y-100379605D01*
X148749392Y-101180213D01*
X138249647Y-101180213D01*
X138169461Y-100986148D01*
X137978059Y-100794413D01*
X137727854Y-100690518D01*
X137456935Y-100690282D01*
X137206548Y-100793739D01*
X137014813Y-100985141D01*
X136910918Y-101235346D01*
X136910682Y-101506265D01*
X105531000Y-101506265D01*
X105531000Y-99956865D01*
X125556882Y-99956865D01*
X125660339Y-100207252D01*
X125851741Y-100398987D01*
X126101946Y-100502882D01*
X126372865Y-100503118D01*
X126623252Y-100399661D01*
X126814987Y-100208259D01*
X126904660Y-99992302D01*
X148140856Y-99992302D01*
X148168638Y-100547368D01*
X148327603Y-100931143D01*
X148569787Y-101000608D01*
X149370395Y-100200000D01*
X149729605Y-100200000D01*
X150530213Y-101000608D01*
X150772397Y-100931143D01*
X150959144Y-100407698D01*
X150931362Y-99852632D01*
X150772397Y-99468857D01*
X150530213Y-99399392D01*
X149729605Y-100200000D01*
X149370395Y-100200000D01*
X148569787Y-99399392D01*
X148327603Y-99468857D01*
X148140856Y-99992302D01*
X126904660Y-99992302D01*
X126918882Y-99958054D01*
X126919118Y-99687135D01*
X126815661Y-99436748D01*
X126624259Y-99245013D01*
X126563509Y-99219787D01*
X148749392Y-99219787D01*
X149550000Y-100020395D01*
X150350608Y-99219787D01*
X150281143Y-98977603D01*
X149757698Y-98790856D01*
X149202632Y-98818638D01*
X148818857Y-98977603D01*
X148749392Y-99219787D01*
X126563509Y-99219787D01*
X126374054Y-99141118D01*
X126103135Y-99140882D01*
X125852748Y-99244339D01*
X125661013Y-99435741D01*
X125557118Y-99685946D01*
X125556882Y-99956865D01*
X105531000Y-99956865D01*
X105531000Y-99064128D01*
X109870176Y-99064128D01*
X109996358Y-99369511D01*
X110229800Y-99603361D01*
X110534963Y-99730075D01*
X110865388Y-99730364D01*
X111170771Y-99604182D01*
X111404621Y-99370740D01*
X111531335Y-99065577D01*
X111531624Y-98735152D01*
X111405442Y-98429769D01*
X111172000Y-98195919D01*
X110866837Y-98069205D01*
X110536412Y-98068916D01*
X110231029Y-98195098D01*
X109997179Y-98428540D01*
X109870465Y-98733703D01*
X109870176Y-99064128D01*
X105531000Y-99064128D01*
X105531000Y-96834865D01*
X147168882Y-96834865D01*
X147272339Y-97085252D01*
X147463741Y-97276987D01*
X147713946Y-97380882D01*
X147984865Y-97381118D01*
X148235252Y-97277661D01*
X148426987Y-97086259D01*
X148530882Y-96836054D01*
X148531118Y-96565135D01*
X148427661Y-96314748D01*
X148236259Y-96123013D01*
X147986054Y-96019118D01*
X147715135Y-96018882D01*
X147464748Y-96122339D01*
X147273013Y-96313741D01*
X147169118Y-96563946D01*
X147168882Y-96834865D01*
X105531000Y-96834865D01*
X105531000Y-95588065D01*
X129417682Y-95588065D01*
X129521139Y-95838452D01*
X129712541Y-96030187D01*
X129962746Y-96134082D01*
X130233665Y-96134318D01*
X130484052Y-96030861D01*
X130596843Y-95918265D01*
X159211882Y-95918265D01*
X159315339Y-96168652D01*
X159506741Y-96360387D01*
X159756946Y-96464282D01*
X160027865Y-96464518D01*
X160278252Y-96361061D01*
X160469987Y-96169659D01*
X160573882Y-95919454D01*
X160574118Y-95648535D01*
X160470661Y-95398148D01*
X160279259Y-95206413D01*
X160029054Y-95102518D01*
X159758135Y-95102282D01*
X159507748Y-95205739D01*
X159316013Y-95397141D01*
X159212118Y-95647346D01*
X159211882Y-95918265D01*
X130596843Y-95918265D01*
X130675787Y-95839459D01*
X130779682Y-95589254D01*
X130779918Y-95318335D01*
X130691963Y-95105465D01*
X134370682Y-95105465D01*
X134474139Y-95355852D01*
X134665541Y-95547587D01*
X134915746Y-95651482D01*
X135186665Y-95651718D01*
X135437052Y-95548261D01*
X135628787Y-95356859D01*
X135732682Y-95106654D01*
X135732683Y-95105465D01*
X136910682Y-95105465D01*
X137014139Y-95355852D01*
X137205541Y-95547587D01*
X137455746Y-95651482D01*
X137726665Y-95651718D01*
X137977052Y-95548261D01*
X138168787Y-95356859D01*
X138272682Y-95106654D01*
X138272918Y-94835735D01*
X138169461Y-94585348D01*
X137978059Y-94393613D01*
X137727854Y-94289718D01*
X137456935Y-94289482D01*
X137206548Y-94392939D01*
X137014813Y-94584341D01*
X136910918Y-94834546D01*
X136910682Y-95105465D01*
X135732683Y-95105465D01*
X135732918Y-94835735D01*
X135629461Y-94585348D01*
X135438059Y-94393613D01*
X135187854Y-94289718D01*
X134916935Y-94289482D01*
X134666548Y-94392939D01*
X134474813Y-94584341D01*
X134370918Y-94834546D01*
X134370682Y-95105465D01*
X130691963Y-95105465D01*
X130676461Y-95067948D01*
X130485059Y-94876213D01*
X130234854Y-94772318D01*
X129963935Y-94772082D01*
X129713548Y-94875539D01*
X129521813Y-95066941D01*
X129417918Y-95317146D01*
X129417682Y-95588065D01*
X105531000Y-95588065D01*
X105531000Y-94664848D01*
X109870176Y-94664848D01*
X109996358Y-94970231D01*
X110229800Y-95204081D01*
X110534963Y-95330795D01*
X110865388Y-95331084D01*
X111170771Y-95204902D01*
X111404621Y-94971460D01*
X111531335Y-94666297D01*
X111531624Y-94335872D01*
X111405442Y-94030489D01*
X111236114Y-93860865D01*
X123143882Y-93860865D01*
X123247339Y-94111252D01*
X123438741Y-94302987D01*
X123688946Y-94406882D01*
X123959865Y-94407118D01*
X124210252Y-94303661D01*
X124401987Y-94112259D01*
X124505882Y-93862054D01*
X124506118Y-93591135D01*
X124438035Y-93426359D01*
X148406802Y-93426359D01*
X148580446Y-93846612D01*
X148901697Y-94168423D01*
X149321646Y-94342801D01*
X149776359Y-94343198D01*
X150196612Y-94169554D01*
X150518423Y-93848303D01*
X150618676Y-93606865D01*
X170895882Y-93606865D01*
X170999339Y-93857252D01*
X171190741Y-94048987D01*
X171440946Y-94152882D01*
X171711865Y-94153118D01*
X171962252Y-94049661D01*
X172153987Y-93858259D01*
X172257882Y-93608054D01*
X172258118Y-93337135D01*
X172154661Y-93086748D01*
X171963259Y-92895013D01*
X171713054Y-92791118D01*
X171442135Y-92790882D01*
X171191748Y-92894339D01*
X171000013Y-93085741D01*
X170896118Y-93335946D01*
X170895882Y-93606865D01*
X150618676Y-93606865D01*
X150692801Y-93428354D01*
X150693198Y-92973641D01*
X150519554Y-92553388D01*
X150198303Y-92231577D01*
X149778354Y-92057199D01*
X149323641Y-92056802D01*
X148903388Y-92230446D01*
X148581577Y-92551697D01*
X148407199Y-92971646D01*
X148406802Y-93426359D01*
X124438035Y-93426359D01*
X124402661Y-93340748D01*
X124211259Y-93149013D01*
X123961054Y-93045118D01*
X123690135Y-93044882D01*
X123439748Y-93148339D01*
X123248013Y-93339741D01*
X123144118Y-93589946D01*
X123143882Y-93860865D01*
X111236114Y-93860865D01*
X111172000Y-93796639D01*
X110866837Y-93669925D01*
X110536412Y-93669636D01*
X110231029Y-93795818D01*
X109997179Y-94029260D01*
X109870465Y-94334423D01*
X109870176Y-94664848D01*
X105531000Y-94664848D01*
X105531000Y-91508865D01*
X156900482Y-91508865D01*
X157003939Y-91759252D01*
X157195341Y-91950987D01*
X157445546Y-92054882D01*
X157716465Y-92055118D01*
X157966852Y-91951661D01*
X158158587Y-91760259D01*
X158262482Y-91510054D01*
X158262718Y-91239135D01*
X158191539Y-91066865D01*
X168990882Y-91066865D01*
X169094339Y-91317252D01*
X169285741Y-91508987D01*
X169535946Y-91612882D01*
X169806865Y-91613118D01*
X170057252Y-91509661D01*
X170248987Y-91318259D01*
X170352882Y-91068054D01*
X170353118Y-90797135D01*
X170249661Y-90546748D01*
X170058259Y-90355013D01*
X169808054Y-90251118D01*
X169537135Y-90250882D01*
X169286748Y-90354339D01*
X169095013Y-90545741D01*
X168991118Y-90795946D01*
X168990882Y-91066865D01*
X158191539Y-91066865D01*
X158159261Y-90988748D01*
X157967859Y-90797013D01*
X157717654Y-90693118D01*
X157446735Y-90692882D01*
X157196348Y-90796339D01*
X157004613Y-90987741D01*
X156900718Y-91237946D01*
X156900482Y-91508865D01*
X105531000Y-91508865D01*
X105531000Y-89796865D01*
X114253882Y-89796865D01*
X114357339Y-90047252D01*
X114548741Y-90238987D01*
X114798946Y-90342882D01*
X115069865Y-90343118D01*
X115320252Y-90239661D01*
X115511987Y-90048259D01*
X115615882Y-89798054D01*
X115616118Y-89527135D01*
X115512661Y-89276748D01*
X115321259Y-89085013D01*
X115071054Y-88981118D01*
X114800135Y-88980882D01*
X114549748Y-89084339D01*
X114358013Y-89275741D01*
X114254118Y-89525946D01*
X114253882Y-89796865D01*
X105531000Y-89796865D01*
X105531000Y-88501465D01*
X133634082Y-88501465D01*
X133737539Y-88751852D01*
X133928941Y-88943587D01*
X134179146Y-89047482D01*
X134450065Y-89047718D01*
X134700452Y-88944261D01*
X134892187Y-88752859D01*
X134996082Y-88502654D01*
X134996318Y-88231735D01*
X134935634Y-88084865D01*
X165468882Y-88084865D01*
X165572339Y-88335252D01*
X165763741Y-88526987D01*
X166013946Y-88630882D01*
X166284865Y-88631118D01*
X166535252Y-88527661D01*
X166726987Y-88336259D01*
X166806046Y-88145865D01*
X168990882Y-88145865D01*
X169094339Y-88396252D01*
X169285741Y-88587987D01*
X169535946Y-88691882D01*
X169806865Y-88692118D01*
X170057252Y-88588661D01*
X170248987Y-88397259D01*
X170352882Y-88147054D01*
X170352883Y-88145865D01*
X170895882Y-88145865D01*
X170999339Y-88396252D01*
X171190741Y-88587987D01*
X171440946Y-88691882D01*
X171711865Y-88692118D01*
X171962252Y-88588661D01*
X172153987Y-88397259D01*
X172257882Y-88147054D01*
X172258118Y-87876135D01*
X172154661Y-87625748D01*
X171963259Y-87434013D01*
X171713054Y-87330118D01*
X171442135Y-87329882D01*
X171191748Y-87433339D01*
X171000013Y-87624741D01*
X170896118Y-87874946D01*
X170895882Y-88145865D01*
X170352883Y-88145865D01*
X170353118Y-87876135D01*
X170249661Y-87625748D01*
X170058259Y-87434013D01*
X169808054Y-87330118D01*
X169537135Y-87329882D01*
X169286748Y-87433339D01*
X169095013Y-87624741D01*
X168991118Y-87874946D01*
X168990882Y-88145865D01*
X166806046Y-88145865D01*
X166830882Y-88086054D01*
X166831118Y-87815135D01*
X166727661Y-87564748D01*
X166536259Y-87373013D01*
X166286054Y-87269118D01*
X166015135Y-87268882D01*
X165764748Y-87372339D01*
X165573013Y-87563741D01*
X165469118Y-87813946D01*
X165468882Y-88084865D01*
X134935634Y-88084865D01*
X134892861Y-87981348D01*
X134701459Y-87789613D01*
X134451254Y-87685718D01*
X134180335Y-87685482D01*
X133929948Y-87788939D01*
X133738213Y-87980341D01*
X133634318Y-88230546D01*
X133634082Y-88501465D01*
X105531000Y-88501465D01*
X105531000Y-86621865D01*
X156290882Y-86621865D01*
X156394339Y-86872252D01*
X156585741Y-87063987D01*
X156835946Y-87167882D01*
X157106865Y-87168118D01*
X157357252Y-87064661D01*
X157548987Y-86873259D01*
X157652882Y-86623054D01*
X157653118Y-86352135D01*
X157549661Y-86101748D01*
X157358259Y-85910013D01*
X157108054Y-85806118D01*
X156837135Y-85805882D01*
X156586748Y-85909339D01*
X156395013Y-86100741D01*
X156291118Y-86350946D01*
X156290882Y-86621865D01*
X105531000Y-86621865D01*
X105531000Y-85906865D01*
X147019882Y-85906865D01*
X147123339Y-86157252D01*
X147314741Y-86348987D01*
X147564946Y-86452882D01*
X147835865Y-86453118D01*
X148086252Y-86349661D01*
X148277987Y-86158259D01*
X148381882Y-85908054D01*
X148382118Y-85637135D01*
X148278661Y-85386748D01*
X148087259Y-85195013D01*
X147837054Y-85091118D01*
X147566135Y-85090882D01*
X147315748Y-85194339D01*
X147124013Y-85385741D01*
X147020118Y-85635946D01*
X147019882Y-85906865D01*
X105531000Y-85906865D01*
X105531000Y-83954865D01*
X148518482Y-83954865D01*
X148621939Y-84205252D01*
X148813341Y-84396987D01*
X149063546Y-84500882D01*
X149334465Y-84501118D01*
X149584852Y-84397661D01*
X149776587Y-84206259D01*
X149880482Y-83956054D01*
X149880718Y-83685135D01*
X149777261Y-83434748D01*
X149585859Y-83243013D01*
X149335654Y-83139118D01*
X149064735Y-83138882D01*
X148814348Y-83242339D01*
X148622613Y-83433741D01*
X148518718Y-83683946D01*
X148518482Y-83954865D01*
X105531000Y-83954865D01*
X105531000Y-81160865D01*
X145368882Y-81160865D01*
X145472339Y-81411252D01*
X145663741Y-81602987D01*
X145913946Y-81706882D01*
X146184865Y-81707118D01*
X146435252Y-81603661D01*
X146626987Y-81412259D01*
X146668093Y-81313265D01*
X174070882Y-81313265D01*
X174174339Y-81563652D01*
X174365741Y-81755387D01*
X174615946Y-81859282D01*
X174886865Y-81859518D01*
X175137252Y-81756061D01*
X175328987Y-81564659D01*
X175432882Y-81314454D01*
X175432883Y-81313265D01*
X181868682Y-81313265D01*
X181972139Y-81563652D01*
X182163541Y-81755387D01*
X182413746Y-81859282D01*
X182684665Y-81859518D01*
X182935052Y-81756061D01*
X183126787Y-81564659D01*
X183230682Y-81314454D01*
X183230918Y-81043535D01*
X183127461Y-80793148D01*
X182936059Y-80601413D01*
X182685854Y-80497518D01*
X182414935Y-80497282D01*
X182164548Y-80600739D01*
X181972813Y-80792141D01*
X181868918Y-81042346D01*
X181868682Y-81313265D01*
X175432883Y-81313265D01*
X175433118Y-81043535D01*
X175329661Y-80793148D01*
X175138259Y-80601413D01*
X174888054Y-80497518D01*
X174617135Y-80497282D01*
X174366748Y-80600739D01*
X174175013Y-80792141D01*
X174071118Y-81042346D01*
X174070882Y-81313265D01*
X146668093Y-81313265D01*
X146730882Y-81162054D01*
X146731118Y-80891135D01*
X146627661Y-80640748D01*
X146436259Y-80449013D01*
X146186054Y-80345118D01*
X145915135Y-80344882D01*
X145664748Y-80448339D01*
X145473013Y-80639741D01*
X145369118Y-80889946D01*
X145368882Y-81160865D01*
X105531000Y-81160865D01*
X105531000Y-80144865D01*
X155020882Y-80144865D01*
X155124339Y-80395252D01*
X155315741Y-80586987D01*
X155565946Y-80690882D01*
X155836865Y-80691118D01*
X156087252Y-80587661D01*
X156278987Y-80396259D01*
X156382882Y-80146054D01*
X156383118Y-79875135D01*
X156279661Y-79624748D01*
X156088259Y-79433013D01*
X155838054Y-79329118D01*
X155567135Y-79328882D01*
X155316748Y-79432339D01*
X155125013Y-79623741D01*
X155021118Y-79873946D01*
X155020882Y-80144865D01*
X105531000Y-80144865D01*
X105531000Y-78874865D01*
X151210882Y-78874865D01*
X151314339Y-79125252D01*
X151505741Y-79316987D01*
X151755946Y-79420882D01*
X152026865Y-79421118D01*
X152277252Y-79317661D01*
X152468987Y-79126259D01*
X152572882Y-78876054D01*
X152573118Y-78605135D01*
X152469661Y-78354748D01*
X152278259Y-78163013D01*
X152028054Y-78059118D01*
X151757135Y-78058882D01*
X151506748Y-78162339D01*
X151315013Y-78353741D01*
X151211118Y-78603946D01*
X151210882Y-78874865D01*
X105531000Y-78874865D01*
X105531000Y-77655665D01*
X118038482Y-77655665D01*
X118141939Y-77906052D01*
X118333341Y-78097787D01*
X118583546Y-78201682D01*
X118854465Y-78201918D01*
X119104852Y-78098461D01*
X119296587Y-77907059D01*
X119400482Y-77656854D01*
X119400718Y-77385935D01*
X119297261Y-77135548D01*
X119105859Y-76943813D01*
X118855654Y-76839918D01*
X118584735Y-76839682D01*
X118334348Y-76943139D01*
X118142613Y-77134541D01*
X118038718Y-77384746D01*
X118038482Y-77655665D01*
X105531000Y-77655665D01*
X105531000Y-75223000D01*
X146462536Y-75223000D01*
X146462536Y-76923000D01*
X146489103Y-77064190D01*
X146572546Y-77193865D01*
X146699866Y-77280859D01*
X146851000Y-77311464D01*
X148551000Y-77311464D01*
X148692190Y-77284897D01*
X148821865Y-77201454D01*
X148908859Y-77074134D01*
X148939464Y-76923000D01*
X148939464Y-76234865D01*
X172168882Y-76234865D01*
X172272339Y-76485252D01*
X172463741Y-76676987D01*
X172713946Y-76780882D01*
X172984865Y-76781118D01*
X173235252Y-76677661D01*
X173426987Y-76486259D01*
X173530882Y-76236054D01*
X173531118Y-75965135D01*
X173427661Y-75714748D01*
X173236259Y-75523013D01*
X172986054Y-75419118D01*
X172715135Y-75418882D01*
X172464748Y-75522339D01*
X172273013Y-75713741D01*
X172169118Y-75963946D01*
X172168882Y-76234865D01*
X148939464Y-76234865D01*
X148939464Y-75223000D01*
X148912897Y-75081810D01*
X148829454Y-74952135D01*
X148702134Y-74865141D01*
X148551000Y-74834536D01*
X146851000Y-74834536D01*
X146709810Y-74861103D01*
X146580135Y-74944546D01*
X146493141Y-75071866D01*
X146462536Y-75223000D01*
X105531000Y-75223000D01*
X105531000Y-74342448D01*
X105692009Y-73533000D01*
X146445883Y-73533000D01*
X146539587Y-74004083D01*
X146806435Y-74403448D01*
X147205800Y-74670296D01*
X147676883Y-74764000D01*
X147725117Y-74764000D01*
X148196200Y-74670296D01*
X148595565Y-74403448D01*
X148862413Y-74004083D01*
X148956117Y-73533000D01*
X148862413Y-73061917D01*
X148595565Y-72662552D01*
X148196200Y-72395704D01*
X147725117Y-72302000D01*
X147676883Y-72302000D01*
X147205800Y-72395704D01*
X146806435Y-72662552D01*
X146539587Y-73061917D01*
X146445883Y-73533000D01*
X105692009Y-73533000D01*
X105734355Y-73320117D01*
X106289413Y-72489413D01*
X107120118Y-71934354D01*
X108142448Y-71731000D01*
X190957552Y-71731000D01*
X191979883Y-71934355D01*
M02*
