%TF.GenerationSoftware,KiCad,Pcbnew,4.0.7*%
%TF.CreationDate,2018-02-14T12:48:44-05:00*%
%TF.ProjectId,BusinessCard,427573696E657373436172642E6B6963,rev?*%
%TF.FileFunction,Soldermask,Top*%
%FSLAX46Y46*%
G04 Gerber Fmt 4.6, Leading zero omitted, Abs format (unit mm)*
G04 Created by KiCad (PCBNEW 4.0.7) date Wednesday, February 14, 2018 'PMt' 12:48:44 PM*
%MOMM*%
%LPD*%
G01*
G04 APERTURE LIST*
%ADD10C,0.100000*%
%ADD11R,2.301240X0.500380*%
%ADD12R,2.499360X1.998980*%
%ADD13C,0.899160*%
%ADD14R,1.250000X1.500000*%
%ADD15R,1.500000X1.250000*%
%ADD16R,0.650000X1.220000*%
%ADD17R,1.700000X1.700000*%
%ADD18O,1.700000X1.700000*%
%ADD19R,4.064000X1.524000*%
%ADD20R,1.198880X2.598420*%
%ADD21R,1.198880X2.600960*%
%ADD22C,1.524000*%
%ADD23R,0.900000X0.800000*%
%ADD24R,1.300000X1.500000*%
%ADD25R,1.500000X1.300000*%
%ADD26R,1.143000X0.508000*%
%ADD27R,2.000000X0.650000*%
%ADD28R,0.650000X1.560000*%
%ADD29R,0.406400X0.660400*%
%ADD30R,0.660400X0.406400*%
%ADD31R,1.560000X0.650000*%
%ADD32R,0.508000X1.143000*%
G04 APERTURE END LIST*
D10*
D11*
X113299320Y-95099800D03*
X113299320Y-95899900D03*
X113299320Y-96700000D03*
X113299320Y-97500100D03*
X113299320Y-98300200D03*
D12*
X113200260Y-92249920D03*
X107701160Y-92249920D03*
X113200260Y-101150080D03*
X107701160Y-101150080D03*
D13*
X110700900Y-94500360D03*
X110700900Y-98899640D03*
D14*
X117094000Y-98699000D03*
X117094000Y-101199000D03*
D15*
X111105000Y-81661000D03*
X108605000Y-81661000D03*
X108605000Y-89281000D03*
X111105000Y-89281000D03*
D14*
X131775200Y-77236000D03*
X131775200Y-79736000D03*
D15*
X124948000Y-91821000D03*
X122448000Y-91821000D03*
D14*
X157861000Y-81133000D03*
X157861000Y-78633000D03*
X170561000Y-90150000D03*
X170561000Y-87650000D03*
X172847000Y-103144000D03*
X172847000Y-105644000D03*
X168275000Y-103144000D03*
X168275000Y-105644000D03*
D15*
X158857000Y-92964000D03*
X156357000Y-92964000D03*
D14*
X153289000Y-98572000D03*
X153289000Y-101072000D03*
X116967000Y-106700000D03*
X116967000Y-109200000D03*
X116967000Y-115844000D03*
X116967000Y-118344000D03*
X135382000Y-99334000D03*
X135382000Y-101834000D03*
X135382000Y-112629000D03*
X135382000Y-110129000D03*
X137541000Y-110129000D03*
X137541000Y-112629000D03*
X137541000Y-99334000D03*
X137541000Y-101834000D03*
D15*
X132862000Y-119888000D03*
X135362000Y-119888000D03*
X114661000Y-113157000D03*
X112161000Y-113157000D03*
X128834200Y-80467200D03*
X126334200Y-80467200D03*
X122448000Y-89662000D03*
X124948000Y-89662000D03*
D14*
X160020000Y-81133000D03*
X160020000Y-78633000D03*
X172847000Y-87650000D03*
X172847000Y-90150000D03*
X170561000Y-105644000D03*
X170561000Y-103144000D03*
X160147000Y-101072000D03*
X160147000Y-98572000D03*
X119126000Y-109200000D03*
X119126000Y-106700000D03*
D15*
X153904000Y-92964000D03*
X151404000Y-92964000D03*
X153904000Y-90805000D03*
X151404000Y-90805000D03*
D14*
X119126000Y-118344000D03*
X119126000Y-115844000D03*
X122936000Y-101834000D03*
X122936000Y-99334000D03*
X122936000Y-112629000D03*
X122936000Y-110129000D03*
X149987000Y-110129000D03*
X149987000Y-112629000D03*
X149987000Y-99334000D03*
X149987000Y-101834000D03*
D15*
X137561000Y-119888000D03*
X140061000Y-119888000D03*
X132481000Y-86360000D03*
X134981000Y-86360000D03*
X127578800Y-84226400D03*
X130078800Y-84226400D03*
D14*
X107696000Y-114828000D03*
X107696000Y-117328000D03*
X107696000Y-105684000D03*
X107696000Y-108184000D03*
X174752000Y-94976000D03*
X174752000Y-92476000D03*
D15*
X156571000Y-85852000D03*
X154071000Y-85852000D03*
D14*
X174752000Y-98318000D03*
X174752000Y-100818000D03*
D15*
X167620000Y-92075000D03*
X165120000Y-92075000D03*
X162199000Y-105664000D03*
X164699000Y-105664000D03*
D16*
X121630400Y-81116800D03*
X123530400Y-81116800D03*
X122580400Y-78496800D03*
D17*
X145288000Y-87503000D03*
D18*
X142748000Y-87503000D03*
D19*
X191820800Y-80111600D03*
X191820800Y-82651600D03*
X191820800Y-77571600D03*
X191795400Y-96697800D03*
X191795400Y-99237800D03*
X191795400Y-94157800D03*
X191795400Y-113309400D03*
X191795400Y-115849400D03*
X191795400Y-110769400D03*
D20*
X117094000Y-95138240D03*
D21*
X117094000Y-90535760D03*
D22*
X142824200Y-74909800D03*
X142824200Y-81909800D03*
D23*
X163890200Y-79867800D03*
X163890200Y-77967800D03*
X161890200Y-78917800D03*
X167420800Y-79867800D03*
X167420800Y-77967800D03*
X165420800Y-78917800D03*
D24*
X133604000Y-91393000D03*
X133604000Y-88693000D03*
X135890000Y-88693000D03*
X135890000Y-91393000D03*
D25*
X120519200Y-76555600D03*
X123219200Y-76555600D03*
X130280400Y-86360000D03*
X127580400Y-86360000D03*
X126310400Y-74726800D03*
X129010400Y-74726800D03*
X124641600Y-83058000D03*
X121941600Y-83058000D03*
D24*
X119786400Y-81410800D03*
X119786400Y-78710800D03*
X134213600Y-77136000D03*
X134213600Y-79836000D03*
D25*
X142668000Y-90551000D03*
X145368000Y-90551000D03*
X167440600Y-81915000D03*
X164740600Y-81915000D03*
D24*
X109855000Y-117428000D03*
X109855000Y-114728000D03*
X109855000Y-105584000D03*
X109855000Y-108284000D03*
D25*
X182825400Y-80111600D03*
X185525400Y-80111600D03*
X182825400Y-96697800D03*
X185525400Y-96697800D03*
X182825400Y-113309400D03*
X185525400Y-113309400D03*
X153971000Y-83566000D03*
X156671000Y-83566000D03*
X171022000Y-96647000D03*
X168322000Y-96647000D03*
D24*
X157988000Y-101172000D03*
X157988000Y-98472000D03*
D25*
X156671000Y-88138000D03*
X153971000Y-88138000D03*
X167720000Y-94234000D03*
X165020000Y-94234000D03*
X156638000Y-105664000D03*
X159338000Y-105664000D03*
D26*
X106680000Y-87376000D03*
X106680000Y-86106000D03*
X106680000Y-84836000D03*
X106680000Y-83566000D03*
X113030000Y-83566000D03*
X113030000Y-84836000D03*
X113030000Y-86106000D03*
X113030000Y-87376000D03*
D27*
X125874200Y-76596200D03*
X125874200Y-77546200D03*
X125874200Y-78496200D03*
X129294200Y-78496200D03*
X129294200Y-76596200D03*
X130996000Y-90612000D03*
X130996000Y-89662000D03*
X130996000Y-88712000D03*
X127576000Y-88712000D03*
X127576000Y-90612000D03*
D28*
X155890000Y-78533000D03*
X154940000Y-78533000D03*
X153990000Y-78533000D03*
X153990000Y-81233000D03*
X155890000Y-81233000D03*
X154940000Y-81233000D03*
D29*
X171043600Y-94107000D03*
X172364400Y-94107000D03*
X171704000Y-94107000D03*
X172364400Y-92075000D03*
X171043600Y-92075000D03*
X172364400Y-99187000D03*
X171043600Y-99187000D03*
X171704000Y-99187000D03*
X171043600Y-101219000D03*
X172364400Y-101219000D03*
D30*
X156972000Y-95097600D03*
X156972000Y-96418400D03*
X156972000Y-95758000D03*
X159004000Y-96418400D03*
X159004000Y-95097600D03*
X155321000Y-96418400D03*
X155321000Y-95097600D03*
X155321000Y-95758000D03*
X153289000Y-95097600D03*
X153289000Y-96418400D03*
D31*
X112061000Y-105984000D03*
X112061000Y-106934000D03*
X112061000Y-107884000D03*
X114761000Y-107884000D03*
X114761000Y-105984000D03*
X114761000Y-106934000D03*
X112061000Y-115128000D03*
X112061000Y-116078000D03*
X112061000Y-117028000D03*
X114761000Y-117028000D03*
X114761000Y-115128000D03*
X114761000Y-116078000D03*
D32*
X132969000Y-97409000D03*
X131699000Y-97409000D03*
X130429000Y-97409000D03*
X129159000Y-97409000D03*
X127889000Y-97409000D03*
X126619000Y-97409000D03*
X125349000Y-97409000D03*
X125349000Y-103759000D03*
X126619000Y-103759000D03*
X129159000Y-103759000D03*
X130429000Y-103759000D03*
X131699000Y-103759000D03*
X132969000Y-103759000D03*
X127889000Y-103759000D03*
X132969000Y-108204000D03*
X131699000Y-108204000D03*
X130429000Y-108204000D03*
X129159000Y-108204000D03*
X127889000Y-108204000D03*
X126619000Y-108204000D03*
X125349000Y-108204000D03*
X125349000Y-114554000D03*
X126619000Y-114554000D03*
X129159000Y-114554000D03*
X130429000Y-114554000D03*
X131699000Y-114554000D03*
X132969000Y-114554000D03*
X127889000Y-114554000D03*
X139954000Y-114554000D03*
X141224000Y-114554000D03*
X142494000Y-114554000D03*
X143764000Y-114554000D03*
X145034000Y-114554000D03*
X146304000Y-114554000D03*
X147574000Y-114554000D03*
X147574000Y-108204000D03*
X146304000Y-108204000D03*
X143764000Y-108204000D03*
X142494000Y-108204000D03*
X141224000Y-108204000D03*
X139954000Y-108204000D03*
X145034000Y-108204000D03*
X139954000Y-103759000D03*
X141224000Y-103759000D03*
X142494000Y-103759000D03*
X143764000Y-103759000D03*
X145034000Y-103759000D03*
X146304000Y-103759000D03*
X147574000Y-103759000D03*
X147574000Y-97409000D03*
X146304000Y-97409000D03*
X143764000Y-97409000D03*
X142494000Y-97409000D03*
X141224000Y-97409000D03*
X139954000Y-97409000D03*
X145034000Y-97409000D03*
D15*
X170200000Y-81915000D03*
X172700000Y-81915000D03*
X172700000Y-79629000D03*
X170200000Y-79629000D03*
X180574000Y-101981000D03*
X178074000Y-101981000D03*
X180574000Y-91440000D03*
X178074000Y-91440000D03*
D32*
X165989000Y-102997000D03*
X164719000Y-102997000D03*
X163449000Y-102997000D03*
X162179000Y-102997000D03*
X162179000Y-96647000D03*
X163449000Y-96647000D03*
X164719000Y-96647000D03*
X165989000Y-96647000D03*
X180619400Y-99872800D03*
X179349400Y-99872800D03*
X178079400Y-99872800D03*
X176809400Y-99872800D03*
X176809400Y-93522800D03*
X178079400Y-93522800D03*
X179349400Y-93522800D03*
X180619400Y-93522800D03*
M02*
