M48
;DRILL file {KiCad 4.0.7} date Wednesday, February 14, 2018 'PMt' 12:48:47 PM
;FORMAT={2:4/ absolute / inch / suppress leading zeros}
FMAT,2
INCH,TZ
T1C0.016
T2C0.035
T3C0.039
T4C0.035
%
G90
G05
M72
T1
X43250Y-46850
X43740Y-31540
X43980Y-33400
X44500Y-34820
X45040Y-34400
X46050Y-41400
X46050Y-43600
X46050Y-44550
X46580Y-30990
X46900Y-43600
X46900Y-47150
X47150Y-38350
X47600Y-35300
X48010Y-33260
X48400Y-38350
X48400Y-42600
X49050Y-40100
X49050Y-44350
X50050Y-36150
X50350Y-39250
X50350Y-40350
X50350Y-43350
X50350Y-44550
X50850Y-43150
X51320Y-31680
X51640Y-47200
X51880Y-29820
X52350Y-44350
X52700Y-40100
X53140Y-33430
X53300Y-38350
X53300Y-42750
X53720Y-46540
X54070Y-35980
X54150Y-38350
X54150Y-42600
X54750Y-44350
X56100Y-43650
X56600Y-40250
X56600Y-44600
X57100Y-38900
X57100Y-40100
X57100Y-43100
X57600Y-38900
X58300Y-43350
X58550Y-45100
X58550Y-46200
X58600Y-40850
X59050Y-38500
X59950Y-37450
X60050Y-40850
X60350Y-38300
X60350Y-40300
X60620Y-35260
X61150Y-38400
X61800Y-37100
X62150Y-30380
X62150Y-32450
X63000Y-32460
X63150Y-36600
X63300Y-37950
X63550Y-39800
X64050Y-38900
X64150Y-31050
X64850Y-41050
X65700Y-40550
X66450Y-30700
X66850Y-39850
X67000Y-32900
X67340Y-35950
X67450Y-36650
X67860Y-40150
X68600Y-34500
X68600Y-41600
X68700Y-31350
X68800Y-35850
X69450Y-40150
X70610Y-32000
X70610Y-44150
X71100Y-38750
X71150Y-38100
X71700Y-36000
X75510Y-33150
X75510Y-39690
X75510Y-46220
T2
X56230Y-29492
X56230Y-32248
T3
X56200Y-34450
X57200Y-34450
T4
X43583Y-37205
X43583Y-38937
T0
M30
