%TF.GenerationSoftware,KiCad,Pcbnew,4.0.7*%
%TF.CreationDate,2018-02-05T20:46:32-05:00*%
%TF.ProjectId,BusinessCard,427573696E657373436172642E6B6963,rev?*%
%TF.FileFunction,Soldermask,Top*%
%FSLAX46Y46*%
G04 Gerber Fmt 4.6, Leading zero omitted, Abs format (unit mm)*
G04 Created by KiCad (PCBNEW 4.0.7) date Monday, February 05, 2018 'PMt' 08:46:32 PM*
%MOMM*%
%LPD*%
G01*
G04 APERTURE LIST*
%ADD10C,0.100000*%
%ADD11R,1.250000X1.500000*%
%ADD12R,1.500000X1.250000*%
%ADD13R,0.650000X1.220000*%
%ADD14R,2.301240X0.500380*%
%ADD15R,2.499360X1.998980*%
%ADD16C,0.899160*%
%ADD17R,1.198880X2.598420*%
%ADD18R,1.198880X2.600960*%
%ADD19C,1.524000*%
%ADD20R,0.900000X0.800000*%
%ADD21R,1.300000X1.500000*%
%ADD22R,1.500000X1.300000*%
%ADD23R,0.508000X1.143000*%
%ADD24R,0.650000X2.000000*%
%ADD25R,1.143000X0.508000*%
%ADD26R,1.700000X1.700000*%
%ADD27O,1.700000X1.700000*%
%ADD28R,4.064000X1.524000*%
G04 APERTURE END LIST*
D10*
D11*
X120281700Y-77513500D03*
X120281700Y-75013500D03*
D12*
X120682700Y-85991700D03*
X123182700Y-85991700D03*
D11*
X135890000Y-88372000D03*
X135890000Y-85872000D03*
X127889000Y-88372000D03*
X127889000Y-85872000D03*
D12*
X155021600Y-86436200D03*
X152521600Y-86436200D03*
X152547000Y-73533000D03*
X155047000Y-73533000D03*
X172827000Y-74041000D03*
X170327000Y-74041000D03*
D11*
X177038000Y-76728000D03*
X177038000Y-79228000D03*
X166150000Y-86350000D03*
X166150000Y-83850000D03*
X177050000Y-85050000D03*
X177050000Y-82550000D03*
X171000000Y-97950000D03*
X171000000Y-95450000D03*
X158100000Y-97950000D03*
X158100000Y-95450000D03*
X183429000Y-97950000D03*
X183429000Y-95450000D03*
X175429000Y-97950000D03*
X175429000Y-95450000D03*
X128600000Y-95450000D03*
X128600000Y-97950000D03*
X141500000Y-95450000D03*
X141500000Y-97950000D03*
X145796000Y-107081000D03*
X145796000Y-109581000D03*
X132842000Y-109581000D03*
X132842000Y-107081000D03*
X132842000Y-115971000D03*
X132842000Y-118471000D03*
X145796000Y-115971000D03*
X145796000Y-118471000D03*
X112522000Y-115971000D03*
X112522000Y-118471000D03*
X125476000Y-115971000D03*
X125476000Y-118471000D03*
X112522000Y-107081000D03*
X112522000Y-109581000D03*
X125476000Y-107081000D03*
X125476000Y-109581000D03*
X108458000Y-107081000D03*
X108458000Y-109581000D03*
X108458000Y-118471000D03*
X108458000Y-115971000D03*
X116078000Y-98826000D03*
X116078000Y-101326000D03*
D12*
X113518000Y-89662000D03*
X111018000Y-89662000D03*
D11*
X108331000Y-82697000D03*
X108331000Y-85197000D03*
X144018000Y-81006000D03*
X144018000Y-78506000D03*
X138557000Y-78506000D03*
X138557000Y-81006000D03*
D12*
X165800000Y-91100000D03*
X163300000Y-91100000D03*
X177526000Y-90678000D03*
X175026000Y-90678000D03*
X177526000Y-102743000D03*
X175026000Y-102743000D03*
D11*
X121412000Y-98024000D03*
X121412000Y-95524000D03*
D12*
X127615000Y-102108000D03*
X125115000Y-102108000D03*
D13*
X132268000Y-78446000D03*
X130368000Y-78446000D03*
X131318000Y-81066000D03*
D14*
X113299320Y-95099800D03*
X113299320Y-95899900D03*
X113299320Y-96700000D03*
X113299320Y-97500100D03*
X113299320Y-98300200D03*
D15*
X113200260Y-92249920D03*
X107701160Y-92249920D03*
X113200260Y-101150080D03*
X107701160Y-101150080D03*
D16*
X110700900Y-94500360D03*
X110700900Y-98899640D03*
D17*
X116078000Y-94757240D03*
D18*
X116078000Y-90154760D03*
D19*
X149550000Y-100200000D03*
X149550000Y-93200000D03*
D20*
X159147000Y-89474000D03*
X159147000Y-91374000D03*
X161147000Y-90424000D03*
X155591000Y-89474000D03*
X155591000Y-91374000D03*
X157591000Y-90424000D03*
D21*
X141224000Y-81106000D03*
X141224000Y-78406000D03*
D22*
X130349000Y-75057000D03*
X133049000Y-75057000D03*
D21*
X135890000Y-78406000D03*
X135890000Y-81106000D03*
X140716000Y-85772000D03*
X140716000Y-88472000D03*
D22*
X124552700Y-83578700D03*
X121852700Y-83578700D03*
D21*
X138303000Y-88472000D03*
X138303000Y-85772000D03*
X119011700Y-83531700D03*
X119011700Y-80831700D03*
D22*
X124164100Y-75044300D03*
X126864100Y-75044300D03*
D21*
X126238000Y-98124000D03*
X126238000Y-95424000D03*
D22*
X162500000Y-76200000D03*
X165200000Y-76200000D03*
X165200000Y-74050000D03*
X167900000Y-74050000D03*
D21*
X163150000Y-80150000D03*
X163150000Y-82850000D03*
X160700000Y-80150000D03*
X160700000Y-82850000D03*
X179400000Y-76650000D03*
X179400000Y-79350000D03*
D22*
X181809400Y-76606400D03*
X184509400Y-76606400D03*
D21*
X180086000Y-90631000D03*
X180086000Y-87931000D03*
X180086000Y-102790000D03*
X180086000Y-105490000D03*
X148209000Y-109681000D03*
X148209000Y-106981000D03*
X143256000Y-88472000D03*
X143256000Y-85772000D03*
D22*
X150905200Y-89052400D03*
X148205200Y-89052400D03*
D21*
X123825000Y-95424000D03*
X123825000Y-98124000D03*
D22*
X129841000Y-102108000D03*
X132541000Y-102108000D03*
D23*
X110363000Y-80772000D03*
X111633000Y-80772000D03*
X112903000Y-80772000D03*
X114173000Y-80772000D03*
X114173000Y-87122000D03*
X112903000Y-87122000D03*
X111633000Y-87122000D03*
X110363000Y-87122000D03*
D24*
X122252700Y-80970700D03*
X123202700Y-80970700D03*
X124152700Y-80970700D03*
X124152700Y-77550700D03*
X122252700Y-77550700D03*
D23*
X133781800Y-90271600D03*
X132511800Y-90271600D03*
X131241800Y-90271600D03*
X129971800Y-90271600D03*
X129971800Y-83921600D03*
X131241800Y-83921600D03*
X132511800Y-83921600D03*
X133781800Y-83921600D03*
D25*
X156972000Y-83820000D03*
X156972000Y-82550000D03*
X156972000Y-81280000D03*
X156972000Y-80010000D03*
X156972000Y-78740000D03*
X156972000Y-77470000D03*
X156972000Y-76200000D03*
X150622000Y-76200000D03*
X150622000Y-77470000D03*
X150622000Y-80010000D03*
X150622000Y-81280000D03*
X150622000Y-82550000D03*
X150622000Y-83820000D03*
X150622000Y-78740000D03*
X174752000Y-76073000D03*
X174752000Y-77343000D03*
X174752000Y-78613000D03*
X174752000Y-79883000D03*
X168402000Y-79883000D03*
X168402000Y-78613000D03*
X168402000Y-77343000D03*
X168402000Y-76073000D03*
X168402000Y-86375000D03*
X168402000Y-85105000D03*
X168402000Y-83835000D03*
X168402000Y-82565000D03*
X174752000Y-82565000D03*
X174752000Y-83835000D03*
X174752000Y-85105000D03*
X174752000Y-86375000D03*
D23*
X168360000Y-93498000D03*
X167090000Y-93498000D03*
X165820000Y-93498000D03*
X164550000Y-93498000D03*
X163280000Y-93498000D03*
X162010000Y-93498000D03*
X160740000Y-93498000D03*
X160740000Y-99848000D03*
X162010000Y-99848000D03*
X164550000Y-99848000D03*
X165820000Y-99848000D03*
X167090000Y-99848000D03*
X168360000Y-99848000D03*
X163280000Y-99848000D03*
X181334000Y-99875000D03*
X180064000Y-99875000D03*
X178794000Y-99875000D03*
X177524000Y-99875000D03*
X177524000Y-93525000D03*
X178794000Y-93525000D03*
X180064000Y-93525000D03*
X181334000Y-93525000D03*
X131240000Y-99902000D03*
X132510000Y-99902000D03*
X133780000Y-99902000D03*
X135050000Y-99902000D03*
X136320000Y-99902000D03*
X137590000Y-99902000D03*
X138860000Y-99902000D03*
X138860000Y-93552000D03*
X137590000Y-93552000D03*
X135050000Y-93552000D03*
X133780000Y-93552000D03*
X132510000Y-93552000D03*
X131240000Y-93552000D03*
X136320000Y-93552000D03*
X143129000Y-105156000D03*
X141859000Y-105156000D03*
X140589000Y-105156000D03*
X139319000Y-105156000D03*
X138049000Y-105156000D03*
X136779000Y-105156000D03*
X135509000Y-105156000D03*
X135509000Y-111506000D03*
X136779000Y-111506000D03*
X139319000Y-111506000D03*
X140589000Y-111506000D03*
X141859000Y-111506000D03*
X143129000Y-111506000D03*
X138049000Y-111506000D03*
X135509000Y-120396000D03*
X136779000Y-120396000D03*
X138049000Y-120396000D03*
X139319000Y-120396000D03*
X140589000Y-120396000D03*
X141859000Y-120396000D03*
X143129000Y-120396000D03*
X143129000Y-114046000D03*
X141859000Y-114046000D03*
X139319000Y-114046000D03*
X138049000Y-114046000D03*
X136779000Y-114046000D03*
X135509000Y-114046000D03*
X140589000Y-114046000D03*
X115189000Y-120396000D03*
X116459000Y-120396000D03*
X117729000Y-120396000D03*
X118999000Y-120396000D03*
X120269000Y-120396000D03*
X121539000Y-120396000D03*
X122809000Y-120396000D03*
X122809000Y-114046000D03*
X121539000Y-114046000D03*
X118999000Y-114046000D03*
X117729000Y-114046000D03*
X116459000Y-114046000D03*
X115189000Y-114046000D03*
X120269000Y-114046000D03*
X115189000Y-111506000D03*
X116459000Y-111506000D03*
X117729000Y-111506000D03*
X118999000Y-111506000D03*
X120269000Y-111506000D03*
X121539000Y-111506000D03*
X122809000Y-111506000D03*
X122809000Y-105156000D03*
X121539000Y-105156000D03*
X118999000Y-105156000D03*
X117729000Y-105156000D03*
X116459000Y-105156000D03*
X115189000Y-105156000D03*
X120269000Y-105156000D03*
D26*
X147701000Y-76073000D03*
D27*
X147701000Y-73533000D03*
D28*
X191820800Y-80111600D03*
X191820800Y-82651600D03*
X191820800Y-77571600D03*
X191795400Y-113309400D03*
X191795400Y-115849400D03*
X191795400Y-110769400D03*
X191795400Y-96697800D03*
X191795400Y-99237800D03*
X191795400Y-94157800D03*
M02*
