%TF.GenerationSoftware,KiCad,Pcbnew,4.0.7*%
%TF.CreationDate,2018-02-05T20:46:32-05:00*%
%TF.ProjectId,BusinessCard,427573696E657373436172642E6B6963,rev?*%
%TF.FileFunction,Legend,Top*%
%FSLAX46Y46*%
G04 Gerber Fmt 4.6, Leading zero omitted, Abs format (unit mm)*
G04 Created by KiCad (PCBNEW 4.0.7) date Monday, February 05, 2018 'PMt' 08:46:32 PM*
%MOMM*%
%LPD*%
G01*
G04 APERTURE LIST*
%ADD10C,0.100000*%
%ADD11C,0.300000*%
%ADD12C,0.200000*%
%ADD13C,0.150000*%
%ADD14C,0.120000*%
%ADD15C,0.381000*%
%ADD16C,0.304800*%
G04 APERTURE END LIST*
D10*
D11*
X152392629Y-109650571D02*
X152285486Y-109757714D01*
X151964057Y-109864857D01*
X151749771Y-109864857D01*
X151428343Y-109757714D01*
X151214057Y-109543429D01*
X151106914Y-109329143D01*
X150999771Y-108900571D01*
X150999771Y-108579143D01*
X151106914Y-108150571D01*
X151214057Y-107936286D01*
X151428343Y-107722000D01*
X151749771Y-107614857D01*
X151964057Y-107614857D01*
X152285486Y-107722000D01*
X152392629Y-107829143D01*
X153356914Y-109864857D02*
X153356914Y-108364857D01*
X153356914Y-108793429D02*
X153464057Y-108579143D01*
X153571200Y-108472000D01*
X153785486Y-108364857D01*
X153999771Y-108364857D01*
X155714057Y-109864857D02*
X155714057Y-108686286D01*
X155606914Y-108472000D01*
X155392628Y-108364857D01*
X154964057Y-108364857D01*
X154749771Y-108472000D01*
X155714057Y-109757714D02*
X155499771Y-109864857D01*
X154964057Y-109864857D01*
X154749771Y-109757714D01*
X154642628Y-109543429D01*
X154642628Y-109329143D01*
X154749771Y-109114857D01*
X154964057Y-109007714D01*
X155499771Y-109007714D01*
X155714057Y-108900571D01*
X156785485Y-109864857D02*
X156785485Y-108364857D01*
X156785485Y-107614857D02*
X156678342Y-107722000D01*
X156785485Y-107829143D01*
X156892628Y-107722000D01*
X156785485Y-107614857D01*
X156785485Y-107829143D01*
X158821200Y-108364857D02*
X158821200Y-110186286D01*
X158714057Y-110400571D01*
X158606914Y-110507714D01*
X158392629Y-110614857D01*
X158071200Y-110614857D01*
X157856914Y-110507714D01*
X158821200Y-109757714D02*
X158606914Y-109864857D01*
X158178343Y-109864857D01*
X157964057Y-109757714D01*
X157856914Y-109650571D01*
X157749771Y-109436286D01*
X157749771Y-108793429D01*
X157856914Y-108579143D01*
X157964057Y-108472000D01*
X158178343Y-108364857D01*
X158606914Y-108364857D01*
X158821200Y-108472000D01*
X161606914Y-109864857D02*
X161606914Y-107614857D01*
X161606914Y-108686286D02*
X162892629Y-108686286D01*
X162892629Y-109864857D02*
X162892629Y-107614857D01*
X164821200Y-109757714D02*
X164606914Y-109864857D01*
X164178343Y-109864857D01*
X163964057Y-109757714D01*
X163856914Y-109543429D01*
X163856914Y-108686286D01*
X163964057Y-108472000D01*
X164178343Y-108364857D01*
X164606914Y-108364857D01*
X164821200Y-108472000D01*
X164928343Y-108686286D01*
X164928343Y-108900571D01*
X163856914Y-109114857D01*
X165571200Y-108364857D02*
X166428343Y-108364857D01*
X165892628Y-109864857D02*
X165892628Y-107936286D01*
X165999771Y-107722000D01*
X166214057Y-107614857D01*
X166428343Y-107614857D01*
X166856914Y-108364857D02*
X167714057Y-108364857D01*
X167178342Y-109864857D02*
X167178342Y-107936286D01*
X167285485Y-107722000D01*
X167499771Y-107614857D01*
X167714057Y-107614857D01*
X168464056Y-108364857D02*
X168464056Y-109864857D01*
X168464056Y-108579143D02*
X168571199Y-108472000D01*
X168785485Y-108364857D01*
X169106913Y-108364857D01*
X169321199Y-108472000D01*
X169428342Y-108686286D01*
X169428342Y-109864857D01*
X171356913Y-109757714D02*
X171142627Y-109864857D01*
X170714056Y-109864857D01*
X170499770Y-109757714D01*
X170392627Y-109543429D01*
X170392627Y-108686286D01*
X170499770Y-108472000D01*
X170714056Y-108364857D01*
X171142627Y-108364857D01*
X171356913Y-108472000D01*
X171464056Y-108686286D01*
X171464056Y-108900571D01*
X170392627Y-109114857D01*
X172428341Y-109864857D02*
X172428341Y-108364857D01*
X172428341Y-108793429D02*
X172535484Y-108579143D01*
X172642627Y-108472000D01*
X172856913Y-108364857D01*
X173071198Y-108364857D01*
X151749771Y-114397000D02*
X151642629Y-114289857D01*
X151428343Y-113968429D01*
X151321200Y-113754143D01*
X151214057Y-113432714D01*
X151106914Y-112897000D01*
X151106914Y-112468429D01*
X151214057Y-111932714D01*
X151321200Y-111611286D01*
X151428343Y-111397000D01*
X151642629Y-111075571D01*
X151749771Y-110968429D01*
X153571200Y-112039857D02*
X153571200Y-113539857D01*
X153035486Y-111182714D02*
X152499771Y-112789857D01*
X153892629Y-112789857D01*
X155714057Y-112039857D02*
X155714057Y-113539857D01*
X155178343Y-111182714D02*
X154642628Y-112789857D01*
X156035486Y-112789857D01*
X156678343Y-111289857D02*
X158071200Y-111289857D01*
X157321200Y-112147000D01*
X157642628Y-112147000D01*
X157856914Y-112254143D01*
X157964057Y-112361286D01*
X158071200Y-112575571D01*
X158071200Y-113111286D01*
X157964057Y-113325571D01*
X157856914Y-113432714D01*
X157642628Y-113539857D01*
X156999771Y-113539857D01*
X156785485Y-113432714D01*
X156678343Y-113325571D01*
X158821200Y-114397000D02*
X158928342Y-114289857D01*
X159142628Y-113968429D01*
X159249771Y-113754143D01*
X159356914Y-113432714D01*
X159464057Y-112897000D01*
X159464057Y-112468429D01*
X159356914Y-111932714D01*
X159249771Y-111611286D01*
X159142628Y-111397000D01*
X158928342Y-111075571D01*
X158821200Y-110968429D01*
X162571200Y-112254143D02*
X162356914Y-112147000D01*
X162249771Y-112039857D01*
X162142628Y-111825571D01*
X162142628Y-111718429D01*
X162249771Y-111504143D01*
X162356914Y-111397000D01*
X162571200Y-111289857D01*
X162999771Y-111289857D01*
X163214057Y-111397000D01*
X163321200Y-111504143D01*
X163428343Y-111718429D01*
X163428343Y-111825571D01*
X163321200Y-112039857D01*
X163214057Y-112147000D01*
X162999771Y-112254143D01*
X162571200Y-112254143D01*
X162356914Y-112361286D01*
X162249771Y-112468429D01*
X162142628Y-112682714D01*
X162142628Y-113111286D01*
X162249771Y-113325571D01*
X162356914Y-113432714D01*
X162571200Y-113539857D01*
X162999771Y-113539857D01*
X163214057Y-113432714D01*
X163321200Y-113325571D01*
X163428343Y-113111286D01*
X163428343Y-112682714D01*
X163321200Y-112468429D01*
X163214057Y-112361286D01*
X162999771Y-112254143D01*
X164499771Y-113539857D02*
X164928343Y-113539857D01*
X165142628Y-113432714D01*
X165249771Y-113325571D01*
X165464057Y-113004143D01*
X165571200Y-112575571D01*
X165571200Y-111718429D01*
X165464057Y-111504143D01*
X165356914Y-111397000D01*
X165142628Y-111289857D01*
X164714057Y-111289857D01*
X164499771Y-111397000D01*
X164392628Y-111504143D01*
X164285485Y-111718429D01*
X164285485Y-112254143D01*
X164392628Y-112468429D01*
X164499771Y-112575571D01*
X164714057Y-112682714D01*
X165142628Y-112682714D01*
X165356914Y-112575571D01*
X165464057Y-112468429D01*
X165571200Y-112254143D01*
X167499771Y-111289857D02*
X167071200Y-111289857D01*
X166856914Y-111397000D01*
X166749771Y-111504143D01*
X166535485Y-111825571D01*
X166428342Y-112254143D01*
X166428342Y-113111286D01*
X166535485Y-113325571D01*
X166642628Y-113432714D01*
X166856914Y-113539857D01*
X167285485Y-113539857D01*
X167499771Y-113432714D01*
X167606914Y-113325571D01*
X167714057Y-113111286D01*
X167714057Y-112575571D01*
X167606914Y-112361286D01*
X167499771Y-112254143D01*
X167285485Y-112147000D01*
X166856914Y-112147000D01*
X166642628Y-112254143D01*
X166535485Y-112361286D01*
X166428342Y-112575571D01*
X168678342Y-112682714D02*
X170392628Y-112682714D01*
X171249771Y-111289857D02*
X172749771Y-111289857D01*
X171785485Y-113539857D01*
X173392628Y-111289857D02*
X174785485Y-111289857D01*
X174035485Y-112147000D01*
X174356913Y-112147000D01*
X174571199Y-112254143D01*
X174678342Y-112361286D01*
X174785485Y-112575571D01*
X174785485Y-113111286D01*
X174678342Y-113325571D01*
X174571199Y-113432714D01*
X174356913Y-113539857D01*
X173714056Y-113539857D01*
X173499770Y-113432714D01*
X173392628Y-113325571D01*
X175535485Y-111289857D02*
X176928342Y-111289857D01*
X176178342Y-112147000D01*
X176499770Y-112147000D01*
X176714056Y-112254143D01*
X176821199Y-112361286D01*
X176928342Y-112575571D01*
X176928342Y-113111286D01*
X176821199Y-113325571D01*
X176714056Y-113432714D01*
X176499770Y-113539857D01*
X175856913Y-113539857D01*
X175642627Y-113432714D01*
X175535485Y-113325571D01*
X179071199Y-113539857D02*
X177785484Y-113539857D01*
X178428342Y-113539857D02*
X178428342Y-111289857D01*
X178214056Y-111611286D01*
X177999770Y-111825571D01*
X177785484Y-111932714D01*
X151106914Y-117214857D02*
X151106914Y-114964857D01*
X152071200Y-117214857D02*
X152071200Y-116036286D01*
X151964057Y-115822000D01*
X151749771Y-115714857D01*
X151428343Y-115714857D01*
X151214057Y-115822000D01*
X151106914Y-115929143D01*
X153999771Y-117107714D02*
X153785485Y-117214857D01*
X153356914Y-117214857D01*
X153142628Y-117107714D01*
X153035485Y-116893429D01*
X153035485Y-116036286D01*
X153142628Y-115822000D01*
X153356914Y-115714857D01*
X153785485Y-115714857D01*
X153999771Y-115822000D01*
X154106914Y-116036286D01*
X154106914Y-116250571D01*
X153035485Y-116464857D01*
X154749771Y-115714857D02*
X155606914Y-115714857D01*
X155071199Y-117214857D02*
X155071199Y-115286286D01*
X155178342Y-115072000D01*
X155392628Y-114964857D01*
X155606914Y-114964857D01*
X156035485Y-115714857D02*
X156892628Y-115714857D01*
X156356913Y-117214857D02*
X156356913Y-115286286D01*
X156464056Y-115072000D01*
X156678342Y-114964857D01*
X156892628Y-114964857D01*
X157642627Y-115714857D02*
X157642627Y-117214857D01*
X157642627Y-115929143D02*
X157749770Y-115822000D01*
X157964056Y-115714857D01*
X158285484Y-115714857D01*
X158499770Y-115822000D01*
X158606913Y-116036286D01*
X158606913Y-117214857D01*
X160535484Y-117107714D02*
X160321198Y-117214857D01*
X159892627Y-117214857D01*
X159678341Y-117107714D01*
X159571198Y-116893429D01*
X159571198Y-116036286D01*
X159678341Y-115822000D01*
X159892627Y-115714857D01*
X160321198Y-115714857D01*
X160535484Y-115822000D01*
X160642627Y-116036286D01*
X160642627Y-116250571D01*
X159571198Y-116464857D01*
X161606912Y-117214857D02*
X161606912Y-115714857D01*
X161606912Y-116143429D02*
X161714055Y-115929143D01*
X161821198Y-115822000D01*
X162035484Y-115714857D01*
X162249769Y-115714857D01*
X163964055Y-117107714D02*
X163749769Y-117214857D01*
X163321198Y-117214857D01*
X163106912Y-117107714D01*
X162999769Y-117000571D01*
X162892626Y-116786286D01*
X162892626Y-116143429D01*
X162999769Y-115929143D01*
X163106912Y-115822000D01*
X163321198Y-115714857D01*
X163749769Y-115714857D01*
X163964055Y-115822000D01*
X164928340Y-115714857D02*
X164928340Y-117643429D01*
X164821197Y-117857714D01*
X164606912Y-117964857D01*
X164499769Y-117964857D01*
X164928340Y-114964857D02*
X164821197Y-115072000D01*
X164928340Y-115179143D01*
X165035483Y-115072000D01*
X164928340Y-114964857D01*
X164928340Y-115179143D01*
X167392626Y-116143429D02*
X167285484Y-116036286D01*
X167071198Y-115929143D01*
X166856912Y-115929143D01*
X166642626Y-116036286D01*
X166535484Y-116143429D01*
X166428341Y-116357714D01*
X166428341Y-116572000D01*
X166535484Y-116786286D01*
X166642626Y-116893429D01*
X166856912Y-117000571D01*
X167071198Y-117000571D01*
X167285484Y-116893429D01*
X167392626Y-116786286D01*
X167392626Y-115929143D02*
X167392626Y-116786286D01*
X167499769Y-116893429D01*
X167606912Y-116893429D01*
X167821198Y-116786286D01*
X167928341Y-116572000D01*
X167928341Y-116036286D01*
X167714055Y-115714857D01*
X167392626Y-115500571D01*
X166964055Y-115393429D01*
X166535484Y-115500571D01*
X166214055Y-115714857D01*
X165999769Y-116036286D01*
X165892626Y-116464857D01*
X165999769Y-116893429D01*
X166214055Y-117214857D01*
X166535484Y-117429143D01*
X166964055Y-117536286D01*
X167392626Y-117429143D01*
X167714055Y-117214857D01*
X169856912Y-115714857D02*
X169856912Y-117536286D01*
X169749769Y-117750571D01*
X169642626Y-117857714D01*
X169428341Y-117964857D01*
X169106912Y-117964857D01*
X168892626Y-117857714D01*
X169856912Y-117107714D02*
X169642626Y-117214857D01*
X169214055Y-117214857D01*
X168999769Y-117107714D01*
X168892626Y-117000571D01*
X168785483Y-116786286D01*
X168785483Y-116143429D01*
X168892626Y-115929143D01*
X168999769Y-115822000D01*
X169214055Y-115714857D01*
X169642626Y-115714857D01*
X169856912Y-115822000D01*
X170928340Y-117214857D02*
X170928340Y-115714857D01*
X170928340Y-115929143D02*
X171035483Y-115822000D01*
X171249769Y-115714857D01*
X171571197Y-115714857D01*
X171785483Y-115822000D01*
X171892626Y-116036286D01*
X171892626Y-117214857D01*
X171892626Y-116036286D02*
X171999769Y-115822000D01*
X172214055Y-115714857D01*
X172535483Y-115714857D01*
X172749769Y-115822000D01*
X172856912Y-116036286D01*
X172856912Y-117214857D01*
X174892626Y-117214857D02*
X174892626Y-116036286D01*
X174785483Y-115822000D01*
X174571197Y-115714857D01*
X174142626Y-115714857D01*
X173928340Y-115822000D01*
X174892626Y-117107714D02*
X174678340Y-117214857D01*
X174142626Y-117214857D01*
X173928340Y-117107714D01*
X173821197Y-116893429D01*
X173821197Y-116679143D01*
X173928340Y-116464857D01*
X174142626Y-116357714D01*
X174678340Y-116357714D01*
X174892626Y-116250571D01*
X175964054Y-117214857D02*
X175964054Y-115714857D01*
X175964054Y-114964857D02*
X175856911Y-115072000D01*
X175964054Y-115179143D01*
X176071197Y-115072000D01*
X175964054Y-114964857D01*
X175964054Y-115179143D01*
X177356912Y-117214857D02*
X177142626Y-117107714D01*
X177035483Y-116893429D01*
X177035483Y-114964857D01*
X178214054Y-117000571D02*
X178321197Y-117107714D01*
X178214054Y-117214857D01*
X178106911Y-117107714D01*
X178214054Y-117000571D01*
X178214054Y-117214857D01*
X180249769Y-117107714D02*
X180035483Y-117214857D01*
X179606912Y-117214857D01*
X179392626Y-117107714D01*
X179285483Y-117000571D01*
X179178340Y-116786286D01*
X179178340Y-116143429D01*
X179285483Y-115929143D01*
X179392626Y-115822000D01*
X179606912Y-115714857D01*
X180035483Y-115714857D01*
X180249769Y-115822000D01*
X181535483Y-117214857D02*
X181321197Y-117107714D01*
X181214054Y-117000571D01*
X181106911Y-116786286D01*
X181106911Y-116143429D01*
X181214054Y-115929143D01*
X181321197Y-115822000D01*
X181535483Y-115714857D01*
X181856911Y-115714857D01*
X182071197Y-115822000D01*
X182178340Y-115929143D01*
X182285483Y-116143429D01*
X182285483Y-116786286D01*
X182178340Y-117000571D01*
X182071197Y-117107714D01*
X181856911Y-117214857D01*
X181535483Y-117214857D01*
X183249768Y-117214857D02*
X183249768Y-115714857D01*
X183249768Y-115929143D02*
X183356911Y-115822000D01*
X183571197Y-115714857D01*
X183892625Y-115714857D01*
X184106911Y-115822000D01*
X184214054Y-116036286D01*
X184214054Y-117214857D01*
X184214054Y-116036286D02*
X184321197Y-115822000D01*
X184535483Y-115714857D01*
X184856911Y-115714857D01*
X185071197Y-115822000D01*
X185178340Y-116036286D01*
X185178340Y-117214857D01*
D12*
X109855000Y-73660000D02*
X113157000Y-76962000D01*
X111506000Y-75311000D02*
X109855000Y-73660000D01*
X113868337Y-75311000D02*
G75*
G03X113868337Y-75311000I-2362337J0D01*
G01*
D11*
X110327429Y-74989571D02*
X110327429Y-76489571D01*
X111041715Y-75775286D02*
X111113143Y-75918143D01*
X111256000Y-75989571D01*
X110327429Y-75775286D02*
X110398857Y-75918143D01*
X110541715Y-75989571D01*
X110827429Y-75989571D01*
X110970286Y-75918143D01*
X111041715Y-75775286D01*
X111041715Y-74989571D01*
X112756001Y-75846714D02*
X112684572Y-75918143D01*
X112470286Y-75989571D01*
X112327429Y-75989571D01*
X112113144Y-75918143D01*
X111970286Y-75775286D01*
X111898858Y-75632429D01*
X111827429Y-75346714D01*
X111827429Y-75132429D01*
X111898858Y-74846714D01*
X111970286Y-74703857D01*
X112113144Y-74561000D01*
X112327429Y-74489571D01*
X112470286Y-74489571D01*
X112684572Y-74561000D01*
X112756001Y-74632429D01*
D12*
X108339333Y-78763762D02*
X108244095Y-78811381D01*
X108053618Y-78811381D01*
X107958380Y-78763762D01*
X107910761Y-78716143D01*
X107863142Y-78620905D01*
X107863142Y-78335190D01*
X107910761Y-78239952D01*
X107958380Y-78192333D01*
X108053618Y-78144714D01*
X108244095Y-78144714D01*
X108339333Y-78192333D01*
X108910761Y-78811381D02*
X108815523Y-78763762D01*
X108767904Y-78716143D01*
X108720285Y-78620905D01*
X108720285Y-78335190D01*
X108767904Y-78239952D01*
X108815523Y-78192333D01*
X108910761Y-78144714D01*
X109053619Y-78144714D01*
X109148857Y-78192333D01*
X109196476Y-78239952D01*
X109244095Y-78335190D01*
X109244095Y-78620905D01*
X109196476Y-78716143D01*
X109148857Y-78763762D01*
X109053619Y-78811381D01*
X108910761Y-78811381D01*
X110101238Y-78811381D02*
X110101238Y-77811381D01*
X110101238Y-78763762D02*
X110006000Y-78811381D01*
X109815523Y-78811381D01*
X109720285Y-78763762D01*
X109672666Y-78716143D01*
X109625047Y-78620905D01*
X109625047Y-78335190D01*
X109672666Y-78239952D01*
X109720285Y-78192333D01*
X109815523Y-78144714D01*
X110006000Y-78144714D01*
X110101238Y-78192333D01*
X110958381Y-78763762D02*
X110863143Y-78811381D01*
X110672666Y-78811381D01*
X110577428Y-78763762D01*
X110529809Y-78668524D01*
X110529809Y-78287571D01*
X110577428Y-78192333D01*
X110672666Y-78144714D01*
X110863143Y-78144714D01*
X110958381Y-78192333D01*
X111006000Y-78287571D01*
X111006000Y-78382810D01*
X110529809Y-78478048D01*
X111434571Y-78430429D02*
X112196476Y-78430429D01*
X112529809Y-78144714D02*
X112910761Y-78144714D01*
X112672666Y-78811381D02*
X112672666Y-77954238D01*
X112720285Y-77859000D01*
X112815523Y-77811381D01*
X112910761Y-77811381D01*
X113244095Y-78811381D02*
X113244095Y-78144714D01*
X113244095Y-78335190D02*
X113291714Y-78239952D01*
X113339333Y-78192333D01*
X113434571Y-78144714D01*
X113529810Y-78144714D01*
X114244096Y-78763762D02*
X114148858Y-78811381D01*
X113958381Y-78811381D01*
X113863143Y-78763762D01*
X113815524Y-78668524D01*
X113815524Y-78287571D01*
X113863143Y-78192333D01*
X113958381Y-78144714D01*
X114148858Y-78144714D01*
X114244096Y-78192333D01*
X114291715Y-78287571D01*
X114291715Y-78382810D01*
X113815524Y-78478048D01*
X115101239Y-78763762D02*
X115006001Y-78811381D01*
X114815524Y-78811381D01*
X114720286Y-78763762D01*
X114672667Y-78668524D01*
X114672667Y-78287571D01*
X114720286Y-78192333D01*
X114815524Y-78144714D01*
X115006001Y-78144714D01*
X115101239Y-78192333D01*
X115148858Y-78287571D01*
X115148858Y-78382810D01*
X114672667Y-78478048D01*
D13*
X119431700Y-75763500D02*
X119431700Y-76763500D01*
X121131700Y-76763500D02*
X121131700Y-75763500D01*
X122432700Y-85141700D02*
X121432700Y-85141700D01*
X121432700Y-86841700D02*
X122432700Y-86841700D01*
X135040000Y-86622000D02*
X135040000Y-87622000D01*
X136740000Y-87622000D02*
X136740000Y-86622000D01*
X127039000Y-86622000D02*
X127039000Y-87622000D01*
X128739000Y-87622000D02*
X128739000Y-86622000D01*
X153271600Y-87286200D02*
X154271600Y-87286200D01*
X154271600Y-85586200D02*
X153271600Y-85586200D01*
X154297000Y-72683000D02*
X153297000Y-72683000D01*
X153297000Y-74383000D02*
X154297000Y-74383000D01*
X171077000Y-74891000D02*
X172077000Y-74891000D01*
X172077000Y-73191000D02*
X171077000Y-73191000D01*
X177888000Y-78478000D02*
X177888000Y-77478000D01*
X176188000Y-77478000D02*
X176188000Y-78478000D01*
X165300000Y-84600000D02*
X165300000Y-85600000D01*
X167000000Y-85600000D02*
X167000000Y-84600000D01*
X176200000Y-83300000D02*
X176200000Y-84300000D01*
X177900000Y-84300000D02*
X177900000Y-83300000D01*
X170150000Y-96200000D02*
X170150000Y-97200000D01*
X171850000Y-97200000D02*
X171850000Y-96200000D01*
X157250000Y-96200000D02*
X157250000Y-97200000D01*
X158950000Y-97200000D02*
X158950000Y-96200000D01*
X182579000Y-96200000D02*
X182579000Y-97200000D01*
X184279000Y-97200000D02*
X184279000Y-96200000D01*
X174579000Y-96200000D02*
X174579000Y-97200000D01*
X176279000Y-97200000D02*
X176279000Y-96200000D01*
X129450000Y-97200000D02*
X129450000Y-96200000D01*
X127750000Y-96200000D02*
X127750000Y-97200000D01*
X142350000Y-97200000D02*
X142350000Y-96200000D01*
X140650000Y-96200000D02*
X140650000Y-97200000D01*
X146646000Y-108831000D02*
X146646000Y-107831000D01*
X144946000Y-107831000D02*
X144946000Y-108831000D01*
X131992000Y-107831000D02*
X131992000Y-108831000D01*
X133692000Y-108831000D02*
X133692000Y-107831000D01*
X133692000Y-117721000D02*
X133692000Y-116721000D01*
X131992000Y-116721000D02*
X131992000Y-117721000D01*
X146646000Y-117721000D02*
X146646000Y-116721000D01*
X144946000Y-116721000D02*
X144946000Y-117721000D01*
X113372000Y-117721000D02*
X113372000Y-116721000D01*
X111672000Y-116721000D02*
X111672000Y-117721000D01*
X126326000Y-117721000D02*
X126326000Y-116721000D01*
X124626000Y-116721000D02*
X124626000Y-117721000D01*
X113372000Y-108831000D02*
X113372000Y-107831000D01*
X111672000Y-107831000D02*
X111672000Y-108831000D01*
X126326000Y-108831000D02*
X126326000Y-107831000D01*
X124626000Y-107831000D02*
X124626000Y-108831000D01*
X109308000Y-108831000D02*
X109308000Y-107831000D01*
X107608000Y-107831000D02*
X107608000Y-108831000D01*
X107608000Y-116721000D02*
X107608000Y-117721000D01*
X109308000Y-117721000D02*
X109308000Y-116721000D01*
X116928000Y-100576000D02*
X116928000Y-99576000D01*
X115228000Y-99576000D02*
X115228000Y-100576000D01*
X111768000Y-90512000D02*
X112768000Y-90512000D01*
X112768000Y-88812000D02*
X111768000Y-88812000D01*
X109181000Y-84447000D02*
X109181000Y-83447000D01*
X107481000Y-83447000D02*
X107481000Y-84447000D01*
X143168000Y-79256000D02*
X143168000Y-80256000D01*
X144868000Y-80256000D02*
X144868000Y-79256000D01*
X139407000Y-80256000D02*
X139407000Y-79256000D01*
X137707000Y-79256000D02*
X137707000Y-80256000D01*
X164050000Y-91950000D02*
X165050000Y-91950000D01*
X165050000Y-90250000D02*
X164050000Y-90250000D01*
X175776000Y-91528000D02*
X176776000Y-91528000D01*
X176776000Y-89828000D02*
X175776000Y-89828000D01*
X175776000Y-103593000D02*
X176776000Y-103593000D01*
X176776000Y-101893000D02*
X175776000Y-101893000D01*
X120562000Y-96274000D02*
X120562000Y-97274000D01*
X122262000Y-97274000D02*
X122262000Y-96274000D01*
X125865000Y-102958000D02*
X126865000Y-102958000D01*
X126865000Y-101258000D02*
X125865000Y-101258000D01*
D14*
X130818000Y-80706000D02*
X129768000Y-80706000D01*
X129768000Y-80706000D02*
X129768000Y-78856000D01*
X132818000Y-80706000D02*
X131818000Y-80706000D01*
X132828000Y-80686000D02*
X132828000Y-78256000D01*
D13*
X106250820Y-92849360D02*
X106250820Y-100550640D01*
X105250060Y-92849360D02*
X105250060Y-100550640D01*
X105250060Y-100550640D02*
X114449940Y-100550640D01*
X114449940Y-100550640D02*
X114449940Y-92849360D01*
X114449940Y-92849360D02*
X105250060Y-92849360D01*
X116878100Y-93007180D02*
X116878100Y-91955620D01*
X115277900Y-91904820D02*
X115277900Y-92956380D01*
X155800800Y-96700000D02*
G75*
G03X155800800Y-96700000I-6250800J0D01*
G01*
D14*
X160907000Y-92004000D02*
X160907000Y-91074000D01*
X160907000Y-88844000D02*
X160907000Y-89774000D01*
X160907000Y-88844000D02*
X158747000Y-88844000D01*
X160907000Y-92004000D02*
X159447000Y-92004000D01*
X157351000Y-92004000D02*
X157351000Y-91074000D01*
X157351000Y-88844000D02*
X157351000Y-89774000D01*
X157351000Y-88844000D02*
X155191000Y-88844000D01*
X157351000Y-92004000D02*
X155891000Y-92004000D01*
D13*
X142099000Y-79156000D02*
X142099000Y-80356000D01*
X140349000Y-80356000D02*
X140349000Y-79156000D01*
X132299000Y-75932000D02*
X131099000Y-75932000D01*
X131099000Y-74182000D02*
X132299000Y-74182000D01*
X135015000Y-80356000D02*
X135015000Y-79156000D01*
X136765000Y-79156000D02*
X136765000Y-80356000D01*
X139841000Y-87722000D02*
X139841000Y-86522000D01*
X141591000Y-86522000D02*
X141591000Y-87722000D01*
X122602700Y-82703700D02*
X123802700Y-82703700D01*
X123802700Y-84453700D02*
X122602700Y-84453700D01*
X139178000Y-86522000D02*
X139178000Y-87722000D01*
X137428000Y-87722000D02*
X137428000Y-86522000D01*
X119886700Y-81581700D02*
X119886700Y-82781700D01*
X118136700Y-82781700D02*
X118136700Y-81581700D01*
X126114100Y-75919300D02*
X124914100Y-75919300D01*
X124914100Y-74169300D02*
X126114100Y-74169300D01*
X127113000Y-96174000D02*
X127113000Y-97374000D01*
X125363000Y-97374000D02*
X125363000Y-96174000D01*
X164450000Y-77075000D02*
X163250000Y-77075000D01*
X163250000Y-75325000D02*
X164450000Y-75325000D01*
X167150000Y-74925000D02*
X165950000Y-74925000D01*
X165950000Y-73175000D02*
X167150000Y-73175000D01*
X162275000Y-82100000D02*
X162275000Y-80900000D01*
X164025000Y-80900000D02*
X164025000Y-82100000D01*
X159825000Y-82100000D02*
X159825000Y-80900000D01*
X161575000Y-80900000D02*
X161575000Y-82100000D01*
X178525000Y-78600000D02*
X178525000Y-77400000D01*
X180275000Y-77400000D02*
X180275000Y-78600000D01*
X183759400Y-77481400D02*
X182559400Y-77481400D01*
X182559400Y-75731400D02*
X183759400Y-75731400D01*
X180961000Y-88681000D02*
X180961000Y-89881000D01*
X179211000Y-89881000D02*
X179211000Y-88681000D01*
X179211000Y-104740000D02*
X179211000Y-103540000D01*
X180961000Y-103540000D02*
X180961000Y-104740000D01*
X149084000Y-107731000D02*
X149084000Y-108931000D01*
X147334000Y-108931000D02*
X147334000Y-107731000D01*
X144131000Y-86522000D02*
X144131000Y-87722000D01*
X142381000Y-87722000D02*
X142381000Y-86522000D01*
X148955200Y-88177400D02*
X150155200Y-88177400D01*
X150155200Y-89927400D02*
X148955200Y-89927400D01*
X122950000Y-97374000D02*
X122950000Y-96174000D01*
X124700000Y-96174000D02*
X124700000Y-97374000D01*
X131791000Y-102983000D02*
X130591000Y-102983000D01*
X130591000Y-101233000D02*
X131791000Y-101233000D01*
X109728000Y-81661000D02*
X114808000Y-81661000D01*
X114808000Y-81661000D02*
X114808000Y-86233000D01*
X114808000Y-86233000D02*
X109728000Y-86233000D01*
X109728000Y-86233000D02*
X109728000Y-81661000D01*
X109728000Y-83185000D02*
X110236000Y-83185000D01*
X110236000Y-83185000D02*
X110236000Y-84455000D01*
X110236000Y-84455000D02*
X109728000Y-84455000D01*
D14*
X124762700Y-80140700D02*
X124762700Y-78380700D01*
X121692700Y-78380700D02*
X121692700Y-80810700D01*
D13*
X134416800Y-89382600D02*
X129336800Y-89382600D01*
X129336800Y-89382600D02*
X129336800Y-84810600D01*
X129336800Y-84810600D02*
X134416800Y-84810600D01*
X134416800Y-84810600D02*
X134416800Y-89382600D01*
X134416800Y-87858600D02*
X133908800Y-87858600D01*
X133908800Y-87858600D02*
X133908800Y-86588600D01*
X133908800Y-86588600D02*
X134416800Y-86588600D01*
X151384000Y-74930000D02*
X156210000Y-74930000D01*
X156210000Y-74930000D02*
X156210000Y-85090000D01*
X156210000Y-85090000D02*
X151384000Y-85090000D01*
X151384000Y-85090000D02*
X151384000Y-74930000D01*
X153162000Y-85090000D02*
X153162000Y-84455000D01*
X153162000Y-84455000D02*
X154432000Y-84455000D01*
X154432000Y-84455000D02*
X154432000Y-85090000D01*
X173863000Y-75438000D02*
X173863000Y-80518000D01*
X173863000Y-80518000D02*
X169291000Y-80518000D01*
X169291000Y-80518000D02*
X169291000Y-75438000D01*
X169291000Y-75438000D02*
X173863000Y-75438000D01*
X172339000Y-75438000D02*
X172339000Y-75946000D01*
X172339000Y-75946000D02*
X171069000Y-75946000D01*
X171069000Y-75946000D02*
X171069000Y-75438000D01*
X169291000Y-87010000D02*
X169291000Y-81930000D01*
X169291000Y-81930000D02*
X173863000Y-81930000D01*
X173863000Y-81930000D02*
X173863000Y-87010000D01*
X173863000Y-87010000D02*
X169291000Y-87010000D01*
X170815000Y-87010000D02*
X170815000Y-86502000D01*
X170815000Y-86502000D02*
X172085000Y-86502000D01*
X172085000Y-86502000D02*
X172085000Y-87010000D01*
X159470000Y-99086000D02*
X159470000Y-94260000D01*
X159470000Y-94260000D02*
X169630000Y-94260000D01*
X169630000Y-94260000D02*
X169630000Y-99086000D01*
X169630000Y-99086000D02*
X159470000Y-99086000D01*
X169630000Y-97308000D02*
X168995000Y-97308000D01*
X168995000Y-97308000D02*
X168995000Y-96038000D01*
X168995000Y-96038000D02*
X169630000Y-96038000D01*
X181969000Y-98986000D02*
X176889000Y-98986000D01*
X176889000Y-98986000D02*
X176889000Y-94414000D01*
X176889000Y-94414000D02*
X181969000Y-94414000D01*
X181969000Y-94414000D02*
X181969000Y-98986000D01*
X181969000Y-97462000D02*
X181461000Y-97462000D01*
X181461000Y-97462000D02*
X181461000Y-96192000D01*
X181461000Y-96192000D02*
X181969000Y-96192000D01*
X140130000Y-94314000D02*
X140130000Y-99140000D01*
X140130000Y-99140000D02*
X129970000Y-99140000D01*
X129970000Y-99140000D02*
X129970000Y-94314000D01*
X129970000Y-94314000D02*
X140130000Y-94314000D01*
X129970000Y-96092000D02*
X130605000Y-96092000D01*
X130605000Y-96092000D02*
X130605000Y-97362000D01*
X130605000Y-97362000D02*
X129970000Y-97362000D01*
X134239000Y-110744000D02*
X134239000Y-105918000D01*
X134239000Y-105918000D02*
X144399000Y-105918000D01*
X144399000Y-105918000D02*
X144399000Y-110744000D01*
X144399000Y-110744000D02*
X134239000Y-110744000D01*
X144399000Y-108966000D02*
X143764000Y-108966000D01*
X143764000Y-108966000D02*
X143764000Y-107696000D01*
X143764000Y-107696000D02*
X144399000Y-107696000D01*
X144399000Y-114808000D02*
X144399000Y-119634000D01*
X144399000Y-119634000D02*
X134239000Y-119634000D01*
X134239000Y-119634000D02*
X134239000Y-114808000D01*
X134239000Y-114808000D02*
X144399000Y-114808000D01*
X134239000Y-116586000D02*
X134874000Y-116586000D01*
X134874000Y-116586000D02*
X134874000Y-117856000D01*
X134874000Y-117856000D02*
X134239000Y-117856000D01*
X124079000Y-114808000D02*
X124079000Y-119634000D01*
X124079000Y-119634000D02*
X113919000Y-119634000D01*
X113919000Y-119634000D02*
X113919000Y-114808000D01*
X113919000Y-114808000D02*
X124079000Y-114808000D01*
X113919000Y-116586000D02*
X114554000Y-116586000D01*
X114554000Y-116586000D02*
X114554000Y-117856000D01*
X114554000Y-117856000D02*
X113919000Y-117856000D01*
X124079000Y-105918000D02*
X124079000Y-110744000D01*
X124079000Y-110744000D02*
X113919000Y-110744000D01*
X113919000Y-110744000D02*
X113919000Y-105918000D01*
X113919000Y-105918000D02*
X124079000Y-105918000D01*
X113919000Y-107696000D02*
X114554000Y-107696000D01*
X114554000Y-107696000D02*
X114554000Y-108966000D01*
X114554000Y-108966000D02*
X113919000Y-108966000D01*
D14*
X149031000Y-72203000D02*
X146371000Y-72203000D01*
X149031000Y-74803000D02*
X149031000Y-72203000D01*
X146371000Y-74803000D02*
X146371000Y-72203000D01*
X149031000Y-74803000D02*
X146371000Y-74803000D01*
X149031000Y-76073000D02*
X149031000Y-77403000D01*
X149031000Y-77403000D02*
X147701000Y-77403000D01*
D15*
X200571100Y-76362560D02*
X200571100Y-83860640D01*
X199821800Y-83860640D02*
X199821800Y-76362560D01*
X199069960Y-76362560D02*
X199069960Y-83860640D01*
X197571360Y-83860640D02*
X197571360Y-76362560D01*
X198320660Y-76362560D02*
X198320660Y-83860640D01*
X201320400Y-83611720D02*
X201320400Y-76611480D01*
X201320400Y-76611480D02*
X200820020Y-76611480D01*
X194820540Y-84112100D02*
X194320160Y-84112100D01*
X194820540Y-76111100D02*
X194320160Y-76111100D01*
X194571620Y-76111100D02*
X194571620Y-84112100D01*
X194820540Y-84112100D02*
X194820540Y-76111100D01*
X201320400Y-83611720D02*
X194320160Y-83611720D01*
X194320160Y-84112100D02*
X194320160Y-76111100D01*
X194320160Y-76611480D02*
X200820020Y-76611480D01*
X200545700Y-109560360D02*
X200545700Y-117058440D01*
X199796400Y-117058440D02*
X199796400Y-109560360D01*
X199044560Y-109560360D02*
X199044560Y-117058440D01*
X197545960Y-117058440D02*
X197545960Y-109560360D01*
X198295260Y-109560360D02*
X198295260Y-117058440D01*
X201295000Y-116809520D02*
X201295000Y-109809280D01*
X201295000Y-109809280D02*
X200794620Y-109809280D01*
X194795140Y-117309900D02*
X194294760Y-117309900D01*
X194795140Y-109308900D02*
X194294760Y-109308900D01*
X194546220Y-109308900D02*
X194546220Y-117309900D01*
X194795140Y-117309900D02*
X194795140Y-109308900D01*
X201295000Y-116809520D02*
X194294760Y-116809520D01*
X194294760Y-117309900D02*
X194294760Y-109308900D01*
X194294760Y-109809280D02*
X200794620Y-109809280D01*
X200545700Y-92948760D02*
X200545700Y-100446840D01*
X199796400Y-100446840D02*
X199796400Y-92948760D01*
X199044560Y-92948760D02*
X199044560Y-100446840D01*
X197545960Y-100446840D02*
X197545960Y-92948760D01*
X198295260Y-92948760D02*
X198295260Y-100446840D01*
X201295000Y-100197920D02*
X201295000Y-93197680D01*
X201295000Y-93197680D02*
X200794620Y-93197680D01*
X194795140Y-100698300D02*
X194294760Y-100698300D01*
X194795140Y-92697300D02*
X194294760Y-92697300D01*
X194546220Y-92697300D02*
X194546220Y-100698300D01*
X194795140Y-100698300D02*
X194795140Y-92697300D01*
X201295000Y-100197920D02*
X194294760Y-100197920D01*
X194294760Y-100698300D02*
X194294760Y-92697300D01*
X194294760Y-93197680D02*
X200794620Y-93197680D01*
D13*
X118975143Y-76112666D02*
X119022762Y-76160285D01*
X119070381Y-76303142D01*
X119070381Y-76398380D01*
X119022762Y-76541238D01*
X118927524Y-76636476D01*
X118832286Y-76684095D01*
X118641810Y-76731714D01*
X118498952Y-76731714D01*
X118308476Y-76684095D01*
X118213238Y-76636476D01*
X118118000Y-76541238D01*
X118070381Y-76398380D01*
X118070381Y-76303142D01*
X118118000Y-76160285D01*
X118165619Y-76112666D01*
X119070381Y-75160285D02*
X119070381Y-75731714D01*
X119070381Y-75446000D02*
X118070381Y-75446000D01*
X118213238Y-75541238D01*
X118308476Y-75636476D01*
X118356095Y-75731714D01*
X121753334Y-88241143D02*
X121705715Y-88288762D01*
X121562858Y-88336381D01*
X121467620Y-88336381D01*
X121324762Y-88288762D01*
X121229524Y-88193524D01*
X121181905Y-88098286D01*
X121134286Y-87907810D01*
X121134286Y-87764952D01*
X121181905Y-87574476D01*
X121229524Y-87479238D01*
X121324762Y-87384000D01*
X121467620Y-87336381D01*
X121562858Y-87336381D01*
X121705715Y-87384000D01*
X121753334Y-87431619D01*
X122134286Y-87431619D02*
X122181905Y-87384000D01*
X122277143Y-87336381D01*
X122515239Y-87336381D01*
X122610477Y-87384000D01*
X122658096Y-87431619D01*
X122705715Y-87526857D01*
X122705715Y-87622095D01*
X122658096Y-87764952D01*
X122086667Y-88336381D01*
X122705715Y-88336381D01*
X136120143Y-90717666D02*
X136167762Y-90765285D01*
X136215381Y-90908142D01*
X136215381Y-91003380D01*
X136167762Y-91146238D01*
X136072524Y-91241476D01*
X135977286Y-91289095D01*
X135786810Y-91336714D01*
X135643952Y-91336714D01*
X135453476Y-91289095D01*
X135358238Y-91241476D01*
X135263000Y-91146238D01*
X135215381Y-91003380D01*
X135215381Y-90908142D01*
X135263000Y-90765285D01*
X135310619Y-90717666D01*
X135215381Y-90384333D02*
X135215381Y-89765285D01*
X135596333Y-90098619D01*
X135596333Y-89955761D01*
X135643952Y-89860523D01*
X135691571Y-89812904D01*
X135786810Y-89765285D01*
X136024905Y-89765285D01*
X136120143Y-89812904D01*
X136167762Y-89860523D01*
X136215381Y-89955761D01*
X136215381Y-90241476D01*
X136167762Y-90336714D01*
X136120143Y-90384333D01*
X126595143Y-87288666D02*
X126642762Y-87336285D01*
X126690381Y-87479142D01*
X126690381Y-87574380D01*
X126642762Y-87717238D01*
X126547524Y-87812476D01*
X126452286Y-87860095D01*
X126261810Y-87907714D01*
X126118952Y-87907714D01*
X125928476Y-87860095D01*
X125833238Y-87812476D01*
X125738000Y-87717238D01*
X125690381Y-87574380D01*
X125690381Y-87479142D01*
X125738000Y-87336285D01*
X125785619Y-87288666D01*
X126023714Y-86431523D02*
X126690381Y-86431523D01*
X125642762Y-86669619D02*
X126357048Y-86907714D01*
X126357048Y-86288666D01*
X153630334Y-88622143D02*
X153582715Y-88669762D01*
X153439858Y-88717381D01*
X153344620Y-88717381D01*
X153201762Y-88669762D01*
X153106524Y-88574524D01*
X153058905Y-88479286D01*
X153011286Y-88288810D01*
X153011286Y-88145952D01*
X153058905Y-87955476D01*
X153106524Y-87860238D01*
X153201762Y-87765000D01*
X153344620Y-87717381D01*
X153439858Y-87717381D01*
X153582715Y-87765000D01*
X153630334Y-87812619D01*
X154535096Y-87717381D02*
X154058905Y-87717381D01*
X154011286Y-88193571D01*
X154058905Y-88145952D01*
X154154143Y-88098333D01*
X154392239Y-88098333D01*
X154487477Y-88145952D01*
X154535096Y-88193571D01*
X154582715Y-88288810D01*
X154582715Y-88526905D01*
X154535096Y-88622143D01*
X154487477Y-88669762D01*
X154392239Y-88717381D01*
X154154143Y-88717381D01*
X154058905Y-88669762D01*
X154011286Y-88622143D01*
X157059334Y-73890143D02*
X157011715Y-73937762D01*
X156868858Y-73985381D01*
X156773620Y-73985381D01*
X156630762Y-73937762D01*
X156535524Y-73842524D01*
X156487905Y-73747286D01*
X156440286Y-73556810D01*
X156440286Y-73413952D01*
X156487905Y-73223476D01*
X156535524Y-73128238D01*
X156630762Y-73033000D01*
X156773620Y-72985381D01*
X156868858Y-72985381D01*
X157011715Y-73033000D01*
X157059334Y-73080619D01*
X157916477Y-72985381D02*
X157726000Y-72985381D01*
X157630762Y-73033000D01*
X157583143Y-73080619D01*
X157487905Y-73223476D01*
X157440286Y-73413952D01*
X157440286Y-73794905D01*
X157487905Y-73890143D01*
X157535524Y-73937762D01*
X157630762Y-73985381D01*
X157821239Y-73985381D01*
X157916477Y-73937762D01*
X157964096Y-73890143D01*
X158011715Y-73794905D01*
X158011715Y-73556810D01*
X157964096Y-73461571D01*
X157916477Y-73413952D01*
X157821239Y-73366333D01*
X157630762Y-73366333D01*
X157535524Y-73413952D01*
X157487905Y-73461571D01*
X157440286Y-73556810D01*
X171383334Y-72757143D02*
X171335715Y-72804762D01*
X171192858Y-72852381D01*
X171097620Y-72852381D01*
X170954762Y-72804762D01*
X170859524Y-72709524D01*
X170811905Y-72614286D01*
X170764286Y-72423810D01*
X170764286Y-72280952D01*
X170811905Y-72090476D01*
X170859524Y-71995238D01*
X170954762Y-71900000D01*
X171097620Y-71852381D01*
X171192858Y-71852381D01*
X171335715Y-71900000D01*
X171383334Y-71947619D01*
X171716667Y-71852381D02*
X172383334Y-71852381D01*
X171954762Y-72852381D01*
X177522143Y-73572666D02*
X177569762Y-73620285D01*
X177617381Y-73763142D01*
X177617381Y-73858380D01*
X177569762Y-74001238D01*
X177474524Y-74096476D01*
X177379286Y-74144095D01*
X177188810Y-74191714D01*
X177045952Y-74191714D01*
X176855476Y-74144095D01*
X176760238Y-74096476D01*
X176665000Y-74001238D01*
X176617381Y-73858380D01*
X176617381Y-73763142D01*
X176665000Y-73620285D01*
X176712619Y-73572666D01*
X177045952Y-73001238D02*
X176998333Y-73096476D01*
X176950714Y-73144095D01*
X176855476Y-73191714D01*
X176807857Y-73191714D01*
X176712619Y-73144095D01*
X176665000Y-73096476D01*
X176617381Y-73001238D01*
X176617381Y-72810761D01*
X176665000Y-72715523D01*
X176712619Y-72667904D01*
X176807857Y-72620285D01*
X176855476Y-72620285D01*
X176950714Y-72667904D01*
X176998333Y-72715523D01*
X177045952Y-72810761D01*
X177045952Y-73001238D01*
X177093571Y-73096476D01*
X177141190Y-73144095D01*
X177236429Y-73191714D01*
X177426905Y-73191714D01*
X177522143Y-73144095D01*
X177569762Y-73096476D01*
X177617381Y-73001238D01*
X177617381Y-72810761D01*
X177569762Y-72715523D01*
X177522143Y-72667904D01*
X177426905Y-72620285D01*
X177236429Y-72620285D01*
X177141190Y-72667904D01*
X177093571Y-72715523D01*
X177045952Y-72810761D01*
X164796743Y-85409066D02*
X164844362Y-85456685D01*
X164891981Y-85599542D01*
X164891981Y-85694780D01*
X164844362Y-85837638D01*
X164749124Y-85932876D01*
X164653886Y-85980495D01*
X164463410Y-86028114D01*
X164320552Y-86028114D01*
X164130076Y-85980495D01*
X164034838Y-85932876D01*
X163939600Y-85837638D01*
X163891981Y-85694780D01*
X163891981Y-85599542D01*
X163939600Y-85456685D01*
X163987219Y-85409066D01*
X164891981Y-84932876D02*
X164891981Y-84742400D01*
X164844362Y-84647161D01*
X164796743Y-84599542D01*
X164653886Y-84504304D01*
X164463410Y-84456685D01*
X164082457Y-84456685D01*
X163987219Y-84504304D01*
X163939600Y-84551923D01*
X163891981Y-84647161D01*
X163891981Y-84837638D01*
X163939600Y-84932876D01*
X163987219Y-84980495D01*
X164082457Y-85028114D01*
X164320552Y-85028114D01*
X164415790Y-84980495D01*
X164463410Y-84932876D01*
X164511029Y-84837638D01*
X164511029Y-84647161D01*
X164463410Y-84551923D01*
X164415790Y-84504304D01*
X164320552Y-84456685D01*
X179312143Y-84442857D02*
X179359762Y-84490476D01*
X179407381Y-84633333D01*
X179407381Y-84728571D01*
X179359762Y-84871429D01*
X179264524Y-84966667D01*
X179169286Y-85014286D01*
X178978810Y-85061905D01*
X178835952Y-85061905D01*
X178645476Y-85014286D01*
X178550238Y-84966667D01*
X178455000Y-84871429D01*
X178407381Y-84728571D01*
X178407381Y-84633333D01*
X178455000Y-84490476D01*
X178502619Y-84442857D01*
X179407381Y-83490476D02*
X179407381Y-84061905D01*
X179407381Y-83776191D02*
X178407381Y-83776191D01*
X178550238Y-83871429D01*
X178645476Y-83966667D01*
X178693095Y-84061905D01*
X178407381Y-82871429D02*
X178407381Y-82776190D01*
X178455000Y-82680952D01*
X178502619Y-82633333D01*
X178597857Y-82585714D01*
X178788333Y-82538095D01*
X179026429Y-82538095D01*
X179216905Y-82585714D01*
X179312143Y-82633333D01*
X179359762Y-82680952D01*
X179407381Y-82776190D01*
X179407381Y-82871429D01*
X179359762Y-82966667D01*
X179312143Y-83014286D01*
X179216905Y-83061905D01*
X179026429Y-83109524D01*
X178788333Y-83109524D01*
X178597857Y-83061905D01*
X178502619Y-83014286D01*
X178455000Y-82966667D01*
X178407381Y-82871429D01*
X171107143Y-93592857D02*
X171154762Y-93640476D01*
X171202381Y-93783333D01*
X171202381Y-93878571D01*
X171154762Y-94021429D01*
X171059524Y-94116667D01*
X170964286Y-94164286D01*
X170773810Y-94211905D01*
X170630952Y-94211905D01*
X170440476Y-94164286D01*
X170345238Y-94116667D01*
X170250000Y-94021429D01*
X170202381Y-93878571D01*
X170202381Y-93783333D01*
X170250000Y-93640476D01*
X170297619Y-93592857D01*
X171202381Y-92640476D02*
X171202381Y-93211905D01*
X171202381Y-92926191D02*
X170202381Y-92926191D01*
X170345238Y-93021429D01*
X170440476Y-93116667D01*
X170488095Y-93211905D01*
X171202381Y-91688095D02*
X171202381Y-92259524D01*
X171202381Y-91973810D02*
X170202381Y-91973810D01*
X170345238Y-92069048D01*
X170440476Y-92164286D01*
X170488095Y-92259524D01*
X158457143Y-101242857D02*
X158504762Y-101290476D01*
X158552381Y-101433333D01*
X158552381Y-101528571D01*
X158504762Y-101671429D01*
X158409524Y-101766667D01*
X158314286Y-101814286D01*
X158123810Y-101861905D01*
X157980952Y-101861905D01*
X157790476Y-101814286D01*
X157695238Y-101766667D01*
X157600000Y-101671429D01*
X157552381Y-101528571D01*
X157552381Y-101433333D01*
X157600000Y-101290476D01*
X157647619Y-101242857D01*
X158552381Y-100290476D02*
X158552381Y-100861905D01*
X158552381Y-100576191D02*
X157552381Y-100576191D01*
X157695238Y-100671429D01*
X157790476Y-100766667D01*
X157838095Y-100861905D01*
X157647619Y-99909524D02*
X157600000Y-99861905D01*
X157552381Y-99766667D01*
X157552381Y-99528571D01*
X157600000Y-99433333D01*
X157647619Y-99385714D01*
X157742857Y-99338095D01*
X157838095Y-99338095D01*
X157980952Y-99385714D01*
X158552381Y-99957143D01*
X158552381Y-99338095D01*
X185523143Y-97416857D02*
X185570762Y-97464476D01*
X185618381Y-97607333D01*
X185618381Y-97702571D01*
X185570762Y-97845429D01*
X185475524Y-97940667D01*
X185380286Y-97988286D01*
X185189810Y-98035905D01*
X185046952Y-98035905D01*
X184856476Y-97988286D01*
X184761238Y-97940667D01*
X184666000Y-97845429D01*
X184618381Y-97702571D01*
X184618381Y-97607333D01*
X184666000Y-97464476D01*
X184713619Y-97416857D01*
X185618381Y-96464476D02*
X185618381Y-97035905D01*
X185618381Y-96750191D02*
X184618381Y-96750191D01*
X184761238Y-96845429D01*
X184856476Y-96940667D01*
X184904095Y-97035905D01*
X184618381Y-96131143D02*
X184618381Y-95512095D01*
X184999333Y-95845429D01*
X184999333Y-95702571D01*
X185046952Y-95607333D01*
X185094571Y-95559714D01*
X185189810Y-95512095D01*
X185427905Y-95512095D01*
X185523143Y-95559714D01*
X185570762Y-95607333D01*
X185618381Y-95702571D01*
X185618381Y-95988286D01*
X185570762Y-96083524D01*
X185523143Y-96131143D01*
X173686143Y-97342857D02*
X173733762Y-97390476D01*
X173781381Y-97533333D01*
X173781381Y-97628571D01*
X173733762Y-97771429D01*
X173638524Y-97866667D01*
X173543286Y-97914286D01*
X173352810Y-97961905D01*
X173209952Y-97961905D01*
X173019476Y-97914286D01*
X172924238Y-97866667D01*
X172829000Y-97771429D01*
X172781381Y-97628571D01*
X172781381Y-97533333D01*
X172829000Y-97390476D01*
X172876619Y-97342857D01*
X173781381Y-96390476D02*
X173781381Y-96961905D01*
X173781381Y-96676191D02*
X172781381Y-96676191D01*
X172924238Y-96771429D01*
X173019476Y-96866667D01*
X173067095Y-96961905D01*
X173114714Y-95533333D02*
X173781381Y-95533333D01*
X172733762Y-95771429D02*
X173448048Y-96009524D01*
X173448048Y-95390476D01*
X129008143Y-93479857D02*
X129055762Y-93527476D01*
X129103381Y-93670333D01*
X129103381Y-93765571D01*
X129055762Y-93908429D01*
X128960524Y-94003667D01*
X128865286Y-94051286D01*
X128674810Y-94098905D01*
X128531952Y-94098905D01*
X128341476Y-94051286D01*
X128246238Y-94003667D01*
X128151000Y-93908429D01*
X128103381Y-93765571D01*
X128103381Y-93670333D01*
X128151000Y-93527476D01*
X128198619Y-93479857D01*
X129103381Y-92527476D02*
X129103381Y-93098905D01*
X129103381Y-92813191D02*
X128103381Y-92813191D01*
X128246238Y-92908429D01*
X128341476Y-93003667D01*
X128389095Y-93098905D01*
X128103381Y-91622714D02*
X128103381Y-92098905D01*
X128579571Y-92146524D01*
X128531952Y-92098905D01*
X128484333Y-92003667D01*
X128484333Y-91765571D01*
X128531952Y-91670333D01*
X128579571Y-91622714D01*
X128674810Y-91575095D01*
X128912905Y-91575095D01*
X129008143Y-91622714D01*
X129055762Y-91670333D01*
X129103381Y-91765571D01*
X129103381Y-92003667D01*
X129055762Y-92098905D01*
X129008143Y-92146524D01*
X141857143Y-101192857D02*
X141904762Y-101240476D01*
X141952381Y-101383333D01*
X141952381Y-101478571D01*
X141904762Y-101621429D01*
X141809524Y-101716667D01*
X141714286Y-101764286D01*
X141523810Y-101811905D01*
X141380952Y-101811905D01*
X141190476Y-101764286D01*
X141095238Y-101716667D01*
X141000000Y-101621429D01*
X140952381Y-101478571D01*
X140952381Y-101383333D01*
X141000000Y-101240476D01*
X141047619Y-101192857D01*
X141952381Y-100240476D02*
X141952381Y-100811905D01*
X141952381Y-100526191D02*
X140952381Y-100526191D01*
X141095238Y-100621429D01*
X141190476Y-100716667D01*
X141238095Y-100811905D01*
X140952381Y-99383333D02*
X140952381Y-99573810D01*
X141000000Y-99669048D01*
X141047619Y-99716667D01*
X141190476Y-99811905D01*
X141380952Y-99859524D01*
X141761905Y-99859524D01*
X141857143Y-99811905D01*
X141904762Y-99764286D01*
X141952381Y-99669048D01*
X141952381Y-99478571D01*
X141904762Y-99383333D01*
X141857143Y-99335714D01*
X141761905Y-99288095D01*
X141523810Y-99288095D01*
X141428571Y-99335714D01*
X141380952Y-99383333D01*
X141333333Y-99478571D01*
X141333333Y-99669048D01*
X141380952Y-99764286D01*
X141428571Y-99811905D01*
X141523810Y-99859524D01*
X146153143Y-105163857D02*
X146200762Y-105211476D01*
X146248381Y-105354333D01*
X146248381Y-105449571D01*
X146200762Y-105592429D01*
X146105524Y-105687667D01*
X146010286Y-105735286D01*
X145819810Y-105782905D01*
X145676952Y-105782905D01*
X145486476Y-105735286D01*
X145391238Y-105687667D01*
X145296000Y-105592429D01*
X145248381Y-105449571D01*
X145248381Y-105354333D01*
X145296000Y-105211476D01*
X145343619Y-105163857D01*
X146248381Y-104211476D02*
X146248381Y-104782905D01*
X146248381Y-104497191D02*
X145248381Y-104497191D01*
X145391238Y-104592429D01*
X145486476Y-104687667D01*
X145534095Y-104782905D01*
X145248381Y-103878143D02*
X145248381Y-103211476D01*
X146248381Y-103640048D01*
X131421143Y-108973857D02*
X131468762Y-109021476D01*
X131516381Y-109164333D01*
X131516381Y-109259571D01*
X131468762Y-109402429D01*
X131373524Y-109497667D01*
X131278286Y-109545286D01*
X131087810Y-109592905D01*
X130944952Y-109592905D01*
X130754476Y-109545286D01*
X130659238Y-109497667D01*
X130564000Y-109402429D01*
X130516381Y-109259571D01*
X130516381Y-109164333D01*
X130564000Y-109021476D01*
X130611619Y-108973857D01*
X131516381Y-108021476D02*
X131516381Y-108592905D01*
X131516381Y-108307191D02*
X130516381Y-108307191D01*
X130659238Y-108402429D01*
X130754476Y-108497667D01*
X130802095Y-108592905D01*
X130944952Y-107450048D02*
X130897333Y-107545286D01*
X130849714Y-107592905D01*
X130754476Y-107640524D01*
X130706857Y-107640524D01*
X130611619Y-107592905D01*
X130564000Y-107545286D01*
X130516381Y-107450048D01*
X130516381Y-107259571D01*
X130564000Y-107164333D01*
X130611619Y-107116714D01*
X130706857Y-107069095D01*
X130754476Y-107069095D01*
X130849714Y-107116714D01*
X130897333Y-107164333D01*
X130944952Y-107259571D01*
X130944952Y-107450048D01*
X130992571Y-107545286D01*
X131040190Y-107592905D01*
X131135429Y-107640524D01*
X131325905Y-107640524D01*
X131421143Y-107592905D01*
X131468762Y-107545286D01*
X131516381Y-107450048D01*
X131516381Y-107259571D01*
X131468762Y-107164333D01*
X131421143Y-107116714D01*
X131325905Y-107069095D01*
X131135429Y-107069095D01*
X131040190Y-107116714D01*
X130992571Y-107164333D01*
X130944952Y-107259571D01*
X131421143Y-117863857D02*
X131468762Y-117911476D01*
X131516381Y-118054333D01*
X131516381Y-118149571D01*
X131468762Y-118292429D01*
X131373524Y-118387667D01*
X131278286Y-118435286D01*
X131087810Y-118482905D01*
X130944952Y-118482905D01*
X130754476Y-118435286D01*
X130659238Y-118387667D01*
X130564000Y-118292429D01*
X130516381Y-118149571D01*
X130516381Y-118054333D01*
X130564000Y-117911476D01*
X130611619Y-117863857D01*
X131516381Y-116911476D02*
X131516381Y-117482905D01*
X131516381Y-117197191D02*
X130516381Y-117197191D01*
X130659238Y-117292429D01*
X130754476Y-117387667D01*
X130802095Y-117482905D01*
X131516381Y-116435286D02*
X131516381Y-116244810D01*
X131468762Y-116149571D01*
X131421143Y-116101952D01*
X131278286Y-116006714D01*
X131087810Y-115959095D01*
X130706857Y-115959095D01*
X130611619Y-116006714D01*
X130564000Y-116054333D01*
X130516381Y-116149571D01*
X130516381Y-116340048D01*
X130564000Y-116435286D01*
X130611619Y-116482905D01*
X130706857Y-116530524D01*
X130944952Y-116530524D01*
X131040190Y-116482905D01*
X131087810Y-116435286D01*
X131135429Y-116340048D01*
X131135429Y-116149571D01*
X131087810Y-116054333D01*
X131040190Y-116006714D01*
X130944952Y-115959095D01*
X148253143Y-117863857D02*
X148300762Y-117911476D01*
X148348381Y-118054333D01*
X148348381Y-118149571D01*
X148300762Y-118292429D01*
X148205524Y-118387667D01*
X148110286Y-118435286D01*
X147919810Y-118482905D01*
X147776952Y-118482905D01*
X147586476Y-118435286D01*
X147491238Y-118387667D01*
X147396000Y-118292429D01*
X147348381Y-118149571D01*
X147348381Y-118054333D01*
X147396000Y-117911476D01*
X147443619Y-117863857D01*
X147443619Y-117482905D02*
X147396000Y-117435286D01*
X147348381Y-117340048D01*
X147348381Y-117101952D01*
X147396000Y-117006714D01*
X147443619Y-116959095D01*
X147538857Y-116911476D01*
X147634095Y-116911476D01*
X147776952Y-116959095D01*
X148348381Y-117530524D01*
X148348381Y-116911476D01*
X147348381Y-116292429D02*
X147348381Y-116197190D01*
X147396000Y-116101952D01*
X147443619Y-116054333D01*
X147538857Y-116006714D01*
X147729333Y-115959095D01*
X147967429Y-115959095D01*
X148157905Y-116006714D01*
X148253143Y-116054333D01*
X148300762Y-116101952D01*
X148348381Y-116197190D01*
X148348381Y-116292429D01*
X148300762Y-116387667D01*
X148253143Y-116435286D01*
X148157905Y-116482905D01*
X147967429Y-116530524D01*
X147729333Y-116530524D01*
X147538857Y-116482905D01*
X147443619Y-116435286D01*
X147396000Y-116387667D01*
X147348381Y-116292429D01*
X111101143Y-117863857D02*
X111148762Y-117911476D01*
X111196381Y-118054333D01*
X111196381Y-118149571D01*
X111148762Y-118292429D01*
X111053524Y-118387667D01*
X110958286Y-118435286D01*
X110767810Y-118482905D01*
X110624952Y-118482905D01*
X110434476Y-118435286D01*
X110339238Y-118387667D01*
X110244000Y-118292429D01*
X110196381Y-118149571D01*
X110196381Y-118054333D01*
X110244000Y-117911476D01*
X110291619Y-117863857D01*
X110291619Y-117482905D02*
X110244000Y-117435286D01*
X110196381Y-117340048D01*
X110196381Y-117101952D01*
X110244000Y-117006714D01*
X110291619Y-116959095D01*
X110386857Y-116911476D01*
X110482095Y-116911476D01*
X110624952Y-116959095D01*
X111196381Y-117530524D01*
X111196381Y-116911476D01*
X111196381Y-115959095D02*
X111196381Y-116530524D01*
X111196381Y-116244810D02*
X110196381Y-116244810D01*
X110339238Y-116340048D01*
X110434476Y-116435286D01*
X110482095Y-116530524D01*
X127611143Y-117863857D02*
X127658762Y-117911476D01*
X127706381Y-118054333D01*
X127706381Y-118149571D01*
X127658762Y-118292429D01*
X127563524Y-118387667D01*
X127468286Y-118435286D01*
X127277810Y-118482905D01*
X127134952Y-118482905D01*
X126944476Y-118435286D01*
X126849238Y-118387667D01*
X126754000Y-118292429D01*
X126706381Y-118149571D01*
X126706381Y-118054333D01*
X126754000Y-117911476D01*
X126801619Y-117863857D01*
X126801619Y-117482905D02*
X126754000Y-117435286D01*
X126706381Y-117340048D01*
X126706381Y-117101952D01*
X126754000Y-117006714D01*
X126801619Y-116959095D01*
X126896857Y-116911476D01*
X126992095Y-116911476D01*
X127134952Y-116959095D01*
X127706381Y-117530524D01*
X127706381Y-116911476D01*
X126801619Y-116530524D02*
X126754000Y-116482905D01*
X126706381Y-116387667D01*
X126706381Y-116149571D01*
X126754000Y-116054333D01*
X126801619Y-116006714D01*
X126896857Y-115959095D01*
X126992095Y-115959095D01*
X127134952Y-116006714D01*
X127706381Y-116578143D01*
X127706381Y-115959095D01*
X111228143Y-108973857D02*
X111275762Y-109021476D01*
X111323381Y-109164333D01*
X111323381Y-109259571D01*
X111275762Y-109402429D01*
X111180524Y-109497667D01*
X111085286Y-109545286D01*
X110894810Y-109592905D01*
X110751952Y-109592905D01*
X110561476Y-109545286D01*
X110466238Y-109497667D01*
X110371000Y-109402429D01*
X110323381Y-109259571D01*
X110323381Y-109164333D01*
X110371000Y-109021476D01*
X110418619Y-108973857D01*
X110418619Y-108592905D02*
X110371000Y-108545286D01*
X110323381Y-108450048D01*
X110323381Y-108211952D01*
X110371000Y-108116714D01*
X110418619Y-108069095D01*
X110513857Y-108021476D01*
X110609095Y-108021476D01*
X110751952Y-108069095D01*
X111323381Y-108640524D01*
X111323381Y-108021476D01*
X110323381Y-107688143D02*
X110323381Y-107069095D01*
X110704333Y-107402429D01*
X110704333Y-107259571D01*
X110751952Y-107164333D01*
X110799571Y-107116714D01*
X110894810Y-107069095D01*
X111132905Y-107069095D01*
X111228143Y-107116714D01*
X111275762Y-107164333D01*
X111323381Y-107259571D01*
X111323381Y-107545286D01*
X111275762Y-107640524D01*
X111228143Y-107688143D01*
X127611143Y-108973857D02*
X127658762Y-109021476D01*
X127706381Y-109164333D01*
X127706381Y-109259571D01*
X127658762Y-109402429D01*
X127563524Y-109497667D01*
X127468286Y-109545286D01*
X127277810Y-109592905D01*
X127134952Y-109592905D01*
X126944476Y-109545286D01*
X126849238Y-109497667D01*
X126754000Y-109402429D01*
X126706381Y-109259571D01*
X126706381Y-109164333D01*
X126754000Y-109021476D01*
X126801619Y-108973857D01*
X126801619Y-108592905D02*
X126754000Y-108545286D01*
X126706381Y-108450048D01*
X126706381Y-108211952D01*
X126754000Y-108116714D01*
X126801619Y-108069095D01*
X126896857Y-108021476D01*
X126992095Y-108021476D01*
X127134952Y-108069095D01*
X127706381Y-108640524D01*
X127706381Y-108021476D01*
X127039714Y-107164333D02*
X127706381Y-107164333D01*
X126658762Y-107402429D02*
X127373048Y-107640524D01*
X127373048Y-107021476D01*
X107164143Y-108973857D02*
X107211762Y-109021476D01*
X107259381Y-109164333D01*
X107259381Y-109259571D01*
X107211762Y-109402429D01*
X107116524Y-109497667D01*
X107021286Y-109545286D01*
X106830810Y-109592905D01*
X106687952Y-109592905D01*
X106497476Y-109545286D01*
X106402238Y-109497667D01*
X106307000Y-109402429D01*
X106259381Y-109259571D01*
X106259381Y-109164333D01*
X106307000Y-109021476D01*
X106354619Y-108973857D01*
X106354619Y-108592905D02*
X106307000Y-108545286D01*
X106259381Y-108450048D01*
X106259381Y-108211952D01*
X106307000Y-108116714D01*
X106354619Y-108069095D01*
X106449857Y-108021476D01*
X106545095Y-108021476D01*
X106687952Y-108069095D01*
X107259381Y-108640524D01*
X107259381Y-108021476D01*
X106259381Y-107116714D02*
X106259381Y-107592905D01*
X106735571Y-107640524D01*
X106687952Y-107592905D01*
X106640333Y-107497667D01*
X106640333Y-107259571D01*
X106687952Y-107164333D01*
X106735571Y-107116714D01*
X106830810Y-107069095D01*
X107068905Y-107069095D01*
X107164143Y-107116714D01*
X107211762Y-107164333D01*
X107259381Y-107259571D01*
X107259381Y-107497667D01*
X107211762Y-107592905D01*
X107164143Y-107640524D01*
X107037143Y-117863857D02*
X107084762Y-117911476D01*
X107132381Y-118054333D01*
X107132381Y-118149571D01*
X107084762Y-118292429D01*
X106989524Y-118387667D01*
X106894286Y-118435286D01*
X106703810Y-118482905D01*
X106560952Y-118482905D01*
X106370476Y-118435286D01*
X106275238Y-118387667D01*
X106180000Y-118292429D01*
X106132381Y-118149571D01*
X106132381Y-118054333D01*
X106180000Y-117911476D01*
X106227619Y-117863857D01*
X106227619Y-117482905D02*
X106180000Y-117435286D01*
X106132381Y-117340048D01*
X106132381Y-117101952D01*
X106180000Y-117006714D01*
X106227619Y-116959095D01*
X106322857Y-116911476D01*
X106418095Y-116911476D01*
X106560952Y-116959095D01*
X107132381Y-117530524D01*
X107132381Y-116911476D01*
X106132381Y-116054333D02*
X106132381Y-116244810D01*
X106180000Y-116340048D01*
X106227619Y-116387667D01*
X106370476Y-116482905D01*
X106560952Y-116530524D01*
X106941905Y-116530524D01*
X107037143Y-116482905D01*
X107084762Y-116435286D01*
X107132381Y-116340048D01*
X107132381Y-116149571D01*
X107084762Y-116054333D01*
X107037143Y-116006714D01*
X106941905Y-115959095D01*
X106703810Y-115959095D01*
X106608571Y-116006714D01*
X106560952Y-116054333D01*
X106513333Y-116149571D01*
X106513333Y-116340048D01*
X106560952Y-116435286D01*
X106608571Y-116482905D01*
X106703810Y-116530524D01*
X118213143Y-100718857D02*
X118260762Y-100766476D01*
X118308381Y-100909333D01*
X118308381Y-101004571D01*
X118260762Y-101147429D01*
X118165524Y-101242667D01*
X118070286Y-101290286D01*
X117879810Y-101337905D01*
X117736952Y-101337905D01*
X117546476Y-101290286D01*
X117451238Y-101242667D01*
X117356000Y-101147429D01*
X117308381Y-101004571D01*
X117308381Y-100909333D01*
X117356000Y-100766476D01*
X117403619Y-100718857D01*
X117403619Y-100337905D02*
X117356000Y-100290286D01*
X117308381Y-100195048D01*
X117308381Y-99956952D01*
X117356000Y-99861714D01*
X117403619Y-99814095D01*
X117498857Y-99766476D01*
X117594095Y-99766476D01*
X117736952Y-99814095D01*
X118308381Y-100385524D01*
X118308381Y-99766476D01*
X117308381Y-99433143D02*
X117308381Y-98766476D01*
X118308381Y-99195048D01*
X107815143Y-90019143D02*
X107767524Y-90066762D01*
X107624667Y-90114381D01*
X107529429Y-90114381D01*
X107386571Y-90066762D01*
X107291333Y-89971524D01*
X107243714Y-89876286D01*
X107196095Y-89685810D01*
X107196095Y-89542952D01*
X107243714Y-89352476D01*
X107291333Y-89257238D01*
X107386571Y-89162000D01*
X107529429Y-89114381D01*
X107624667Y-89114381D01*
X107767524Y-89162000D01*
X107815143Y-89209619D01*
X108196095Y-89209619D02*
X108243714Y-89162000D01*
X108338952Y-89114381D01*
X108577048Y-89114381D01*
X108672286Y-89162000D01*
X108719905Y-89209619D01*
X108767524Y-89304857D01*
X108767524Y-89400095D01*
X108719905Y-89542952D01*
X108148476Y-90114381D01*
X108767524Y-90114381D01*
X109338952Y-89542952D02*
X109243714Y-89495333D01*
X109196095Y-89447714D01*
X109148476Y-89352476D01*
X109148476Y-89304857D01*
X109196095Y-89209619D01*
X109243714Y-89162000D01*
X109338952Y-89114381D01*
X109529429Y-89114381D01*
X109624667Y-89162000D01*
X109672286Y-89209619D01*
X109719905Y-89304857D01*
X109719905Y-89352476D01*
X109672286Y-89447714D01*
X109624667Y-89495333D01*
X109529429Y-89542952D01*
X109338952Y-89542952D01*
X109243714Y-89590571D01*
X109196095Y-89638190D01*
X109148476Y-89733429D01*
X109148476Y-89923905D01*
X109196095Y-90019143D01*
X109243714Y-90066762D01*
X109338952Y-90114381D01*
X109529429Y-90114381D01*
X109624667Y-90066762D01*
X109672286Y-90019143D01*
X109719905Y-89923905D01*
X109719905Y-89733429D01*
X109672286Y-89638190D01*
X109624667Y-89590571D01*
X109529429Y-89542952D01*
X106910143Y-84589857D02*
X106957762Y-84637476D01*
X107005381Y-84780333D01*
X107005381Y-84875571D01*
X106957762Y-85018429D01*
X106862524Y-85113667D01*
X106767286Y-85161286D01*
X106576810Y-85208905D01*
X106433952Y-85208905D01*
X106243476Y-85161286D01*
X106148238Y-85113667D01*
X106053000Y-85018429D01*
X106005381Y-84875571D01*
X106005381Y-84780333D01*
X106053000Y-84637476D01*
X106100619Y-84589857D01*
X106100619Y-84208905D02*
X106053000Y-84161286D01*
X106005381Y-84066048D01*
X106005381Y-83827952D01*
X106053000Y-83732714D01*
X106100619Y-83685095D01*
X106195857Y-83637476D01*
X106291095Y-83637476D01*
X106433952Y-83685095D01*
X107005381Y-84256524D01*
X107005381Y-83637476D01*
X107005381Y-83161286D02*
X107005381Y-82970810D01*
X106957762Y-82875571D01*
X106910143Y-82827952D01*
X106767286Y-82732714D01*
X106576810Y-82685095D01*
X106195857Y-82685095D01*
X106100619Y-82732714D01*
X106053000Y-82780333D01*
X106005381Y-82875571D01*
X106005381Y-83066048D01*
X106053000Y-83161286D01*
X106100619Y-83208905D01*
X106195857Y-83256524D01*
X106433952Y-83256524D01*
X106529190Y-83208905D01*
X106576810Y-83161286D01*
X106624429Y-83066048D01*
X106624429Y-82875571D01*
X106576810Y-82780333D01*
X106529190Y-82732714D01*
X106433952Y-82685095D01*
X144502143Y-76461857D02*
X144549762Y-76509476D01*
X144597381Y-76652333D01*
X144597381Y-76747571D01*
X144549762Y-76890429D01*
X144454524Y-76985667D01*
X144359286Y-77033286D01*
X144168810Y-77080905D01*
X144025952Y-77080905D01*
X143835476Y-77033286D01*
X143740238Y-76985667D01*
X143645000Y-76890429D01*
X143597381Y-76747571D01*
X143597381Y-76652333D01*
X143645000Y-76509476D01*
X143692619Y-76461857D01*
X143597381Y-76128524D02*
X143597381Y-75509476D01*
X143978333Y-75842810D01*
X143978333Y-75699952D01*
X144025952Y-75604714D01*
X144073571Y-75557095D01*
X144168810Y-75509476D01*
X144406905Y-75509476D01*
X144502143Y-75557095D01*
X144549762Y-75604714D01*
X144597381Y-75699952D01*
X144597381Y-75985667D01*
X144549762Y-76080905D01*
X144502143Y-76128524D01*
X143597381Y-74890429D02*
X143597381Y-74795190D01*
X143645000Y-74699952D01*
X143692619Y-74652333D01*
X143787857Y-74604714D01*
X143978333Y-74557095D01*
X144216429Y-74557095D01*
X144406905Y-74604714D01*
X144502143Y-74652333D01*
X144549762Y-74699952D01*
X144597381Y-74795190D01*
X144597381Y-74890429D01*
X144549762Y-74985667D01*
X144502143Y-75033286D01*
X144406905Y-75080905D01*
X144216429Y-75128524D01*
X143978333Y-75128524D01*
X143787857Y-75080905D01*
X143692619Y-75033286D01*
X143645000Y-74985667D01*
X143597381Y-74890429D01*
X139041143Y-76461857D02*
X139088762Y-76509476D01*
X139136381Y-76652333D01*
X139136381Y-76747571D01*
X139088762Y-76890429D01*
X138993524Y-76985667D01*
X138898286Y-77033286D01*
X138707810Y-77080905D01*
X138564952Y-77080905D01*
X138374476Y-77033286D01*
X138279238Y-76985667D01*
X138184000Y-76890429D01*
X138136381Y-76747571D01*
X138136381Y-76652333D01*
X138184000Y-76509476D01*
X138231619Y-76461857D01*
X138136381Y-76128524D02*
X138136381Y-75509476D01*
X138517333Y-75842810D01*
X138517333Y-75699952D01*
X138564952Y-75604714D01*
X138612571Y-75557095D01*
X138707810Y-75509476D01*
X138945905Y-75509476D01*
X139041143Y-75557095D01*
X139088762Y-75604714D01*
X139136381Y-75699952D01*
X139136381Y-75985667D01*
X139088762Y-76080905D01*
X139041143Y-76128524D01*
X139136381Y-74557095D02*
X139136381Y-75128524D01*
X139136381Y-74842810D02*
X138136381Y-74842810D01*
X138279238Y-74938048D01*
X138374476Y-75033286D01*
X138422095Y-75128524D01*
X164607143Y-89807143D02*
X164559524Y-89854762D01*
X164416667Y-89902381D01*
X164321429Y-89902381D01*
X164178571Y-89854762D01*
X164083333Y-89759524D01*
X164035714Y-89664286D01*
X163988095Y-89473810D01*
X163988095Y-89330952D01*
X164035714Y-89140476D01*
X164083333Y-89045238D01*
X164178571Y-88950000D01*
X164321429Y-88902381D01*
X164416667Y-88902381D01*
X164559524Y-88950000D01*
X164607143Y-88997619D01*
X164940476Y-88902381D02*
X165559524Y-88902381D01*
X165226190Y-89283333D01*
X165369048Y-89283333D01*
X165464286Y-89330952D01*
X165511905Y-89378571D01*
X165559524Y-89473810D01*
X165559524Y-89711905D01*
X165511905Y-89807143D01*
X165464286Y-89854762D01*
X165369048Y-89902381D01*
X165083333Y-89902381D01*
X164988095Y-89854762D01*
X164940476Y-89807143D01*
X165940476Y-88997619D02*
X165988095Y-88950000D01*
X166083333Y-88902381D01*
X166321429Y-88902381D01*
X166416667Y-88950000D01*
X166464286Y-88997619D01*
X166511905Y-89092857D01*
X166511905Y-89188095D01*
X166464286Y-89330952D01*
X165892857Y-89902381D01*
X166511905Y-89902381D01*
X175633143Y-89257143D02*
X175585524Y-89304762D01*
X175442667Y-89352381D01*
X175347429Y-89352381D01*
X175204571Y-89304762D01*
X175109333Y-89209524D01*
X175061714Y-89114286D01*
X175014095Y-88923810D01*
X175014095Y-88780952D01*
X175061714Y-88590476D01*
X175109333Y-88495238D01*
X175204571Y-88400000D01*
X175347429Y-88352381D01*
X175442667Y-88352381D01*
X175585524Y-88400000D01*
X175633143Y-88447619D01*
X175966476Y-88352381D02*
X176585524Y-88352381D01*
X176252190Y-88733333D01*
X176395048Y-88733333D01*
X176490286Y-88780952D01*
X176537905Y-88828571D01*
X176585524Y-88923810D01*
X176585524Y-89161905D01*
X176537905Y-89257143D01*
X176490286Y-89304762D01*
X176395048Y-89352381D01*
X176109333Y-89352381D01*
X176014095Y-89304762D01*
X175966476Y-89257143D01*
X176918857Y-88352381D02*
X177537905Y-88352381D01*
X177204571Y-88733333D01*
X177347429Y-88733333D01*
X177442667Y-88780952D01*
X177490286Y-88828571D01*
X177537905Y-88923810D01*
X177537905Y-89161905D01*
X177490286Y-89257143D01*
X177442667Y-89304762D01*
X177347429Y-89352381D01*
X177061714Y-89352381D01*
X176966476Y-89304762D01*
X176918857Y-89257143D01*
X175633143Y-105200143D02*
X175585524Y-105247762D01*
X175442667Y-105295381D01*
X175347429Y-105295381D01*
X175204571Y-105247762D01*
X175109333Y-105152524D01*
X175061714Y-105057286D01*
X175014095Y-104866810D01*
X175014095Y-104723952D01*
X175061714Y-104533476D01*
X175109333Y-104438238D01*
X175204571Y-104343000D01*
X175347429Y-104295381D01*
X175442667Y-104295381D01*
X175585524Y-104343000D01*
X175633143Y-104390619D01*
X175966476Y-104295381D02*
X176585524Y-104295381D01*
X176252190Y-104676333D01*
X176395048Y-104676333D01*
X176490286Y-104723952D01*
X176537905Y-104771571D01*
X176585524Y-104866810D01*
X176585524Y-105104905D01*
X176537905Y-105200143D01*
X176490286Y-105247762D01*
X176395048Y-105295381D01*
X176109333Y-105295381D01*
X176014095Y-105247762D01*
X175966476Y-105200143D01*
X177442667Y-104628714D02*
X177442667Y-105295381D01*
X177204571Y-104247762D02*
X176966476Y-104962048D01*
X177585524Y-104962048D01*
X121769143Y-93606857D02*
X121816762Y-93654476D01*
X121864381Y-93797333D01*
X121864381Y-93892571D01*
X121816762Y-94035429D01*
X121721524Y-94130667D01*
X121626286Y-94178286D01*
X121435810Y-94225905D01*
X121292952Y-94225905D01*
X121102476Y-94178286D01*
X121007238Y-94130667D01*
X120912000Y-94035429D01*
X120864381Y-93892571D01*
X120864381Y-93797333D01*
X120912000Y-93654476D01*
X120959619Y-93606857D01*
X120864381Y-93273524D02*
X120864381Y-92654476D01*
X121245333Y-92987810D01*
X121245333Y-92844952D01*
X121292952Y-92749714D01*
X121340571Y-92702095D01*
X121435810Y-92654476D01*
X121673905Y-92654476D01*
X121769143Y-92702095D01*
X121816762Y-92749714D01*
X121864381Y-92844952D01*
X121864381Y-93130667D01*
X121816762Y-93225905D01*
X121769143Y-93273524D01*
X120864381Y-91749714D02*
X120864381Y-92225905D01*
X121340571Y-92273524D01*
X121292952Y-92225905D01*
X121245333Y-92130667D01*
X121245333Y-91892571D01*
X121292952Y-91797333D01*
X121340571Y-91749714D01*
X121435810Y-91702095D01*
X121673905Y-91702095D01*
X121769143Y-91749714D01*
X121816762Y-91797333D01*
X121864381Y-91892571D01*
X121864381Y-92130667D01*
X121816762Y-92225905D01*
X121769143Y-92273524D01*
X121658143Y-102592143D02*
X121610524Y-102639762D01*
X121467667Y-102687381D01*
X121372429Y-102687381D01*
X121229571Y-102639762D01*
X121134333Y-102544524D01*
X121086714Y-102449286D01*
X121039095Y-102258810D01*
X121039095Y-102115952D01*
X121086714Y-101925476D01*
X121134333Y-101830238D01*
X121229571Y-101735000D01*
X121372429Y-101687381D01*
X121467667Y-101687381D01*
X121610524Y-101735000D01*
X121658143Y-101782619D01*
X121991476Y-101687381D02*
X122610524Y-101687381D01*
X122277190Y-102068333D01*
X122420048Y-102068333D01*
X122515286Y-102115952D01*
X122562905Y-102163571D01*
X122610524Y-102258810D01*
X122610524Y-102496905D01*
X122562905Y-102592143D01*
X122515286Y-102639762D01*
X122420048Y-102687381D01*
X122134333Y-102687381D01*
X122039095Y-102639762D01*
X121991476Y-102592143D01*
X123467667Y-101687381D02*
X123277190Y-101687381D01*
X123181952Y-101735000D01*
X123134333Y-101782619D01*
X123039095Y-101925476D01*
X122991476Y-102115952D01*
X122991476Y-102496905D01*
X123039095Y-102592143D01*
X123086714Y-102639762D01*
X123181952Y-102687381D01*
X123372429Y-102687381D01*
X123467667Y-102639762D01*
X123515286Y-102592143D01*
X123562905Y-102496905D01*
X123562905Y-102258810D01*
X123515286Y-102163571D01*
X123467667Y-102115952D01*
X123372429Y-102068333D01*
X123181952Y-102068333D01*
X123086714Y-102115952D01*
X123039095Y-102163571D01*
X122991476Y-102258810D01*
X127887505Y-80462381D02*
X127887505Y-79462381D01*
X128125600Y-79462381D01*
X128268458Y-79510000D01*
X128363696Y-79605238D01*
X128411315Y-79700476D01*
X128458934Y-79890952D01*
X128458934Y-80033810D01*
X128411315Y-80224286D01*
X128363696Y-80319524D01*
X128268458Y-80414762D01*
X128125600Y-80462381D01*
X127887505Y-80462381D01*
X129411315Y-80462381D02*
X128839886Y-80462381D01*
X129125600Y-80462381D02*
X129125600Y-79462381D01*
X129030362Y-79605238D01*
X128935124Y-79700476D01*
X128839886Y-79748095D01*
X109516667Y-96152381D02*
X109516667Y-96866667D01*
X109469047Y-97009524D01*
X109373809Y-97104762D01*
X109230952Y-97152381D01*
X109135714Y-97152381D01*
X110516667Y-97152381D02*
X109945238Y-97152381D01*
X110230952Y-97152381D02*
X110230952Y-96152381D01*
X110135714Y-96295238D01*
X110040476Y-96390476D01*
X109945238Y-96438095D01*
X118181381Y-92622666D02*
X118181381Y-93098857D01*
X117181381Y-93098857D01*
X118181381Y-91765523D02*
X118181381Y-92336952D01*
X118181381Y-92051238D02*
X117181381Y-92051238D01*
X117324238Y-92146476D01*
X117419476Y-92241714D01*
X117467095Y-92336952D01*
X149383334Y-97202381D02*
X148907143Y-97202381D01*
X148907143Y-96202381D01*
X149669048Y-96297619D02*
X149716667Y-96250000D01*
X149811905Y-96202381D01*
X150050001Y-96202381D01*
X150145239Y-96250000D01*
X150192858Y-96297619D01*
X150240477Y-96392857D01*
X150240477Y-96488095D01*
X150192858Y-96630952D01*
X149621429Y-97202381D01*
X150240477Y-97202381D01*
X160051762Y-88431619D02*
X159956524Y-88384000D01*
X159861286Y-88288762D01*
X159718429Y-88145905D01*
X159623190Y-88098286D01*
X159527952Y-88098286D01*
X159575571Y-88336381D02*
X159480333Y-88288762D01*
X159385095Y-88193524D01*
X159337476Y-88003048D01*
X159337476Y-87669714D01*
X159385095Y-87479238D01*
X159480333Y-87384000D01*
X159575571Y-87336381D01*
X159766048Y-87336381D01*
X159861286Y-87384000D01*
X159956524Y-87479238D01*
X160004143Y-87669714D01*
X160004143Y-88003048D01*
X159956524Y-88193524D01*
X159861286Y-88288762D01*
X159766048Y-88336381D01*
X159575571Y-88336381D01*
X160956524Y-88336381D02*
X160385095Y-88336381D01*
X160670809Y-88336381D02*
X160670809Y-87336381D01*
X160575571Y-87479238D01*
X160480333Y-87574476D01*
X160385095Y-87622095D01*
X156622762Y-93384619D02*
X156527524Y-93337000D01*
X156432286Y-93241762D01*
X156289429Y-93098905D01*
X156194190Y-93051286D01*
X156098952Y-93051286D01*
X156146571Y-93289381D02*
X156051333Y-93241762D01*
X155956095Y-93146524D01*
X155908476Y-92956048D01*
X155908476Y-92622714D01*
X155956095Y-92432238D01*
X156051333Y-92337000D01*
X156146571Y-92289381D01*
X156337048Y-92289381D01*
X156432286Y-92337000D01*
X156527524Y-92432238D01*
X156575143Y-92622714D01*
X156575143Y-92956048D01*
X156527524Y-93146524D01*
X156432286Y-93241762D01*
X156337048Y-93289381D01*
X156146571Y-93289381D01*
X156956095Y-92384619D02*
X157003714Y-92337000D01*
X157098952Y-92289381D01*
X157337048Y-92289381D01*
X157432286Y-92337000D01*
X157479905Y-92384619D01*
X157527524Y-92479857D01*
X157527524Y-92575095D01*
X157479905Y-92717952D01*
X156908476Y-93289381D01*
X157527524Y-93289381D01*
X141676381Y-76366666D02*
X141200190Y-76700000D01*
X141676381Y-76938095D02*
X140676381Y-76938095D01*
X140676381Y-76557142D01*
X140724000Y-76461904D01*
X140771619Y-76414285D01*
X140866857Y-76366666D01*
X141009714Y-76366666D01*
X141104952Y-76414285D01*
X141152571Y-76461904D01*
X141200190Y-76557142D01*
X141200190Y-76938095D01*
X141676381Y-75414285D02*
X141676381Y-75985714D01*
X141676381Y-75700000D02*
X140676381Y-75700000D01*
X140819238Y-75795238D01*
X140914476Y-75890476D01*
X140962095Y-75985714D01*
X131532334Y-73409381D02*
X131199000Y-72933190D01*
X130960905Y-73409381D02*
X130960905Y-72409381D01*
X131341858Y-72409381D01*
X131437096Y-72457000D01*
X131484715Y-72504619D01*
X131532334Y-72599857D01*
X131532334Y-72742714D01*
X131484715Y-72837952D01*
X131437096Y-72885571D01*
X131341858Y-72933190D01*
X130960905Y-72933190D01*
X131913286Y-72504619D02*
X131960905Y-72457000D01*
X132056143Y-72409381D01*
X132294239Y-72409381D01*
X132389477Y-72457000D01*
X132437096Y-72504619D01*
X132484715Y-72599857D01*
X132484715Y-72695095D01*
X132437096Y-72837952D01*
X131865667Y-73409381D01*
X132484715Y-73409381D01*
X136469381Y-76366666D02*
X135993190Y-76700000D01*
X136469381Y-76938095D02*
X135469381Y-76938095D01*
X135469381Y-76557142D01*
X135517000Y-76461904D01*
X135564619Y-76414285D01*
X135659857Y-76366666D01*
X135802714Y-76366666D01*
X135897952Y-76414285D01*
X135945571Y-76461904D01*
X135993190Y-76557142D01*
X135993190Y-76938095D01*
X135469381Y-76033333D02*
X135469381Y-75414285D01*
X135850333Y-75747619D01*
X135850333Y-75604761D01*
X135897952Y-75509523D01*
X135945571Y-75461904D01*
X136040810Y-75414285D01*
X136278905Y-75414285D01*
X136374143Y-75461904D01*
X136421762Y-75509523D01*
X136469381Y-75604761D01*
X136469381Y-75890476D01*
X136421762Y-75985714D01*
X136374143Y-76033333D01*
X141295381Y-90717666D02*
X140819190Y-91051000D01*
X141295381Y-91289095D02*
X140295381Y-91289095D01*
X140295381Y-90908142D01*
X140343000Y-90812904D01*
X140390619Y-90765285D01*
X140485857Y-90717666D01*
X140628714Y-90717666D01*
X140723952Y-90765285D01*
X140771571Y-90812904D01*
X140819190Y-90908142D01*
X140819190Y-91289095D01*
X140628714Y-89860523D02*
X141295381Y-89860523D01*
X140247762Y-90098619D02*
X140962048Y-90336714D01*
X140962048Y-89717666D01*
X126465034Y-84031081D02*
X126131700Y-83554890D01*
X125893605Y-84031081D02*
X125893605Y-83031081D01*
X126274558Y-83031081D01*
X126369796Y-83078700D01*
X126417415Y-83126319D01*
X126465034Y-83221557D01*
X126465034Y-83364414D01*
X126417415Y-83459652D01*
X126369796Y-83507271D01*
X126274558Y-83554890D01*
X125893605Y-83554890D01*
X127369796Y-83031081D02*
X126893605Y-83031081D01*
X126845986Y-83507271D01*
X126893605Y-83459652D01*
X126988843Y-83412033D01*
X127226939Y-83412033D01*
X127322177Y-83459652D01*
X127369796Y-83507271D01*
X127417415Y-83602510D01*
X127417415Y-83840605D01*
X127369796Y-83935843D01*
X127322177Y-83983462D01*
X127226939Y-84031081D01*
X126988843Y-84031081D01*
X126893605Y-83983462D01*
X126845986Y-83935843D01*
X138755381Y-90717666D02*
X138279190Y-91051000D01*
X138755381Y-91289095D02*
X137755381Y-91289095D01*
X137755381Y-90908142D01*
X137803000Y-90812904D01*
X137850619Y-90765285D01*
X137945857Y-90717666D01*
X138088714Y-90717666D01*
X138183952Y-90765285D01*
X138231571Y-90812904D01*
X138279190Y-90908142D01*
X138279190Y-91289095D01*
X137755381Y-89860523D02*
X137755381Y-90051000D01*
X137803000Y-90146238D01*
X137850619Y-90193857D01*
X137993476Y-90289095D01*
X138183952Y-90336714D01*
X138564905Y-90336714D01*
X138660143Y-90289095D01*
X138707762Y-90241476D01*
X138755381Y-90146238D01*
X138755381Y-89955761D01*
X138707762Y-89860523D01*
X138660143Y-89812904D01*
X138564905Y-89765285D01*
X138326810Y-89765285D01*
X138231571Y-89812904D01*
X138183952Y-89860523D01*
X138136333Y-89955761D01*
X138136333Y-90146238D01*
X138183952Y-90241476D01*
X138231571Y-90289095D01*
X138326810Y-90336714D01*
X117814081Y-82348366D02*
X117337890Y-82681700D01*
X117814081Y-82919795D02*
X116814081Y-82919795D01*
X116814081Y-82538842D01*
X116861700Y-82443604D01*
X116909319Y-82395985D01*
X117004557Y-82348366D01*
X117147414Y-82348366D01*
X117242652Y-82395985D01*
X117290271Y-82443604D01*
X117337890Y-82538842D01*
X117337890Y-82919795D01*
X116814081Y-82015033D02*
X116814081Y-81348366D01*
X117814081Y-81776938D01*
X125347434Y-73646681D02*
X125014100Y-73170490D01*
X124776005Y-73646681D02*
X124776005Y-72646681D01*
X125156958Y-72646681D01*
X125252196Y-72694300D01*
X125299815Y-72741919D01*
X125347434Y-72837157D01*
X125347434Y-72980014D01*
X125299815Y-73075252D01*
X125252196Y-73122871D01*
X125156958Y-73170490D01*
X124776005Y-73170490D01*
X125918862Y-73075252D02*
X125823624Y-73027633D01*
X125776005Y-72980014D01*
X125728386Y-72884776D01*
X125728386Y-72837157D01*
X125776005Y-72741919D01*
X125823624Y-72694300D01*
X125918862Y-72646681D01*
X126109339Y-72646681D01*
X126204577Y-72694300D01*
X126252196Y-72741919D01*
X126299815Y-72837157D01*
X126299815Y-72884776D01*
X126252196Y-72980014D01*
X126204577Y-73027633D01*
X126109339Y-73075252D01*
X125918862Y-73075252D01*
X125823624Y-73122871D01*
X125776005Y-73170490D01*
X125728386Y-73265729D01*
X125728386Y-73456205D01*
X125776005Y-73551443D01*
X125823624Y-73599062D01*
X125918862Y-73646681D01*
X126109339Y-73646681D01*
X126204577Y-73599062D01*
X126252196Y-73551443D01*
X126299815Y-73456205D01*
X126299815Y-73265729D01*
X126252196Y-73170490D01*
X126204577Y-73122871D01*
X126109339Y-73075252D01*
X126690381Y-93384666D02*
X126214190Y-93718000D01*
X126690381Y-93956095D02*
X125690381Y-93956095D01*
X125690381Y-93575142D01*
X125738000Y-93479904D01*
X125785619Y-93432285D01*
X125880857Y-93384666D01*
X126023714Y-93384666D01*
X126118952Y-93432285D01*
X126166571Y-93479904D01*
X126214190Y-93575142D01*
X126214190Y-93956095D01*
X126690381Y-92908476D02*
X126690381Y-92718000D01*
X126642762Y-92622761D01*
X126595143Y-92575142D01*
X126452286Y-92479904D01*
X126261810Y-92432285D01*
X125880857Y-92432285D01*
X125785619Y-92479904D01*
X125738000Y-92527523D01*
X125690381Y-92622761D01*
X125690381Y-92813238D01*
X125738000Y-92908476D01*
X125785619Y-92956095D01*
X125880857Y-93003714D01*
X126118952Y-93003714D01*
X126214190Y-92956095D01*
X126261810Y-92908476D01*
X126309429Y-92813238D01*
X126309429Y-92622761D01*
X126261810Y-92527523D01*
X126214190Y-92479904D01*
X126118952Y-92432285D01*
X163207143Y-78452381D02*
X162873809Y-77976190D01*
X162635714Y-78452381D02*
X162635714Y-77452381D01*
X163016667Y-77452381D01*
X163111905Y-77500000D01*
X163159524Y-77547619D01*
X163207143Y-77642857D01*
X163207143Y-77785714D01*
X163159524Y-77880952D01*
X163111905Y-77928571D01*
X163016667Y-77976190D01*
X162635714Y-77976190D01*
X164159524Y-78452381D02*
X163588095Y-78452381D01*
X163873809Y-78452381D02*
X163873809Y-77452381D01*
X163778571Y-77595238D01*
X163683333Y-77690476D01*
X163588095Y-77738095D01*
X164778571Y-77452381D02*
X164873810Y-77452381D01*
X164969048Y-77500000D01*
X165016667Y-77547619D01*
X165064286Y-77642857D01*
X165111905Y-77833333D01*
X165111905Y-78071429D01*
X165064286Y-78261905D01*
X165016667Y-78357143D01*
X164969048Y-78404762D01*
X164873810Y-78452381D01*
X164778571Y-78452381D01*
X164683333Y-78404762D01*
X164635714Y-78357143D01*
X164588095Y-78261905D01*
X164540476Y-78071429D01*
X164540476Y-77833333D01*
X164588095Y-77642857D01*
X164635714Y-77547619D01*
X164683333Y-77500000D01*
X164778571Y-77452381D01*
X165907143Y-72802381D02*
X165573809Y-72326190D01*
X165335714Y-72802381D02*
X165335714Y-71802381D01*
X165716667Y-71802381D01*
X165811905Y-71850000D01*
X165859524Y-71897619D01*
X165907143Y-71992857D01*
X165907143Y-72135714D01*
X165859524Y-72230952D01*
X165811905Y-72278571D01*
X165716667Y-72326190D01*
X165335714Y-72326190D01*
X166859524Y-72802381D02*
X166288095Y-72802381D01*
X166573809Y-72802381D02*
X166573809Y-71802381D01*
X166478571Y-71945238D01*
X166383333Y-72040476D01*
X166288095Y-72088095D01*
X167811905Y-72802381D02*
X167240476Y-72802381D01*
X167526190Y-72802381D02*
X167526190Y-71802381D01*
X167430952Y-71945238D01*
X167335714Y-72040476D01*
X167240476Y-72088095D01*
X165374581Y-81592657D02*
X164898390Y-81925991D01*
X165374581Y-82164086D02*
X164374581Y-82164086D01*
X164374581Y-81783133D01*
X164422200Y-81687895D01*
X164469819Y-81640276D01*
X164565057Y-81592657D01*
X164707914Y-81592657D01*
X164803152Y-81640276D01*
X164850771Y-81687895D01*
X164898390Y-81783133D01*
X164898390Y-82164086D01*
X165374581Y-80640276D02*
X165374581Y-81211705D01*
X165374581Y-80925991D02*
X164374581Y-80925991D01*
X164517438Y-81021229D01*
X164612676Y-81116467D01*
X164660295Y-81211705D01*
X164469819Y-80259324D02*
X164422200Y-80211705D01*
X164374581Y-80116467D01*
X164374581Y-79878371D01*
X164422200Y-79783133D01*
X164469819Y-79735514D01*
X164565057Y-79687895D01*
X164660295Y-79687895D01*
X164803152Y-79735514D01*
X165374581Y-80306943D01*
X165374581Y-79687895D01*
X161259781Y-86088457D02*
X160783590Y-86421791D01*
X161259781Y-86659886D02*
X160259781Y-86659886D01*
X160259781Y-86278933D01*
X160307400Y-86183695D01*
X160355019Y-86136076D01*
X160450257Y-86088457D01*
X160593114Y-86088457D01*
X160688352Y-86136076D01*
X160735971Y-86183695D01*
X160783590Y-86278933D01*
X160783590Y-86659886D01*
X161259781Y-85136076D02*
X161259781Y-85707505D01*
X161259781Y-85421791D02*
X160259781Y-85421791D01*
X160402638Y-85517029D01*
X160497876Y-85612267D01*
X160545495Y-85707505D01*
X160259781Y-84802743D02*
X160259781Y-84183695D01*
X160640733Y-84517029D01*
X160640733Y-84374171D01*
X160688352Y-84278933D01*
X160735971Y-84231314D01*
X160831210Y-84183695D01*
X161069305Y-84183695D01*
X161164543Y-84231314D01*
X161212162Y-84278933D01*
X161259781Y-84374171D01*
X161259781Y-84659886D01*
X161212162Y-84755124D01*
X161164543Y-84802743D01*
X179902381Y-74692857D02*
X179426190Y-75026191D01*
X179902381Y-75264286D02*
X178902381Y-75264286D01*
X178902381Y-74883333D01*
X178950000Y-74788095D01*
X178997619Y-74740476D01*
X179092857Y-74692857D01*
X179235714Y-74692857D01*
X179330952Y-74740476D01*
X179378571Y-74788095D01*
X179426190Y-74883333D01*
X179426190Y-75264286D01*
X179902381Y-73740476D02*
X179902381Y-74311905D01*
X179902381Y-74026191D02*
X178902381Y-74026191D01*
X179045238Y-74121429D01*
X179140476Y-74216667D01*
X179188095Y-74311905D01*
X179235714Y-72883333D02*
X179902381Y-72883333D01*
X178854762Y-73121429D02*
X179569048Y-73359524D01*
X179569048Y-72740476D01*
X182516543Y-75280781D02*
X182183209Y-74804590D01*
X181945114Y-75280781D02*
X181945114Y-74280781D01*
X182326067Y-74280781D01*
X182421305Y-74328400D01*
X182468924Y-74376019D01*
X182516543Y-74471257D01*
X182516543Y-74614114D01*
X182468924Y-74709352D01*
X182421305Y-74756971D01*
X182326067Y-74804590D01*
X181945114Y-74804590D01*
X183468924Y-75280781D02*
X182897495Y-75280781D01*
X183183209Y-75280781D02*
X183183209Y-74280781D01*
X183087971Y-74423638D01*
X182992733Y-74518876D01*
X182897495Y-74566495D01*
X184373686Y-74280781D02*
X183897495Y-74280781D01*
X183849876Y-74756971D01*
X183897495Y-74709352D01*
X183992733Y-74661733D01*
X184230829Y-74661733D01*
X184326067Y-74709352D01*
X184373686Y-74756971D01*
X184421305Y-74852210D01*
X184421305Y-75090305D01*
X184373686Y-75185543D01*
X184326067Y-75233162D01*
X184230829Y-75280781D01*
X183992733Y-75280781D01*
X183897495Y-75233162D01*
X183849876Y-75185543D01*
X182443381Y-89923857D02*
X181967190Y-90257191D01*
X182443381Y-90495286D02*
X181443381Y-90495286D01*
X181443381Y-90114333D01*
X181491000Y-90019095D01*
X181538619Y-89971476D01*
X181633857Y-89923857D01*
X181776714Y-89923857D01*
X181871952Y-89971476D01*
X181919571Y-90019095D01*
X181967190Y-90114333D01*
X181967190Y-90495286D01*
X182443381Y-88971476D02*
X182443381Y-89542905D01*
X182443381Y-89257191D02*
X181443381Y-89257191D01*
X181586238Y-89352429D01*
X181681476Y-89447667D01*
X181729095Y-89542905D01*
X181443381Y-88114333D02*
X181443381Y-88304810D01*
X181491000Y-88400048D01*
X181538619Y-88447667D01*
X181681476Y-88542905D01*
X181871952Y-88590524D01*
X182252905Y-88590524D01*
X182348143Y-88542905D01*
X182395762Y-88495286D01*
X182443381Y-88400048D01*
X182443381Y-88209571D01*
X182395762Y-88114333D01*
X182348143Y-88066714D01*
X182252905Y-88019095D01*
X182014810Y-88019095D01*
X181919571Y-88066714D01*
X181871952Y-88114333D01*
X181824333Y-88209571D01*
X181824333Y-88400048D01*
X181871952Y-88495286D01*
X181919571Y-88542905D01*
X182014810Y-88590524D01*
X182638381Y-104782857D02*
X182162190Y-105116191D01*
X182638381Y-105354286D02*
X181638381Y-105354286D01*
X181638381Y-104973333D01*
X181686000Y-104878095D01*
X181733619Y-104830476D01*
X181828857Y-104782857D01*
X181971714Y-104782857D01*
X182066952Y-104830476D01*
X182114571Y-104878095D01*
X182162190Y-104973333D01*
X182162190Y-105354286D01*
X182638381Y-103830476D02*
X182638381Y-104401905D01*
X182638381Y-104116191D02*
X181638381Y-104116191D01*
X181781238Y-104211429D01*
X181876476Y-104306667D01*
X181924095Y-104401905D01*
X181638381Y-103497143D02*
X181638381Y-102830476D01*
X182638381Y-103259048D01*
X148661381Y-112910857D02*
X148185190Y-113244191D01*
X148661381Y-113482286D02*
X147661381Y-113482286D01*
X147661381Y-113101333D01*
X147709000Y-113006095D01*
X147756619Y-112958476D01*
X147851857Y-112910857D01*
X147994714Y-112910857D01*
X148089952Y-112958476D01*
X148137571Y-113006095D01*
X148185190Y-113101333D01*
X148185190Y-113482286D01*
X148661381Y-111958476D02*
X148661381Y-112529905D01*
X148661381Y-112244191D02*
X147661381Y-112244191D01*
X147804238Y-112339429D01*
X147899476Y-112434667D01*
X147947095Y-112529905D01*
X148089952Y-111387048D02*
X148042333Y-111482286D01*
X147994714Y-111529905D01*
X147899476Y-111577524D01*
X147851857Y-111577524D01*
X147756619Y-111529905D01*
X147709000Y-111482286D01*
X147661381Y-111387048D01*
X147661381Y-111196571D01*
X147709000Y-111101333D01*
X147756619Y-111053714D01*
X147851857Y-111006095D01*
X147899476Y-111006095D01*
X147994714Y-111053714D01*
X148042333Y-111101333D01*
X148089952Y-111196571D01*
X148089952Y-111387048D01*
X148137571Y-111482286D01*
X148185190Y-111529905D01*
X148280429Y-111577524D01*
X148470905Y-111577524D01*
X148566143Y-111529905D01*
X148613762Y-111482286D01*
X148661381Y-111387048D01*
X148661381Y-111196571D01*
X148613762Y-111101333D01*
X148566143Y-111053714D01*
X148470905Y-111006095D01*
X148280429Y-111006095D01*
X148185190Y-111053714D01*
X148137571Y-111101333D01*
X148089952Y-111196571D01*
X143708381Y-91828857D02*
X143232190Y-92162191D01*
X143708381Y-92400286D02*
X142708381Y-92400286D01*
X142708381Y-92019333D01*
X142756000Y-91924095D01*
X142803619Y-91876476D01*
X142898857Y-91828857D01*
X143041714Y-91828857D01*
X143136952Y-91876476D01*
X143184571Y-91924095D01*
X143232190Y-92019333D01*
X143232190Y-92400286D01*
X143708381Y-90876476D02*
X143708381Y-91447905D01*
X143708381Y-91162191D02*
X142708381Y-91162191D01*
X142851238Y-91257429D01*
X142946476Y-91352667D01*
X142994095Y-91447905D01*
X143708381Y-90400286D02*
X143708381Y-90209810D01*
X143660762Y-90114571D01*
X143613143Y-90066952D01*
X143470286Y-89971714D01*
X143279810Y-89924095D01*
X142898857Y-89924095D01*
X142803619Y-89971714D01*
X142756000Y-90019333D01*
X142708381Y-90114571D01*
X142708381Y-90305048D01*
X142756000Y-90400286D01*
X142803619Y-90447905D01*
X142898857Y-90495524D01*
X143136952Y-90495524D01*
X143232190Y-90447905D01*
X143279810Y-90400286D01*
X143327429Y-90305048D01*
X143327429Y-90114571D01*
X143279810Y-90019333D01*
X143232190Y-89971714D01*
X143136952Y-89924095D01*
X148912343Y-87853781D02*
X148579009Y-87377590D01*
X148340914Y-87853781D02*
X148340914Y-86853781D01*
X148721867Y-86853781D01*
X148817105Y-86901400D01*
X148864724Y-86949019D01*
X148912343Y-87044257D01*
X148912343Y-87187114D01*
X148864724Y-87282352D01*
X148817105Y-87329971D01*
X148721867Y-87377590D01*
X148340914Y-87377590D01*
X149293295Y-86949019D02*
X149340914Y-86901400D01*
X149436152Y-86853781D01*
X149674248Y-86853781D01*
X149769486Y-86901400D01*
X149817105Y-86949019D01*
X149864724Y-87044257D01*
X149864724Y-87139495D01*
X149817105Y-87282352D01*
X149245676Y-87853781D01*
X149864724Y-87853781D01*
X150483771Y-86853781D02*
X150579010Y-86853781D01*
X150674248Y-86901400D01*
X150721867Y-86949019D01*
X150769486Y-87044257D01*
X150817105Y-87234733D01*
X150817105Y-87472829D01*
X150769486Y-87663305D01*
X150721867Y-87758543D01*
X150674248Y-87806162D01*
X150579010Y-87853781D01*
X150483771Y-87853781D01*
X150388533Y-87806162D01*
X150340914Y-87758543D01*
X150293295Y-87663305D01*
X150245676Y-87472829D01*
X150245676Y-87234733D01*
X150293295Y-87044257D01*
X150340914Y-86949019D01*
X150388533Y-86901400D01*
X150483771Y-86853781D01*
X124277381Y-92590857D02*
X123801190Y-92924191D01*
X124277381Y-93162286D02*
X123277381Y-93162286D01*
X123277381Y-92781333D01*
X123325000Y-92686095D01*
X123372619Y-92638476D01*
X123467857Y-92590857D01*
X123610714Y-92590857D01*
X123705952Y-92638476D01*
X123753571Y-92686095D01*
X123801190Y-92781333D01*
X123801190Y-93162286D01*
X123372619Y-92209905D02*
X123325000Y-92162286D01*
X123277381Y-92067048D01*
X123277381Y-91828952D01*
X123325000Y-91733714D01*
X123372619Y-91686095D01*
X123467857Y-91638476D01*
X123563095Y-91638476D01*
X123705952Y-91686095D01*
X124277381Y-92257524D01*
X124277381Y-91638476D01*
X124277381Y-90686095D02*
X124277381Y-91257524D01*
X124277381Y-90971810D02*
X123277381Y-90971810D01*
X123420238Y-91067048D01*
X123515476Y-91162286D01*
X123563095Y-91257524D01*
X134485143Y-102560381D02*
X134151809Y-102084190D01*
X133913714Y-102560381D02*
X133913714Y-101560381D01*
X134294667Y-101560381D01*
X134389905Y-101608000D01*
X134437524Y-101655619D01*
X134485143Y-101750857D01*
X134485143Y-101893714D01*
X134437524Y-101988952D01*
X134389905Y-102036571D01*
X134294667Y-102084190D01*
X133913714Y-102084190D01*
X134866095Y-101655619D02*
X134913714Y-101608000D01*
X135008952Y-101560381D01*
X135247048Y-101560381D01*
X135342286Y-101608000D01*
X135389905Y-101655619D01*
X135437524Y-101750857D01*
X135437524Y-101846095D01*
X135389905Y-101988952D01*
X134818476Y-102560381D01*
X135437524Y-102560381D01*
X135818476Y-101655619D02*
X135866095Y-101608000D01*
X135961333Y-101560381D01*
X136199429Y-101560381D01*
X136294667Y-101608000D01*
X136342286Y-101655619D01*
X136389905Y-101750857D01*
X136389905Y-101846095D01*
X136342286Y-101988952D01*
X135770857Y-102560381D01*
X136389905Y-102560381D01*
X111538095Y-83402381D02*
X111538095Y-84211905D01*
X111585714Y-84307143D01*
X111633333Y-84354762D01*
X111728571Y-84402381D01*
X111919048Y-84402381D01*
X112014286Y-84354762D01*
X112061905Y-84307143D01*
X112109524Y-84211905D01*
X112109524Y-83402381D01*
X113109524Y-84402381D02*
X112538095Y-84402381D01*
X112823809Y-84402381D02*
X112823809Y-83402381D01*
X112728571Y-83545238D01*
X112633333Y-83640476D01*
X112538095Y-83688095D01*
X125069695Y-78801981D02*
X125069695Y-79611505D01*
X125117314Y-79706743D01*
X125164933Y-79754362D01*
X125260171Y-79801981D01*
X125450648Y-79801981D01*
X125545886Y-79754362D01*
X125593505Y-79706743D01*
X125641124Y-79611505D01*
X125641124Y-78801981D01*
X126069695Y-78897219D02*
X126117314Y-78849600D01*
X126212552Y-78801981D01*
X126450648Y-78801981D01*
X126545886Y-78849600D01*
X126593505Y-78897219D01*
X126641124Y-78992457D01*
X126641124Y-79087695D01*
X126593505Y-79230552D01*
X126022076Y-79801981D01*
X126641124Y-79801981D01*
X131114895Y-86848981D02*
X131114895Y-87658505D01*
X131162514Y-87753743D01*
X131210133Y-87801362D01*
X131305371Y-87848981D01*
X131495848Y-87848981D01*
X131591086Y-87801362D01*
X131638705Y-87753743D01*
X131686324Y-87658505D01*
X131686324Y-86848981D01*
X132067276Y-86848981D02*
X132686324Y-86848981D01*
X132352990Y-87229933D01*
X132495848Y-87229933D01*
X132591086Y-87277552D01*
X132638705Y-87325171D01*
X132686324Y-87420410D01*
X132686324Y-87658505D01*
X132638705Y-87753743D01*
X132591086Y-87801362D01*
X132495848Y-87848981D01*
X132210133Y-87848981D01*
X132114895Y-87801362D01*
X132067276Y-87753743D01*
X152908095Y-79589381D02*
X152908095Y-80398905D01*
X152955714Y-80494143D01*
X153003333Y-80541762D01*
X153098571Y-80589381D01*
X153289048Y-80589381D01*
X153384286Y-80541762D01*
X153431905Y-80494143D01*
X153479524Y-80398905D01*
X153479524Y-79589381D01*
X154384286Y-79922714D02*
X154384286Y-80589381D01*
X154146190Y-79541762D02*
X153908095Y-80256048D01*
X154527143Y-80256048D01*
X171069095Y-77176381D02*
X171069095Y-77985905D01*
X171116714Y-78081143D01*
X171164333Y-78128762D01*
X171259571Y-78176381D01*
X171450048Y-78176381D01*
X171545286Y-78128762D01*
X171592905Y-78081143D01*
X171640524Y-77985905D01*
X171640524Y-77176381D01*
X172592905Y-77176381D02*
X172116714Y-77176381D01*
X172069095Y-77652571D01*
X172116714Y-77604952D01*
X172211952Y-77557333D01*
X172450048Y-77557333D01*
X172545286Y-77604952D01*
X172592905Y-77652571D01*
X172640524Y-77747810D01*
X172640524Y-77985905D01*
X172592905Y-78081143D01*
X172545286Y-78128762D01*
X172450048Y-78176381D01*
X172211952Y-78176381D01*
X172116714Y-78128762D01*
X172069095Y-78081143D01*
X170815095Y-83795381D02*
X170815095Y-84604905D01*
X170862714Y-84700143D01*
X170910333Y-84747762D01*
X171005571Y-84795381D01*
X171196048Y-84795381D01*
X171291286Y-84747762D01*
X171338905Y-84700143D01*
X171386524Y-84604905D01*
X171386524Y-83795381D01*
X172291286Y-83795381D02*
X172100809Y-83795381D01*
X172005571Y-83843000D01*
X171957952Y-83890619D01*
X171862714Y-84033476D01*
X171815095Y-84223952D01*
X171815095Y-84604905D01*
X171862714Y-84700143D01*
X171910333Y-84747762D01*
X172005571Y-84795381D01*
X172196048Y-84795381D01*
X172291286Y-84747762D01*
X172338905Y-84700143D01*
X172386524Y-84604905D01*
X172386524Y-84366810D01*
X172338905Y-84271571D01*
X172291286Y-84223952D01*
X172196048Y-84176333D01*
X172005571Y-84176333D01*
X171910333Y-84223952D01*
X171862714Y-84271571D01*
X171815095Y-84366810D01*
X163788095Y-96252381D02*
X163788095Y-97061905D01*
X163835714Y-97157143D01*
X163883333Y-97204762D01*
X163978571Y-97252381D01*
X164169048Y-97252381D01*
X164264286Y-97204762D01*
X164311905Y-97157143D01*
X164359524Y-97061905D01*
X164359524Y-96252381D01*
X164740476Y-96252381D02*
X165407143Y-96252381D01*
X164978571Y-97252381D01*
X178688095Y-96152381D02*
X178688095Y-96961905D01*
X178735714Y-97057143D01*
X178783333Y-97104762D01*
X178878571Y-97152381D01*
X179069048Y-97152381D01*
X179164286Y-97104762D01*
X179211905Y-97057143D01*
X179259524Y-96961905D01*
X179259524Y-96152381D01*
X179878571Y-96580952D02*
X179783333Y-96533333D01*
X179735714Y-96485714D01*
X179688095Y-96390476D01*
X179688095Y-96342857D01*
X179735714Y-96247619D01*
X179783333Y-96200000D01*
X179878571Y-96152381D01*
X180069048Y-96152381D01*
X180164286Y-96200000D01*
X180211905Y-96247619D01*
X180259524Y-96342857D01*
X180259524Y-96390476D01*
X180211905Y-96485714D01*
X180164286Y-96533333D01*
X180069048Y-96580952D01*
X179878571Y-96580952D01*
X179783333Y-96628571D01*
X179735714Y-96676190D01*
X179688095Y-96771429D01*
X179688095Y-96961905D01*
X179735714Y-97057143D01*
X179783333Y-97104762D01*
X179878571Y-97152381D01*
X180069048Y-97152381D01*
X180164286Y-97104762D01*
X180211905Y-97057143D01*
X180259524Y-96961905D01*
X180259524Y-96771429D01*
X180211905Y-96676190D01*
X180164286Y-96628571D01*
X180069048Y-96580952D01*
X134238095Y-96052381D02*
X134238095Y-96861905D01*
X134285714Y-96957143D01*
X134333333Y-97004762D01*
X134428571Y-97052381D01*
X134619048Y-97052381D01*
X134714286Y-97004762D01*
X134761905Y-96957143D01*
X134809524Y-96861905D01*
X134809524Y-96052381D01*
X135333333Y-97052381D02*
X135523809Y-97052381D01*
X135619048Y-97004762D01*
X135666667Y-96957143D01*
X135761905Y-96814286D01*
X135809524Y-96623810D01*
X135809524Y-96242857D01*
X135761905Y-96147619D01*
X135714286Y-96100000D01*
X135619048Y-96052381D01*
X135428571Y-96052381D01*
X135333333Y-96100000D01*
X135285714Y-96147619D01*
X135238095Y-96242857D01*
X135238095Y-96480952D01*
X135285714Y-96576190D01*
X135333333Y-96623810D01*
X135428571Y-96671429D01*
X135619048Y-96671429D01*
X135714286Y-96623810D01*
X135761905Y-96576190D01*
X135809524Y-96480952D01*
X137953905Y-107783381D02*
X137953905Y-108592905D01*
X138001524Y-108688143D01*
X138049143Y-108735762D01*
X138144381Y-108783381D01*
X138334858Y-108783381D01*
X138430096Y-108735762D01*
X138477715Y-108688143D01*
X138525334Y-108592905D01*
X138525334Y-107783381D01*
X139525334Y-108783381D02*
X138953905Y-108783381D01*
X139239619Y-108783381D02*
X139239619Y-107783381D01*
X139144381Y-107926238D01*
X139049143Y-108021476D01*
X138953905Y-108069095D01*
X140144381Y-107783381D02*
X140239620Y-107783381D01*
X140334858Y-107831000D01*
X140382477Y-107878619D01*
X140430096Y-107973857D01*
X140477715Y-108164333D01*
X140477715Y-108402429D01*
X140430096Y-108592905D01*
X140382477Y-108688143D01*
X140334858Y-108735762D01*
X140239620Y-108783381D01*
X140144381Y-108783381D01*
X140049143Y-108735762D01*
X140001524Y-108688143D01*
X139953905Y-108592905D01*
X139906286Y-108402429D01*
X139906286Y-108164333D01*
X139953905Y-107973857D01*
X140001524Y-107878619D01*
X140049143Y-107831000D01*
X140144381Y-107783381D01*
X138030105Y-116571781D02*
X138030105Y-117381305D01*
X138077724Y-117476543D01*
X138125343Y-117524162D01*
X138220581Y-117571781D01*
X138411058Y-117571781D01*
X138506296Y-117524162D01*
X138553915Y-117476543D01*
X138601534Y-117381305D01*
X138601534Y-116571781D01*
X139601534Y-117571781D02*
X139030105Y-117571781D01*
X139315819Y-117571781D02*
X139315819Y-116571781D01*
X139220581Y-116714638D01*
X139125343Y-116809876D01*
X139030105Y-116857495D01*
X140553915Y-117571781D02*
X139982486Y-117571781D01*
X140268200Y-117571781D02*
X140268200Y-116571781D01*
X140172962Y-116714638D01*
X140077724Y-116809876D01*
X139982486Y-116857495D01*
X117761905Y-116600381D02*
X117761905Y-117409905D01*
X117809524Y-117505143D01*
X117857143Y-117552762D01*
X117952381Y-117600381D01*
X118142858Y-117600381D01*
X118238096Y-117552762D01*
X118285715Y-117505143D01*
X118333334Y-117409905D01*
X118333334Y-116600381D01*
X119333334Y-117600381D02*
X118761905Y-117600381D01*
X119047619Y-117600381D02*
X119047619Y-116600381D01*
X118952381Y-116743238D01*
X118857143Y-116838476D01*
X118761905Y-116886095D01*
X119714286Y-116695619D02*
X119761905Y-116648000D01*
X119857143Y-116600381D01*
X120095239Y-116600381D01*
X120190477Y-116648000D01*
X120238096Y-116695619D01*
X120285715Y-116790857D01*
X120285715Y-116886095D01*
X120238096Y-117028952D01*
X119666667Y-117600381D01*
X120285715Y-117600381D01*
X117710905Y-107706381D02*
X117710905Y-108515905D01*
X117758524Y-108611143D01*
X117806143Y-108658762D01*
X117901381Y-108706381D01*
X118091858Y-108706381D01*
X118187096Y-108658762D01*
X118234715Y-108611143D01*
X118282334Y-108515905D01*
X118282334Y-107706381D01*
X119282334Y-108706381D02*
X118710905Y-108706381D01*
X118996619Y-108706381D02*
X118996619Y-107706381D01*
X118901381Y-107849238D01*
X118806143Y-107944476D01*
X118710905Y-107992095D01*
X119615667Y-107706381D02*
X120234715Y-107706381D01*
X119901381Y-108087333D01*
X120044239Y-108087333D01*
X120139477Y-108134952D01*
X120187096Y-108182571D01*
X120234715Y-108277810D01*
X120234715Y-108515905D01*
X120187096Y-108611143D01*
X120139477Y-108658762D01*
X120044239Y-108706381D01*
X119758524Y-108706381D01*
X119663286Y-108658762D01*
X119615667Y-108611143D01*
X147367667Y-78192381D02*
X147367667Y-78906667D01*
X147320047Y-79049524D01*
X147224809Y-79144762D01*
X147081952Y-79192381D01*
X146986714Y-79192381D01*
X148320048Y-78192381D02*
X147843857Y-78192381D01*
X147796238Y-78668571D01*
X147843857Y-78620952D01*
X147939095Y-78573333D01*
X148177191Y-78573333D01*
X148272429Y-78620952D01*
X148320048Y-78668571D01*
X148367667Y-78763810D01*
X148367667Y-79001905D01*
X148320048Y-79097143D01*
X148272429Y-79144762D01*
X148177191Y-79192381D01*
X147939095Y-79192381D01*
X147843857Y-79144762D01*
X147796238Y-79097143D01*
D16*
X187582629Y-80619600D02*
X189106629Y-79603600D01*
X187582629Y-79603600D02*
X189106629Y-80619600D01*
X188228514Y-113309400D02*
X188954229Y-113309400D01*
X187430229Y-113817400D02*
X188228514Y-113309400D01*
X187430229Y-112801400D01*
X186973029Y-100496914D02*
X186973029Y-99626057D01*
X188497029Y-100061486D02*
X186973029Y-100061486D01*
X188497029Y-99118057D02*
X187481029Y-99118057D01*
X187771314Y-99118057D02*
X187626171Y-99045485D01*
X187553600Y-98972914D01*
X187481029Y-98827771D01*
X187481029Y-98682628D01*
X188497029Y-98174628D02*
X187481029Y-98174628D01*
X186973029Y-98174628D02*
X187045600Y-98247199D01*
X187118171Y-98174628D01*
X187045600Y-98102056D01*
X186973029Y-98174628D01*
X187118171Y-98174628D01*
X187481029Y-96795771D02*
X188714743Y-96795771D01*
X188859886Y-96868342D01*
X188932457Y-96940914D01*
X189005029Y-97086057D01*
X189005029Y-97303771D01*
X188932457Y-97448914D01*
X188424457Y-96795771D02*
X188497029Y-96940914D01*
X188497029Y-97231200D01*
X188424457Y-97376342D01*
X188351886Y-97448914D01*
X188206743Y-97521485D01*
X187771314Y-97521485D01*
X187626171Y-97448914D01*
X187553600Y-97376342D01*
X187481029Y-97231200D01*
X187481029Y-96940914D01*
X187553600Y-96795771D01*
X187481029Y-95416914D02*
X188714743Y-95416914D01*
X188859886Y-95489485D01*
X188932457Y-95562057D01*
X189005029Y-95707200D01*
X189005029Y-95924914D01*
X188932457Y-96070057D01*
X188424457Y-95416914D02*
X188497029Y-95562057D01*
X188497029Y-95852343D01*
X188424457Y-95997485D01*
X188351886Y-96070057D01*
X188206743Y-96142628D01*
X187771314Y-96142628D01*
X187626171Y-96070057D01*
X187553600Y-95997485D01*
X187481029Y-95852343D01*
X187481029Y-95562057D01*
X187553600Y-95416914D01*
X188424457Y-94110628D02*
X188497029Y-94255771D01*
X188497029Y-94546057D01*
X188424457Y-94691200D01*
X188279314Y-94763771D01*
X187698743Y-94763771D01*
X187553600Y-94691200D01*
X187481029Y-94546057D01*
X187481029Y-94255771D01*
X187553600Y-94110628D01*
X187698743Y-94038057D01*
X187843886Y-94038057D01*
X187989029Y-94763771D01*
X188497029Y-93384914D02*
X187481029Y-93384914D01*
X187771314Y-93384914D02*
X187626171Y-93312342D01*
X187553600Y-93239771D01*
X187481029Y-93094628D01*
X187481029Y-92949485D01*
M02*
